G04 Layer_Physical_Order=1*
G04 Layer_Color=255*
%FSLAX24Y24*%
%MOIN*%
G70*
G01*
G75*
%ADD10R,0.0354X0.0984*%
%ADD11R,0.0236X0.0197*%
%ADD12R,0.0354X0.0630*%
%ADD13R,0.0433X0.0236*%
%ADD14R,0.0118X0.0118*%
%ADD15R,0.0984X0.0354*%
%ADD16R,0.0630X0.0354*%
%ADD17R,0.0118X0.0118*%
%ADD18R,0.0512X0.0354*%
%ADD19R,0.0197X0.0827*%
%ADD20O,0.0591X0.0315*%
%ADD21O,0.0315X0.0591*%
%ADD22R,0.1024X0.0866*%
%ADD23O,0.0118X0.0709*%
%ADD24O,0.0709X0.0118*%
%ADD25R,0.0354X0.0512*%
%ADD26C,0.0079*%
%ADD27C,0.0197*%
%ADD28C,0.0106*%
%ADD29C,0.0177*%
%ADD30C,0.0591*%
%ADD31R,0.0591X0.0591*%
%ADD32C,0.0472*%
%ADD33O,0.0650X0.1575*%
%ADD34C,0.0500*%
G36*
X44633Y49724D02*
Y49090D01*
X44583Y49069D01*
X43921Y49731D01*
X43888Y49753D01*
X43850Y49760D01*
X40741D01*
X40718Y49816D01*
X40669Y49880D01*
X40604Y49930D01*
X40529Y49961D01*
X40448Y49972D01*
X40368Y49961D01*
X40292Y49930D01*
X40240Y49890D01*
X40190Y49908D01*
Y50727D01*
X40246Y50750D01*
X40310Y50800D01*
X40360Y50864D01*
X40391Y50939D01*
X40402Y51020D01*
X40391Y51101D01*
X40360Y51176D01*
X40310Y51240D01*
X40246Y51290D01*
X40171Y51321D01*
X40090Y51332D01*
X40009Y51321D01*
X39934Y51290D01*
X39870Y51240D01*
X39820Y51176D01*
X39789Y51101D01*
X39778Y51020D01*
X39789Y50939D01*
X39820Y50864D01*
X39870Y50800D01*
X39934Y50750D01*
X39990Y50727D01*
Y49440D01*
X39997Y49402D01*
X40019Y49369D01*
X40179Y49209D01*
X40212Y49187D01*
X40202Y49138D01*
X39702D01*
X37669Y51171D01*
X37636Y51193D01*
X37598Y51200D01*
X36443D01*
X36420Y51256D01*
X36370Y51320D01*
X36306Y51370D01*
X36231Y51401D01*
X36150Y51412D01*
X36069Y51401D01*
X35994Y51370D01*
X35930Y51320D01*
X35880Y51256D01*
X35849Y51181D01*
X35838Y51100D01*
X35849Y51019D01*
X35880Y50944D01*
X35930Y50880D01*
X35994Y50830D01*
X36069Y50799D01*
X36150Y50788D01*
X36231Y50799D01*
X36306Y50830D01*
X36370Y50880D01*
X36420Y50944D01*
X36443Y51000D01*
X37556D01*
X39509Y49047D01*
X39490Y49000D01*
X38552D01*
X37961Y49591D01*
X37928Y49613D01*
X37890Y49620D01*
X33040D01*
X33002Y49613D01*
X32969Y49591D01*
X32529Y49151D01*
X32483Y49170D01*
Y52330D01*
X44633D01*
Y49724D01*
D02*
G37*
G36*
X44454Y48914D02*
Y48564D01*
X44407Y48544D01*
X43771Y49181D01*
X43738Y49203D01*
X43700Y49210D01*
X42054D01*
X41914Y49351D01*
X41881Y49373D01*
X41843Y49380D01*
X40674D01*
X40657Y49430D01*
X40669Y49440D01*
X40718Y49504D01*
X40741Y49560D01*
X43808D01*
X44454Y48914D01*
D02*
G37*
G36*
X33825Y48614D02*
Y48133D01*
X33219Y47527D01*
X33173Y47546D01*
Y48318D01*
X33387Y48532D01*
X33442Y48509D01*
X33523Y48498D01*
X33604Y48509D01*
X33679Y48540D01*
X33743Y48590D01*
X33775Y48631D01*
X33825Y48614D01*
D02*
G37*
G36*
X35310Y48454D02*
X35351Y48459D01*
X35437Y48494D01*
X35468Y48519D01*
X35494Y48512D01*
X35535Y48458D01*
X35589Y48417D01*
X35601Y48412D01*
X35607Y48355D01*
X35562Y48325D01*
X35515Y48254D01*
X35498Y48169D01*
X35515Y48085D01*
X35562Y48013D01*
X35634Y47965D01*
X35668Y47959D01*
Y47908D01*
X35634Y47901D01*
X35562Y47853D01*
X35525Y47797D01*
X35517D01*
X35478Y47790D01*
X35446Y47768D01*
X34588Y46910D01*
X34001D01*
X33976Y46930D01*
X33901Y46961D01*
X33820Y46972D01*
X33739Y46961D01*
X33664Y46930D01*
X33618Y46895D01*
X33568Y46918D01*
Y47001D01*
X34019Y47452D01*
X34064Y47430D01*
X34062Y47415D01*
X34074Y47323D01*
X34110Y47237D01*
X34167Y47163D01*
X34241Y47106D01*
X34327Y47070D01*
X34419Y47058D01*
X34512Y47070D01*
X34598Y47106D01*
X34672Y47163D01*
X34729Y47237D01*
X34765Y47323D01*
X34777Y47415D01*
X34765Y47508D01*
X34729Y47594D01*
X34672Y47668D01*
X34598Y47725D01*
X34512Y47761D01*
X34419Y47773D01*
X34405Y47771D01*
X34383Y47816D01*
X34533Y47966D01*
X34533Y47966D01*
X34568Y48018D01*
X34576Y48061D01*
X34774D01*
Y48710D01*
X34919D01*
X34919Y48709D01*
X34954Y48623D01*
X35010Y48550D01*
X35083Y48494D01*
X35169Y48459D01*
X35210Y48454D01*
Y48800D01*
X35310D01*
Y48454D01*
D02*
G37*
G36*
X36700Y48808D02*
Y48430D01*
X36650Y48406D01*
X36606Y48439D01*
X36531Y48470D01*
X36450Y48481D01*
X36369Y48470D01*
X36294Y48439D01*
X36230Y48390D01*
X36196Y48346D01*
X36161Y48330D01*
X36131Y48338D01*
X36106Y48355D01*
X36111Y48412D01*
X36124Y48417D01*
X36178Y48458D01*
X36219Y48512D01*
X36245Y48575D01*
X36247Y48592D01*
X35856D01*
Y48642D01*
X35806D01*
Y48901D01*
X35719D01*
X35651Y48893D01*
X35621Y48880D01*
X35601Y48891D01*
X35566Y48977D01*
X35533Y49020D01*
X35557Y49070D01*
X36438D01*
X36700Y48808D01*
D02*
G37*
G36*
X36196Y47992D02*
X36230Y47949D01*
X36294Y47899D01*
X36369Y47868D01*
X36450Y47858D01*
X36531Y47868D01*
X36606Y47899D01*
X36650Y47933D01*
X36700Y47908D01*
Y47586D01*
X36438Y47325D01*
X36187D01*
X36150Y47381D01*
X36079Y47428D01*
X36045Y47435D01*
Y47486D01*
X36079Y47493D01*
X36150Y47541D01*
X36198Y47612D01*
X36215Y47697D01*
X36198Y47781D01*
X36150Y47853D01*
X36079Y47901D01*
X36045Y47908D01*
Y47959D01*
X36079Y47965D01*
X36131Y48001D01*
X36161Y48008D01*
X36196Y47992D01*
D02*
G37*
G36*
X35560Y47544D02*
X35562Y47541D01*
X35634Y47493D01*
X35668Y47486D01*
Y47435D01*
X35634Y47428D01*
X35562Y47381D01*
X35515Y47309D01*
X35498Y47224D01*
X35515Y47140D01*
X35562Y47068D01*
X35634Y47020D01*
X35668Y47014D01*
Y46963D01*
X35634Y46956D01*
X35579Y46919D01*
X35551Y46913D01*
X35515Y46927D01*
X35480Y46972D01*
X35416Y47022D01*
X35341Y47053D01*
X35260Y47064D01*
X35179Y47053D01*
X35104Y47022D01*
X35040Y46972D01*
X34990Y46908D01*
X34959Y46833D01*
X34948Y46752D01*
X34959Y46671D01*
X34990Y46596D01*
X35040Y46532D01*
X35104Y46482D01*
X35179Y46451D01*
X35260Y46440D01*
X35341Y46451D01*
X35416Y46482D01*
X35480Y46532D01*
X35515Y46577D01*
X35551Y46591D01*
X35579Y46585D01*
X35634Y46548D01*
X35668Y46541D01*
Y46490D01*
X35634Y46483D01*
X35562Y46436D01*
X35515Y46364D01*
X35498Y46280D01*
X35515Y46195D01*
X35562Y46123D01*
X35634Y46076D01*
X35668Y46069D01*
Y46018D01*
X35634Y46011D01*
X35562Y45963D01*
X35515Y45892D01*
X35498Y45807D01*
X35515Y45723D01*
X35562Y45651D01*
X35634Y45603D01*
X35668Y45596D01*
Y45545D01*
X35634Y45539D01*
X35562Y45491D01*
X35515Y45419D01*
X35498Y45335D01*
X35515Y45250D01*
X35562Y45179D01*
X35634Y45131D01*
X35668Y45124D01*
Y45073D01*
X35634Y45066D01*
X35562Y45018D01*
X35515Y44947D01*
X35498Y44862D01*
X35515Y44778D01*
X35562Y44706D01*
X35634Y44658D01*
X35668Y44651D01*
Y44600D01*
X35634Y44594D01*
X35562Y44546D01*
X35515Y44474D01*
X35498Y44390D01*
X35515Y44305D01*
X35562Y44234D01*
X35634Y44186D01*
X35668Y44179D01*
Y44128D01*
X35634Y44121D01*
X35569Y44078D01*
X34644D01*
X34627Y44128D01*
X34672Y44163D01*
X34729Y44237D01*
X34765Y44323D01*
X34777Y44415D01*
X34765Y44508D01*
X34729Y44594D01*
X34672Y44668D01*
X34598Y44725D01*
X34512Y44761D01*
X34419Y44773D01*
X34327Y44761D01*
X34241Y44725D01*
X34167Y44668D01*
X34110Y44594D01*
X34074Y44508D01*
X34062Y44415D01*
X34071Y44347D01*
X34024Y44324D01*
X33568Y44779D01*
Y46402D01*
X33618Y46425D01*
X33664Y46390D01*
X33739Y46359D01*
X33820Y46348D01*
X33901Y46359D01*
X33976Y46390D01*
X34013Y46419D01*
X34020Y46418D01*
X34065Y46395D01*
X34074Y46323D01*
X34110Y46237D01*
X34167Y46163D01*
X34241Y46106D01*
X34327Y46070D01*
X34419Y46058D01*
X34512Y46070D01*
X34598Y46106D01*
X34672Y46163D01*
X34729Y46237D01*
X34765Y46323D01*
X34777Y46415D01*
X34765Y46508D01*
X34729Y46594D01*
X34672Y46668D01*
X34671Y46680D01*
X34680Y46725D01*
X34701Y46739D01*
X35511Y47549D01*
X35560Y47544D01*
D02*
G37*
G36*
X40799Y48013D02*
X40870Y47965D01*
X40904Y47959D01*
Y47908D01*
X40870Y47901D01*
X40799Y47853D01*
X40751Y47781D01*
X40734Y47697D01*
X40751Y47612D01*
X40799Y47541D01*
X40870Y47493D01*
X40904Y47486D01*
Y47435D01*
X40870Y47428D01*
X40799Y47381D01*
X40751Y47309D01*
X40734Y47224D01*
X40751Y47140D01*
X40799Y47068D01*
X40870Y47020D01*
X40904Y47014D01*
Y46963D01*
X40870Y46956D01*
X40799Y46908D01*
X40761Y46852D01*
X40641D01*
X40618Y46908D01*
X40568Y46972D01*
X40504Y47022D01*
X40429Y47053D01*
X40348Y47064D01*
X40267Y47053D01*
X40192Y47022D01*
X40140Y46982D01*
X40090Y47000D01*
Y47748D01*
X40412Y48069D01*
X40761D01*
X40799Y48013D01*
D02*
G37*
G36*
X38439Y48829D02*
X38472Y48807D01*
X38510Y48800D01*
X40740D01*
X40766Y48750D01*
X40751Y48726D01*
X40734Y48642D01*
X40751Y48557D01*
X40799Y48486D01*
X40870Y48438D01*
X40904Y48431D01*
Y48380D01*
X40870Y48373D01*
X40799Y48325D01*
X40761Y48270D01*
X40370D01*
X40332Y48262D01*
X40299Y48240D01*
X39919Y47860D01*
X39897Y47828D01*
X39890Y47789D01*
Y44302D01*
X38428Y42840D01*
X38378D01*
X38362Y42885D01*
X38362Y42890D01*
X39001Y43529D01*
X39023Y43562D01*
X39030Y43600D01*
Y44407D01*
X39086Y44430D01*
X39150Y44480D01*
X39200Y44544D01*
X39231Y44619D01*
X39242Y44700D01*
X39231Y44781D01*
X39216Y44816D01*
X39252Y44862D01*
X39280Y44858D01*
X39361Y44869D01*
X39436Y44900D01*
X39500Y44950D01*
X39550Y45014D01*
X39581Y45089D01*
X39592Y45170D01*
X39581Y45251D01*
X39550Y45326D01*
X39500Y45390D01*
X39436Y45440D01*
X39361Y45471D01*
X39280Y45482D01*
X39199Y45471D01*
X39124Y45440D01*
X39060Y45390D01*
X39010Y45326D01*
X38987Y45270D01*
X38796D01*
X38757Y45263D01*
X38725Y45241D01*
X38457Y44973D01*
X38436Y44941D01*
X38428Y44903D01*
Y44460D01*
X37839Y43871D01*
X37791Y43894D01*
X37794Y43917D01*
X37784Y43998D01*
X37753Y44073D01*
X37703Y44138D01*
X37639Y44187D01*
X37563Y44218D01*
X37483Y44229D01*
X37402Y44218D01*
X37327Y44187D01*
X37262Y44138D01*
X37216Y44078D01*
X36144D01*
X36079Y44121D01*
X36045Y44128D01*
Y44179D01*
X36079Y44186D01*
X36150Y44234D01*
X36198Y44305D01*
X36215Y44390D01*
X36198Y44474D01*
X36150Y44546D01*
X36079Y44594D01*
X36045Y44600D01*
Y44651D01*
X36079Y44658D01*
X36150Y44706D01*
X36198Y44778D01*
X36215Y44862D01*
X36198Y44947D01*
X36150Y45018D01*
X36079Y45066D01*
X36045Y45073D01*
Y45124D01*
X36079Y45131D01*
X36150Y45179D01*
X36198Y45250D01*
X36215Y45335D01*
X36198Y45419D01*
X36150Y45491D01*
X36079Y45539D01*
X36045Y45545D01*
Y45596D01*
X36079Y45603D01*
X36150Y45651D01*
X36198Y45723D01*
X36215Y45807D01*
X36198Y45892D01*
X36150Y45963D01*
X36079Y46011D01*
X36045Y46018D01*
Y46069D01*
X36079Y46076D01*
X36131Y46111D01*
X36161Y46119D01*
X36196Y46103D01*
X36230Y46060D01*
X36294Y46010D01*
X36369Y45979D01*
X36450Y45968D01*
X36531Y45979D01*
X36606Y46010D01*
X36670Y46060D01*
X36720Y46124D01*
X36751Y46199D01*
X36762Y46280D01*
X36751Y46361D01*
X36720Y46436D01*
X36670Y46500D01*
X36606Y46550D01*
X36531Y46581D01*
X36450Y46592D01*
X36369Y46581D01*
X36294Y46550D01*
X36230Y46500D01*
X36196Y46457D01*
X36161Y46441D01*
X36131Y46448D01*
X36079Y46483D01*
X36045Y46490D01*
Y46541D01*
X36079Y46548D01*
X36150Y46596D01*
X36198Y46667D01*
X36215Y46752D01*
X36198Y46836D01*
X36150Y46908D01*
X36079Y46956D01*
X36045Y46963D01*
Y47014D01*
X36079Y47020D01*
X36150Y47068D01*
X36187Y47124D01*
X36480D01*
X36518Y47132D01*
X36551Y47153D01*
X36871Y47473D01*
X36893Y47506D01*
X36900Y47544D01*
Y48850D01*
X36893Y48888D01*
X36871Y48921D01*
X36551Y49241D01*
X36518Y49263D01*
X36480Y49270D01*
X33280D01*
X33242Y49263D01*
X33209Y49241D01*
X32692Y48724D01*
X32679Y48725D01*
X32642Y48741D01*
Y48980D01*
X33082Y49420D01*
X37848D01*
X38439Y48829D01*
D02*
G37*
G36*
X33228Y48905D02*
X33222Y48891D01*
X33211Y48810D01*
X33222Y48729D01*
X33245Y48674D01*
X33002Y48431D01*
X32980Y48398D01*
X32972Y48360D01*
Y44534D01*
X32980Y44496D01*
X33002Y44463D01*
X33398Y44067D01*
Y44012D01*
X33348Y43988D01*
X33306Y44020D01*
X33231Y44051D01*
X33150Y44062D01*
X33069Y44051D01*
X32994Y44020D01*
X32930Y43970D01*
X32910Y43945D01*
X32860Y43962D01*
Y48608D01*
X33185Y48934D01*
X33228Y48905D01*
D02*
G37*
G36*
X37262Y43697D02*
X37327Y43647D01*
X37402Y43616D01*
X37483Y43606D01*
X37506Y43609D01*
X37529Y43561D01*
X37248Y43280D01*
X36250D01*
X36225Y43330D01*
X36245Y43378D01*
X36247Y43395D01*
X35856D01*
Y43495D01*
X36247D01*
X36245Y43512D01*
X36219Y43575D01*
X36178Y43629D01*
X36124Y43670D01*
X36111Y43675D01*
X36106Y43726D01*
X36145Y43757D01*
X37216D01*
X37262Y43697D01*
D02*
G37*
G36*
X38710Y44480D02*
X38774Y44430D01*
X38830Y44407D01*
Y43642D01*
X38248Y43060D01*
X37378D01*
X37362Y43105D01*
X37362Y43110D01*
X38599Y44347D01*
X38621Y44380D01*
X38629Y44418D01*
Y44503D01*
X38679Y44520D01*
X38710Y44480D01*
D02*
G37*
G36*
X34076Y43617D02*
X34074Y43615D01*
X34034Y43519D01*
X34027Y43465D01*
X34419D01*
Y43365D01*
X34027D01*
X34034Y43312D01*
X34074Y43216D01*
X34076Y43214D01*
X33842Y42980D01*
X33827Y42958D01*
X33786Y42957D01*
X33773Y42960D01*
X33750Y43016D01*
X33700Y43080D01*
X33636Y43130D01*
X33561Y43161D01*
X33480Y43172D01*
X33399Y43161D01*
X33324Y43130D01*
X33311Y43120D01*
X33278Y43157D01*
X33569Y43449D01*
X33591Y43482D01*
X33599Y43520D01*
Y44029D01*
X33645Y44048D01*
X34076Y43617D01*
D02*
G37*
G36*
X41378Y42434D02*
X41328Y42409D01*
X41286Y42441D01*
X41211Y42472D01*
X41130Y42483D01*
X41049Y42472D01*
X40974Y42441D01*
X40910Y42392D01*
X40860Y42327D01*
X40829Y42252D01*
X40818Y42171D01*
X40829Y42091D01*
X40860Y42015D01*
X40910Y41951D01*
X40974Y41901D01*
X41030Y41878D01*
Y41615D01*
X40739Y41324D01*
X40717Y41292D01*
X40710Y41253D01*
Y40426D01*
X40660Y40406D01*
X40341Y40724D01*
X40351Y40771D01*
X40351Y40771D01*
Y40944D01*
X40410Y40990D01*
X40460Y41054D01*
X40491Y41129D01*
X40502Y41210D01*
X40491Y41291D01*
X40460Y41366D01*
X40410Y41430D01*
X40364Y41466D01*
X40389Y41510D01*
X40419Y41497D01*
X40500Y41487D01*
X40581Y41497D01*
X40656Y41528D01*
X40720Y41578D01*
X40770Y41643D01*
X40801Y41718D01*
X40812Y41798D01*
X40801Y41879D01*
X40770Y41954D01*
X40720Y42019D01*
X40656Y42068D01*
X40581Y42100D01*
X40500Y42110D01*
X40419Y42100D01*
X40344Y42068D01*
X40331Y42058D01*
X40294Y42093D01*
X40312Y42120D01*
X40329Y42205D01*
Y42480D01*
X40312Y42565D01*
X40264Y42636D01*
X40193Y42684D01*
X40108Y42701D01*
X40024Y42684D01*
X39952Y42636D01*
X39920Y42635D01*
X39898Y42664D01*
X39897Y42681D01*
X40065Y42848D01*
X41378D01*
Y42434D01*
D02*
G37*
G36*
X40230Y41643D02*
X40280Y41578D01*
X40326Y41542D01*
X40301Y41499D01*
X40271Y41511D01*
X40190Y41522D01*
X40109Y41511D01*
X40034Y41480D01*
X39970Y41430D01*
X39920Y41366D01*
X39889Y41291D01*
X39878Y41210D01*
X39889Y41129D01*
X39895Y41114D01*
X39867Y41073D01*
X38999D01*
X38977Y41118D01*
X38990Y41134D01*
X39021Y41209D01*
X39032Y41290D01*
X39021Y41371D01*
X38990Y41446D01*
X38940Y41510D01*
X38876Y41560D01*
X38801Y41591D01*
X38720Y41602D01*
X38639Y41591D01*
X38564Y41560D01*
X38524Y41529D01*
X38470Y41550D01*
X38467Y41573D01*
X38592Y41698D01*
X40207D01*
X40230Y41643D01*
D02*
G37*
G36*
X33324Y42590D02*
X33399Y42559D01*
X33480Y42548D01*
X33480Y42548D01*
X33518Y42515D01*
Y41232D01*
X33468Y41208D01*
X33426Y41240D01*
X33351Y41271D01*
X33270Y41282D01*
X33248Y41279D01*
X33210Y41312D01*
Y42626D01*
X33241Y42637D01*
X33260Y42639D01*
X33324Y42590D01*
D02*
G37*
G36*
X35234Y42490D02*
X35188Y42455D01*
X35138Y42390D01*
X35107Y42315D01*
X35097Y42234D01*
X35107Y42154D01*
X35138Y42079D01*
X35188Y42014D01*
X35248Y41968D01*
Y40960D01*
X35248Y40960D01*
X35260Y40899D01*
X35268Y40887D01*
X35249Y40841D01*
X35238Y40760D01*
X35249Y40679D01*
X35280Y40604D01*
X35314Y40560D01*
X35289Y40510D01*
X34971D01*
X34937Y40560D01*
X34941Y40569D01*
X34952Y40650D01*
X34941Y40731D01*
X34910Y40806D01*
X34860Y40870D01*
X34796Y40920D01*
X34721Y40951D01*
X34640Y40962D01*
X34559Y40951D01*
X34484Y40920D01*
X34420Y40870D01*
X34370Y40806D01*
X34363Y40789D01*
X34313Y40799D01*
Y42151D01*
X34702Y42540D01*
X35217D01*
X35234Y42490D01*
D02*
G37*
G36*
X38399Y41790D02*
X38281Y41671D01*
X38259Y41638D01*
X38251Y41600D01*
Y40663D01*
X37718Y40130D01*
X37620D01*
Y40216D01*
X37461D01*
Y40266D01*
X37411D01*
Y40458D01*
X37410Y40458D01*
Y40797D01*
X37589D01*
Y40815D01*
X37625D01*
X37664Y40823D01*
X37696Y40844D01*
X37901Y41049D01*
X37923Y41082D01*
X37930Y41120D01*
Y41217D01*
X37986Y41240D01*
X38050Y41290D01*
X38100Y41354D01*
X38131Y41429D01*
X38142Y41510D01*
X38131Y41591D01*
X38100Y41666D01*
X38050Y41730D01*
X37986Y41780D01*
X37972Y41786D01*
X37982Y41836D01*
X38380D01*
X38399Y41790D01*
D02*
G37*
G36*
X38564Y41020D02*
X38620Y40997D01*
Y39562D01*
X38376Y39318D01*
X38321Y39341D01*
X38240Y39352D01*
X38159Y39341D01*
X38084Y39310D01*
X38020Y39260D01*
X37970Y39196D01*
X37939Y39121D01*
X37928Y39040D01*
X37939Y38959D01*
X37970Y38884D01*
X38004Y38840D01*
X37979Y38790D01*
X37200D01*
X37162Y38783D01*
X37129Y38761D01*
X36916Y38548D01*
X36861Y38571D01*
X36780Y38582D01*
X36699Y38571D01*
X36624Y38540D01*
X36560Y38490D01*
X36510Y38426D01*
X36498Y38398D01*
X36448Y38408D01*
Y38545D01*
X36272D01*
Y39774D01*
X36266Y39802D01*
X36286Y39837D01*
X36298Y39851D01*
X36377D01*
Y40010D01*
X36477D01*
Y39851D01*
X36586D01*
Y39909D01*
X37104D01*
X37143Y39917D01*
X37175Y39939D01*
X37296Y40060D01*
X37343Y40041D01*
Y39911D01*
X37579D01*
Y39929D01*
X37760D01*
X37798Y39937D01*
X37831Y39959D01*
X38423Y40550D01*
X38444Y40583D01*
X38452Y40621D01*
Y41054D01*
X38485Y41065D01*
X38502Y41068D01*
X38564Y41020D01*
D02*
G37*
G36*
X40417Y40194D02*
Y39619D01*
X40192Y39394D01*
X40157Y39342D01*
X40145Y39280D01*
X40145Y39280D01*
Y39089D01*
X40085Y39043D01*
X40035Y38979D01*
X40004Y38904D01*
X39993Y38823D01*
X40004Y38742D01*
X40035Y38667D01*
X40085Y38602D01*
X40145Y38556D01*
Y38307D01*
X40069D01*
Y38285D01*
X40023Y38265D01*
X39725Y38564D01*
X39672Y38598D01*
X39627Y38607D01*
X39608Y38647D01*
X39607Y38661D01*
X39640Y38704D01*
X39671Y38779D01*
X39682Y38860D01*
X39671Y38941D01*
X39640Y39016D01*
X39590Y39080D01*
X39530Y39127D01*
X39520Y39140D01*
X39512Y39181D01*
X39874Y39542D01*
X39929Y39519D01*
X40010Y39508D01*
X40091Y39519D01*
X40166Y39550D01*
X40230Y39600D01*
X40280Y39664D01*
X40311Y39739D01*
X40322Y39820D01*
X40311Y39901D01*
X40280Y39976D01*
X40230Y40040D01*
X40166Y40090D01*
X40091Y40121D01*
X40030Y40129D01*
Y40426D01*
X40061Y40432D01*
X40114Y40467D01*
X40129Y40482D01*
X40417Y40194D01*
D02*
G37*
G36*
X33812Y42724D02*
Y40380D01*
X33820Y40341D01*
X33842Y40309D01*
X34013Y40137D01*
Y39805D01*
X33857D01*
Y39628D01*
X33814D01*
X33775Y39620D01*
X33743Y39599D01*
X33618Y39474D01*
X33572Y39493D01*
Y40571D01*
X33689Y40689D01*
X33711Y40722D01*
X33719Y40760D01*
Y42664D01*
X33750Y42704D01*
X33762Y42734D01*
X33812Y42724D01*
D02*
G37*
G36*
X38888Y40935D02*
Y40089D01*
X39775D01*
X39785Y40056D01*
X39788Y40039D01*
X39740Y39976D01*
X39709Y39901D01*
X39698Y39820D01*
X39709Y39739D01*
X39732Y39684D01*
X39299Y39251D01*
X39277Y39218D01*
X39270Y39180D01*
Y39153D01*
X39214Y39130D01*
X39150Y39080D01*
X39100Y39016D01*
X39095Y39004D01*
X39045D01*
X39040Y39016D01*
X38990Y39080D01*
X38926Y39130D01*
X38851Y39161D01*
X38770Y39172D01*
X38689Y39161D01*
X38614Y39130D01*
X38593Y39113D01*
X38572Y39116D01*
X38536Y39133D01*
X38518Y39176D01*
X38791Y39449D01*
X38813Y39482D01*
X38820Y39520D01*
Y40956D01*
X38838Y40965D01*
X38888Y40935D01*
D02*
G37*
G36*
X35776Y40060D02*
X35935D01*
Y40010D01*
X35985D01*
Y39818D01*
X36071Y39732D01*
Y38545D01*
X35894D01*
Y38382D01*
X35849Y38360D01*
X35836Y38370D01*
X35780Y38393D01*
Y39340D01*
X35773Y39378D01*
X35751Y39411D01*
X35478Y39684D01*
X35501Y39739D01*
X35512Y39820D01*
X35501Y39901D01*
X35470Y39976D01*
X35420Y40040D01*
X35356Y40090D01*
X35342Y40096D01*
X35352Y40146D01*
X35776D01*
Y40060D01*
D02*
G37*
G36*
X37156Y38438D02*
Y37756D01*
X37156D01*
X37173Y37713D01*
X36848Y37388D01*
X36823Y37351D01*
X36820Y37333D01*
X36811D01*
Y37127D01*
X36761Y37100D01*
X36761Y37101D01*
X36722Y37108D01*
X36654D01*
Y37126D01*
X36458D01*
Y37167D01*
X36400D01*
Y37500D01*
X36392Y37538D01*
X36370Y37571D01*
X36276Y37665D01*
X36283Y37715D01*
X36448D01*
Y38132D01*
X36498Y38142D01*
X36510Y38114D01*
X36560Y38050D01*
X36624Y38000D01*
X36699Y37969D01*
X36780Y37958D01*
X36861Y37969D01*
X36936Y38000D01*
X37000Y38050D01*
X37050Y38114D01*
X37081Y38189D01*
X37092Y38270D01*
X37081Y38351D01*
X37058Y38406D01*
X37109Y38457D01*
X37156Y38438D01*
D02*
G37*
G36*
X40069Y37765D02*
Y37211D01*
X39929Y37071D01*
X39907Y37038D01*
X39900Y37000D01*
Y36561D01*
X39850Y36534D01*
X39842Y36540D01*
X39803Y36547D01*
X39765Y36540D01*
X39732Y36518D01*
X39677D01*
X39645Y36540D01*
X39606Y36547D01*
X39568Y36540D01*
X39535Y36518D01*
X39480D01*
X39448Y36540D01*
X39409Y36547D01*
X39371Y36540D01*
X39338Y36518D01*
X39284D01*
X39251Y36540D01*
X39213Y36547D01*
X39174Y36540D01*
X39142Y36518D01*
X39087D01*
X39054Y36540D01*
X39016Y36547D01*
X38977Y36540D01*
X38945Y36518D01*
X38890D01*
X38857Y36540D01*
X38836Y36544D01*
X38817Y36591D01*
X38817Y36595D01*
X39156Y36934D01*
X39177Y36966D01*
X39185Y37005D01*
Y37164D01*
X39362D01*
Y37706D01*
X38807D01*
Y37164D01*
X38984D01*
Y37046D01*
X38678Y36740D01*
X38141D01*
X38116Y36790D01*
X38150Y36834D01*
X38181Y36909D01*
X38192Y36990D01*
X38181Y37071D01*
X38150Y37146D01*
X38100Y37210D01*
X38036Y37260D01*
X37961Y37291D01*
X37880Y37302D01*
X37799Y37291D01*
X37724Y37260D01*
X37660Y37210D01*
X37610Y37146D01*
X37579Y37071D01*
X37568Y36990D01*
X37574Y36949D01*
X37541Y36911D01*
X37318D01*
X37274Y36929D01*
X37260Y36979D01*
X37266Y37010D01*
Y37096D01*
X37283D01*
Y37333D01*
X37182D01*
X37162Y37379D01*
X37393Y37610D01*
X37453Y37622D01*
X37505Y37656D01*
X37540Y37709D01*
X37550Y37756D01*
X37628D01*
Y38139D01*
X37778Y38289D01*
X38807D01*
Y37806D01*
X39362D01*
Y38289D01*
X39545D01*
X40069Y37765D01*
D02*
G37*
G36*
X41680Y39448D02*
Y39132D01*
X41359Y38811D01*
X41337Y38778D01*
X41330Y38740D01*
Y37539D01*
X41280Y37536D01*
X41271Y37601D01*
X41240Y37676D01*
X41210Y37714D01*
Y38963D01*
X41266Y38986D01*
X41330Y39035D01*
X41380Y39100D01*
X41411Y39175D01*
X41422Y39256D01*
X41411Y39337D01*
X41380Y39412D01*
X41343Y39460D01*
X41365Y39510D01*
X41618D01*
X41680Y39448D01*
D02*
G37*
G36*
X40613Y39347D02*
X40647Y39325D01*
X40638Y39256D01*
X40649Y39175D01*
X40680Y39100D01*
X40730Y39035D01*
X40794Y38986D01*
X40850Y38963D01*
Y37805D01*
X40814Y37790D01*
X40750Y37740D01*
X40700Y37676D01*
X40669Y37601D01*
X40658Y37520D01*
X40669Y37439D01*
X40700Y37364D01*
X40710Y37352D01*
X40618Y37260D01*
X40541D01*
Y38307D01*
X40466D01*
Y38556D01*
X40526Y38602D01*
X40575Y38667D01*
X40606Y38742D01*
X40617Y38823D01*
X40606Y38904D01*
X40575Y38979D01*
X40526Y39043D01*
X40466Y39089D01*
Y39214D01*
X40603Y39351D01*
X40613Y39347D01*
D02*
G37*
G36*
X35058Y40096D02*
X35044Y40090D01*
X34980Y40040D01*
X34930Y39976D01*
X34899Y39901D01*
X34888Y39820D01*
X34899Y39739D01*
X34930Y39664D01*
X34980Y39600D01*
X35038Y39555D01*
X35044Y39526D01*
X35043Y39496D01*
X35010Y39470D01*
X34960Y39406D01*
X34929Y39331D01*
X34918Y39250D01*
X34929Y39169D01*
X34960Y39094D01*
X35010Y39030D01*
X35074Y38980D01*
X35130Y38957D01*
Y37890D01*
X35137Y37852D01*
X35159Y37819D01*
X35652Y37326D01*
X35629Y37271D01*
X35618Y37190D01*
X35629Y37109D01*
X35660Y37034D01*
X35689Y36997D01*
X35651Y36964D01*
X35463Y37151D01*
X35480Y37193D01*
X35491Y37274D01*
X35480Y37354D01*
X35449Y37429D01*
X35400Y37494D01*
X35335Y37544D01*
X35260Y37575D01*
X35179Y37585D01*
X35099Y37575D01*
X35024Y37544D01*
X34959Y37494D01*
X34910Y37431D01*
X34906Y37430D01*
X34860Y37442D01*
Y38480D01*
X34853Y38518D01*
X34831Y38550D01*
X34531Y38850D01*
X34528Y38853D01*
Y39016D01*
X34018D01*
X33998Y39066D01*
X34082Y39150D01*
X34570D01*
X34608Y39157D01*
X34641Y39179D01*
X34663Y39212D01*
X34670Y39250D01*
Y39950D01*
X34663Y39988D01*
X34641Y40021D01*
X34566Y40096D01*
X34587Y40146D01*
X35048D01*
X35058Y40096D01*
D02*
G37*
G36*
X42059Y38719D02*
Y38340D01*
X42059Y38340D01*
X42072Y38279D01*
X42106Y38226D01*
X42697Y37636D01*
Y36781D01*
X42773D01*
Y36681D01*
X42505Y36414D01*
X42470Y36361D01*
X42458Y36300D01*
X42458Y36300D01*
Y36080D01*
X42411Y36060D01*
X42149Y36323D01*
X42112Y36348D01*
X42068Y36357D01*
X41600D01*
X41556Y36348D01*
X41519Y36323D01*
X41317Y36121D01*
X41292Y36084D01*
X41283Y36040D01*
Y35642D01*
X41102D01*
X41080Y35637D01*
X41039Y35662D01*
X41030Y35672D01*
Y36416D01*
X41389Y36775D01*
X41435Y36756D01*
Y36741D01*
X41663D01*
Y37333D01*
X41713D01*
Y37383D01*
X41990D01*
Y37925D01*
X41813D01*
Y38534D01*
X41989Y38711D01*
X42009Y38741D01*
X42013Y38741D01*
X42059Y38719D01*
D02*
G37*
G36*
X34910Y37117D02*
X34959Y37053D01*
X35024Y37004D01*
X35099Y36973D01*
X35179Y36962D01*
X35260Y36973D01*
X35302Y36990D01*
X35645Y36647D01*
X35626Y36600D01*
X34922D01*
X34860Y36662D01*
Y37106D01*
X34906Y37117D01*
X34910Y37117D01*
D02*
G37*
G36*
X43942Y36121D02*
X43947Y36072D01*
X43228Y35353D01*
X42971D01*
X42940Y35390D01*
Y35478D01*
X43564Y36102D01*
X43619Y36079D01*
X43700Y36068D01*
X43781Y36079D01*
X43856Y36110D01*
X43898Y36142D01*
X43942Y36121D01*
D02*
G37*
G36*
X33210Y39848D02*
Y36056D01*
X33160Y36039D01*
X33120Y36090D01*
X33056Y36140D01*
X32981Y36171D01*
X32900Y36182D01*
X32898Y36181D01*
X32860Y36214D01*
Y40132D01*
X32907Y40152D01*
X33210Y39848D01*
D02*
G37*
G36*
X39765Y35764D02*
X39803Y35756D01*
X39842Y35764D01*
X39874Y35785D01*
X39929D01*
X39950Y35771D01*
X39955Y35765D01*
X39964Y35730D01*
X39965Y35712D01*
X39930Y35666D01*
X39899Y35591D01*
X39888Y35510D01*
X39899Y35429D01*
X39930Y35354D01*
X39980Y35290D01*
X40044Y35240D01*
X40119Y35209D01*
X40200Y35198D01*
X40281Y35209D01*
X40301Y35217D01*
X40340Y35187D01*
X40338Y35170D01*
X40349Y35089D01*
X40380Y35014D01*
X40430Y34950D01*
X40494Y34900D01*
X40569Y34869D01*
X40650Y34858D01*
X40731Y34869D01*
X40786Y34892D01*
X40798Y34880D01*
X40831Y34858D01*
X40869Y34850D01*
X40988D01*
X41015Y34800D01*
X41010Y34792D01*
X41002Y34754D01*
X41010Y34716D01*
X41031Y34683D01*
Y34628D01*
X41010Y34595D01*
X41002Y34557D01*
X41010Y34519D01*
X41031Y34486D01*
Y34431D01*
X41010Y34399D01*
X41002Y34360D01*
X41010Y34322D01*
X41015Y34314D01*
X40988Y34264D01*
X40694D01*
X40205Y34753D01*
X40173Y34774D01*
X40134Y34782D01*
X39672D01*
X39647Y34832D01*
X39679Y34874D01*
X39711Y34949D01*
X39721Y35030D01*
X39711Y35111D01*
X39679Y35186D01*
X39630Y35250D01*
X39565Y35300D01*
X39510Y35323D01*
Y35742D01*
X39560Y35769D01*
X39568Y35764D01*
X39606Y35756D01*
X39645Y35764D01*
X39677Y35785D01*
X39732D01*
X39765Y35764D01*
D02*
G37*
G36*
X39174D02*
X39213Y35756D01*
X39251Y35764D01*
X39259Y35769D01*
X39309Y35742D01*
Y35323D01*
X39254Y35300D01*
X39189Y35250D01*
X39139Y35186D01*
X39108Y35111D01*
X39098Y35030D01*
X39108Y34949D01*
X39139Y34874D01*
X39172Y34832D01*
X39147Y34782D01*
X38720D01*
X38682Y34774D01*
X38649Y34753D01*
X38441Y34544D01*
X38419Y34512D01*
X38411Y34473D01*
Y34118D01*
X38419Y34080D01*
X38441Y34047D01*
X38472Y34016D01*
X38470Y34007D01*
X38415Y33968D01*
X38412Y33968D01*
X38412Y33968D01*
X38109D01*
X37734Y34343D01*
X37682Y34378D01*
X37622Y34390D01*
X36347Y35664D01*
X36354Y35728D01*
X36375Y35742D01*
X36385Y35757D01*
X36418Y35764D01*
X36457Y35756D01*
X36495Y35764D01*
X36528Y35785D01*
X36583D01*
X36615Y35764D01*
X36654Y35756D01*
X36692Y35764D01*
X36725Y35785D01*
X36779D01*
X36812Y35764D01*
X36850Y35756D01*
X36889Y35764D01*
X36921Y35785D01*
X36976D01*
X37009Y35764D01*
X37047Y35756D01*
X37086Y35764D01*
X37094Y35769D01*
X37144Y35742D01*
Y35206D01*
X37151Y35168D01*
X37173Y35135D01*
X37499Y34809D01*
X37532Y34787D01*
X37570Y34780D01*
X38090D01*
X38128Y34787D01*
X38161Y34809D01*
X38514Y35162D01*
X38569Y35139D01*
X38650Y35128D01*
X38731Y35139D01*
X38806Y35170D01*
X38870Y35220D01*
X38920Y35284D01*
X38951Y35359D01*
X38962Y35440D01*
X38951Y35521D01*
X38920Y35596D01*
X38870Y35660D01*
X38806Y35710D01*
X38815Y35741D01*
X38823Y35757D01*
X38857Y35764D01*
X38890Y35785D01*
X38945D01*
X38977Y35764D01*
X39016Y35756D01*
X39054Y35764D01*
X39087Y35785D01*
X39142D01*
X39174Y35764D01*
D02*
G37*
G36*
X38522Y35775D02*
X38507Y35715D01*
X38494Y35710D01*
X38430Y35660D01*
X38380Y35596D01*
X38349Y35521D01*
X38338Y35440D01*
X38349Y35359D01*
X38372Y35304D01*
X38048Y34980D01*
X37612D01*
X37481Y35110D01*
X37510Y35153D01*
X37519Y35149D01*
X37600Y35138D01*
X37681Y35149D01*
X37756Y35180D01*
X37820Y35230D01*
X37870Y35294D01*
X37893Y35350D01*
X37918D01*
X37957Y35357D01*
X37989Y35379D01*
X38299Y35689D01*
X38321Y35722D01*
X38326Y35745D01*
X38362Y35766D01*
X38379Y35769D01*
X38387Y35764D01*
X38425Y35756D01*
X38464Y35764D01*
X38496Y35785D01*
X38513D01*
X38522Y35775D01*
D02*
G37*
G36*
X34528Y38543D02*
Y38543D01*
X34571Y38526D01*
X34660Y38438D01*
Y36620D01*
X34661Y36611D01*
X34613Y36596D01*
X34253D01*
Y36319D01*
Y36042D01*
X34594D01*
X34623Y35970D01*
X34679Y35897D01*
X34752Y35841D01*
X34838Y35806D01*
X34879Y35800D01*
Y36147D01*
X34929D01*
Y36197D01*
X35275D01*
X35270Y36238D01*
X35235Y36323D01*
X35214Y36350D01*
X35239Y36400D01*
X35678D01*
X35810Y36268D01*
Y35674D01*
X35760Y35639D01*
X35748Y35642D01*
X35157D01*
X35119Y35634D01*
X35087Y35612D01*
X35065Y35580D01*
X35057Y35541D01*
X35065Y35503D01*
X35087Y35470D01*
Y35415D01*
X35065Y35383D01*
X35057Y35344D01*
X35065Y35306D01*
X35087Y35274D01*
Y35219D01*
X35065Y35186D01*
X35057Y35148D01*
X35065Y35109D01*
X35087Y35077D01*
Y35022D01*
X35065Y34989D01*
X35057Y34951D01*
X35065Y34912D01*
X35087Y34880D01*
Y34825D01*
X35065Y34792D01*
X35057Y34754D01*
X35064Y34721D01*
X35060Y34709D01*
X35034Y34671D01*
X35000D01*
X34956Y34663D01*
X34919Y34638D01*
X34894Y34601D01*
X34886Y34557D01*
Y33834D01*
X34842Y33810D01*
X34832Y33817D01*
X34822Y33820D01*
X34814Y33826D01*
X34802Y33829D01*
X34790Y33833D01*
X34780Y33833D01*
X34770Y33835D01*
X34626D01*
Y33957D01*
X34243D01*
X34170Y34030D01*
Y34242D01*
X34173D01*
Y34715D01*
X34079D01*
X33884Y34909D01*
Y36042D01*
X34153D01*
Y36319D01*
Y36596D01*
X33884D01*
Y37303D01*
X34577D01*
Y37776D01*
X33950D01*
Y38543D01*
X34528D01*
X34528Y38543D01*
D02*
G37*
G36*
X41942Y49039D02*
X41974Y49017D01*
X42013Y49010D01*
X43658D01*
X44316Y48352D01*
Y35356D01*
X44270Y35337D01*
X44263Y35343D01*
X44231Y35365D01*
X44192Y35373D01*
X43597D01*
X43578Y35419D01*
X44119Y35961D01*
X44141Y35993D01*
X44149Y36032D01*
Y47972D01*
X44141Y48010D01*
X44119Y48043D01*
X44008Y48154D01*
X44031Y48209D01*
X44042Y48290D01*
X44031Y48371D01*
X44000Y48446D01*
X43950Y48510D01*
X43886Y48560D01*
X43811Y48591D01*
X43730Y48602D01*
X43649Y48591D01*
X43574Y48560D01*
X43510Y48510D01*
X43460Y48446D01*
X43429Y48371D01*
X43418Y48290D01*
X43429Y48209D01*
X43460Y48134D01*
X43510Y48070D01*
X43574Y48020D01*
X43649Y47989D01*
X43730Y47978D01*
X43811Y47989D01*
X43866Y48012D01*
X43948Y47930D01*
Y36642D01*
X43898Y36618D01*
X43856Y36650D01*
X43781Y36681D01*
X43700Y36692D01*
X43619Y36681D01*
X43544Y36650D01*
X43480Y36600D01*
X43430Y36536D01*
X43399Y36461D01*
X43388Y36380D01*
X43399Y36299D01*
X43422Y36244D01*
X42841Y35663D01*
X42795Y35683D01*
Y35748D01*
X42779D01*
Y36233D01*
X43047Y36501D01*
X43047Y36501D01*
X43081Y36554D01*
X43094Y36615D01*
X43094Y36615D01*
Y36781D01*
X43169D01*
Y37884D01*
X42903D01*
X42459Y38328D01*
X42478Y38374D01*
X42686D01*
Y38652D01*
X42786D01*
Y38374D01*
X43151D01*
Y38557D01*
X43160Y38559D01*
X43193Y38581D01*
X43341Y38729D01*
X43363Y38762D01*
X43370Y38800D01*
Y39928D01*
X43451Y39939D01*
X43537Y39974D01*
X43610Y40030D01*
X43666Y40103D01*
X43701Y40189D01*
X43706Y40230D01*
X43014D01*
X43019Y40189D01*
X43035Y40150D01*
X43007Y40108D01*
X42362D01*
Y39725D01*
X42106Y39469D01*
X42072Y39417D01*
X42069Y39403D01*
X42019Y39408D01*
Y39680D01*
X42011Y39718D01*
X41989Y39751D01*
X41810Y39930D01*
X41778Y39952D01*
X41739Y39960D01*
X41619D01*
X41578Y40001D01*
X41597Y40048D01*
X42039D01*
Y40480D01*
X43018D01*
X43051Y40448D01*
X43019Y40371D01*
X43014Y40330D01*
X43310D01*
Y40626D01*
X43269Y40621D01*
X43192Y40589D01*
X43130Y40652D01*
X43098Y40673D01*
X43059Y40681D01*
X42039D01*
Y41114D01*
X41528D01*
Y41826D01*
X42901Y43199D01*
X42923Y43232D01*
X42930Y43270D01*
Y45973D01*
X43007Y46004D01*
X43080Y46060D01*
X43136Y46133D01*
X43171Y46219D01*
X43176Y46260D01*
X42484D01*
X42489Y46219D01*
X42524Y46133D01*
X42580Y46060D01*
X42653Y46004D01*
X42730Y45973D01*
Y43312D01*
X41625Y42207D01*
X41579Y42226D01*
Y42942D01*
X41571Y42981D01*
X41549Y43013D01*
X41543Y43019D01*
X41511Y43041D01*
X41472Y43049D01*
X40023D01*
X39985Y43041D01*
X39952Y43019D01*
X39666Y42734D01*
X39647Y42731D01*
X39585Y42705D01*
X39531Y42664D01*
X39490Y42610D01*
X39464Y42548D01*
X39463Y42540D01*
X39412Y42538D01*
X39407Y42565D01*
X39359Y42636D01*
X39287Y42684D01*
X39203Y42701D01*
X39118Y42684D01*
X39047Y42636D01*
X38999Y42565D01*
X38992Y42531D01*
X38941D01*
X38934Y42565D01*
X38886Y42636D01*
X38815Y42684D01*
X38730Y42701D01*
X38646Y42684D01*
X38589Y42646D01*
X38557Y42685D01*
X40061Y44189D01*
X40083Y44222D01*
X40090Y44260D01*
Y46504D01*
X40140Y46522D01*
X40192Y46482D01*
X40267Y46451D01*
X40348Y46440D01*
X40429Y46451D01*
X40504Y46482D01*
X40568Y46532D01*
X40618Y46596D01*
X40641Y46652D01*
X40761D01*
X40799Y46596D01*
X40870Y46548D01*
X40904Y46541D01*
Y46490D01*
X40870Y46483D01*
X40799Y46436D01*
X40751Y46364D01*
X40734Y46280D01*
X40751Y46195D01*
X40799Y46123D01*
X40870Y46076D01*
X40904Y46069D01*
Y46018D01*
X40870Y46011D01*
X40799Y45963D01*
X40751Y45892D01*
X40734Y45807D01*
X40751Y45723D01*
X40799Y45651D01*
X40870Y45603D01*
X40904Y45596D01*
Y45545D01*
X40870Y45539D01*
X40799Y45491D01*
X40751Y45419D01*
X40734Y45335D01*
X40751Y45250D01*
X40799Y45179D01*
X40870Y45131D01*
X40904Y45124D01*
Y45073D01*
X40870Y45066D01*
X40817Y45030D01*
X40788Y45023D01*
X40752Y45039D01*
X40718Y45083D01*
X40654Y45132D01*
X40578Y45163D01*
X40498Y45174D01*
X40417Y45163D01*
X40342Y45132D01*
X40277Y45083D01*
X40228Y45018D01*
X40197Y44943D01*
X40186Y44862D01*
X40197Y44782D01*
X40228Y44706D01*
X40277Y44642D01*
X40342Y44592D01*
X40417Y44561D01*
X40498Y44550D01*
X40578Y44561D01*
X40654Y44592D01*
X40718Y44642D01*
X40752Y44686D01*
X40788Y44701D01*
X40817Y44694D01*
X40870Y44658D01*
X40904Y44651D01*
Y44600D01*
X40870Y44594D01*
X40799Y44546D01*
X40751Y44474D01*
X40734Y44390D01*
X40751Y44305D01*
X40799Y44234D01*
X40870Y44186D01*
X40904Y44179D01*
Y44128D01*
X40870Y44121D01*
X40799Y44073D01*
X40786Y44055D01*
X40778Y44051D01*
X40726Y44054D01*
X40690Y44100D01*
X40626Y44150D01*
X40551Y44181D01*
X40470Y44192D01*
X40389Y44181D01*
X40314Y44150D01*
X40250Y44100D01*
X40200Y44036D01*
X40169Y43961D01*
X40158Y43880D01*
X40169Y43799D01*
X40200Y43724D01*
X40250Y43660D01*
X40314Y43610D01*
X40389Y43579D01*
X40470Y43568D01*
X40551Y43579D01*
X40626Y43610D01*
X40690Y43660D01*
X40740Y43724D01*
X40749Y43746D01*
X40768Y43752D01*
X40807Y43756D01*
X40870Y43713D01*
X40904Y43707D01*
Y43656D01*
X40870Y43649D01*
X40799Y43601D01*
X40751Y43529D01*
X40734Y43445D01*
X40751Y43360D01*
X40799Y43289D01*
X40870Y43241D01*
X40955Y43224D01*
X41230D01*
X41315Y43241D01*
X41369Y43277D01*
X41402Y43282D01*
X41433Y43268D01*
X41470Y43220D01*
X41534Y43170D01*
X41609Y43139D01*
X41690Y43128D01*
X41771Y43139D01*
X41846Y43170D01*
X41910Y43220D01*
X41960Y43284D01*
X41991Y43359D01*
X42002Y43440D01*
X41991Y43521D01*
X41960Y43596D01*
X41910Y43660D01*
X41846Y43710D01*
X41771Y43741D01*
X41690Y43752D01*
X41609Y43741D01*
X41534Y43710D01*
X41470Y43660D01*
X41436Y43617D01*
X41395Y43604D01*
X41372Y43611D01*
X41315Y43649D01*
X41281Y43656D01*
Y43707D01*
X41315Y43713D01*
X41386Y43761D01*
X41434Y43833D01*
X41451Y43917D01*
X41434Y44002D01*
X41386Y44073D01*
X41315Y44121D01*
X41281Y44128D01*
Y44179D01*
X41315Y44186D01*
X41386Y44234D01*
X41434Y44305D01*
X41451Y44390D01*
X41434Y44474D01*
X41386Y44546D01*
X41315Y44594D01*
X41281Y44600D01*
Y44651D01*
X41315Y44658D01*
X41386Y44706D01*
X41434Y44778D01*
X41451Y44862D01*
X41434Y44947D01*
X41386Y45018D01*
X41315Y45066D01*
X41281Y45073D01*
Y45124D01*
X41315Y45131D01*
X41386Y45179D01*
X41434Y45250D01*
X41451Y45335D01*
X41434Y45419D01*
X41386Y45491D01*
X41315Y45539D01*
X41281Y45545D01*
Y45596D01*
X41315Y45603D01*
X41386Y45651D01*
X41434Y45723D01*
X41451Y45807D01*
X41434Y45892D01*
X41386Y45963D01*
X41315Y46011D01*
X41281Y46018D01*
Y46069D01*
X41315Y46076D01*
X41386Y46123D01*
X41434Y46195D01*
X41451Y46280D01*
X41434Y46364D01*
X41386Y46436D01*
X41315Y46483D01*
X41281Y46490D01*
Y46541D01*
X41315Y46548D01*
X41386Y46596D01*
X41434Y46667D01*
X41451Y46752D01*
X41434Y46836D01*
X41386Y46908D01*
X41315Y46956D01*
X41281Y46963D01*
Y47014D01*
X41315Y47020D01*
X41386Y47068D01*
X41424Y47124D01*
X41440D01*
X41478Y47132D01*
X41511Y47153D01*
X41701Y47343D01*
X41723Y47376D01*
X41730Y47414D01*
Y48938D01*
X41723Y48976D01*
X41701Y49009D01*
X41601Y49109D01*
X41568Y49131D01*
X41578Y49180D01*
X41801D01*
X41942Y49039D01*
D02*
G37*
G36*
X44178Y34793D02*
Y34422D01*
X44128Y34398D01*
X44086Y34430D01*
X44011Y34461D01*
X43930Y34472D01*
X43849Y34461D01*
X43774Y34430D01*
X43710Y34380D01*
X43660Y34316D01*
X43637Y34260D01*
X42822D01*
X42601Y34481D01*
X42620Y34528D01*
X43602D01*
Y34663D01*
X43675D01*
X43688Y34654D01*
X43763Y34623D01*
X43844Y34612D01*
X43924Y34623D01*
X44000Y34654D01*
X44064Y34703D01*
X44114Y34768D01*
X44128Y34803D01*
X44178Y34793D01*
D02*
G37*
G36*
X39930Y33108D02*
X39962Y33086D01*
X40001Y33079D01*
X40988D01*
X41015Y33029D01*
X41010Y33021D01*
X41002Y32982D01*
X41010Y32944D01*
X41031Y32911D01*
Y32856D01*
X41010Y32824D01*
X41002Y32785D01*
X41010Y32747D01*
X41031Y32714D01*
Y32660D01*
X41010Y32627D01*
X41002Y32589D01*
X41010Y32550D01*
X41031Y32518D01*
Y32463D01*
X41010Y32430D01*
X41002Y32392D01*
X41010Y32353D01*
X41031Y32321D01*
Y32266D01*
X41010Y32233D01*
X41002Y32195D01*
X41010Y32156D01*
X41031Y32124D01*
Y32069D01*
X41010Y32036D01*
X41002Y31998D01*
X41010Y31960D01*
X41031Y31927D01*
Y31872D01*
X41010Y31840D01*
X41009Y31834D01*
X40954Y31818D01*
X38807Y33965D01*
X38830Y34012D01*
X38860Y34008D01*
X38941Y34019D01*
X38996Y34042D01*
X39930Y33108D01*
D02*
G37*
G36*
X33937Y34242D02*
X33941D01*
Y34030D01*
X33909Y33983D01*
X33889Y33979D01*
X33856Y33981D01*
X33850Y33996D01*
X33800Y34060D01*
X33736Y34110D01*
X33661Y34141D01*
X33580Y34152D01*
X33499Y34141D01*
X33424Y34110D01*
X33360Y34060D01*
X33310Y33996D01*
X33279Y33921D01*
X33272Y33865D01*
X33222Y33868D01*
Y34410D01*
X33308Y34496D01*
X33937D01*
Y34242D01*
D02*
G37*
G36*
X42709Y34089D02*
X42742Y34067D01*
X42780Y34060D01*
X43637D01*
X43660Y34004D01*
X43710Y33940D01*
X43774Y33890D01*
X43849Y33859D01*
X43915Y33850D01*
Y33800D01*
X43849Y33791D01*
X43794Y33768D01*
X43671Y33891D01*
X43638Y33913D01*
X43600Y33920D01*
X42506D01*
X42504Y33920D01*
X42502Y33920D01*
X41820Y33889D01*
X41806Y33905D01*
X41788Y33938D01*
X41793Y33967D01*
X41786Y34005D01*
X41764Y34037D01*
Y34092D01*
X41786Y34125D01*
X41841Y34147D01*
X41852Y34145D01*
X41860Y34124D01*
X41910Y34060D01*
X41974Y34010D01*
X42049Y33979D01*
X42130Y33968D01*
X42211Y33979D01*
X42286Y34010D01*
X42350Y34060D01*
X42400Y34124D01*
X42431Y34199D01*
X42442Y34280D01*
X42441Y34286D01*
X42488Y34310D01*
X42709Y34089D01*
D02*
G37*
G36*
X40582Y34092D02*
X40614Y34071D01*
X40653Y34063D01*
X40988D01*
X41015Y34013D01*
X41010Y34005D01*
X41002Y33967D01*
X41010Y33928D01*
X41031Y33896D01*
Y33841D01*
X41010Y33808D01*
X41002Y33770D01*
X41010Y33731D01*
X41015Y33723D01*
X40988Y33673D01*
X40439D01*
X40068Y34044D01*
X40091Y34099D01*
X40102Y34180D01*
X40091Y34261D01*
X40060Y34336D01*
X40010Y34400D01*
X39946Y34450D01*
X39871Y34481D01*
X39790Y34492D01*
X39709Y34481D01*
X39634Y34450D01*
X39570Y34400D01*
X39520Y34336D01*
X39489Y34261D01*
X39478Y34180D01*
X39489Y34099D01*
X39520Y34024D01*
X39570Y33960D01*
X39634Y33910D01*
X39709Y33879D01*
X39790Y33868D01*
X39871Y33879D01*
X39926Y33902D01*
X40326Y33502D01*
X40359Y33480D01*
X40397Y33472D01*
X40988D01*
X41015Y33422D01*
X41010Y33414D01*
X41002Y33376D01*
X41010Y33338D01*
X41015Y33329D01*
X40988Y33279D01*
X40042D01*
X39138Y34184D01*
X39161Y34239D01*
X39172Y34320D01*
X39161Y34401D01*
X39130Y34476D01*
X39087Y34531D01*
X39102Y34581D01*
X40093D01*
X40582Y34092D01*
D02*
G37*
G36*
X33811Y32760D02*
Y32500D01*
X33819Y32462D01*
X33837Y32434D01*
Y32223D01*
X34202D01*
Y32500D01*
Y32777D01*
X34012D01*
Y32801D01*
X34005Y32832D01*
X34005Y32833D01*
X34015Y32855D01*
X34036Y32882D01*
X35043D01*
X35070Y32832D01*
X35065Y32824D01*
X35057Y32785D01*
X35065Y32747D01*
X35087Y32714D01*
Y32660D01*
X35065Y32627D01*
X35057Y32589D01*
X35065Y32550D01*
X35087Y32518D01*
Y32463D01*
X35065Y32430D01*
X35057Y32392D01*
X35065Y32353D01*
X35087Y32321D01*
Y32266D01*
X35065Y32233D01*
X35057Y32195D01*
X35065Y32156D01*
X35087Y32124D01*
Y32069D01*
X35065Y32036D01*
X35057Y31998D01*
X35065Y31960D01*
X35058Y31926D01*
X35043Y31916D01*
X35033Y31902D01*
X34880D01*
X34842Y31894D01*
X34820Y31880D01*
X34770Y31897D01*
Y32400D01*
X34763Y32438D01*
X34741Y32471D01*
X34667Y32545D01*
Y32777D01*
X34302D01*
Y32500D01*
Y32223D01*
X34570D01*
Y32018D01*
X33878D01*
Y31934D01*
X33859Y31930D01*
X33806Y31895D01*
X33806Y31895D01*
X33645Y31734D01*
X33599Y31753D01*
Y32901D01*
X33649Y32922D01*
X33811Y32760D01*
D02*
G37*
G36*
X36385Y31902D02*
X36354Y30686D01*
X36310Y30659D01*
Y30207D01*
X36210D01*
Y30654D01*
X36198Y30652D01*
X36145Y30617D01*
X36135Y30601D01*
X36101Y30595D01*
X36063Y30602D01*
X36025Y30595D01*
X35992Y30573D01*
X35970Y30540D01*
X35963Y30502D01*
Y29911D01*
X35965Y29901D01*
X35886Y29869D01*
X35813Y29813D01*
X35757Y29740D01*
X35722Y29654D01*
X35716Y29613D01*
X36063D01*
Y29513D01*
X35716D01*
X35722Y29472D01*
X35757Y29386D01*
X35813Y29313D01*
X35876Y29265D01*
X35851Y29221D01*
X35779Y29251D01*
X35738Y29256D01*
Y28910D01*
Y28564D01*
X35779Y28569D01*
X35856Y28601D01*
X36268Y28188D01*
Y27807D01*
X36091D01*
Y27315D01*
X35739D01*
X34961Y28093D01*
X34928Y28114D01*
X34890Y28122D01*
X34647D01*
Y28299D01*
X34282D01*
Y28022D01*
Y27745D01*
X34647D01*
Y27921D01*
X34848D01*
X35626Y27144D01*
X35659Y27122D01*
X35697Y27114D01*
X36091D01*
Y26622D01*
X36268D01*
Y26074D01*
X36091D01*
Y25583D01*
X35349D01*
X35311Y25575D01*
X35300Y25568D01*
X35278Y25553D01*
X35248Y25524D01*
X34696D01*
Y25700D01*
X34332D01*
Y25423D01*
X34232D01*
Y25700D01*
X33960D01*
Y26407D01*
X34656D01*
Y26880D01*
X34187D01*
X33870Y27197D01*
Y27745D01*
X34182D01*
Y28022D01*
Y28299D01*
X33870D01*
Y28738D01*
X34138Y29006D01*
X34606D01*
Y29142D01*
X34880D01*
X34918Y29149D01*
X34951Y29171D01*
X35291Y29511D01*
X35313Y29544D01*
X35320Y29582D01*
Y30310D01*
X35313Y30348D01*
X35291Y30381D01*
X35030Y30642D01*
Y30740D01*
X35080Y30755D01*
X35087Y30746D01*
X35119Y30724D01*
X35157Y30717D01*
X35748D01*
X35786Y30724D01*
X35819Y30746D01*
X35841Y30779D01*
X35848Y30817D01*
X35841Y30855D01*
X35819Y30888D01*
Y30943D01*
X35841Y30975D01*
X35848Y31014D01*
X35841Y31052D01*
X35819Y31085D01*
Y31140D01*
X35841Y31172D01*
X35848Y31211D01*
X35841Y31249D01*
X35819Y31282D01*
Y31337D01*
X35841Y31369D01*
X35848Y31407D01*
X35841Y31446D01*
X35819Y31478D01*
Y31533D01*
X35841Y31566D01*
X35848Y31604D01*
X35841Y31643D01*
X35847Y31676D01*
X35863Y31687D01*
X35898Y31739D01*
X35900Y31751D01*
X35453D01*
Y31851D01*
X35916D01*
X35940Y31884D01*
X36076D01*
X36127Y31850D01*
X36188Y31837D01*
X36249Y31850D01*
X36302Y31885D01*
X36339Y31922D01*
X36385Y31902D01*
D02*
G37*
G36*
X39556Y31723D02*
X39523Y31685D01*
X39516Y31690D01*
X39441Y31721D01*
X39360Y31732D01*
X39279Y31721D01*
X39224Y31698D01*
X38731Y32191D01*
X38698Y32213D01*
X38660Y32220D01*
X38193D01*
X38170Y32276D01*
X38120Y32340D01*
X38056Y32390D01*
X37981Y32421D01*
X37900Y32432D01*
X37819Y32421D01*
X37744Y32390D01*
X37680Y32340D01*
X37630Y32276D01*
X37599Y32201D01*
X37590Y32136D01*
X37540Y32139D01*
Y32880D01*
X37533Y32918D01*
X37511Y32951D01*
X36778Y33684D01*
X36801Y33739D01*
X36812Y33820D01*
X36801Y33901D01*
X36770Y33976D01*
X36720Y34040D01*
X36656Y34090D01*
X36581Y34121D01*
X36500Y34132D01*
X36419Y34121D01*
X36344Y34090D01*
X36280Y34040D01*
X36244Y33994D01*
X36198Y34016D01*
X36200Y34030D01*
Y34133D01*
X36277Y34164D01*
X36350Y34220D01*
X36406Y34293D01*
X36441Y34379D01*
X36446Y34420D01*
X36100D01*
Y34470D01*
X36050D01*
Y34816D01*
X36009Y34811D01*
X35923Y34776D01*
X35896Y34754D01*
X35844Y34778D01*
X35841Y34792D01*
X35819Y34825D01*
Y34880D01*
X35841Y34912D01*
X35848Y34951D01*
X35841Y34989D01*
X35819Y35022D01*
Y35077D01*
X35841Y35109D01*
X35848Y35148D01*
X35841Y35186D01*
X35819Y35219D01*
Y35274D01*
X35841Y35306D01*
X35848Y35344D01*
X35845Y35363D01*
X35891Y35387D01*
X39556Y31723D01*
D02*
G37*
G36*
X42451Y33678D02*
X42446Y33637D01*
X42442Y33636D01*
X42409Y33614D01*
X42329Y33534D01*
X42307Y33502D01*
X42300Y33463D01*
Y33427D01*
X42223Y33396D01*
X42150Y33340D01*
X42094Y33267D01*
X42059Y33181D01*
X42054Y33140D01*
X42746D01*
X42741Y33181D01*
X42723Y33225D01*
X42751Y33266D01*
X43001D01*
Y33543D01*
X43101D01*
Y33266D01*
X43643D01*
Y33274D01*
X43693Y33291D01*
X43710Y33270D01*
X43774Y33220D01*
X43849Y33189D01*
X43930Y33178D01*
X44011Y33189D01*
X44086Y33220D01*
X44128Y33252D01*
X44178Y33228D01*
Y32890D01*
X44019Y32731D01*
X43997Y32698D01*
X43990Y32660D01*
Y31472D01*
X43952Y31439D01*
X43930Y31442D01*
X43849Y31431D01*
X43774Y31400D01*
X43713Y31353D01*
X43689Y31357D01*
X43663Y31366D01*
Y31367D01*
X43071D01*
Y31467D01*
X43663D01*
Y31694D01*
X43192D01*
X43172Y31744D01*
X43210Y31794D01*
X43241Y31869D01*
X43252Y31950D01*
X43242Y32025D01*
X43504Y32286D01*
X43538Y32339D01*
X43551Y32400D01*
Y32402D01*
X43622D01*
Y32874D01*
X42732D01*
X42710Y32924D01*
X42741Y32999D01*
X42746Y33040D01*
X42054D01*
X42059Y32999D01*
X42094Y32913D01*
X42150Y32840D01*
X42223Y32784D01*
X42309Y32749D01*
X42331Y32746D01*
Y32390D01*
X42281Y32369D01*
X41991Y32660D01*
X41958Y32681D01*
X41920Y32689D01*
X41807D01*
X41780Y32739D01*
X41786Y32747D01*
X41793Y32785D01*
X41786Y32824D01*
X41764Y32856D01*
Y32911D01*
X41786Y32944D01*
X41793Y32982D01*
X41786Y33021D01*
X41764Y33053D01*
Y33108D01*
X41786Y33141D01*
X41793Y33179D01*
X41786Y33218D01*
X41764Y33250D01*
Y33305D01*
X41786Y33338D01*
X41793Y33376D01*
X41786Y33414D01*
X41764Y33447D01*
Y33502D01*
X41786Y33534D01*
X41793Y33573D01*
X41786Y33611D01*
X41769Y33636D01*
X41777Y33667D01*
X41789Y33687D01*
X42414Y33715D01*
X42451Y33678D01*
D02*
G37*
G36*
X37599Y32039D02*
X37630Y31964D01*
X37680Y31900D01*
X37744Y31850D01*
X37819Y31819D01*
X37900Y31808D01*
X37981Y31819D01*
X38056Y31850D01*
X38120Y31900D01*
X38170Y31964D01*
X38193Y32020D01*
X38618D01*
X39082Y31556D01*
X39059Y31501D01*
X39048Y31420D01*
X39059Y31339D01*
X39090Y31264D01*
X39140Y31200D01*
X39165Y31180D01*
X39148Y31130D01*
X38903D01*
X38880Y31186D01*
X38830Y31250D01*
X38766Y31300D01*
X38691Y31331D01*
X38610Y31342D01*
X38529Y31331D01*
X38454Y31300D01*
X38390Y31250D01*
X38340Y31186D01*
X38309Y31111D01*
X38298Y31030D01*
X38309Y30949D01*
X38340Y30874D01*
X38345Y30867D01*
X38307Y30834D01*
X37540Y31602D01*
Y32101D01*
X37590Y32104D01*
X37599Y32039D01*
D02*
G37*
G36*
X37981Y33660D02*
X38042Y33647D01*
X38346D01*
X40587Y31405D01*
Y31045D01*
X40537Y31024D01*
X37926Y33636D01*
X37958Y33675D01*
X37981Y33660D01*
D02*
G37*
G36*
X36211Y33930D02*
X36199Y33901D01*
X36188Y33820D01*
X36199Y33739D01*
X36230Y33664D01*
X36280Y33600D01*
X36344Y33550D01*
X36419Y33519D01*
X36500Y33508D01*
X36581Y33519D01*
X36636Y33542D01*
X37340Y32838D01*
Y31560D01*
X37347Y31522D01*
X37369Y31489D01*
X37652Y31206D01*
X37627Y31160D01*
X37559Y31151D01*
X37484Y31120D01*
X37420Y31070D01*
X37370Y31006D01*
X37339Y30931D01*
X37328Y30850D01*
X37339Y30769D01*
X37370Y30694D01*
X37407Y30646D01*
X37405Y30627D01*
X37397Y30595D01*
X37392Y30588D01*
X37370Y30573D01*
X37315D01*
X37283Y30595D01*
X37244Y30602D01*
X37206Y30595D01*
X37173Y30573D01*
X37118D01*
X37086Y30595D01*
X37047Y30602D01*
X37009Y30595D01*
X36976Y30573D01*
X36921D01*
X36889Y30595D01*
X36850Y30602D01*
X36812Y30595D01*
X36779Y30573D01*
X36725D01*
X36692Y30595D01*
X36654Y30602D01*
X36631Y30598D01*
X36591Y30622D01*
X36582Y30633D01*
X36622Y32204D01*
X36624Y32206D01*
X36658Y32259D01*
X36671Y32320D01*
X36658Y32381D01*
X36624Y32432D01*
Y33063D01*
X36616Y33106D01*
X36591Y33143D01*
X36081Y33654D01*
X36043Y33679D01*
X36000Y33687D01*
X35970D01*
X35949Y33737D01*
X36171Y33959D01*
X36211Y33930D01*
D02*
G37*
G36*
X42160Y32207D02*
Y30790D01*
X42167Y30752D01*
X42189Y30719D01*
X42550Y30358D01*
Y29929D01*
X42500Y29926D01*
X42491Y29991D01*
X42460Y30066D01*
X42410Y30130D01*
X42346Y30180D01*
X42271Y30211D01*
X42190Y30222D01*
X42109Y30211D01*
X42034Y30180D01*
X41990Y30146D01*
X41940Y30171D01*
Y32312D01*
X41933Y32350D01*
X41911Y32383D01*
X41897Y32397D01*
X41913Y32451D01*
X41915Y32452D01*
X42160Y32207D01*
D02*
G37*
G36*
X40158Y29819D02*
X40197Y29811D01*
X40235Y29819D01*
X40268Y29840D01*
X40323D01*
X40355Y29819D01*
X40394Y29811D01*
X40432Y29819D01*
X40465Y29840D01*
X40520D01*
X40552Y29819D01*
X40591Y29811D01*
X40610Y29815D01*
X40634Y29769D01*
X40496Y29631D01*
X38370D01*
X38329Y29676D01*
X38329Y29678D01*
X38329Y29680D01*
Y29797D01*
X38379Y29824D01*
X38387Y29819D01*
X38425Y29811D01*
X38464Y29819D01*
X38496Y29840D01*
X38551D01*
X38584Y29819D01*
X38622Y29811D01*
X38660Y29819D01*
X38693Y29840D01*
X38748D01*
X38781Y29819D01*
X38819Y29811D01*
X38857Y29819D01*
X38890Y29840D01*
X38945D01*
X38977Y29819D01*
X39016Y29811D01*
X39054Y29819D01*
X39087Y29840D01*
X39142D01*
X39174Y29819D01*
X39213Y29811D01*
X39251Y29819D01*
X39284Y29840D01*
X39338D01*
X39371Y29819D01*
X39409Y29811D01*
X39448Y29819D01*
X39480Y29840D01*
X39535D01*
X39568Y29819D01*
X39606Y29811D01*
X39645Y29819D01*
X39677Y29840D01*
X39732D01*
X39765Y29819D01*
X39803Y29811D01*
X39842Y29819D01*
X39874Y29840D01*
X39929D01*
X39962Y29819D01*
X40000Y29811D01*
X40038Y29819D01*
X40071Y29840D01*
X40126D01*
X40158Y29819D01*
D02*
G37*
G36*
X37796D02*
X37835Y29811D01*
X37873Y29819D01*
X37906Y29840D01*
X37961D01*
X37993Y29819D01*
X38031Y29811D01*
X38070Y29819D01*
X38078Y29824D01*
X38128Y29797D01*
Y29720D01*
X37232Y28824D01*
X37210Y28792D01*
X37210Y28789D01*
X37185D01*
Y28772D01*
X36988D01*
X36941Y28813D01*
Y28818D01*
X36781D01*
Y28918D01*
X36941D01*
Y29027D01*
X36882D01*
Y29030D01*
X36878Y29048D01*
X36876Y29065D01*
X36875Y29067D01*
X36874Y29068D01*
X36864Y29083D01*
X36855Y29098D01*
X36755Y29205D01*
X36773Y29258D01*
X36781Y29259D01*
X36856Y29290D01*
X36920Y29340D01*
X36970Y29404D01*
X37001Y29479D01*
X37012Y29560D01*
X37001Y29641D01*
X36970Y29716D01*
X36921Y29780D01*
X36920Y29780D01*
X36921Y29840D01*
X36976D01*
X37009Y29819D01*
X37047Y29811D01*
X37086Y29819D01*
X37118Y29840D01*
X37173D01*
X37206Y29819D01*
X37244Y29811D01*
X37283Y29819D01*
X37315Y29840D01*
X37370D01*
X37403Y29819D01*
X37441Y29811D01*
X37479Y29819D01*
X37512Y29840D01*
X37567D01*
X37599Y29819D01*
X37638Y29811D01*
X37676Y29819D01*
X37709Y29840D01*
X37764D01*
X37796Y29819D01*
D02*
G37*
G36*
X43618Y31130D02*
X43629Y31049D01*
X43660Y30974D01*
X43710Y30910D01*
X43774Y30860D01*
X43849Y30829D01*
X43930Y30818D01*
X44011Y30829D01*
X44020Y30833D01*
X44049Y30790D01*
X43149Y29891D01*
X43127Y29858D01*
X43120Y29820D01*
Y29588D01*
X43033D01*
Y30178D01*
X43142Y30287D01*
X43164Y30319D01*
X43171Y30358D01*
Y31140D01*
X43609D01*
X43618Y31130D01*
D02*
G37*
G36*
X42479Y31357D02*
Y31140D01*
X42971D01*
Y30399D01*
X42862Y30291D01*
X42840Y30258D01*
X42833Y30220D01*
Y29588D01*
X42750D01*
Y30400D01*
X42743Y30438D01*
X42721Y30471D01*
X42360Y30832D01*
Y31404D01*
X42410Y31425D01*
X42479Y31357D01*
D02*
G37*
G36*
X44454Y32330D02*
Y27421D01*
X44118Y27086D01*
X42898D01*
X42806Y27178D01*
X42825Y27224D01*
X43169D01*
Y27972D01*
X42958D01*
X41968Y28963D01*
X41988Y29013D01*
X42083D01*
X42083Y29013D01*
X42145Y29025D01*
X42197Y29060D01*
X42304Y29166D01*
X42304Y29166D01*
X42338Y29219D01*
X42351Y29280D01*
X42351Y29280D01*
Y29644D01*
X42410Y29690D01*
X42460Y29754D01*
X42491Y29829D01*
X42500Y29894D01*
X42550Y29891D01*
Y28750D01*
X42557Y28712D01*
X42579Y28679D01*
X42612Y28657D01*
X42650Y28650D01*
X43220D01*
X43258Y28657D01*
X43291Y28679D01*
X43313Y28712D01*
X43320Y28750D01*
Y29778D01*
X44351Y30809D01*
X44373Y30842D01*
X44380Y30880D01*
Y32335D01*
X44404Y32353D01*
X44454Y32330D01*
D02*
G37*
G36*
X41102Y30717D02*
X41693D01*
X41740Y30675D01*
Y30002D01*
X41359Y29621D01*
X41337Y29588D01*
X41330Y29550D01*
Y28748D01*
X41337Y28710D01*
X41359Y28677D01*
X41492Y28545D01*
X41482Y28483D01*
X41440Y28450D01*
X41390Y28386D01*
X41359Y28311D01*
X41348Y28230D01*
X41356Y28170D01*
X41322Y28120D01*
X40472D01*
Y28563D01*
X40281D01*
X40260Y28613D01*
X41549Y29902D01*
X41571Y29934D01*
X41579Y29973D01*
Y30280D01*
X41571Y30319D01*
X41549Y30351D01*
X41351Y30550D01*
X41318Y30571D01*
X41280Y30579D01*
X41162D01*
X41077Y30663D01*
X41092Y30713D01*
X41100Y30717D01*
X41102Y30717D01*
D02*
G37*
G36*
X32872Y32136D02*
X32849Y32081D01*
X32838Y32000D01*
X32849Y31919D01*
X32880Y31844D01*
X32930Y31780D01*
X32994Y31730D01*
X33069Y31699D01*
X33150Y31688D01*
X33231Y31699D01*
X33306Y31730D01*
X33348Y31762D01*
X33392Y31741D01*
X33397Y31692D01*
X33199Y31494D01*
X33177Y31462D01*
X33170Y31423D01*
Y30983D01*
X33114Y30960D01*
X33050Y30910D01*
X33000Y30846D01*
X32969Y30771D01*
X32958Y30690D01*
X32969Y30609D01*
X33000Y30534D01*
X33050Y30470D01*
X33114Y30420D01*
X33189Y30389D01*
X33270Y30378D01*
X33351Y30389D01*
X33426Y30420D01*
X33490Y30470D01*
X33540Y30534D01*
X33571Y30609D01*
X33582Y30690D01*
X33571Y30771D01*
X33564Y30788D01*
X33599Y30834D01*
X33640Y30828D01*
X33721Y30839D01*
X33796Y30870D01*
X33860Y30920D01*
X33910Y30984D01*
X33941Y31059D01*
X33952Y31140D01*
X33941Y31221D01*
X33910Y31296D01*
X33860Y31360D01*
X33819Y31392D01*
X33816Y31450D01*
X33911Y31545D01*
X34570D01*
Y30838D01*
X34302D01*
Y30561D01*
Y30284D01*
X34544D01*
X34566Y30239D01*
X34564Y30237D01*
X34529Y30151D01*
X34524Y30110D01*
X34870D01*
Y30060D01*
X34920D01*
Y29714D01*
X34961Y29719D01*
X35047Y29754D01*
X35070Y29772D01*
X35120Y29747D01*
Y29624D01*
X34838Y29342D01*
X34606D01*
Y29478D01*
X33858D01*
Y29010D01*
X33699Y28851D01*
X33677Y28818D01*
X33670Y28780D01*
Y27155D01*
X33677Y27117D01*
X33699Y27084D01*
X33907Y26876D01*
Y26737D01*
X33905Y26736D01*
X33873Y26715D01*
X33789Y26631D01*
X33767Y26598D01*
X33760Y26560D01*
Y24423D01*
X33704Y24400D01*
X33640Y24350D01*
X33590Y24286D01*
X33559Y24211D01*
X33548Y24130D01*
X33559Y24049D01*
X33590Y23974D01*
X33640Y23910D01*
X33704Y23860D01*
X33779Y23829D01*
X33860Y23818D01*
X33941Y23829D01*
X34016Y23860D01*
X34080Y23910D01*
X34130Y23974D01*
X34161Y24049D01*
X34172Y24130D01*
X34161Y24211D01*
X34130Y24286D01*
X34080Y24350D01*
X34016Y24400D01*
X33960Y24423D01*
Y25146D01*
X34181D01*
Y25070D01*
X34189Y25032D01*
X34211Y24999D01*
X34319Y24891D01*
Y23456D01*
X34142D01*
Y23091D01*
X34696D01*
Y23456D01*
X34520D01*
Y24933D01*
X34512Y24971D01*
X34490Y25004D01*
X34398Y25096D01*
X34418Y25146D01*
X34696D01*
Y25323D01*
X35290D01*
X35328Y25331D01*
X35361Y25352D01*
X35391Y25382D01*
X36091D01*
Y24890D01*
X36318D01*
Y25482D01*
X36368D01*
Y25532D01*
X36645D01*
Y26074D01*
X36468D01*
Y26622D01*
X36645D01*
Y27165D01*
X36368D01*
Y27265D01*
X36645D01*
Y27807D01*
X36468D01*
Y28346D01*
X36900D01*
Y28441D01*
X37030Y28571D01*
X37185D01*
Y28553D01*
X37450D01*
X37485Y28518D01*
X37479Y27766D01*
X37352D01*
Y26663D01*
X37428D01*
Y26033D01*
X37352D01*
Y25331D01*
X37231D01*
X37185Y25390D01*
X37120Y25440D01*
X37045Y25471D01*
X36964Y25482D01*
X36883Y25471D01*
X36808Y25440D01*
X36744Y25390D01*
X36695Y25327D01*
X36691Y25327D01*
X36645Y25338D01*
Y25432D01*
X36418D01*
Y24890D01*
X36645D01*
Y25002D01*
X36691Y25013D01*
X36695Y25013D01*
X36744Y24950D01*
X36808Y24900D01*
X36883Y24869D01*
X36964Y24858D01*
X37045Y24869D01*
X37120Y24900D01*
X37185Y24950D01*
X37231Y25009D01*
X37352D01*
Y24931D01*
X37825D01*
Y26033D01*
X37749D01*
Y26663D01*
X37825D01*
Y27766D01*
X37743D01*
X37708Y27801D01*
X37714Y28610D01*
X37714Y28610D01*
X37714Y28611D01*
X37710Y28632D01*
X37706Y28654D01*
X37706Y28654D01*
X37706Y28654D01*
X37697Y28667D01*
X38339Y29309D01*
X40497D01*
X40559Y29322D01*
X40611Y29356D01*
X40646Y29409D01*
X40658Y29468D01*
X40868Y29679D01*
X40893Y29716D01*
X40902Y29760D01*
Y29853D01*
X40952Y29877D01*
X40974Y29860D01*
X41049Y29829D01*
X41113Y29820D01*
X41136Y29772D01*
X40124Y28760D01*
X38514D01*
X38475Y28753D01*
X38443Y28731D01*
X37929Y28217D01*
X37907Y28185D01*
X37900Y28146D01*
Y27238D01*
X37907Y27200D01*
X37929Y27167D01*
X40939Y24157D01*
X40916Y24110D01*
X40849Y24101D01*
X40774Y24070D01*
X40710Y24020D01*
X40660Y23956D01*
X40629Y23881D01*
X40618Y23800D01*
X40629Y23719D01*
X40660Y23644D01*
X40710Y23580D01*
X40774Y23530D01*
X40849Y23499D01*
X40930Y23488D01*
X40998Y23497D01*
X41006Y23489D01*
X41059Y23454D01*
X41120Y23442D01*
X41170Y23452D01*
X41486D01*
Y23445D01*
X41841D01*
Y23452D01*
X43501D01*
X44089Y22863D01*
Y21786D01*
X44045Y21764D01*
X44017Y21786D01*
X43931Y21821D01*
X43890Y21826D01*
Y21480D01*
X43790D01*
Y21826D01*
X43749Y21821D01*
X43693Y21798D01*
X43643Y21831D01*
Y21862D01*
X43602D01*
Y21918D01*
X43638Y21925D01*
X43671Y21947D01*
X43811Y22087D01*
X43833Y22119D01*
X43840Y22158D01*
Y22720D01*
X43833Y22758D01*
X43811Y22791D01*
X43381Y23221D01*
X43348Y23243D01*
X43310Y23250D01*
X40892D01*
X39871Y24271D01*
X39838Y24293D01*
X39800Y24300D01*
X38400D01*
X38362Y24293D01*
X38329Y24271D01*
X38052Y23994D01*
X38047Y23994D01*
X38002Y24010D01*
Y24154D01*
X37648D01*
Y24096D01*
X37425D01*
X37400Y24156D01*
X37350Y24220D01*
X37286Y24270D01*
X37211Y24301D01*
X37130Y24312D01*
X37049Y24301D01*
X36974Y24270D01*
X36910Y24220D01*
X36860Y24156D01*
X36829Y24081D01*
X36818Y24000D01*
X36829Y23919D01*
X36860Y23844D01*
X36910Y23780D01*
X36974Y23730D01*
X37049Y23699D01*
X37130Y23688D01*
X37211Y23699D01*
X37286Y23730D01*
X37290Y23733D01*
X37340Y23708D01*
Y23533D01*
X37284Y23510D01*
X37220Y23460D01*
X37170Y23396D01*
X37139Y23321D01*
X37128Y23240D01*
X37139Y23159D01*
X37170Y23084D01*
X37220Y23020D01*
X37284Y22970D01*
X37359Y22939D01*
X37440Y22928D01*
X37521Y22939D01*
X37596Y22970D01*
X37660Y23020D01*
X37674Y23038D01*
X37724Y23021D01*
Y22826D01*
X37732Y22787D01*
X37754Y22755D01*
X38000Y22508D01*
Y22254D01*
X37943D01*
Y21309D01*
X38258D01*
X38300Y21289D01*
Y19830D01*
X38307Y19792D01*
X38329Y19759D01*
X38579Y19509D01*
X38612Y19487D01*
X38650Y19480D01*
X40790D01*
X40828Y19487D01*
X40861Y19509D01*
X41641Y20289D01*
X41663Y20322D01*
X41670Y20360D01*
Y20878D01*
X41962Y21169D01*
X42067D01*
Y21093D01*
X42568D01*
X42568Y21092D01*
X42603Y21040D01*
X42766Y20876D01*
X42766Y20876D01*
X42819Y20842D01*
X42880Y20829D01*
X44000D01*
X44000Y20829D01*
X44061Y20842D01*
X44114Y20876D01*
X44364Y21126D01*
X44364Y21126D01*
X44398Y21179D01*
X44411Y21240D01*
Y22930D01*
X44411Y22930D01*
X44398Y22991D01*
X44364Y23044D01*
X44364Y23044D01*
X43691Y23716D01*
X43639Y23751D01*
X43578Y23763D01*
X43527Y23753D01*
X42101D01*
Y24740D01*
X42101Y24740D01*
X42088Y24801D01*
X42054Y24854D01*
X40200Y26707D01*
X40210Y26781D01*
X40200Y26862D01*
X40168Y26937D01*
X40119Y27002D01*
X40054Y27051D01*
X39979Y27083D01*
X39899Y27093D01*
X39818Y27083D01*
X39743Y27051D01*
X39678Y27002D01*
X39629Y26937D01*
X39597Y26862D01*
X39587Y26781D01*
X39597Y26701D01*
X39629Y26626D01*
X39678Y26561D01*
X39743Y26512D01*
X39818Y26480D01*
X39899Y26470D01*
X39973Y26480D01*
X41779Y24673D01*
Y24154D01*
X41486D01*
Y24096D01*
X41284D01*
X38100Y27280D01*
Y28105D01*
X38555Y28560D01*
X38739D01*
Y28062D01*
X39016D01*
X39293D01*
Y28560D01*
X40000D01*
Y27517D01*
X39653D01*
X39293Y27877D01*
Y27962D01*
X39066D01*
Y27420D01*
X39293D01*
Y27527D01*
X39339Y27547D01*
X39540Y27345D01*
X39573Y27324D01*
X39611Y27316D01*
X41008D01*
X41032Y27266D01*
X41000Y27224D01*
X40969Y27149D01*
X40958Y27068D01*
X40969Y26987D01*
X41000Y26912D01*
X41050Y26847D01*
X41114Y26798D01*
X41189Y26767D01*
X41270Y26756D01*
X41351Y26767D01*
X41406Y26790D01*
X41851Y26345D01*
X41831Y26299D01*
X41772D01*
Y25669D01*
X42244D01*
Y26299D01*
X42108D01*
Y26330D01*
X42101Y26368D01*
X42079Y26401D01*
X41548Y26932D01*
X41571Y26987D01*
X41582Y27068D01*
X41573Y27133D01*
X41604Y27183D01*
X41663D01*
Y27548D01*
X41435D01*
Y27517D01*
X40472D01*
Y27920D01*
X41435D01*
Y27648D01*
X41990D01*
Y28013D01*
X41940D01*
X41918Y28058D01*
X41930Y28074D01*
X41961Y28149D01*
X41972Y28230D01*
X41971Y28236D01*
X42018Y28260D01*
X42557Y27721D01*
Y27185D01*
X42565Y27147D01*
X42587Y27114D01*
X42673Y27027D01*
X42653Y26976D01*
X42579Y26946D01*
X42506Y26890D01*
X42496Y26889D01*
X41990Y27395D01*
Y27548D01*
X41763D01*
Y27183D01*
X41917D01*
X42410Y26691D01*
X42409Y26690D01*
X43102D01*
X43097Y26731D01*
X43062Y26817D01*
X43043Y26841D01*
X43065Y26885D01*
X44160D01*
X44198Y26893D01*
X44231Y26915D01*
X44583Y27267D01*
X44633Y27246D01*
Y19343D01*
X32483D01*
Y20128D01*
Y32460D01*
X32529Y32479D01*
X32872Y32136D01*
D02*
G37*
G36*
X40779Y23079D02*
X40812Y23057D01*
X40850Y23050D01*
X43268D01*
X43640Y22678D01*
Y22226D01*
X43602Y22195D01*
X43051D01*
Y21996D01*
X43005Y21977D01*
X42385Y22597D01*
X42352Y22619D01*
X42314Y22627D01*
X39174D01*
X39136Y22619D01*
X39103Y22597D01*
X39034Y22528D01*
X39006Y22540D01*
X38988Y22552D01*
X38981Y22588D01*
X38959Y22621D01*
X38722Y22857D01*
Y23445D01*
X38799D01*
Y23700D01*
X39027D01*
X39050Y23644D01*
X39100Y23580D01*
X39164Y23530D01*
X39239Y23499D01*
X39320Y23488D01*
X39401Y23499D01*
X39476Y23530D01*
X39540Y23580D01*
X39590Y23644D01*
X39621Y23719D01*
X39632Y23800D01*
X39621Y23881D01*
X39590Y23956D01*
X39540Y24020D01*
X39502Y24050D01*
X39519Y24100D01*
X39758D01*
X40779Y23079D01*
D02*
G37*
G36*
X38300Y23873D02*
Y22274D01*
X38258Y22254D01*
X38201D01*
Y22550D01*
X38193Y22588D01*
X38171Y22621D01*
X37925Y22867D01*
Y23445D01*
X38002D01*
Y23506D01*
X38021Y23510D01*
X38053Y23531D01*
X38193Y23671D01*
X38214Y23703D01*
X38222Y23742D01*
Y23870D01*
X38253Y23894D01*
X38300Y23873D01*
D02*
G37*
G36*
X38551Y22745D02*
X38787Y22508D01*
Y22254D01*
X38730D01*
Y21309D01*
X39045D01*
Y22254D01*
X39045Y22254D01*
X39045D01*
X39078Y22288D01*
X39216Y22426D01*
X41404D01*
X41428Y22376D01*
X41396Y22334D01*
X41365Y22258D01*
X41354Y22178D01*
X41365Y22097D01*
X41396Y22022D01*
X41446Y21957D01*
X41510Y21908D01*
X41585Y21877D01*
X41666Y21866D01*
X41747Y21877D01*
X41822Y21908D01*
X41834Y21917D01*
X42067D01*
Y21841D01*
X42067D01*
Y21821D01*
X42067D01*
Y21467D01*
X42067D01*
Y21447D01*
X42067D01*
Y21370D01*
X41920D01*
X41882Y21362D01*
X41849Y21341D01*
X41499Y20991D01*
X41477Y20958D01*
X41470Y20920D01*
Y20402D01*
X41173Y20105D01*
X41131Y20134D01*
X41152Y20184D01*
X41167Y20295D01*
Y20708D01*
X40788D01*
Y19873D01*
X40849Y19881D01*
X40900Y19902D01*
X40928Y19860D01*
X40748Y19680D01*
X40133D01*
X40108Y19730D01*
X40142Y19774D01*
X40173Y19849D01*
X40184Y19930D01*
X40173Y20011D01*
X40142Y20086D01*
X40092Y20150D01*
X40028Y20200D01*
X39972Y20223D01*
Y21309D01*
X40030D01*
Y22254D01*
X39715D01*
Y21309D01*
X39772D01*
Y20862D01*
X39725Y20850D01*
X39689Y20937D01*
X39633Y21011D01*
X39559Y21067D01*
X39472Y21103D01*
X39380Y21115D01*
X39287Y21103D01*
X39201Y21067D01*
X39127Y21011D01*
X39070Y20937D01*
X39035Y20850D01*
X39023Y20758D01*
X39035Y20665D01*
X39070Y20579D01*
X39127Y20505D01*
X39201Y20448D01*
X39287Y20413D01*
X39380Y20400D01*
X39472Y20413D01*
X39559Y20448D01*
X39633Y20505D01*
X39689Y20579D01*
X39725Y20665D01*
X39772Y20654D01*
Y20223D01*
X39716Y20200D01*
X39652Y20150D01*
X39602Y20086D01*
X39571Y20011D01*
X39560Y19930D01*
X39571Y19849D01*
X39602Y19774D01*
X39636Y19730D01*
X39611Y19680D01*
X38692D01*
X38500Y19872D01*
Y22731D01*
X38550Y22746D01*
X38551Y22745D01*
D02*
G37*
%LPC*%
G36*
X35994Y48901D02*
X35906D01*
Y48692D01*
X36247D01*
X36245Y48709D01*
X36219Y48772D01*
X36178Y48825D01*
X36124Y48867D01*
X36061Y48893D01*
X35994Y48901D01*
D02*
G37*
G36*
X34419Y45773D02*
X34327Y45761D01*
X34241Y45725D01*
X34167Y45668D01*
X34110Y45594D01*
X34074Y45508D01*
X34062Y45415D01*
X34074Y45323D01*
X34110Y45237D01*
X34167Y45163D01*
X34241Y45106D01*
X34327Y45070D01*
X34419Y45058D01*
X34512Y45070D01*
X34598Y45106D01*
X34672Y45163D01*
X34729Y45237D01*
X34765Y45323D01*
X34777Y45415D01*
X34765Y45508D01*
X34729Y45594D01*
X34672Y45668D01*
X34598Y45725D01*
X34512Y45761D01*
X34419Y45773D01*
D02*
G37*
G36*
X37620Y40425D02*
X37511D01*
Y40316D01*
X37620D01*
Y40425D01*
D02*
G37*
G36*
X35885Y39960D02*
X35776D01*
Y39851D01*
X35885D01*
Y39960D01*
D02*
G37*
G36*
X41990Y37283D02*
X41763D01*
Y36741D01*
X41990D01*
Y37283D01*
D02*
G37*
G36*
X35275Y36097D02*
X34979D01*
Y35800D01*
X35020Y35806D01*
X35105Y35841D01*
X35179Y35897D01*
X35235Y35970D01*
X35270Y36055D01*
X35275Y36097D01*
D02*
G37*
G36*
X42880Y46656D02*
Y46360D01*
X43176D01*
X43171Y46401D01*
X43136Y46487D01*
X43080Y46560D01*
X43007Y46616D01*
X42921Y46651D01*
X42880Y46656D01*
D02*
G37*
G36*
X42780D02*
X42739Y46651D01*
X42653Y46616D01*
X42580Y46560D01*
X42524Y46487D01*
X42489Y46401D01*
X42484Y46360D01*
X42780D01*
Y46656D01*
D02*
G37*
G36*
X43410Y40626D02*
Y40330D01*
X43706D01*
X43701Y40371D01*
X43666Y40457D01*
X43610Y40530D01*
X43537Y40586D01*
X43451Y40621D01*
X43410Y40626D01*
D02*
G37*
G36*
X35638Y29256D02*
X35597Y29251D01*
X35512Y29216D01*
X35438Y29160D01*
X35382Y29087D01*
X35347Y29001D01*
X35342Y28960D01*
X35638D01*
Y29256D01*
D02*
G37*
G36*
Y28860D02*
X35342D01*
X35347Y28819D01*
X35382Y28733D01*
X35438Y28660D01*
X35512Y28604D01*
X35597Y28569D01*
X35638Y28564D01*
Y28860D01*
D02*
G37*
G36*
X36150Y34816D02*
Y34520D01*
X36446D01*
X36441Y34561D01*
X36406Y34647D01*
X36350Y34720D01*
X36277Y34776D01*
X36191Y34811D01*
X36150Y34816D01*
D02*
G37*
G36*
X34202Y30838D02*
X33837D01*
Y30611D01*
X34202D01*
Y30838D01*
D02*
G37*
G36*
Y30511D02*
X33837D01*
Y30284D01*
X34202D01*
Y30511D01*
D02*
G37*
G36*
X34820Y30010D02*
X34524D01*
X34529Y29969D01*
X34564Y29883D01*
X34620Y29810D01*
X34693Y29754D01*
X34779Y29719D01*
X34820Y29714D01*
Y30010D01*
D02*
G37*
G36*
X38966Y27962D02*
X38739D01*
Y27420D01*
X38966D01*
Y27962D01*
D02*
G37*
G36*
X43102Y26590D02*
X42409D01*
X42415Y26549D01*
X42450Y26463D01*
X42506Y26390D01*
X42510Y26388D01*
X42494Y26340D01*
X42479D01*
Y26034D01*
X43033D01*
Y26340D01*
X43018D01*
X43002Y26388D01*
X43006Y26390D01*
X43062Y26463D01*
X43097Y26549D01*
X43102Y26590D01*
D02*
G37*
G36*
X43033Y25934D02*
X42806D01*
Y25628D01*
X43033D01*
Y25934D01*
D02*
G37*
G36*
X42706D02*
X42479D01*
Y25628D01*
X42706D01*
Y25934D01*
D02*
G37*
G36*
X35800Y24452D02*
X35719Y24441D01*
X35644Y24410D01*
X35579Y24360D01*
X35530Y24296D01*
X35499Y24221D01*
X35488Y24140D01*
X35499Y24059D01*
X35500Y24055D01*
X35491Y24041D01*
X35479Y23980D01*
X35479Y23980D01*
Y23415D01*
X35404D01*
Y22667D01*
X35876D01*
Y23415D01*
X35800D01*
Y23828D01*
X35880Y23839D01*
X35956Y23870D01*
X36020Y23920D01*
X36070Y23984D01*
X36101Y24059D01*
X36111Y24140D01*
X36101Y24221D01*
X36070Y24296D01*
X36020Y24360D01*
X35956Y24410D01*
X35880Y24441D01*
X35800Y24452D01*
D02*
G37*
G36*
X34696Y22991D02*
X34142D01*
Y22626D01*
X34371D01*
X34628Y22369D01*
X34661Y22347D01*
X34699Y22340D01*
X36875D01*
X36885Y22329D01*
X36918Y22295D01*
X36918D01*
X36918Y22295D01*
Y21832D01*
X37315D01*
Y22295D01*
X37198D01*
X37187Y22311D01*
X36987Y22511D01*
X36955Y22533D01*
X36916Y22540D01*
X34741D01*
X34684Y22597D01*
X34696Y22626D01*
X34696D01*
Y22991D01*
D02*
G37*
G36*
X37315Y21732D02*
X36918D01*
Y21268D01*
X36927D01*
X36946Y21222D01*
X36725Y21000D01*
X36678Y21020D01*
Y21220D01*
X36664Y21331D01*
X36621Y21435D01*
X36553Y21523D01*
X36464Y21592D01*
X36361Y21634D01*
X36300Y21642D01*
Y20758D01*
Y19873D01*
X36361Y19881D01*
X36464Y19924D01*
X36553Y19992D01*
X36621Y20081D01*
X36664Y20184D01*
X36678Y20295D01*
Y20673D01*
X36687Y20679D01*
X37187Y21179D01*
X37209Y21212D01*
X37216Y21250D01*
Y21268D01*
X37315D01*
Y21732D01*
D02*
G37*
G36*
X36200Y21642D02*
X36139Y21634D01*
X36036Y21592D01*
X35947Y21523D01*
X35879Y21435D01*
X35836Y21331D01*
X35822Y21220D01*
Y20808D01*
X36200D01*
Y21642D01*
D02*
G37*
G36*
X37608Y21115D02*
X37516Y21103D01*
X37430Y21067D01*
X37356Y21011D01*
X37299Y20937D01*
X37263Y20850D01*
X37251Y20758D01*
X37263Y20665D01*
X37299Y20579D01*
X37356Y20505D01*
X37430Y20448D01*
X37516Y20413D01*
X37608Y20400D01*
X37701Y20413D01*
X37787Y20448D01*
X37861Y20505D01*
X37918Y20579D01*
X37953Y20665D01*
X37966Y20758D01*
X37953Y20850D01*
X37918Y20937D01*
X37861Y21011D01*
X37787Y21067D01*
X37701Y21103D01*
X37608Y21115D01*
D02*
G37*
G36*
X36200Y20708D02*
X35822D01*
Y20295D01*
X35836Y20184D01*
X35879Y20081D01*
X35947Y19992D01*
X36036Y19924D01*
X36139Y19881D01*
X36200Y19873D01*
Y20708D01*
D02*
G37*
G36*
X40788Y21642D02*
Y20808D01*
X41167D01*
Y21220D01*
X41152Y21331D01*
X41109Y21435D01*
X41041Y21523D01*
X40952Y21592D01*
X40849Y21634D01*
X40788Y21642D01*
D02*
G37*
G36*
X40688D02*
X40627Y21634D01*
X40524Y21592D01*
X40435Y21523D01*
X40367Y21435D01*
X40324Y21331D01*
X40310Y21220D01*
Y20808D01*
X40688D01*
Y21642D01*
D02*
G37*
G36*
Y20708D02*
X40310D01*
Y20295D01*
X40324Y20184D01*
X40367Y20081D01*
X40435Y19992D01*
X40524Y19924D01*
X40627Y19881D01*
X40688Y19873D01*
Y20708D01*
D02*
G37*
%LPD*%
D10*
X40305Y37756D02*
D03*
X39085D02*
D03*
X42933Y37333D02*
D03*
X41713D02*
D03*
X37589Y25482D02*
D03*
X36368D02*
D03*
X37589Y27215D02*
D03*
X36368D02*
D03*
X39016Y28012D02*
D03*
X40236D02*
D03*
D11*
X42618Y35591D02*
D03*
X42224D02*
D03*
X37825Y23996D02*
D03*
Y23602D02*
D03*
X38622Y23996D02*
D03*
Y23602D02*
D03*
X41663Y23602D02*
D03*
Y23996D02*
D03*
D12*
X42933Y29173D02*
D03*
X41713D02*
D03*
X34419Y23041D02*
D03*
X35640D02*
D03*
X36171Y38130D02*
D03*
X37392D02*
D03*
X41713Y27598D02*
D03*
X42933D02*
D03*
D13*
X43327Y21270D02*
D03*
Y21644D02*
D03*
Y22018D02*
D03*
X42343D02*
D03*
Y21644D02*
D03*
Y21270D02*
D03*
D14*
X34055Y34360D02*
D03*
Y34596D02*
D03*
X35935Y40906D02*
D03*
Y41142D02*
D03*
X37470Y40915D02*
D03*
Y41152D02*
D03*
X35935Y40010D02*
D03*
Y40246D02*
D03*
X36427Y40010D02*
D03*
Y40246D02*
D03*
X37461Y40030D02*
D03*
Y40266D02*
D03*
X36427Y40906D02*
D03*
Y41142D02*
D03*
X36939Y40915D02*
D03*
Y41152D02*
D03*
D15*
X43071Y32638D02*
D03*
Y31417D02*
D03*
X43051Y34764D02*
D03*
Y33543D02*
D03*
D16*
X34252Y32500D02*
D03*
Y33720D02*
D03*
Y30561D02*
D03*
Y31781D02*
D03*
X34232Y29242D02*
D03*
Y28022D02*
D03*
X34281Y25423D02*
D03*
Y26644D02*
D03*
X34203Y36319D02*
D03*
Y37539D02*
D03*
X42736Y38652D02*
D03*
Y39872D02*
D03*
D17*
X36299Y37008D02*
D03*
X36535D02*
D03*
X36919Y36811D02*
D03*
X37156D02*
D03*
X37165Y37215D02*
D03*
X36929D02*
D03*
X36545Y28465D02*
D03*
X36781D02*
D03*
Y28868D02*
D03*
X36545D02*
D03*
X37303Y28671D02*
D03*
X37539D02*
D03*
D18*
X34213Y38780D02*
D03*
Y39528D02*
D03*
D19*
X39872Y21781D02*
D03*
X38888D02*
D03*
X38100D02*
D03*
X37116D02*
D03*
D20*
X35856Y48642D02*
D03*
Y48169D02*
D03*
Y47697D02*
D03*
Y47224D02*
D03*
Y46752D02*
D03*
Y46280D02*
D03*
Y45807D02*
D03*
Y45335D02*
D03*
Y44862D02*
D03*
Y44390D02*
D03*
Y43917D02*
D03*
Y43445D02*
D03*
X41093D02*
D03*
Y43917D02*
D03*
Y44390D02*
D03*
Y44862D02*
D03*
Y45335D02*
D03*
Y45807D02*
D03*
Y46280D02*
D03*
Y46752D02*
D03*
Y47224D02*
D03*
Y47697D02*
D03*
Y48169D02*
D03*
Y48642D02*
D03*
D21*
X39715Y42343D02*
D03*
X37274D02*
D03*
X39203D02*
D03*
X40108D02*
D03*
X38258D02*
D03*
X38730D02*
D03*
X36880D02*
D03*
X37785D02*
D03*
D22*
X39459Y40581D02*
D03*
X41427D02*
D03*
D23*
X36063Y36152D02*
D03*
X36260D02*
D03*
X36457D02*
D03*
X36654D02*
D03*
X36850D02*
D03*
X37047D02*
D03*
X37244D02*
D03*
X37441D02*
D03*
X37638D02*
D03*
X37835D02*
D03*
X38031D02*
D03*
X38228D02*
D03*
X38425D02*
D03*
X38622D02*
D03*
X38819D02*
D03*
X39016D02*
D03*
X39213D02*
D03*
X39409D02*
D03*
X39606D02*
D03*
X39803D02*
D03*
X40000D02*
D03*
X40197D02*
D03*
X40394D02*
D03*
X40591D02*
D03*
X40787D02*
D03*
Y30207D02*
D03*
X40591D02*
D03*
X40394D02*
D03*
X40197D02*
D03*
X40000D02*
D03*
X39803D02*
D03*
X39606D02*
D03*
X39409D02*
D03*
X39213D02*
D03*
X39016D02*
D03*
X38819D02*
D03*
X38622D02*
D03*
X38425D02*
D03*
X38228D02*
D03*
X38031D02*
D03*
X37835D02*
D03*
X37638D02*
D03*
X37441D02*
D03*
X37244D02*
D03*
X37047D02*
D03*
X36850D02*
D03*
X36654D02*
D03*
X36457D02*
D03*
X36260D02*
D03*
X36063D02*
D03*
D24*
X41398Y35541D02*
D03*
Y35344D02*
D03*
Y35148D02*
D03*
Y34951D02*
D03*
Y34754D02*
D03*
Y34557D02*
D03*
Y34360D02*
D03*
Y34163D02*
D03*
Y33967D02*
D03*
Y33770D02*
D03*
Y33573D02*
D03*
Y33376D02*
D03*
Y33179D02*
D03*
Y32982D02*
D03*
Y32785D02*
D03*
Y32589D02*
D03*
Y32392D02*
D03*
Y32195D02*
D03*
Y31998D02*
D03*
Y31801D02*
D03*
Y31604D02*
D03*
Y31407D02*
D03*
Y31211D02*
D03*
Y31014D02*
D03*
Y30817D02*
D03*
X35453D02*
D03*
Y31014D02*
D03*
Y31211D02*
D03*
Y31407D02*
D03*
Y31604D02*
D03*
Y31801D02*
D03*
Y31998D02*
D03*
Y32195D02*
D03*
Y32392D02*
D03*
Y32589D02*
D03*
Y32785D02*
D03*
Y32982D02*
D03*
Y33179D02*
D03*
Y33376D02*
D03*
Y33573D02*
D03*
Y33770D02*
D03*
Y33967D02*
D03*
Y34163D02*
D03*
Y34360D02*
D03*
Y34557D02*
D03*
Y34754D02*
D03*
Y34951D02*
D03*
Y35148D02*
D03*
Y35344D02*
D03*
Y35541D02*
D03*
D25*
X42008Y25984D02*
D03*
X42756D02*
D03*
D26*
X43270Y40370D02*
X43360Y40280D01*
X41478Y41918D02*
X42830Y43270D01*
X41427Y41867D02*
X41478Y41918D01*
X43270Y38800D02*
Y40370D01*
X37274Y41348D02*
Y42023D01*
X37310Y40416D02*
X37410Y40316D01*
X42432Y31546D02*
Y33440D01*
X42400D02*
Y33463D01*
Y33090D02*
Y33440D01*
X42756Y26487D02*
Y26640D01*
Y25984D02*
Y26487D01*
X41678Y27564D02*
X42756Y26487D01*
X41530Y27416D02*
X41678Y27564D01*
X37104Y40010D02*
X37410Y40316D01*
X36260Y36640D02*
Y36750D01*
Y36152D02*
Y36640D01*
X35262Y48804D02*
X35270Y48800D01*
X35250Y48810D02*
X35262Y48804D01*
X34113Y39528D02*
Y40179D01*
X33814Y39528D02*
X34113D01*
X36368Y28230D02*
Y29030D01*
X36250Y20750D02*
X36616D01*
X34670Y31591D02*
Y32400D01*
Y30561D02*
Y31591D01*
X33911Y32500D02*
Y32801D01*
X40236Y28020D02*
X41450D01*
X33850Y37539D02*
Y39060D01*
X38888Y22240D02*
Y22550D01*
Y21781D02*
Y22240D01*
X37680Y23996D02*
X37825D01*
X37134D02*
X37680D01*
X41110Y37660D02*
Y39256D01*
X40950Y37450D02*
Y39256D01*
X41678Y27564D02*
X41713Y27598D01*
X42560Y31417D02*
X43071D01*
X42432Y31546D02*
X42560Y31417D01*
X42400Y33440D02*
X42432D01*
X42400D02*
X43051Y33543D01*
X33609Y39323D02*
X33814Y39528D01*
X33609Y35149D02*
Y39323D01*
X32983Y34523D02*
X33609Y35149D01*
X32983Y33729D02*
Y34523D01*
Y33729D02*
X33911Y32801D01*
Y32500D02*
X34252D01*
X36260Y36750D02*
X36299Y36789D01*
X36260Y36640D02*
X38720D01*
X39085Y37005D01*
Y37756D01*
X43676Y21644D02*
X43840Y21480D01*
X43327Y21644D02*
X43676D01*
X36781Y28868D02*
Y29030D01*
X36666Y29154D02*
X36781Y29030D01*
X36480Y29154D02*
X36666D01*
X36071Y29563D02*
X36480Y29154D01*
X36071Y29563D02*
X36260Y29760D01*
X34252Y30561D02*
X34670D01*
X34870Y30400D01*
Y30060D02*
Y30400D01*
X36063Y29563D02*
X36071D01*
X36260Y29760D02*
Y30207D01*
X41478Y41918D02*
Y42942D01*
X41472Y42948D02*
X41478Y42942D01*
X40023Y42948D02*
X41472D01*
X39715Y42640D02*
X40023Y42948D01*
X39715Y42343D02*
Y42640D01*
X42830Y43270D02*
Y46310D01*
X41427Y40581D02*
Y41867D01*
X35428Y48642D02*
X35856D01*
X34015Y48810D02*
X35250D01*
X33925Y48720D02*
X34015Y48810D01*
X33925Y48091D02*
Y48720D01*
X33211Y47376D02*
X33925Y48091D01*
X33211Y44624D02*
Y47376D01*
Y44624D02*
X34419Y43415D01*
X35270Y48800D02*
X35428Y48642D01*
X35260Y48800D02*
X35270Y48800D01*
X35260D02*
Y48800D01*
X34203Y36319D02*
X34757D01*
X34929Y36147D01*
X36171Y37628D02*
Y38130D01*
Y37628D02*
X36299Y37500D01*
Y37008D02*
Y37500D01*
X42736Y38652D02*
X43122D01*
X43270Y38800D01*
X43059Y40581D02*
X43270Y40370D01*
X41427Y40581D02*
X43059D01*
X37410Y40316D02*
X37461Y40266D01*
X36427Y40010D02*
X37104D01*
X42224Y35486D02*
Y35591D01*
Y35486D02*
X42266Y35444D01*
X42351D01*
X42404Y35390D01*
X42840D01*
Y35520D01*
X43700Y36380D01*
X43684Y34764D02*
X43844Y34924D01*
X33944Y26644D02*
X34281D01*
X33860Y26560D02*
X33944Y26644D01*
X33860Y24130D02*
Y26560D01*
X40236Y28012D02*
Y28020D01*
X41450D02*
X41660Y28230D01*
X43051Y34764D02*
X43684D01*
X33770Y27155D02*
X34281Y26644D01*
X33770Y27155D02*
Y28780D01*
X34232Y29242D01*
X34213Y38780D02*
X34460D01*
X34760Y38480D01*
Y36620D02*
Y38480D01*
Y36620D02*
X34880Y36500D01*
X35720D01*
X35910Y36310D01*
Y35510D02*
Y36310D01*
Y35510D02*
X40510Y30910D01*
Y30720D02*
Y30910D01*
Y30720D02*
X40591Y30639D01*
Y30207D02*
Y30639D01*
X33784Y34868D02*
X34055Y34596D01*
X33784Y34868D02*
Y37493D01*
X34203Y37539D01*
X33580Y33603D02*
Y33840D01*
Y33603D02*
X33807Y33376D01*
X35453D01*
X43101Y21270D02*
X43327D01*
X43010Y21360D02*
X43101Y21270D01*
X43010Y21360D02*
Y21830D01*
X42314Y22526D02*
X43010Y21830D01*
X39174Y22526D02*
X42314D01*
X38888Y22240D02*
X39174Y22526D01*
X37440Y23756D02*
X37680Y23996D01*
X37440Y23240D02*
Y23756D01*
X42780Y34160D02*
X43930D01*
X42186Y34754D02*
X42780Y34160D01*
X41398Y34754D02*
X42186D01*
X40394Y36152D02*
Y36614D01*
X40420Y36800D01*
X35230Y37890D02*
X35930Y37190D01*
X35230Y37890D02*
Y39250D01*
X40394Y36614D02*
X40420Y36640D01*
Y36800D01*
X40197Y35513D02*
X40200Y35510D01*
X40197Y35513D02*
Y36152D01*
X43600Y33820D02*
X43930Y33490D01*
X42506Y33820D02*
X43600D01*
X41398Y33770D02*
X42506Y33820D01*
X38720Y39520D02*
Y41290D01*
X38240Y39040D02*
X38720Y39520D01*
X41398Y32589D02*
X41920D01*
X42260Y32249D01*
Y30790D02*
Y32249D01*
Y30790D02*
X42650Y30400D01*
Y28750D02*
Y30400D01*
Y28750D02*
X43220D01*
Y29820D01*
X44280Y30880D01*
Y32388D01*
X44416Y32524D01*
Y48394D01*
X43700Y49110D02*
X44416Y48394D01*
X42013Y49110D02*
X43700D01*
X41843Y49280D02*
X42013Y49110D01*
X40250Y49280D02*
X41843D01*
X40090Y49440D02*
X40250Y49280D01*
X40090Y49440D02*
Y51020D01*
X35856Y47224D02*
X36480D01*
X36800Y47544D01*
Y48850D01*
X36480Y49170D02*
X36800Y48850D01*
X33280Y49170D02*
X36480D01*
X32760Y48650D02*
X33280Y49170D01*
X32760Y36010D02*
Y48650D01*
Y36010D02*
X32900Y35870D01*
X37638Y30207D02*
Y30848D01*
X37640Y30850D01*
X33270Y30690D02*
Y31423D01*
X33498Y31652D01*
Y32938D01*
X32846Y33591D02*
X33498Y32938D01*
X32846Y33591D02*
Y34580D01*
X33471Y35206D01*
Y40613D01*
X33618Y40760D01*
Y42722D01*
X33480Y42860D02*
X33618Y42722D01*
X35260Y46752D02*
X35856D01*
X36939Y41152D02*
Y41472D01*
X36161Y42250D02*
X36939Y41472D01*
X36161Y42250D02*
Y42410D01*
X41685Y43445D02*
X41690Y43440D01*
X41093Y43445D02*
X41685D01*
X40348Y46752D02*
X41093D01*
X33073Y48360D02*
X33523Y48810D01*
X33073Y44534D02*
Y48360D01*
Y44534D02*
X33498Y44108D01*
Y43520D02*
Y44108D01*
X33110Y43132D02*
X33498Y43520D01*
X33110Y41130D02*
Y43132D01*
Y41130D02*
X33270Y40970D01*
X41130Y41573D02*
Y42171D01*
X40810Y41253D02*
X41130Y41573D01*
X40810Y40000D02*
Y41253D01*
Y40000D02*
X41200Y39610D01*
X41660D01*
X41781Y39489D01*
Y39091D02*
Y39489D01*
X41430Y38740D02*
X41781Y39091D01*
X41430Y37203D02*
Y38740D01*
X40787Y36560D02*
X41430Y37203D01*
X40787Y36152D02*
Y36560D01*
X37600Y35450D02*
X37918D01*
X38228Y35760D01*
Y36152D01*
X36988Y28671D02*
X37303D01*
X36781Y28465D02*
X36988Y28671D01*
X36722Y37008D02*
X36919Y36811D01*
X36535Y37008D02*
X36722D01*
X41242Y23996D02*
X41663D01*
X38000Y27238D02*
X41242Y23996D01*
X38000Y27238D02*
Y28146D01*
X38514Y28660D01*
X40166D01*
X41478Y29973D01*
Y30280D01*
X41280Y30479D02*
X41478Y30280D01*
X41120Y30479D02*
X41280D01*
X40950Y30649D02*
X41120Y30479D01*
X40950Y30649D02*
Y31680D01*
X38512Y34118D02*
X40950Y31680D01*
X38512Y34118D02*
Y34473D01*
X38720Y34682D01*
X40134D01*
X40653Y34163D01*
X41398D01*
X41093Y47697D02*
X41490D01*
Y48800D01*
X41390Y48900D02*
X41490Y48800D01*
X38510Y48900D02*
X41390D01*
X37890Y49520D02*
X38510Y48900D01*
X33040Y49520D02*
X37890D01*
X32542Y49022D02*
X33040Y49520D01*
X32542Y32608D02*
Y49022D01*
Y32608D02*
X33150Y32000D01*
X41093Y47224D02*
X41440D01*
X41630Y47414D01*
Y48938D01*
X41530Y49038D02*
X41630Y48938D01*
X39660Y49038D02*
X41530D01*
X37598Y51100D02*
X39660Y49038D01*
X36150Y51100D02*
X37598D01*
X37130Y24000D02*
X37134Y23996D01*
X41666Y22178D02*
X41826Y22018D01*
X42343D01*
X39872Y19930D02*
Y21781D01*
X37825Y23602D02*
X37982D01*
X38122Y23742D01*
Y23922D01*
X38400Y24200D01*
X39800D01*
X40850Y23150D01*
X43310D01*
X43740Y22720D01*
Y22158D02*
Y22720D01*
X43600Y22018D02*
X43740Y22158D01*
X43327Y22018D02*
X43600D01*
X41920Y21270D02*
X42343D01*
X41570Y20920D02*
X41920Y21270D01*
X41570Y20360D02*
Y20920D01*
X40790Y19580D02*
X41570Y20360D01*
X38650Y19580D02*
X40790D01*
X38400Y19830D02*
X38650Y19580D01*
X38400Y19830D02*
Y23916D01*
X38480Y23996D01*
X38622D01*
X40394Y30207D02*
Y30636D01*
X40000Y31030D02*
X40394Y30636D01*
X38610Y31030D02*
X40000D01*
X32708Y33042D02*
X33150Y32600D01*
X32708Y33042D02*
Y34969D01*
X33310Y35571D01*
Y39890D01*
X32900Y40300D02*
X33310Y39890D01*
X32900Y40300D02*
Y43500D01*
X33150Y43750D01*
X36110Y41330D02*
X36280Y41500D01*
X36110Y41016D02*
Y41330D01*
X36000Y40906D02*
X36110Y41016D01*
X35935Y40906D02*
X36000D01*
X34113Y39528D02*
X34213D01*
X33913Y40380D02*
X34113Y40179D01*
X33913Y40380D02*
Y42909D01*
X34419Y43415D01*
X35856Y46280D02*
X36450D01*
X36450Y46280D01*
X37830Y41120D02*
Y41510D01*
X37625Y40915D02*
X37830Y41120D01*
X37470Y40915D02*
X37625D01*
X34541Y40246D02*
X35935D01*
X34213Y40575D02*
X34541Y40246D01*
X34213Y40575D02*
Y42193D01*
X34661Y42641D01*
X35372D01*
X35912Y43180D01*
X37290D01*
X38528Y44418D01*
Y44903D01*
X38796Y45170D01*
X39280D01*
X40498Y44862D02*
X41093D01*
X33850Y37539D02*
X34203D01*
X33850Y39060D02*
X34040Y39250D01*
X34570D01*
Y39950D01*
X34075Y40445D02*
X34570Y39950D01*
X34075Y40445D02*
Y42700D01*
X34365Y42990D01*
X35020D01*
X39016Y28012D02*
X39611Y27416D01*
X41530D01*
X41398Y35148D02*
X42095D01*
X42129Y35114D01*
X43338D01*
X43495Y35272D01*
X44192D01*
X44278Y35186D01*
Y32848D02*
Y35186D01*
X44090Y32660D02*
X44278Y32848D01*
X44090Y31290D02*
Y32660D01*
X43930Y31130D02*
X44090Y31290D01*
X41270Y27068D02*
X42008Y26330D01*
Y25984D02*
Y26330D01*
X38622Y23800D02*
Y23996D01*
Y23800D02*
X39320D01*
X41853Y34557D02*
X42130Y34280D01*
X41398Y34557D02*
X41853D01*
X34281Y25070D02*
Y25423D01*
Y25070D02*
X34419Y24933D01*
Y23041D02*
Y24933D01*
X40448Y49660D02*
X43850D01*
X44554Y48956D01*
Y27380D02*
Y48956D01*
X44160Y26986D02*
X44554Y27380D01*
X42857Y26986D02*
X44160D01*
X42657Y27185D02*
X42857Y26986D01*
X42657Y27185D02*
Y27763D01*
X41842Y28578D02*
X42657Y27763D01*
X41600Y28578D02*
X41842D01*
X41430Y28748D02*
X41600Y28578D01*
X41430Y28748D02*
Y29550D01*
X41840Y29960D01*
Y32312D01*
X41760Y32392D02*
X41840Y32312D01*
X41398Y32392D02*
X41760D01*
X40869Y34951D02*
X41398D01*
X40650Y35170D02*
X40869Y34951D01*
X41850Y35520D02*
Y35880D01*
Y35520D02*
X42060Y35310D01*
X42212D01*
X42270Y35252D01*
X43269D01*
X44048Y36032D01*
Y47972D01*
X43730Y48290D02*
X44048Y47972D01*
X37900Y32120D02*
X38660D01*
X39360Y31420D01*
X36368Y29030D02*
X36781D01*
X42480Y33543D02*
X43051D01*
X42400Y33463D02*
X42480Y33543D01*
X40001Y33179D02*
X41398D01*
X38860Y34320D02*
X40001Y33179D01*
X39370Y39180D02*
X40010Y39820D01*
X39370Y38860D02*
Y39180D01*
X35200Y39820D02*
X35680Y39340D01*
Y38100D02*
Y39340D01*
X36780Y38270D02*
X37200Y38690D01*
X38600D01*
X38770Y38860D01*
X40970Y37520D02*
X41110Y37660D01*
X40507Y43917D02*
X41093D01*
X40470Y43880D02*
X40507Y43917D01*
X38930Y43600D02*
Y44700D01*
X38290Y42960D02*
X38930Y43600D01*
X36160Y42960D02*
X38290D01*
X35810Y42610D02*
X36160Y42960D01*
X35810Y41267D02*
Y42610D01*
Y41267D02*
X35935Y41142D01*
X37274Y41348D02*
X37470Y41152D01*
X36171Y38130D02*
Y39774D01*
X35935Y40010D02*
X36171Y39774D01*
X33925Y32982D02*
X35453D01*
X33121Y33786D02*
X33925Y32982D01*
X33121Y33786D02*
Y34451D01*
X33266Y34596D01*
X34055D01*
X33820Y46660D02*
X33970Y46810D01*
X34630D01*
X35517Y47697D01*
X35856D01*
X39409Y35030D02*
Y36152D01*
X40197Y30207D02*
Y30563D01*
X40080Y30680D02*
X40197Y30563D01*
X38320Y30680D02*
X40080D01*
X37440Y31560D02*
X38320Y30680D01*
X37440Y31560D02*
Y32880D01*
X36500Y33820D02*
X37440Y32880D01*
X34640Y40650D02*
X34880Y40410D01*
X36434D01*
X36939Y40915D01*
X36427Y40246D02*
X36706D01*
X37100Y40640D01*
Y41580D01*
X36624Y42056D02*
X37100Y41580D01*
X36624Y42056D02*
Y42644D01*
X36720Y42740D01*
X38470D01*
X39990Y44260D01*
Y47789D01*
X40370Y48169D01*
X41093D01*
X36100Y34030D02*
Y34470D01*
X35840Y33770D02*
X36100Y34030D01*
X35453Y33770D02*
X35840D01*
X36101Y32840D02*
Y32960D01*
X35882Y33179D02*
X36101Y32960D01*
X35453Y33179D02*
X35882D01*
X36786Y40915D02*
X36939D01*
X36560Y41142D02*
X36786Y40915D01*
X36427Y41142D02*
X36560D01*
X36299Y36789D02*
Y37008D01*
X37244Y35206D02*
Y36152D01*
Y35206D02*
X37570Y34880D01*
X38090D01*
X38650Y35440D01*
X37701Y36811D02*
X37880Y36990D01*
X37156Y36811D02*
X37701D01*
X37303Y28671D02*
Y28753D01*
X38228Y29678D01*
Y30207D01*
X35688Y28910D02*
X36368Y28230D01*
Y27215D02*
Y28230D01*
X37461Y40030D02*
X37760D01*
X38352Y40621D01*
Y41600D01*
X38550Y41798D01*
X40500D01*
X35856Y48169D02*
X36450D01*
X40000Y36152D02*
Y37000D01*
X40160Y37160D01*
X40660D01*
X40950Y37450D01*
X37399Y41080D02*
X37470Y41152D01*
X37310Y41080D02*
X37399D01*
X37310Y40416D02*
Y41080D01*
X39715Y42000D02*
Y42343D01*
X39651Y41936D02*
X39715Y42000D01*
X37360Y41936D02*
X39651D01*
X37274Y42023D02*
X37360Y41936D01*
X37274Y42023D02*
Y42343D01*
X34670Y31591D02*
X34880Y31801D01*
X35453D01*
X41427Y40010D02*
Y40581D01*
Y40010D02*
X41578Y39859D01*
X41739D01*
X41919Y39680D01*
Y38782D02*
Y39680D01*
X41713Y38576D02*
X41919Y38782D01*
X41713Y37333D02*
Y38576D01*
X39790Y34180D02*
X40397Y33573D01*
X41398D01*
X41026Y35344D02*
X41398D01*
X40930Y35440D02*
X41026Y35344D01*
X40930Y35440D02*
Y36457D01*
X41713Y37240D01*
Y37333D01*
X36250Y20750D02*
Y20758D01*
X36616Y20750D02*
X37116Y21250D01*
Y21781D01*
X34232Y29242D02*
X34880D01*
X35220Y29582D01*
Y30310D01*
X34930Y30600D02*
X35220Y30310D01*
X34930Y30600D02*
Y31297D01*
X35040Y31407D01*
X35453D01*
X37116Y21781D02*
Y22240D01*
X36916Y22440D02*
X37116Y22240D01*
X34699Y22440D02*
X36916D01*
X34419Y22720D02*
X34699Y22440D01*
X34419Y22720D02*
Y23041D01*
X34570Y32500D02*
X34670Y32400D01*
X34252Y32500D02*
X34570D01*
X43071Y30358D02*
Y31417D01*
X42933Y30220D02*
X43071Y30358D01*
X42933Y29173D02*
Y30220D01*
X35349Y25482D02*
X36368D01*
X35290Y25423D02*
X35349Y25482D01*
X34281Y25423D02*
X35290D01*
X35697Y27215D02*
X36368D01*
X34890Y28022D02*
X35697Y27215D01*
X34232Y28022D02*
X34890D01*
X36368Y25482D02*
Y27215D01*
X35150Y43445D02*
X35856D01*
X35120Y43415D02*
X35150Y43445D01*
X34419Y43415D02*
X35120D01*
X35935Y40010D02*
X36427D01*
X35453Y31407D02*
Y31604D01*
X38622Y22816D02*
Y23602D01*
Y22816D02*
X38888Y22550D01*
X37825Y22826D02*
Y23602D01*
Y22826D02*
X38100Y22550D01*
Y21781D02*
Y22550D01*
X36545Y28465D02*
Y28868D01*
X37165Y37010D02*
Y37215D01*
X37156Y37000D02*
X37165Y37010D01*
X37156Y36811D02*
Y37000D01*
X41398Y34163D02*
Y34360D01*
D27*
X43070Y39440D02*
Y39872D01*
X42618Y35692D02*
Y36300D01*
X43390Y32400D02*
Y32638D01*
X42940Y31950D02*
X43390Y32400D01*
X40000Y40581D02*
X40129Y40709D01*
X40190Y40771D01*
X40305Y38823D02*
Y39280D01*
X41713Y28990D02*
Y29173D01*
X35408Y40960D02*
X35579Y40789D01*
X36964Y25170D02*
X37589D01*
X42910Y39280D02*
X43070Y39440D01*
X42736Y39872D02*
X43070D01*
X38338Y29470D02*
X40497D01*
X39611Y38450D02*
X40305Y37756D01*
X37712Y38450D02*
X39611D01*
X37392Y38130D02*
X37712Y38450D01*
X40305Y39280D02*
X40577Y39553D01*
Y40261D01*
X40129Y40709D02*
X40577Y40261D01*
X39459Y40581D02*
X40000D01*
X35856Y43917D02*
X37483D01*
X33640Y31140D02*
Y31502D01*
X33920Y31781D01*
X34252D01*
X36188Y31998D02*
X36510Y32320D01*
X34055Y33917D02*
X34252Y33720D01*
X40190Y40771D02*
Y41210D01*
X35408Y40960D02*
Y42234D01*
X35640Y23041D02*
Y23980D01*
X35800Y24140D01*
X43071Y32638D02*
X43390D01*
X41713Y29173D02*
X42083D01*
X42190Y29280D01*
Y29910D01*
X41713Y28800D02*
Y28990D01*
X42933Y27770D01*
Y27598D02*
Y27770D01*
X34203Y43917D02*
X35856D01*
X33407Y44713D02*
X34203Y43917D01*
X33407Y44713D02*
Y47067D01*
X34419Y48079D01*
Y48415D01*
X38412Y33808D02*
X40702Y31518D01*
X38042Y33808D02*
X38412D01*
X37621Y34229D02*
X38042Y33808D01*
X41940Y23702D02*
Y24740D01*
X39899Y26781D02*
X41940Y24740D01*
X42343Y21644D02*
X42623D01*
X42717Y21550D01*
Y21153D02*
Y21550D01*
Y21153D02*
X42880Y20990D01*
X44000D01*
X44250Y21240D01*
Y22930D01*
X43578Y23602D02*
X44250Y22930D01*
X40305Y37756D02*
Y38823D01*
X40930Y23792D02*
Y23800D01*
Y23792D02*
X41120Y23602D01*
X37589Y25170D02*
Y25482D01*
X37392Y37770D02*
Y38130D01*
X42933Y37333D02*
Y37627D01*
X42220Y38340D02*
X42933Y37627D01*
X42220Y38340D02*
Y39356D01*
X42736Y39872D01*
X42933Y36615D02*
Y37333D01*
X42618Y36300D02*
X42933Y36615D01*
X37589Y25482D02*
Y27215D01*
D28*
X35579Y40789D02*
X35680Y40688D01*
X37539Y28671D02*
X37600Y28611D01*
X37589Y27215D02*
X37600Y28611D01*
X37539Y28671D02*
X38338Y29470D01*
X40497D02*
X40787Y29760D01*
Y30207D01*
X35550Y40760D02*
X35579Y40789D01*
X35680Y40688D02*
X36210D01*
X35453Y33573D02*
X36000D01*
X36457Y30207D02*
X36510Y32320D01*
X36000Y33573D02*
X36510Y33063D01*
Y32320D02*
Y33063D01*
X35453Y31998D02*
X36188D01*
X34770Y33720D02*
X35000Y33573D01*
X34252Y33720D02*
X34770D01*
X34055Y33917D02*
Y34360D01*
X36210Y40688D02*
X36427Y40906D01*
X36063Y36152D02*
Y36390D01*
X35179Y37274D02*
X36063Y36390D01*
X36457Y29803D02*
Y30207D01*
Y29803D02*
X36700Y29560D01*
X40787Y30207D02*
Y30812D01*
X40702Y30897D02*
X40787Y30812D01*
X40702Y30897D02*
Y31518D01*
X36063Y35787D02*
X37621Y34229D01*
X36063Y35787D02*
Y36152D01*
X40864Y30130D02*
X41130D01*
X40787Y30207D02*
X40864Y30130D01*
X41398Y35541D02*
Y36040D01*
X41600Y36242D01*
X42068D01*
X42618Y35692D01*
X36929Y37215D02*
Y37307D01*
X37392Y37770D01*
X35000Y34557D02*
X35453D01*
X35000Y33573D02*
Y34557D01*
Y33573D02*
X35453D01*
D29*
X41840Y23602D02*
X43578D01*
X42618Y35591D02*
Y35692D01*
X41663Y23602D02*
X41840D01*
X41940Y23702D01*
X41120Y23602D02*
X41663D01*
D30*
X34419Y43415D02*
D03*
Y44415D02*
D03*
Y45415D02*
D03*
Y46415D02*
D03*
Y47415D02*
D03*
D31*
Y48415D02*
D03*
D32*
X39380Y20758D02*
D03*
X37608D02*
D03*
D33*
X40738D02*
D03*
X36250D02*
D03*
D34*
X43840Y21480D02*
D03*
X34870Y30060D02*
D03*
X36063Y29563D02*
D03*
X42830Y46310D02*
D03*
X35260Y48800D02*
D03*
X34929Y36147D02*
D03*
X43360Y40280D02*
D03*
X43700Y36380D02*
D03*
X43844Y34924D02*
D03*
X33860Y24130D02*
D03*
X41660Y28230D02*
D03*
X33580Y33840D02*
D03*
X37440Y23240D02*
D03*
X43930Y34160D02*
D03*
X35930Y37190D02*
D03*
X35230Y39250D02*
D03*
X40420Y36800D02*
D03*
X40200Y35510D02*
D03*
X43930Y33490D02*
D03*
X38720Y41290D02*
D03*
X38240Y39040D02*
D03*
X40090Y51020D02*
D03*
X32900Y35870D02*
D03*
X37640Y30850D02*
D03*
X33270Y30690D02*
D03*
X33480Y42860D02*
D03*
X35260Y46752D02*
D03*
X36161Y42410D02*
D03*
X41690Y43440D02*
D03*
X40348Y46752D02*
D03*
X33523Y48810D02*
D03*
X33270Y40970D02*
D03*
X41130Y42171D02*
D03*
X37600Y35450D02*
D03*
X42910Y39280D02*
D03*
X37483Y43917D02*
D03*
X35550Y40760D02*
D03*
X33640Y31140D02*
D03*
X33150Y32000D02*
D03*
X36150Y51100D02*
D03*
X37130Y24000D02*
D03*
X41666Y22178D02*
D03*
X39872Y19930D02*
D03*
X38610Y31030D02*
D03*
X33150Y32600D02*
D03*
Y43750D02*
D03*
X36280Y41500D02*
D03*
X36450Y46280D02*
D03*
X37830Y41510D02*
D03*
X39280Y45170D02*
D03*
X40498Y44862D02*
D03*
X40190Y41210D02*
D03*
X35408Y42234D02*
D03*
X35020Y42990D02*
D03*
X42756Y26640D02*
D03*
X43930Y31130D02*
D03*
X41270Y27068D02*
D03*
X39320Y23800D02*
D03*
X42130Y34280D02*
D03*
X35800Y24140D02*
D03*
X40448Y49660D02*
D03*
X40650Y35170D02*
D03*
X41850Y35880D02*
D03*
X43730Y48290D02*
D03*
X37900Y32120D02*
D03*
X39360Y31420D02*
D03*
X42940Y31950D02*
D03*
X42190Y29910D02*
D03*
X42400Y33090D02*
D03*
X35179Y37274D02*
D03*
X38860Y34320D02*
D03*
X40010Y39820D02*
D03*
X39370Y38860D02*
D03*
X35200Y39820D02*
D03*
X35680Y38100D02*
D03*
X36780Y38270D02*
D03*
X38770Y38860D02*
D03*
X40970Y37520D02*
D03*
X41110Y39256D02*
D03*
X36700Y29560D02*
D03*
X40470Y43880D02*
D03*
X38930Y44700D02*
D03*
X33820Y46660D02*
D03*
X39409Y35030D02*
D03*
X36500Y33820D02*
D03*
X34640Y40650D02*
D03*
X36100Y34470D02*
D03*
X36101Y32840D02*
D03*
X38650Y35440D02*
D03*
X37880Y36990D02*
D03*
X35688Y28910D02*
D03*
X40500Y41798D02*
D03*
X36450Y48169D02*
D03*
X40950Y39256D02*
D03*
X41130Y30130D02*
D03*
X39790Y34180D02*
D03*
X39899Y26781D02*
D03*
X40305Y38823D02*
D03*
X40930Y23800D02*
D03*
X36964Y25170D02*
D03*
M02*
