M48
;Layer_Color=9474304
;FILE_FORMAT=2:4
INCH,LZ
;TYPE=PLATED
T1F00S00C0.0280
T2F00S00C0.0354
T3F00S00C0.0394
;TYPE=NON_PLATED
T4F00S00C0.0591
%
T01
X03386Y02413
X0358Y02414
X03713Y024
X03744Y02324
X036964Y02517
X03932Y0238
X04093
X041666Y022178
X04384Y02148
X039872Y01993
X039899Y026781
X04127Y027068
X04166Y02823
X04219Y02991
X04113Y03013
X03861Y03103
X03764Y03085
X0367Y02956
X036063Y029563
X035688Y02891
X03487Y03006
X03327Y03069
X03364Y03114
X04393Y03113
X042756Y02664
X04294Y03195
X0424Y03309
X04213Y03428
X04185Y03588
X04065Y03517
X0402Y03551
X039409Y03503
X03865Y03544
X0376Y03545
X03788Y03699
X03593Y03719
X035179Y037274
X03568Y0381
X03678Y03827
X03824Y03904
X03877Y03886
X03937
X040305Y038823
X04095Y039256
X04111
X04001Y03982
X04019Y04121
X0405Y041798
X04113Y042171
X04169Y04344
X04047Y04388
X040498Y044862
X03928Y04517
X03893Y0447
X037483Y043917
X03783Y04151
X03872Y04129
X03628Y0415
X036161Y04241
X035408Y042234
X03502Y04299
X03348Y04286
X03315Y04375
X03327Y04097
X03464Y04065
X03555Y04076
X0352Y03982
X03523Y03925
X034929Y036147
X0329Y03587
X03358Y03384
X03315Y0326
Y032
X036101Y03284
X0365Y03382
X0361Y03447
X03886Y03432
X03979Y03418
X03936Y03142
X0379Y03212
X04042Y0368
X04097Y03752
X04291Y03928
X04336Y04028
X0437Y03638
X043844Y034924
X04393Y03416
Y03349
X04283Y04631
X040348Y046752
X03645Y04628
X03526Y046752
X03382Y04666
X033523Y04881
X03526Y0488
X03645Y048169
X03615Y0511
X04009Y05102
X040448Y04966
X04373Y04829
T02
X034419Y043415
Y044415
Y045415
Y046415
Y047415
Y048415
T03
X03625Y020758
X040738
T04
X037608Y020758
X03938
M30
