G04 Layer_Color=128*
%FSLAX24Y24*%
%MOIN*%
G70*
G01*
G75*
%ADD26C,0.0079*%
%ADD46C,0.0050*%
%ADD47C,0.0098*%
%ADD50C,0.0060*%
%ADD51C,0.0100*%
D26*
X35709Y31043D02*
X36417D01*
X35709Y33012D02*
X36417D01*
X35709Y31043D02*
Y33012D01*
X36417Y31043D02*
Y33012D01*
X41073Y23848D02*
Y26329D01*
X42451Y23848D02*
Y26329D01*
X42431D02*
X42451D01*
X41073D02*
X41093D01*
X41073Y24774D02*
X42451D01*
X42431Y23848D02*
X42451D01*
X41073D02*
X41093D01*
X34919Y42915D02*
Y48915D01*
X33919Y42915D02*
Y48915D01*
X34919D01*
X33919Y42915D02*
X34919D01*
X39980Y31447D02*
Y31604D01*
X42343Y31447D02*
Y31604D01*
Y32667D02*
Y32825D01*
X39980Y32667D02*
Y32825D01*
Y31447D02*
X42343D01*
X39980Y32825D02*
X42343D01*
X35010Y35049D02*
Y37530D01*
X33632Y35049D02*
Y37530D01*
Y35049D02*
X33652D01*
X34990D02*
X35010D01*
X33632Y36604D02*
X35010D01*
X33632Y37530D02*
X33652D01*
X34990D02*
X35010D01*
X33898Y25541D02*
Y25738D01*
Y25541D02*
X36535D01*
Y25738D01*
X39419Y32214D02*
Y32149D01*
X39288Y32018D01*
X39157Y32149D01*
Y32214D01*
X39288Y32018D02*
Y31821D01*
X39026D02*
X38895D01*
X38960D01*
Y32214D01*
X39026Y32149D01*
X36841Y29183D02*
Y28855D01*
X36775Y28789D01*
X36644D01*
X36578Y28855D01*
Y29183D01*
X36185Y28789D02*
X36447D01*
X36185Y29052D01*
Y29117D01*
X36250Y29183D01*
X36381D01*
X36447Y29117D01*
X37218Y33818D02*
X37283Y33884D01*
X37414D01*
X37480Y33818D01*
Y33752D01*
X37414Y33687D01*
X37283D01*
X37218Y33621D01*
Y33556D01*
X37283Y33490D01*
X37414D01*
X37480Y33556D01*
X37086Y33490D02*
X36955D01*
X37021D01*
Y33884D01*
X37086Y33818D01*
X37070Y49850D02*
Y50244D01*
X36873D01*
X36808Y50178D01*
Y50047D01*
X36873Y49981D01*
X37070D01*
X36939D02*
X36808Y49850D01*
X36414D02*
X36676D01*
X36414Y50112D01*
Y50178D01*
X36480Y50244D01*
X36611D01*
X36676Y50178D01*
X36283Y49916D02*
X36217Y49850D01*
X36086D01*
X36020Y49916D01*
Y50178D01*
X36086Y50244D01*
X36217D01*
X36283Y50178D01*
Y50112D01*
X36217Y50047D01*
X36020D01*
X38553Y28356D02*
Y28750D01*
X38356D01*
X38291Y28684D01*
Y28553D01*
X38356Y28487D01*
X38553D01*
X38422D02*
X38291Y28356D01*
X37897D02*
X38160D01*
X37897Y28619D01*
Y28684D01*
X37963Y28750D01*
X38094D01*
X38160Y28684D01*
X37766D02*
X37700Y28750D01*
X37569D01*
X37504Y28684D01*
Y28619D01*
X37569Y28553D01*
X37504Y28487D01*
Y28422D01*
X37569Y28356D01*
X37700D01*
X37766Y28422D01*
Y28487D01*
X37700Y28553D01*
X37766Y28619D01*
Y28684D01*
X37700Y28553D02*
X37569D01*
X40886Y28061D02*
Y28455D01*
X40689D01*
X40623Y28389D01*
Y28258D01*
X40689Y28192D01*
X40886D01*
X40755D02*
X40623Y28061D01*
X40230D02*
X40492D01*
X40230Y28323D01*
Y28389D01*
X40295Y28455D01*
X40427D01*
X40492Y28389D01*
X40099Y28455D02*
X39836D01*
Y28389D01*
X40099Y28127D01*
Y28061D01*
X40856Y29193D02*
Y29586D01*
X40660D01*
X40594Y29521D01*
Y29390D01*
X40660Y29324D01*
X40856D01*
X40725D02*
X40594Y29193D01*
X40200D02*
X40463D01*
X40200Y29455D01*
Y29521D01*
X40266Y29586D01*
X40397D01*
X40463Y29521D01*
X39807Y29586D02*
X39938Y29521D01*
X40069Y29390D01*
Y29259D01*
X40004Y29193D01*
X39872D01*
X39807Y29259D01*
Y29324D01*
X39872Y29390D01*
X40069D01*
X39480Y30360D02*
Y30754D01*
X39283D01*
X39218Y30688D01*
Y30557D01*
X39283Y30491D01*
X39480D01*
X39349D02*
X39218Y30360D01*
X38824D02*
X39086D01*
X38824Y30622D01*
Y30688D01*
X38890Y30754D01*
X39021D01*
X39086Y30688D01*
X38430Y30754D02*
X38693D01*
Y30557D01*
X38562Y30622D01*
X38496D01*
X38430Y30557D01*
Y30426D01*
X38496Y30360D01*
X38627D01*
X38693Y30426D01*
X37579Y38376D02*
Y38770D01*
X37382D01*
X37316Y38704D01*
Y38573D01*
X37382Y38507D01*
X37579D01*
X37448D02*
X37316Y38376D01*
X36923D02*
X37185D01*
X36923Y38638D01*
Y38704D01*
X36988Y38770D01*
X37120D01*
X37185Y38704D01*
X36595Y38376D02*
Y38770D01*
X36792Y38573D01*
X36529D01*
X33553Y39695D02*
Y40088D01*
X33356D01*
X33291Y40023D01*
Y39892D01*
X33356Y39826D01*
X33553D01*
X33422D02*
X33291Y39695D01*
X32897D02*
X33160D01*
X32897Y39957D01*
Y40023D01*
X32963Y40088D01*
X33094D01*
X33160Y40023D01*
X32766D02*
X32700Y40088D01*
X32569D01*
X32504Y40023D01*
Y39957D01*
X32569Y39892D01*
X32635D01*
X32569D01*
X32504Y39826D01*
Y39760D01*
X32569Y39695D01*
X32700D01*
X32766Y39760D01*
X37539Y40876D02*
Y41270D01*
X37343D01*
X37277Y41204D01*
Y41073D01*
X37343Y41007D01*
X37539D01*
X37408D02*
X37277Y40876D01*
X36883D02*
X37146D01*
X36883Y41138D01*
Y41204D01*
X36949Y41270D01*
X37080D01*
X37146Y41204D01*
X36490Y40876D02*
X36752D01*
X36490Y41138D01*
Y41204D01*
X36555Y41270D01*
X36687D01*
X36752Y41204D01*
X35787Y38494D02*
Y38888D01*
X35591D01*
X35525Y38822D01*
Y38691D01*
X35591Y38625D01*
X35787D01*
X35656D02*
X35525Y38494D01*
X35131D02*
X35394D01*
X35131Y38756D01*
Y38822D01*
X35197Y38888D01*
X35328D01*
X35394Y38822D01*
X35000Y38494D02*
X34869D01*
X34935D01*
Y38888D01*
X35000Y38822D01*
X37205Y37470D02*
Y37864D01*
X37008D01*
X36942Y37798D01*
Y37667D01*
X37008Y37602D01*
X37205D01*
X37074D02*
X36942Y37470D01*
X36549D02*
X36811D01*
X36549Y37733D01*
Y37798D01*
X36614Y37864D01*
X36746D01*
X36811Y37798D01*
X36418D02*
X36352Y37864D01*
X36221D01*
X36155Y37798D01*
Y37536D01*
X36221Y37470D01*
X36352D01*
X36418Y37536D01*
Y37798D01*
X34685Y39695D02*
Y40088D01*
X34488D01*
X34423Y40023D01*
Y39892D01*
X34488Y39826D01*
X34685D01*
X34554D02*
X34423Y39695D01*
X34291D02*
X34160D01*
X34226D01*
Y40088D01*
X34291Y40023D01*
X33963Y39760D02*
X33898Y39695D01*
X33767D01*
X33701Y39760D01*
Y40023D01*
X33767Y40088D01*
X33898D01*
X33963Y40023D01*
Y39957D01*
X33898Y39892D01*
X33701D01*
X35778Y40098D02*
Y40492D01*
X35581D01*
X35515Y40426D01*
Y40295D01*
X35581Y40230D01*
X35778D01*
X35646D02*
X35515Y40098D01*
X35384D02*
X35253D01*
X35318D01*
Y40492D01*
X35384Y40426D01*
X35056D02*
X34990Y40492D01*
X34859D01*
X34794Y40426D01*
Y40361D01*
X34859Y40295D01*
X34794Y40230D01*
Y40164D01*
X34859Y40098D01*
X34990D01*
X35056Y40164D01*
Y40230D01*
X34990Y40295D01*
X35056Y40361D01*
Y40426D01*
X34990Y40295D02*
X34859D01*
X38970Y48970D02*
Y49364D01*
X38773D01*
X38708Y49298D01*
Y49167D01*
X38773Y49101D01*
X38970D01*
X38839D02*
X38708Y48970D01*
X38576D02*
X38445D01*
X38511D01*
Y49364D01*
X38576Y49298D01*
X38248Y49364D02*
X37986D01*
Y49298D01*
X38248Y49036D01*
Y48970D01*
X40945Y50030D02*
Y50423D01*
X40748D01*
X40683Y50358D01*
Y50226D01*
X40748Y50161D01*
X40945D01*
X40814D02*
X40683Y50030D01*
X40551D02*
X40420D01*
X40486D01*
Y50423D01*
X40551Y50358D01*
X39961Y50423D02*
X40092Y50358D01*
X40223Y50226D01*
Y50095D01*
X40158Y50030D01*
X40027D01*
X39961Y50095D01*
Y50161D01*
X40027Y50226D01*
X40223D01*
X41580Y34070D02*
Y34464D01*
X41383D01*
X41318Y34398D01*
Y34267D01*
X41383Y34201D01*
X41580D01*
X41449D02*
X41318Y34070D01*
X41186D02*
X41055D01*
X41121D01*
Y34464D01*
X41186Y34398D01*
X40596Y34070D02*
X40858D01*
X40596Y34332D01*
Y34398D01*
X40662Y34464D01*
X40793D01*
X40858Y34398D01*
X33533Y44715D02*
Y45108D01*
X33337D01*
X33271Y45043D01*
Y44911D01*
X33337Y44846D01*
X33533D01*
X33402D02*
X33271Y44715D01*
X32943D02*
Y45108D01*
X33140Y44911D01*
X32878D01*
X33543Y45728D02*
Y46122D01*
X33347D01*
X33281Y46056D01*
Y45925D01*
X33347Y45860D01*
X33543D01*
X33412D02*
X33281Y45728D01*
X33150Y46056D02*
X33084Y46122D01*
X32953D01*
X32887Y46056D01*
Y45991D01*
X32953Y45925D01*
X33019D01*
X32953D01*
X32887Y45860D01*
Y45794D01*
X32953Y45728D01*
X33084D01*
X33150Y45794D01*
X33553Y46703D02*
Y47096D01*
X33356D01*
X33291Y47031D01*
Y46900D01*
X33356Y46834D01*
X33553D01*
X33422D02*
X33291Y46703D01*
X32897D02*
X33160D01*
X32897Y46965D01*
Y47031D01*
X32963Y47096D01*
X33094D01*
X33160Y47031D01*
X33465Y47785D02*
Y48179D01*
X33268D01*
X33202Y48113D01*
Y47982D01*
X33268Y47917D01*
X33465D01*
X33333D02*
X33202Y47785D01*
X33071D02*
X32940D01*
X33005D01*
Y48179D01*
X33071Y48113D01*
X34880Y49230D02*
Y49624D01*
X34683D01*
X34618Y49558D01*
Y49427D01*
X34683Y49361D01*
X34880D01*
X34224Y49230D02*
X34486D01*
X34224Y49492D01*
Y49558D01*
X34290Y49624D01*
X34421D01*
X34486Y49558D01*
X38789Y52303D02*
Y51909D01*
X38527D01*
X38133Y52237D02*
X38199Y52303D01*
X38330D01*
X38396Y52237D01*
Y52172D01*
X38330Y52106D01*
X38199D01*
X38133Y52041D01*
Y51975D01*
X38199Y51909D01*
X38330D01*
X38396Y51975D01*
X37028Y51683D02*
Y51289D01*
X36765D01*
X36372Y51617D02*
X36437Y51683D01*
X36568D01*
X36634Y51617D01*
Y51355D01*
X36568Y51289D01*
X36437D01*
X36372Y51355D01*
X40906Y51634D02*
Y51240D01*
X40643D01*
X40512Y51634D02*
Y51240D01*
X40250D01*
X40118D02*
Y51503D01*
X39987Y51634D01*
X39856Y51503D01*
Y51240D01*
Y51437D01*
X40118D01*
X43618Y41854D02*
X43749D01*
X43683D01*
Y41526D01*
X43749Y41460D01*
X43814D01*
X43880Y41526D01*
X43486Y41460D02*
X43355D01*
X43421D01*
Y41854D01*
X43486Y41788D01*
X42356Y27306D02*
X42421Y27372D01*
X42553D01*
X42618Y27306D01*
Y27044D01*
X42553Y26978D01*
X42421D01*
X42356Y27044D01*
X41962Y26978D02*
X42225D01*
X41962Y27241D01*
Y27306D01*
X42028Y27372D01*
X42159D01*
X42225Y27306D01*
X41634Y26978D02*
Y27372D01*
X41831Y27175D01*
X41569D01*
X34324Y38445D02*
X34390Y38510D01*
X34521D01*
X34587Y38445D01*
Y38182D01*
X34521Y38117D01*
X34390D01*
X34324Y38182D01*
X33931Y38117D02*
X34193D01*
X33931Y38379D01*
Y38445D01*
X33996Y38510D01*
X34127D01*
X34193Y38445D01*
X33799Y38117D02*
X33668D01*
X33734D01*
Y38510D01*
X33799Y38445D01*
X38734Y33891D02*
X38799Y33957D01*
X38930D01*
X38996Y33891D01*
Y33629D01*
X38930Y33563D01*
X38799D01*
X38734Y33629D01*
X38340Y33563D02*
X38602D01*
X38340Y33825D01*
Y33891D01*
X38406Y33957D01*
X38537D01*
X38602Y33891D01*
X38209D02*
X38143Y33957D01*
X38012D01*
X37947Y33891D01*
Y33629D01*
X38012Y33563D01*
X38143D01*
X38209Y33629D01*
Y33891D01*
X43370Y32720D02*
X43435Y32785D01*
X43566D01*
X43632Y32720D01*
Y32457D01*
X43566Y32392D01*
X43435D01*
X43370Y32457D01*
X43238Y32392D02*
X43107D01*
X43173D01*
Y32785D01*
X43238Y32720D01*
X42910Y32457D02*
X42845Y32392D01*
X42714D01*
X42648Y32457D01*
Y32720D01*
X42714Y32785D01*
X42845D01*
X42910Y32720D01*
Y32654D01*
X42845Y32589D01*
X42648D01*
D46*
X37329Y50473D02*
X37829D01*
X37329Y51623D02*
X37429Y51723D01*
X37729D02*
X37829Y51623D01*
X37429Y51723D02*
X37729D01*
X37829Y51223D02*
Y51623D01*
Y50473D02*
Y50923D01*
X37329Y51223D02*
Y51623D01*
Y50473D02*
Y50923D01*
X39100Y50473D02*
X39600D01*
X39100Y51623D02*
X39200Y51723D01*
X39500D02*
X39600Y51623D01*
X39200Y51723D02*
X39500D01*
X39600Y51223D02*
Y51623D01*
Y50473D02*
Y50923D01*
X39100Y51223D02*
Y51623D01*
Y50473D02*
Y50923D01*
X38215Y50473D02*
X38715D01*
X38215Y51623D02*
X38315Y51723D01*
X38615D02*
X38715Y51623D01*
X38315Y51723D02*
X38615D01*
X38715Y51223D02*
Y51623D01*
Y50473D02*
Y50923D01*
X38215Y51223D02*
Y51623D01*
Y50473D02*
Y50923D01*
X42156Y33346D02*
Y33819D01*
Y33346D02*
X42549D01*
X42156Y33819D02*
X42549D01*
X42825Y33346D02*
X43218D01*
Y33819D01*
X42825D02*
X43218D01*
X39213Y33337D02*
Y33809D01*
Y33337D02*
X39606D01*
X39213Y33809D02*
X39606D01*
X39882Y33337D02*
X40276D01*
Y33809D01*
X39882D02*
X40276D01*
D47*
X37057Y33112D02*
G03*
X37057Y33112I-49J0D01*
G01*
X42500Y23593D02*
G03*
X42500Y23593I-49J0D01*
G01*
X42359Y31182D02*
G03*
X42359Y31182I-49J0D01*
G01*
X33681Y37785D02*
G03*
X33681Y37785I-49J0D01*
G01*
X36567Y24813D02*
G03*
X36567Y24813I-49J0D01*
G01*
D50*
X38100Y24242D02*
X39675D01*
X38100Y27195D02*
X39675D01*
X38100Y24242D02*
Y24872D01*
X39675Y24242D02*
Y24872D01*
Y26565D02*
Y27195D01*
X38100Y26565D02*
Y27195D01*
X39350Y30049D02*
X39528D01*
Y29655D02*
Y30049D01*
X39350Y29655D02*
X39528D01*
X38780D02*
X38957D01*
X38780D02*
Y30049D01*
X38957D01*
X40876Y33366D02*
X41053D01*
X40876D02*
Y33760D01*
X41053D01*
X41447D02*
X41624D01*
Y33366D02*
Y33760D01*
X41447Y33366D02*
X41624D01*
X37382Y50246D02*
Y50423D01*
X37776D01*
Y50246D02*
Y50423D01*
Y49675D02*
Y49852D01*
X37382Y49675D02*
X37776D01*
X37382D02*
Y49852D01*
X38278Y50246D02*
Y50423D01*
X38671D01*
Y50246D02*
Y50423D01*
Y49675D02*
Y49852D01*
X38278Y49675D02*
X38671D01*
X38278D02*
Y49852D01*
X32825Y46211D02*
X33002D01*
X32825D02*
Y46604D01*
X33002D01*
X33396D02*
X33573D01*
Y46211D02*
Y46604D01*
X33396Y46211D02*
X33573D01*
X33396Y44587D02*
X33573D01*
Y44193D02*
Y44587D01*
X33396Y44193D02*
X33573D01*
X32825D02*
X33002D01*
X32825D02*
Y44587D01*
X33002D01*
X32825Y45236D02*
X33002D01*
X32825D02*
Y45630D01*
X33002D01*
X33396D02*
X33573D01*
Y45236D02*
Y45630D01*
X33396Y45236D02*
X33573D01*
X32825Y47215D02*
X33002D01*
X32825D02*
Y47608D01*
X33002D01*
X33396D02*
X33573D01*
Y47215D02*
Y47608D01*
X33396Y47215D02*
X33573D01*
X37205Y39980D02*
Y40138D01*
X36929D02*
X37205D01*
X36929Y39980D02*
Y40138D01*
Y39626D02*
Y39783D01*
Y39626D02*
X37205D01*
Y39783D01*
X36211Y39232D02*
Y39390D01*
X35935D02*
X36211D01*
X35935Y39232D02*
Y39390D01*
Y38878D02*
Y39035D01*
Y38878D02*
X36211D01*
Y39035D01*
X36722Y39232D02*
Y39390D01*
X36447D02*
X36722D01*
X36447Y39232D02*
Y39390D01*
Y38878D02*
Y39035D01*
Y38878D02*
X36722D01*
Y39035D01*
X37205Y39232D02*
Y39390D01*
X36929D02*
X37205D01*
X36929Y39232D02*
Y39390D01*
Y38878D02*
Y39035D01*
Y38878D02*
X37205D01*
Y39035D01*
X36211Y39980D02*
Y40138D01*
X35935D02*
X36211D01*
X35935Y39980D02*
Y40138D01*
Y39626D02*
Y39783D01*
Y39626D02*
X36211D01*
Y39783D01*
X36722Y39980D02*
Y40138D01*
X36447D02*
X36722D01*
X36447Y39980D02*
Y40138D01*
Y39626D02*
Y39783D01*
Y39626D02*
X36722D01*
Y39783D01*
X36624Y40718D02*
X36781D01*
X36624Y40443D02*
Y40718D01*
Y40443D02*
X36781D01*
X36978D02*
X37136D01*
Y40718D01*
X36978D02*
X37136D01*
X41033Y28474D02*
Y28652D01*
X41427D01*
Y28474D02*
Y28652D01*
Y27904D02*
Y28081D01*
X41033Y27904D02*
X41427D01*
X41033D02*
Y28081D01*
Y29469D02*
Y29646D01*
X41427D01*
Y29469D02*
Y29646D01*
Y28898D02*
Y29075D01*
X41033Y28898D02*
X41427D01*
X41033D02*
Y29075D01*
X38750Y28376D02*
Y28770D01*
Y28376D02*
X38927D01*
X38750Y28770D02*
X38927D01*
X39498Y28376D02*
Y28770D01*
X39321Y28376D02*
X39498D01*
X39321Y28770D02*
X39498D01*
X39154Y50246D02*
Y50423D01*
X39547D01*
Y50246D02*
Y50423D01*
Y49675D02*
Y49852D01*
X39154Y49675D02*
X39547D01*
X39154D02*
Y49852D01*
D51*
X43130Y36752D02*
X43366D01*
Y36106D02*
Y36752D01*
X43130D02*
Y40453D01*
X37815Y41043D02*
X43406D01*
X37815Y35531D02*
Y41043D01*
Y35531D02*
X43799D01*
Y36106D01*
X43366D02*
X43799D01*
X43130Y40453D02*
X43406Y40728D01*
Y41043D01*
X39207Y28125D02*
X39607D01*
Y27825D01*
X39407D01*
X39607D01*
Y27526D01*
X39007D02*
X38807D01*
X38907D01*
Y28125D01*
X39007Y28025D01*
M02*
