G04 Layer_Color=128*
%FSLAX24Y24*%
%MOIN*%
G70*
G01*
G75*
%ADD11R,0.0118X0.0118*%
%ADD15R,0.0118X0.0118*%
%ADD16R,0.0236X0.0197*%
%ADD23R,0.0197X0.0236*%
%ADD40R,0.0374X0.0748*%
%ADD41R,0.2165X0.2717*%
%ADD42R,0.0866X0.1024*%
%ADD43R,0.0315X0.0315*%
%ADD44R,0.0591X0.0315*%
%ADD45R,0.0748X0.0551*%
%ADD46R,0.0551X0.0709*%
%ADD47R,0.0669X0.0709*%
%ADD48R,0.1339X0.0748*%
D11*
X37067Y40000D02*
D03*
Y39764D02*
D03*
X36073Y39252D02*
D03*
Y39016D02*
D03*
X36585Y39252D02*
D03*
Y39016D02*
D03*
X37067Y39252D02*
D03*
Y39016D02*
D03*
X36073Y40000D02*
D03*
Y39764D02*
D03*
X36585Y40000D02*
D03*
Y39764D02*
D03*
D15*
X36762Y40581D02*
D03*
X36998D02*
D03*
D16*
X37579Y50246D02*
D03*
Y49852D02*
D03*
X38474Y50246D02*
D03*
Y49852D02*
D03*
X39350Y50246D02*
D03*
Y49852D02*
D03*
D23*
X41053Y33563D02*
D03*
X41447D02*
D03*
X33396Y44390D02*
D03*
X33002D02*
D03*
Y45433D02*
D03*
X33396D02*
D03*
X33002Y47411D02*
D03*
X33396D02*
D03*
X33002Y46407D02*
D03*
X33396D02*
D03*
D40*
X36114Y24813D02*
D03*
X34319D02*
D03*
D41*
X35217Y27254D02*
D03*
D42*
X41762Y26073D02*
D03*
Y24104D02*
D03*
X34321Y35305D02*
D03*
Y37274D02*
D03*
D43*
X37579Y51388D02*
D03*
Y50758D02*
D03*
X39350Y51388D02*
D03*
Y50758D02*
D03*
X38465Y51388D02*
D03*
Y50758D02*
D03*
X42392Y33583D02*
D03*
X42982D02*
D03*
X39449Y33573D02*
D03*
X40039D02*
D03*
D44*
X42028Y40555D02*
D03*
Y40122D02*
D03*
X42106Y39689D02*
D03*
X42028Y39256D02*
D03*
X42106Y38823D02*
D03*
X42028Y38390D02*
D03*
X41870Y37957D02*
D03*
X42028Y37524D02*
D03*
D45*
X43150Y40866D02*
D03*
X43543Y35787D02*
D03*
D46*
X37972Y40236D02*
D03*
Y37992D02*
D03*
D47*
X42205Y32136D02*
D03*
X40118D02*
D03*
D48*
X38760Y27037D02*
D03*
Y25501D02*
D03*
M02*
