G04 Layer_Physical_Order=1*
G04 Layer_Color=255*
%FSLAX24Y24*%
%MOIN*%
G70*
G01*
G75*
%ADD10R,0.0354X0.0984*%
%ADD11R,0.0118X0.0118*%
%ADD12R,0.0354X0.0630*%
%ADD13R,0.0984X0.0354*%
%ADD14R,0.0630X0.0354*%
%ADD15R,0.0118X0.0118*%
%ADD16R,0.0236X0.0197*%
%ADD17R,0.0512X0.0354*%
%ADD18R,0.0197X0.0827*%
%ADD19R,0.1024X0.0866*%
%ADD20O,0.0118X0.0709*%
%ADD21O,0.0709X0.0118*%
%ADD22R,0.0354X0.0512*%
%ADD23R,0.0197X0.0236*%
%ADD24R,0.0197X0.0118*%
%ADD25O,0.0299X0.0787*%
%ADD26O,0.0787X0.0299*%
%ADD27R,0.0433X0.0236*%
%ADD28C,0.0079*%
%ADD29C,0.0276*%
%ADD30C,0.0269*%
%ADD31C,0.0106*%
%ADD32C,0.0197*%
%ADD33C,0.0177*%
%ADD34C,0.0213*%
%ADD35C,0.0591*%
%ADD36R,0.0591X0.0591*%
%ADD37C,0.0472*%
%ADD38O,0.0650X0.1575*%
%ADD39C,0.0394*%
G36*
X44613Y49724D02*
Y40618D01*
X44579Y40602D01*
X44563Y40599D01*
X44509Y40641D01*
X44442Y40669D01*
X44370Y40678D01*
X44328Y40672D01*
X44315Y40721D01*
X44359Y40739D01*
X44417Y40783D01*
X44461Y40841D01*
X44489Y40908D01*
X44498Y40980D01*
X44489Y41052D01*
X44461Y41119D01*
X44417Y41177D01*
X44359Y41221D01*
X44292Y41248D01*
X44220Y41258D01*
X44148Y41248D01*
X44081Y41221D01*
X44069Y41212D01*
X44019Y41236D01*
Y42671D01*
X44005Y42741D01*
X43966Y42799D01*
X42931Y43835D01*
Y45746D01*
X42977Y45765D01*
X43097Y45645D01*
X43097Y45645D01*
X43136Y45619D01*
X43182Y45610D01*
X43182Y45610D01*
X43650D01*
X43650Y45610D01*
X43696Y45619D01*
X43735Y45645D01*
X44085Y45995D01*
X44085Y45995D01*
X44111Y46034D01*
X44120Y46080D01*
X44120Y46080D01*
Y48320D01*
X44120Y48320D01*
X44111Y48366D01*
X44085Y48405D01*
X43575Y48915D01*
X43536Y48941D01*
X43490Y48950D01*
X43490Y48950D01*
X41844D01*
X41817Y49000D01*
X41847Y49044D01*
X41864Y49133D01*
X41847Y49222D01*
X41796Y49298D01*
X41721Y49348D01*
X41631Y49366D01*
X41143D01*
X41054Y49348D01*
X40979Y49298D01*
X40949Y49254D01*
X36650D01*
X36228Y49675D01*
X36189Y49701D01*
X36143Y49711D01*
X36143Y49710D01*
X33600D01*
X33600Y49711D01*
X33554Y49701D01*
X33515Y49675D01*
X33515Y49675D01*
X32840Y49000D01*
X32814Y48961D01*
X32805Y48915D01*
X32805Y48915D01*
X32755Y48917D01*
Y50755D01*
X33610Y51610D01*
X36820D01*
X36844Y51560D01*
X36819Y51527D01*
X36792Y51460D01*
X36782Y51388D01*
X36792Y51316D01*
X36819Y51249D01*
X36863Y51191D01*
X36921Y51147D01*
X36940Y51139D01*
Y50101D01*
X36921Y50093D01*
X36863Y50049D01*
X36819Y49991D01*
X36792Y49924D01*
X36782Y49852D01*
X36792Y49780D01*
X36819Y49713D01*
X36863Y49656D01*
X36921Y49612D01*
X36988Y49584D01*
X37060Y49574D01*
X37132Y49584D01*
X37199Y49612D01*
X37257Y49656D01*
X37301Y49713D01*
X37329Y49780D01*
X37338Y49852D01*
X37329Y49924D01*
X37301Y49991D01*
X37257Y50049D01*
X37199Y50093D01*
X37180Y50101D01*
Y51139D01*
X37199Y51147D01*
X37257Y51191D01*
X37301Y51249D01*
X37329Y51316D01*
X37338Y51388D01*
X37329Y51460D01*
X37301Y51527D01*
X37276Y51560D01*
X37300Y51610D01*
X38580D01*
X39525Y50665D01*
X39525Y50665D01*
X39564Y50639D01*
X39610Y50630D01*
X39702D01*
X39709Y50611D01*
X39753Y50553D01*
X39811Y50509D01*
X39878Y50482D01*
X39950Y50472D01*
X40022Y50482D01*
X40089Y50509D01*
X40147Y50553D01*
X40191Y50611D01*
X40219Y50678D01*
X40228Y50750D01*
X40219Y50822D01*
X40191Y50889D01*
X40147Y50947D01*
X40089Y50991D01*
X40022Y51019D01*
X39950Y51028D01*
X39878Y51019D01*
X39811Y50991D01*
X39753Y50947D01*
X39709Y50889D01*
X39706Y50880D01*
X39655Y50875D01*
X38715Y51815D01*
X38676Y51841D01*
X38630Y51850D01*
X38630Y51850D01*
X33560D01*
X33560Y51850D01*
X33514Y51841D01*
X33475Y51815D01*
X32553Y50894D01*
X32539Y50895D01*
X32503Y50910D01*
Y52310D01*
X44613D01*
Y49724D01*
D02*
G37*
G36*
X36186Y49377D02*
X36162Y49335D01*
X36159Y49333D01*
X36072Y49350D01*
X35584D01*
X35495Y49333D01*
X35420Y49282D01*
X35369Y49207D01*
X35351Y49117D01*
X35369Y49028D01*
X35420Y48953D01*
X35495Y48902D01*
X35584Y48885D01*
X36072D01*
X36123Y48895D01*
X36142Y48875D01*
X36142Y48875D01*
X36181Y48849D01*
X36227Y48840D01*
X37253D01*
X37277Y48790D01*
X37269Y48779D01*
X37241Y48712D01*
X37232Y48640D01*
X37241Y48568D01*
X37269Y48501D01*
X37313Y48443D01*
X37371Y48399D01*
X37438Y48372D01*
X37510Y48362D01*
X37582Y48372D01*
X37601Y48379D01*
X37703Y48277D01*
X37684Y48230D01*
X36720D01*
X36338Y48612D01*
X36299Y48638D01*
X36269Y48644D01*
X36237Y48692D01*
X36162Y48742D01*
X36072Y48760D01*
X35584D01*
X35495Y48742D01*
X35420Y48692D01*
X35369Y48616D01*
X35351Y48527D01*
X35369Y48438D01*
X35420Y48362D01*
X35495Y48312D01*
X35584Y48294D01*
X36072D01*
X36162Y48312D01*
X36237Y48362D01*
X36246Y48363D01*
X36585Y48025D01*
X36585Y48025D01*
X36624Y47999D01*
X36670Y47990D01*
X37620D01*
X37637Y47940D01*
X37633Y47937D01*
X37589Y47879D01*
X37562Y47812D01*
X37552Y47740D01*
X37562Y47668D01*
X37589Y47601D01*
X37633Y47543D01*
X37691Y47499D01*
X37758Y47471D01*
X37830Y47462D01*
X37902Y47471D01*
X37920Y47479D01*
X40785Y44615D01*
X40785Y44615D01*
X40824Y44589D01*
X40870Y44580D01*
X40923D01*
X40949Y44530D01*
X40928Y44498D01*
X40910Y44409D01*
X40928Y44320D01*
X40979Y44244D01*
X41054Y44194D01*
X41143Y44176D01*
X41631D01*
X41721Y44194D01*
X41735Y44204D01*
X41780Y44180D01*
Y44047D01*
X41735Y44023D01*
X41721Y44033D01*
X41631Y44051D01*
X41143D01*
X41054Y44033D01*
X40979Y43983D01*
X40928Y43907D01*
X40910Y43818D01*
X40928Y43729D01*
X40979Y43654D01*
X41054Y43603D01*
X41143Y43585D01*
X41631D01*
X41721Y43603D01*
X41735Y43613D01*
X41780Y43590D01*
Y43456D01*
X41735Y43433D01*
X41721Y43443D01*
X41631Y43461D01*
X41143D01*
X41054Y43443D01*
X40979Y43392D01*
X40928Y43317D01*
X40910Y43228D01*
X40928Y43139D01*
X40979Y43063D01*
X41054Y43013D01*
X41143Y42995D01*
X41631D01*
X41721Y43013D01*
X41735Y43023D01*
X41780Y42999D01*
Y42866D01*
X41735Y42842D01*
X41721Y42852D01*
X41631Y42870D01*
X41143D01*
X41054Y42852D01*
X40979Y42802D01*
X40928Y42726D01*
X40910Y42637D01*
X40928Y42548D01*
X40979Y42473D01*
X41054Y42422D01*
X41143Y42404D01*
X41631D01*
X41721Y42422D01*
X41735Y42432D01*
X41780Y42408D01*
Y42301D01*
X41735Y42277D01*
X41729Y42282D01*
X41631Y42301D01*
X41437D01*
Y42047D01*
Y41792D01*
X41631D01*
X41729Y41811D01*
X41735Y41816D01*
X41780Y41792D01*
Y39110D01*
X41741Y39071D01*
X41694Y39090D01*
Y39389D01*
X41133D01*
Y38906D01*
X41510D01*
X41529Y38860D01*
X40990Y38320D01*
X40964Y38281D01*
X40955Y38235D01*
X40955Y38235D01*
Y37592D01*
X40905Y37565D01*
X40880Y37579D01*
Y38570D01*
X40871Y38616D01*
X40845Y38655D01*
X40845Y38655D01*
X40641Y38860D01*
X40660Y38906D01*
X41033D01*
Y39439D01*
X41083D01*
Y39489D01*
X41694D01*
Y39972D01*
X41303D01*
Y40297D01*
X41287Y40382D01*
X41239Y40453D01*
X41225Y40462D01*
X40885Y40803D01*
X40890Y40811D01*
X40910Y40909D01*
Y41103D01*
X40655D01*
X40401D01*
Y40909D01*
X40420Y40811D01*
X40438Y40785D01*
Y40725D01*
X40454Y40641D01*
X40501Y40571D01*
X40862Y40210D01*
Y39972D01*
X40512D01*
X40490Y39989D01*
X40417Y40019D01*
X40390Y40023D01*
Y39730D01*
X40290D01*
Y40023D01*
X40263Y40019D01*
X40190Y39989D01*
X40128Y39942D01*
X40081Y39880D01*
X40051Y39807D01*
X40042Y39744D01*
X39995Y39721D01*
X39910Y39806D01*
Y40684D01*
X39955Y40708D01*
X39975Y40694D01*
X40065Y40676D01*
X40154Y40694D01*
X40229Y40744D01*
X40280Y40820D01*
X40297Y40909D01*
Y41397D01*
X40280Y41486D01*
X40229Y41562D01*
X40154Y41612D01*
X40065Y41630D01*
X39975Y41612D01*
X39949Y41594D01*
X39899Y41609D01*
X39875Y41645D01*
X39875Y41645D01*
X39765Y41755D01*
X39726Y41781D01*
X39680Y41790D01*
X39680Y41790D01*
X38720D01*
X38674Y41781D01*
X38635Y41755D01*
X38635Y41755D01*
X38525Y41645D01*
X38499Y41606D01*
X38496Y41592D01*
X38490Y41587D01*
X38441Y41573D01*
X38382Y41612D01*
X38293Y41630D01*
X38204Y41612D01*
X38128Y41562D01*
X38078Y41486D01*
X38060Y41397D01*
Y40909D01*
X38078Y40820D01*
X38128Y40744D01*
X38204Y40694D01*
X38293Y40676D01*
X38382Y40694D01*
X38440Y40732D01*
X38490Y40709D01*
Y40180D01*
X38395Y40085D01*
X38369Y40046D01*
X38360Y40000D01*
X38360Y40000D01*
Y39366D01*
X38312Y39340D01*
X38280Y39359D01*
Y40020D01*
X38280Y40020D01*
X38271Y40066D01*
X38245Y40105D01*
X38245Y40105D01*
X37721Y40629D01*
X37738Y40683D01*
X37791Y40694D01*
X37867Y40744D01*
X37917Y40820D01*
X37935Y40909D01*
Y41397D01*
X37917Y41486D01*
X37867Y41562D01*
X37791Y41612D01*
X37702Y41630D01*
X37613Y41612D01*
X37550Y41570D01*
X37500Y41589D01*
Y41600D01*
X37491Y41646D01*
X37465Y41685D01*
X37465Y41685D01*
X37225Y41925D01*
X37186Y41951D01*
X37140Y41960D01*
X37140Y41960D01*
X37010D01*
X37003Y41979D01*
X36958Y42037D01*
X36901Y42081D01*
X36897Y42082D01*
X36907Y42132D01*
X37624D01*
X40122Y41931D01*
X40438Y41615D01*
Y41521D01*
X40420Y41494D01*
X40401Y41397D01*
Y41203D01*
X40655D01*
X40910D01*
Y41397D01*
X40890Y41494D01*
X40873Y41521D01*
Y41705D01*
X40856Y41788D01*
X40833Y41823D01*
X40861Y41871D01*
X40970Y41862D01*
X41046Y41811D01*
X41143Y41792D01*
X41337D01*
Y42047D01*
Y42301D01*
X41143D01*
X41084Y42289D01*
X40316Y42351D01*
X40164Y42504D01*
X40093Y42551D01*
X40010Y42568D01*
X36389D01*
X36344Y42559D01*
X36301Y42601D01*
X36305Y42621D01*
X36288Y42711D01*
X36237Y42786D01*
X36162Y42837D01*
X36072Y42854D01*
X35584D01*
X35548Y42847D01*
X35453Y42943D01*
X35455Y42963D01*
X35467Y42973D01*
X35509Y42994D01*
X35584Y42979D01*
X36072D01*
X36162Y42997D01*
X36237Y43047D01*
X36267Y43092D01*
X36543D01*
X36551Y43071D01*
X36595Y43013D01*
X36653Y42969D01*
X36720Y42941D01*
X36792Y42932D01*
X36864Y42941D01*
X36931Y42969D01*
X36989Y43013D01*
X37033Y43071D01*
X37060Y43138D01*
X37070Y43210D01*
X37060Y43282D01*
X37033Y43349D01*
X36989Y43407D01*
X36931Y43451D01*
X36864Y43478D01*
X36792Y43488D01*
X36720Y43478D01*
X36653Y43451D01*
X36595Y43407D01*
X36551Y43349D01*
X36544Y43332D01*
X36267D01*
X36237Y43377D01*
X36162Y43427D01*
X36072Y43445D01*
X35584D01*
X35495Y43427D01*
X35475Y43413D01*
X35431Y43437D01*
Y43577D01*
X35475Y43601D01*
X35495Y43587D01*
X35584Y43570D01*
X36072D01*
X36162Y43587D01*
X36237Y43638D01*
X36288Y43713D01*
X36305Y43803D01*
X36288Y43892D01*
X36237Y43967D01*
X36162Y44018D01*
X36072Y44035D01*
X35584D01*
X35495Y44018D01*
X35475Y44004D01*
X35431Y44028D01*
Y44168D01*
X35475Y44192D01*
X35495Y44178D01*
X35584Y44160D01*
X36072D01*
X36162Y44178D01*
X36237Y44228D01*
X36288Y44304D01*
X36305Y44393D01*
X36288Y44482D01*
X36237Y44558D01*
X36162Y44608D01*
X36072Y44626D01*
X35584D01*
X35495Y44608D01*
X35475Y44595D01*
X35431Y44618D01*
Y44759D01*
X35475Y44782D01*
X35495Y44769D01*
X35584Y44751D01*
X36072D01*
X36162Y44769D01*
X36237Y44819D01*
X36288Y44895D01*
X36305Y44984D01*
X36288Y45073D01*
X36237Y45148D01*
X36162Y45199D01*
X36072Y45216D01*
X35584D01*
X35495Y45199D01*
X35475Y45185D01*
X35431Y45209D01*
Y45349D01*
X35475Y45373D01*
X35495Y45359D01*
X35584Y45341D01*
X36072D01*
X36162Y45359D01*
X36237Y45410D01*
X36288Y45485D01*
X36305Y45574D01*
X36288Y45663D01*
X36237Y45739D01*
X36162Y45789D01*
X36072Y45807D01*
X35584D01*
X35495Y45789D01*
X35475Y45776D01*
X35431Y45799D01*
Y45940D01*
X35475Y45963D01*
X35495Y45950D01*
X35584Y45932D01*
X36072D01*
X36162Y45950D01*
X36237Y46000D01*
X36288Y46076D01*
X36305Y46165D01*
X36288Y46254D01*
X36237Y46329D01*
X36162Y46380D01*
X36072Y46398D01*
X35584D01*
X35495Y46380D01*
X35475Y46366D01*
X35431Y46390D01*
Y46530D01*
X35475Y46554D01*
X35495Y46540D01*
X35584Y46522D01*
X36072D01*
X36162Y46540D01*
X36237Y46591D01*
X36288Y46666D01*
X36305Y46755D01*
X36288Y46844D01*
X36237Y46920D01*
X36162Y46970D01*
X36072Y46988D01*
X35584D01*
X35495Y46970D01*
X35475Y46957D01*
X35431Y46980D01*
Y47121D01*
X35475Y47144D01*
X35495Y47131D01*
X35584Y47113D01*
X36072D01*
X36162Y47131D01*
X36237Y47181D01*
X36288Y47257D01*
X36305Y47346D01*
X36288Y47435D01*
X36237Y47510D01*
X36162Y47561D01*
X36072Y47579D01*
X35584D01*
X35495Y47561D01*
X35475Y47547D01*
X35431Y47571D01*
Y47585D01*
X35417Y47654D01*
X35378Y47712D01*
X35319Y47752D01*
X35250Y47765D01*
X35141D01*
Y47875D01*
X35127Y47944D01*
X35088Y48002D01*
X34793Y48297D01*
Y48789D01*
X34045D01*
Y48041D01*
X34538D01*
X34779Y47800D01*
Y47643D01*
X34729Y47626D01*
X34686Y47682D01*
X34608Y47742D01*
X34517Y47780D01*
X34419Y47793D01*
X34322Y47780D01*
X34231Y47742D01*
X34153Y47682D01*
X34093Y47604D01*
X34055Y47513D01*
X34042Y47415D01*
X34055Y47318D01*
X34093Y47227D01*
X34153Y47149D01*
X34231Y47089D01*
X34322Y47051D01*
X34419Y47038D01*
X34517Y47051D01*
X34608Y47089D01*
X34686Y47149D01*
X34729Y47205D01*
X34779Y47188D01*
Y46643D01*
X34729Y46626D01*
X34686Y46682D01*
X34608Y46742D01*
X34517Y46780D01*
X34419Y46793D01*
X34322Y46780D01*
X34231Y46742D01*
X34153Y46682D01*
X34093Y46604D01*
X34055Y46513D01*
X34042Y46415D01*
X34055Y46318D01*
X34093Y46227D01*
X34153Y46149D01*
X34231Y46089D01*
X34322Y46051D01*
X34419Y46038D01*
X34517Y46051D01*
X34608Y46089D01*
X34686Y46149D01*
X34729Y46205D01*
X34779Y46188D01*
Y45643D01*
X34729Y45626D01*
X34686Y45682D01*
X34608Y45742D01*
X34517Y45780D01*
X34419Y45793D01*
X34322Y45780D01*
X34231Y45742D01*
X34153Y45682D01*
X34093Y45604D01*
X34055Y45513D01*
X34042Y45415D01*
X34055Y45318D01*
X34093Y45227D01*
X34153Y45149D01*
X34231Y45089D01*
X34322Y45051D01*
X34419Y45038D01*
X34517Y45051D01*
X34608Y45089D01*
X34686Y45149D01*
X34729Y45205D01*
X34779Y45188D01*
Y44643D01*
X34729Y44626D01*
X34686Y44682D01*
X34608Y44742D01*
X34517Y44780D01*
X34419Y44793D01*
X34322Y44780D01*
X34231Y44742D01*
X34153Y44682D01*
X34093Y44604D01*
X34055Y44513D01*
X34042Y44415D01*
X34055Y44318D01*
X34093Y44227D01*
X34153Y44149D01*
X34231Y44089D01*
X34322Y44051D01*
X34419Y44038D01*
X34517Y44051D01*
X34608Y44089D01*
X34686Y44149D01*
X34729Y44205D01*
X34779Y44188D01*
Y43678D01*
X34729Y43661D01*
X34701Y43697D01*
X34619Y43761D01*
X34522Y43800D01*
X34469Y43807D01*
Y43415D01*
X34419D01*
Y43365D01*
X34027D01*
X34034Y43312D01*
X34074Y43216D01*
X34137Y43133D01*
X34199Y43087D01*
Y42492D01*
Y39826D01*
X34178Y39805D01*
X33950D01*
Y48922D01*
X33969Y48929D01*
X34027Y48973D01*
X34071Y49031D01*
X34098Y49098D01*
X34108Y49170D01*
X34098Y49242D01*
X34071Y49309D01*
X34027Y49367D01*
X33969Y49411D01*
X33947Y49420D01*
X33957Y49470D01*
X36093D01*
X36186Y49377D01*
D02*
G37*
G36*
X43713Y48437D02*
X43694Y48390D01*
X41857D01*
X41834Y48435D01*
X41847Y48454D01*
X41864Y48543D01*
X41847Y48632D01*
X41828Y48660D01*
X41855Y48710D01*
X43440D01*
X43713Y48437D01*
D02*
G37*
G36*
X38245Y48745D02*
X38245Y48745D01*
X38284Y48719D01*
X38330Y48710D01*
X38330Y48710D01*
X40920D01*
X40947Y48660D01*
X40928Y48632D01*
X40910Y48543D01*
X40928Y48454D01*
X40941Y48435D01*
X40917Y48390D01*
X37930D01*
X37771Y48549D01*
X37778Y48568D01*
X37788Y48640D01*
X37778Y48712D01*
X37751Y48779D01*
X37743Y48790D01*
X37767Y48840D01*
X38150D01*
X38245Y48745D01*
D02*
G37*
G36*
X40336Y48100D02*
X40329Y48091D01*
X40301Y48024D01*
X40292Y47952D01*
X40301Y47880D01*
X40329Y47813D01*
X40373Y47756D01*
X40431Y47711D01*
X40482Y47690D01*
X40472Y47640D01*
X38700D01*
X38237Y48103D01*
X38256Y48150D01*
X40311D01*
X40336Y48100D01*
D02*
G37*
G36*
X43720Y46744D02*
X43196Y46220D01*
X43036D01*
X43017Y46267D01*
X43323Y46573D01*
X43353Y46617D01*
X43358Y46644D01*
X43366D01*
Y46919D01*
X43152D01*
X43132Y46969D01*
X43313Y47151D01*
X43313Y47151D01*
X43340Y47190D01*
X43349Y47236D01*
X43349Y47236D01*
Y47323D01*
X43366D01*
Y47598D01*
X43025D01*
X42898Y47725D01*
X42859Y47751D01*
X42813Y47760D01*
X42813Y47760D01*
X41838D01*
X41811Y47810D01*
X41847Y47863D01*
X41864Y47952D01*
X41847Y48041D01*
X41808Y48100D01*
X41830Y48150D01*
X43720D01*
Y46744D01*
D02*
G37*
G36*
X34719Y43041D02*
X34763Y42983D01*
X34821Y42939D01*
X34888Y42912D01*
X34960Y42902D01*
X35019Y42910D01*
X35045Y42900D01*
X35073Y42874D01*
X35083Y42821D01*
X35122Y42762D01*
X35391Y42494D01*
X35398Y42489D01*
X35420Y42457D01*
X35495Y42406D01*
X35584Y42389D01*
X36049D01*
X36070Y42339D01*
X36017Y42285D01*
X35878D01*
Y42031D01*
X35778D01*
Y42285D01*
X35584D01*
X35487Y42266D01*
X35461Y42248D01*
X34975D01*
X34640Y42583D01*
Y43040D01*
X34659Y43055D01*
X34719Y43041D01*
D02*
G37*
G36*
X37136Y41674D02*
X37122Y41648D01*
X37110Y41629D01*
X37023Y41612D01*
X36947Y41562D01*
X36897Y41486D01*
X36879Y41397D01*
Y40909D01*
X36897Y40820D01*
X36947Y40744D01*
X37023Y40694D01*
X37112Y40676D01*
X37201Y40694D01*
X37247Y40724D01*
X37295Y40715D01*
X37375Y40635D01*
X37357Y40582D01*
X37328Y40578D01*
X37261Y40551D01*
X37203Y40507D01*
X37159Y40449D01*
X37152Y40430D01*
X36630D01*
X36429Y40632D01*
X36430Y40643D01*
X36486Y40683D01*
X36521Y40676D01*
X36610Y40694D01*
X36686Y40744D01*
X36736Y40820D01*
X36754Y40909D01*
Y41397D01*
X36736Y41486D01*
X36715Y41518D01*
X36744Y41564D01*
X36762Y41562D01*
X36834Y41571D01*
X36901Y41599D01*
X36958Y41643D01*
X37003Y41701D01*
X37010Y41720D01*
X37090D01*
X37136Y41674D01*
D02*
G37*
G36*
X36627Y42082D02*
X36623Y42081D01*
X36565Y42037D01*
X36521Y41979D01*
X36493Y41912D01*
X36484Y41840D01*
X36493Y41768D01*
X36521Y41701D01*
X36539Y41677D01*
X36530Y41653D01*
X36514Y41628D01*
X36432Y41612D01*
X36357Y41562D01*
X36306Y41486D01*
X36288Y41397D01*
Y41004D01*
X36238Y40990D01*
X36206Y41011D01*
X36160Y41020D01*
X36160Y41020D01*
X35670D01*
X35624Y41011D01*
X35585Y40985D01*
X35585Y40985D01*
X35512Y40912D01*
X35457Y40928D01*
X35454Y40938D01*
X35982Y41466D01*
X36029Y41536D01*
X36046Y41620D01*
Y41776D01*
X36072D01*
X36170Y41796D01*
X36252Y41851D01*
X36308Y41933D01*
X36314Y41968D01*
X36479Y42132D01*
X36617D01*
X36627Y42082D01*
D02*
G37*
G36*
X39272Y41505D02*
X39259Y41486D01*
X39241Y41397D01*
Y40909D01*
X39259Y40820D01*
X39307Y40747D01*
X39304Y40729D01*
X39293Y40695D01*
X39288Y40694D01*
X39221Y40667D01*
X39163Y40622D01*
X39119Y40565D01*
X39091Y40498D01*
X39082Y40426D01*
X39085Y40406D01*
X38986Y40308D01*
X38947Y40249D01*
X38934Y40180D01*
Y39951D01*
X38666D01*
X38647Y39997D01*
X38695Y40045D01*
X38695Y40045D01*
X38721Y40084D01*
X38730Y40130D01*
X38730Y40130D01*
Y40683D01*
X38775Y40707D01*
X38794Y40694D01*
X38883Y40676D01*
X38973Y40694D01*
X39048Y40744D01*
X39099Y40820D01*
X39116Y40909D01*
Y41397D01*
X39099Y41486D01*
X39086Y41505D01*
X39109Y41550D01*
X39248D01*
X39272Y41505D01*
D02*
G37*
G36*
X42569Y46123D02*
Y43760D01*
X42583Y43691D01*
X42622Y43632D01*
X43658Y42597D01*
Y40281D01*
X42880D01*
X42811Y40267D01*
X42752Y40228D01*
X42742Y40218D01*
X42703Y40159D01*
X42697Y40128D01*
X42420D01*
Y46040D01*
X42523Y46142D01*
X42569Y46123D01*
D02*
G37*
G36*
X38040Y39970D02*
Y39338D01*
X38021Y39331D01*
X37977Y39297D01*
X37948Y39290D01*
X37911Y39300D01*
X37705Y39505D01*
X37666Y39531D01*
X37620Y39540D01*
X37620Y39540D01*
X37150D01*
X36545Y40146D01*
X36569Y40192D01*
X36580Y40190D01*
X37152D01*
X37159Y40171D01*
X37203Y40113D01*
X37261Y40069D01*
X37328Y40041D01*
X37400Y40032D01*
X37472Y40041D01*
X37539Y40069D01*
X37597Y40113D01*
X37641Y40171D01*
X37668Y40238D01*
X37672Y40267D01*
X37725Y40285D01*
X38040Y39970D01*
D02*
G37*
G36*
X33713Y49420D02*
X33691Y49411D01*
X33633Y49367D01*
X33589Y49309D01*
X33561Y49242D01*
X33552Y49170D01*
X33561Y49098D01*
X33589Y49031D01*
X33633Y48973D01*
X33691Y48929D01*
X33710Y48922D01*
Y39532D01*
X33660Y39522D01*
X33636Y39578D01*
X33592Y39636D01*
X33535Y39680D01*
X33468Y39708D01*
X33396Y39717D01*
X33324Y39708D01*
X33257Y39680D01*
X33199Y39636D01*
X33155Y39578D01*
X33127Y39511D01*
X33118Y39439D01*
X33127Y39367D01*
X33155Y39300D01*
X33199Y39243D01*
X33257Y39198D01*
X33324Y39171D01*
X33396Y39161D01*
X33468Y39171D01*
X33486Y39178D01*
X33675Y38990D01*
X33675Y38990D01*
X33714Y38964D01*
X33760Y38954D01*
X33760Y38954D01*
X33878D01*
Y38892D01*
X33874Y38891D01*
X33835Y38865D01*
X33835Y38865D01*
X33155Y38185D01*
X33129Y38146D01*
X33120Y38100D01*
X33120Y38100D01*
Y36209D01*
X33095Y36195D01*
X33045Y36222D01*
Y48865D01*
X33650Y49470D01*
X33703D01*
X33713Y49420D01*
D02*
G37*
G36*
X34724Y41875D02*
X34796Y41827D01*
X34880Y41810D01*
X34896Y41813D01*
X35461D01*
X35487Y41796D01*
X35584Y41776D01*
X35611D01*
Y41710D01*
X35067Y41166D01*
X35053Y41157D01*
X35005Y41085D01*
X34988Y41001D01*
Y40160D01*
X35005Y40076D01*
X35053Y40004D01*
X35131Y39925D01*
X35119Y39886D01*
X35111Y39875D01*
X35044Y39830D01*
X34920Y39706D01*
X34873Y39634D01*
X34856Y39550D01*
Y39276D01*
X34810Y39257D01*
X34749Y39317D01*
X34710Y39344D01*
X34664Y39353D01*
X34664Y39353D01*
X34569D01*
Y39478D01*
X34213D01*
Y39578D01*
X34575D01*
X34575Y39578D01*
X34623Y39650D01*
X34640Y39734D01*
Y41893D01*
X34686Y41912D01*
X34724Y41875D01*
D02*
G37*
G36*
X35946Y39255D02*
Y38545D01*
X35894D01*
Y38180D01*
X36171D01*
Y38080D01*
X35894D01*
Y37922D01*
X35848Y37902D01*
X35610Y38140D01*
Y39004D01*
X35629Y39011D01*
X35687Y39055D01*
X35731Y39113D01*
X35759Y39180D01*
X35768Y39252D01*
X35759Y39324D01*
X35744Y39359D01*
X35772Y39415D01*
X35784Y39417D01*
X35946Y39255D01*
D02*
G37*
G36*
X38565Y47435D02*
X38604Y47409D01*
X38650Y47400D01*
X38650Y47400D01*
X40750D01*
X40750Y47400D01*
X40796Y47409D01*
X40835Y47435D01*
X40902Y47502D01*
X40941Y47470D01*
X40928Y47451D01*
X40910Y47362D01*
X40928Y47272D01*
X40979Y47197D01*
X41054Y47146D01*
X41143Y47129D01*
X41631D01*
X41721Y47146D01*
X41796Y47197D01*
X41847Y47272D01*
X41864Y47362D01*
X41847Y47451D01*
X41830Y47475D01*
X41854Y47520D01*
X42763D01*
X42854Y47428D01*
Y47323D01*
X43076D01*
X43095Y47273D01*
X42907Y47085D01*
X42881Y47046D01*
X42872Y47000D01*
X42872Y47000D01*
Y46919D01*
X42854D01*
Y46814D01*
X42215Y46175D01*
X42189Y46135D01*
X42180Y46089D01*
X42180Y46089D01*
Y39580D01*
X42180Y39580D01*
X42189Y39534D01*
X42215Y39495D01*
X42349Y39360D01*
X42341Y39342D01*
X42332Y39270D01*
X42341Y39198D01*
X42369Y39131D01*
X42413Y39073D01*
X42471Y39029D01*
X42538Y39002D01*
X42610Y38992D01*
X42682Y39002D01*
X42749Y39029D01*
X42806Y39073D01*
X42809Y39072D01*
X42856Y39056D01*
Y38929D01*
X42786D01*
Y38652D01*
X42736D01*
Y38602D01*
X42321D01*
Y38374D01*
X42349D01*
Y38071D01*
X42036Y37758D01*
X41990Y37777D01*
Y37925D01*
X41763D01*
Y37333D01*
X41713D01*
Y37283D01*
X41435D01*
Y36741D01*
X41499D01*
X41509Y36693D01*
X41556Y36621D01*
X41684Y36494D01*
X41756Y36446D01*
X41840Y36429D01*
X41999D01*
X42037Y36391D01*
X42027Y36361D01*
X42014Y36343D01*
X41520D01*
X41520Y36343D01*
X41469Y36333D01*
X41425Y36304D01*
X41306Y36185D01*
X41277Y36141D01*
X41267Y36090D01*
Y35682D01*
X41102D01*
X41049Y35671D01*
X41003Y35641D01*
X40973Y35595D01*
X40964Y35552D01*
X40934Y35533D01*
X40914Y35527D01*
X40909Y35531D01*
X40842Y35559D01*
X40770Y35568D01*
X40698Y35559D01*
X40631Y35531D01*
X40573Y35487D01*
X40529Y35429D01*
X40501Y35362D01*
X40492Y35290D01*
X40501Y35218D01*
X40529Y35151D01*
X40552Y35121D01*
X40527Y35071D01*
X40280D01*
X40036Y35315D01*
X39997Y35341D01*
X39951Y35350D01*
X39951Y35350D01*
X39657D01*
X39633Y35400D01*
X39641Y35411D01*
X39669Y35478D01*
X39678Y35550D01*
X39669Y35622D01*
X39647Y35673D01*
X39657Y35714D01*
X39667Y35729D01*
X39714Y35750D01*
X39749Y35727D01*
X39803Y35716D01*
X39857Y35727D01*
X39902Y35756D01*
X39946Y35727D01*
X40000Y35716D01*
X40054Y35727D01*
X40098Y35756D01*
X40143Y35727D01*
X40197Y35716D01*
X40251Y35727D01*
X40295Y35756D01*
X40340Y35727D01*
X40394Y35716D01*
X40447Y35727D01*
X40492Y35756D01*
X40537Y35727D01*
X40591Y35716D01*
X40644Y35727D01*
X40689Y35756D01*
X40734Y35727D01*
X40787Y35716D01*
X40841Y35727D01*
X40887Y35757D01*
X40917Y35803D01*
X40928Y35856D01*
Y36447D01*
X40917Y36501D01*
X40908Y36515D01*
Y36656D01*
X41160Y36908D01*
X41160Y36908D01*
X41186Y36947D01*
X41195Y36994D01*
Y38185D01*
X41985Y38975D01*
X41985Y38975D01*
X42011Y39014D01*
X42020Y39060D01*
X42020Y39060D01*
Y44560D01*
X42020Y44560D01*
X42011Y44606D01*
X41985Y44645D01*
X41845Y44785D01*
X41827Y44797D01*
X41825Y44800D01*
X41812Y44853D01*
X41814Y44861D01*
X41847Y44910D01*
X41864Y44999D01*
X41847Y45088D01*
X41796Y45164D01*
X41721Y45214D01*
X41631Y45232D01*
X41143D01*
X41054Y45214D01*
X40979Y45164D01*
X40928Y45088D01*
X40910Y44999D01*
X40928Y44910D01*
X40929Y44909D01*
X40905Y44855D01*
X40888Y44852D01*
X38091Y47649D01*
X38098Y47668D01*
X38108Y47740D01*
X38098Y47812D01*
X38085Y47844D01*
X38128Y47872D01*
X38565Y47435D01*
D02*
G37*
G36*
X36703Y37797D02*
X36761Y37753D01*
X36828Y37725D01*
X36900Y37715D01*
X36972Y37725D01*
X37039Y37753D01*
X37071Y37777D01*
X37124Y37762D01*
X37136Y37736D01*
X37127Y37691D01*
X36834Y37397D01*
X36805Y37354D01*
X36805Y37352D01*
X36791D01*
Y37077D01*
X37006D01*
X37012Y37072D01*
X37040Y37027D01*
X37035Y37000D01*
X37035Y37000D01*
Y36949D01*
X36782D01*
X36782Y36949D01*
Y36949D01*
X36742Y36972D01*
X36673Y37040D01*
Y37146D01*
X36458D01*
Y37167D01*
X36424D01*
X36423Y37171D01*
X36394Y37215D01*
X36394Y37215D01*
X36325Y37284D01*
X36330Y37310D01*
X36313Y37394D01*
X36265Y37466D01*
X36230Y37490D01*
X36245Y37540D01*
X36405D01*
X36405Y37540D01*
X36451Y37549D01*
X36490Y37575D01*
X36590Y37675D01*
X36590Y37675D01*
X36616Y37714D01*
X36625Y37760D01*
Y37816D01*
X36675Y37833D01*
X36703Y37797D01*
D02*
G37*
G36*
X40124Y38548D02*
Y38327D01*
X40049D01*
Y37403D01*
X40006Y37385D01*
X39970Y37414D01*
Y37650D01*
X39970Y37650D01*
X39961Y37696D01*
X39935Y37735D01*
X39896Y37761D01*
X39850Y37770D01*
X39804Y37761D01*
X39765Y37735D01*
X39752Y37723D01*
X39726Y37684D01*
X39717Y37637D01*
X39726Y37591D01*
X39730Y37586D01*
Y37493D01*
X39683Y37474D01*
X39568Y37589D01*
X39535Y38347D01*
X39589Y38369D01*
X39647Y38413D01*
X39691Y38471D01*
X39718Y38538D01*
X39728Y38610D01*
X39718Y38682D01*
X39691Y38749D01*
X39675Y38770D01*
X39699Y38820D01*
X39852D01*
X40124Y38548D01*
D02*
G37*
G36*
X35335Y37342D02*
X35312Y37295D01*
X35290Y37298D01*
X35218Y37288D01*
X35151Y37261D01*
X35093Y37217D01*
X35049Y37159D01*
X35022Y37092D01*
X35012Y37020D01*
X35022Y36948D01*
X35049Y36881D01*
X35093Y36823D01*
X35151Y36779D01*
X35218Y36751D01*
X35290Y36742D01*
X35362Y36751D01*
X35366Y36753D01*
X35752Y36367D01*
X35796Y36338D01*
X35847Y36328D01*
X35923D01*
Y35856D01*
X35929Y35826D01*
Y35597D01*
X35879Y35592D01*
X35878Y35595D01*
X35847Y35641D01*
X35802Y35671D01*
X35748Y35682D01*
X35571D01*
X35561Y35732D01*
X35579Y35739D01*
X35637Y35783D01*
X35681Y35841D01*
X35708Y35908D01*
X35718Y35980D01*
X35708Y36052D01*
X35681Y36119D01*
X35637Y36177D01*
X35579Y36221D01*
X35512Y36249D01*
X35440Y36258D01*
X35368Y36249D01*
X35350Y36241D01*
X34941Y36649D01*
Y37671D01*
X34987Y37690D01*
X35335Y37342D01*
D02*
G37*
G36*
X44579Y40198D02*
X44613Y40182D01*
Y37043D01*
X44567Y37024D01*
X44401Y37190D01*
X44408Y37208D01*
X44418Y37280D01*
X44408Y37352D01*
X44381Y37419D01*
X44337Y37477D01*
X44322Y37488D01*
X44318Y37538D01*
X44455Y37675D01*
X44455Y37675D01*
X44481Y37714D01*
X44490Y37760D01*
X44490Y37760D01*
Y40152D01*
X44509Y40159D01*
X44563Y40201D01*
X44579Y40198D01*
D02*
G37*
G36*
X39253Y37114D02*
X39232Y37062D01*
X39222Y36990D01*
X39232Y36918D01*
X39259Y36851D01*
X39303Y36793D01*
X39361Y36749D01*
X39428Y36721D01*
X39500Y36712D01*
X39572Y36721D01*
X39590Y36729D01*
X39664Y36656D01*
X39703Y36630D01*
X39736Y36623D01*
X39742Y36601D01*
X39743Y36573D01*
X39705Y36547D01*
X39660Y36577D01*
X39606Y36587D01*
X39553Y36577D01*
X39508Y36547D01*
X39463Y36577D01*
X39409Y36587D01*
X39356Y36577D01*
X39311Y36547D01*
X39266Y36577D01*
X39213Y36587D01*
X39159Y36577D01*
X39114Y36547D01*
X39069Y36577D01*
X39016Y36587D01*
X38962Y36577D01*
X38917Y36547D01*
X38873Y36577D01*
X38819Y36587D01*
X38765Y36577D01*
X38720Y36547D01*
X38676Y36577D01*
X38667Y36578D01*
X38669Y36629D01*
X38682Y36631D01*
X38754Y36661D01*
X38816Y36708D01*
X38864Y36770D01*
X38894Y36843D01*
X38902Y36905D01*
X39161Y37164D01*
X39229D01*
X39253Y37114D01*
D02*
G37*
G36*
X39253Y38413D02*
X39274Y38398D01*
X39257Y38348D01*
X39135D01*
Y37756D01*
X39085D01*
Y37706D01*
X38807D01*
Y37435D01*
X38590Y37217D01*
X38527Y37209D01*
X38455Y37179D01*
X38393Y37132D01*
X38345Y37070D01*
X38315Y36997D01*
X38312Y36970D01*
X38605D01*
Y36870D01*
X38312D01*
X38315Y36843D01*
X38345Y36770D01*
X38393Y36708D01*
X38455Y36661D01*
X38527Y36631D01*
X38552Y36627D01*
X38567Y36580D01*
X38566Y36575D01*
X38524Y36547D01*
X38479Y36577D01*
X38425Y36587D01*
X38399Y36582D01*
X38349Y36617D01*
Y36632D01*
X38340Y36678D01*
X38313Y36717D01*
X38313Y36717D01*
X38201Y36830D01*
X38208Y36848D01*
X38218Y36920D01*
X38208Y36992D01*
X38181Y37059D01*
X38137Y37117D01*
X38079Y37161D01*
X38012Y37188D01*
X37940Y37198D01*
X37868Y37188D01*
X37801Y37161D01*
X37743Y37117D01*
X37699Y37059D01*
X37671Y36992D01*
X37662Y36920D01*
X37671Y36848D01*
X37699Y36781D01*
X37743Y36723D01*
X37801Y36679D01*
X37868Y36651D01*
X37940Y36642D01*
X38009Y36651D01*
X38018Y36644D01*
X38024Y36636D01*
X38003Y36582D01*
X37978Y36577D01*
X37933Y36547D01*
X37888Y36577D01*
X37835Y36587D01*
X37781Y36577D01*
X37736Y36547D01*
X37692Y36577D01*
X37638Y36587D01*
X37584Y36577D01*
X37539Y36547D01*
X37495Y36577D01*
X37441Y36587D01*
X37415Y36582D01*
X37365Y36617D01*
Y36722D01*
X37365Y36722D01*
X37355Y36769D01*
X37329Y36808D01*
X37293Y36844D01*
Y36949D01*
X37293D01*
X37284Y36999D01*
X37286Y37010D01*
X37286Y37010D01*
Y37077D01*
X37303D01*
Y37352D01*
X37235D01*
X37215Y37399D01*
X37404Y37587D01*
X37461Y37598D01*
X37519Y37637D01*
X37559Y37696D01*
X37567Y37736D01*
X37648D01*
Y38445D01*
X39230D01*
X39253Y38413D01*
D02*
G37*
G36*
X34700Y38351D02*
Y36599D01*
X34700Y36599D01*
X34707Y36565D01*
X34703Y36559D01*
X34682Y36535D01*
X34668Y36526D01*
X34618Y36536D01*
Y36596D01*
X34253D01*
Y36319D01*
Y36042D01*
X34487D01*
X34501Y36009D01*
X34548Y35947D01*
X34610Y35900D01*
X34683Y35870D01*
X34710Y35866D01*
Y36159D01*
X34810D01*
Y35866D01*
X34837Y35870D01*
X34910Y35900D01*
X34972Y35947D01*
X35019Y36009D01*
X35049Y36081D01*
X35055Y36124D01*
X35108Y36142D01*
X35179Y36070D01*
X35171Y36052D01*
X35162Y35980D01*
X35171Y35908D01*
X35199Y35841D01*
X35243Y35783D01*
X35301Y35739D01*
X35319Y35732D01*
X35309Y35682D01*
X35157D01*
X35104Y35671D01*
X35058Y35641D01*
X35028Y35595D01*
X35017Y35541D01*
X35028Y35488D01*
X35058Y35443D01*
X35028Y35398D01*
X35017Y35344D01*
X35028Y35291D01*
X35058Y35246D01*
X35028Y35201D01*
X35017Y35148D01*
X35028Y35094D01*
X35058Y35049D01*
X35028Y35005D01*
X35017Y34951D01*
X35028Y34897D01*
X35058Y34852D01*
X35028Y34808D01*
X35017Y34754D01*
X35020Y34739D01*
X34989Y34681D01*
X34945Y34652D01*
X34945Y34652D01*
X34685Y34392D01*
X34656Y34349D01*
X34646Y34297D01*
Y33976D01*
X34433D01*
Y34330D01*
X34419Y34399D01*
X34393Y34437D01*
Y34990D01*
X34379Y35059D01*
X34350Y35103D01*
Y35364D01*
X34245D01*
X33858Y35751D01*
Y36042D01*
X34153D01*
Y36319D01*
Y36596D01*
X33858D01*
Y36648D01*
X34288Y37078D01*
X34288Y37078D01*
X34314Y37117D01*
X34323Y37163D01*
Y37283D01*
X34596D01*
Y37795D01*
X33981D01*
X33962Y37841D01*
X34480Y38360D01*
X34590D01*
X34636Y38369D01*
X34650Y38378D01*
X34700Y38351D01*
D02*
G37*
G36*
X42677Y37710D02*
Y36762D01*
X42752D01*
Y36472D01*
X42702Y36455D01*
X42682Y36482D01*
X42620Y36529D01*
X42547Y36559D01*
X42485Y36567D01*
X42246Y36806D01*
X42174Y36854D01*
X42090Y36871D01*
X41990D01*
Y37125D01*
X42007Y37129D01*
X42079Y37177D01*
X42631Y37729D01*
X42677Y37710D01*
D02*
G37*
G36*
X33878Y38524D02*
Y38524D01*
X34238D01*
X34257Y38477D01*
X33477Y37698D01*
X33451Y37659D01*
X33442Y37613D01*
X33442Y37613D01*
Y36206D01*
X33397Y36183D01*
X33360Y36205D01*
Y38050D01*
X33847Y38536D01*
X33878Y38524D01*
D02*
G37*
G36*
X43364Y38589D02*
Y36070D01*
X43160Y35865D01*
X43114Y35884D01*
Y36762D01*
X43189D01*
Y37904D01*
X42815D01*
X42783Y37942D01*
X42791Y37980D01*
Y38374D01*
X43151D01*
Y38446D01*
X43161Y38448D01*
X43233Y38495D01*
X43281Y38567D01*
X43285Y38590D01*
X43340Y38608D01*
X43364Y38589D01*
D02*
G37*
G36*
X38371Y35727D02*
X38425Y35716D01*
X38479Y35727D01*
X38524Y35756D01*
X38568Y35727D01*
X38607Y35719D01*
X38617Y35686D01*
X38617Y35668D01*
X38563Y35627D01*
X38519Y35569D01*
X38491Y35502D01*
X38482Y35430D01*
X38491Y35358D01*
X38519Y35291D01*
X38563Y35233D01*
X38621Y35189D01*
X38639Y35182D01*
X38645Y35125D01*
X38645Y35125D01*
X38645Y35125D01*
X38085Y34565D01*
X38059Y34526D01*
X38050Y34480D01*
X38050Y34480D01*
Y31919D01*
X38025Y31905D01*
X37975Y31932D01*
Y34185D01*
X37975Y34185D01*
X37966Y34231D01*
X37940Y34270D01*
X37940Y34270D01*
X36947Y35264D01*
X36991Y35321D01*
X37018Y35388D01*
X37028Y35460D01*
X37018Y35532D01*
X36991Y35599D01*
X36947Y35657D01*
X36927Y35672D01*
X36931Y35724D01*
X36969Y35743D01*
X36993Y35727D01*
X37047Y35716D01*
X37101Y35727D01*
X37146Y35756D01*
X37190Y35727D01*
X37244Y35716D01*
X37298Y35727D01*
X37343Y35756D01*
X37387Y35727D01*
X37441Y35716D01*
X37495Y35727D01*
X37539Y35756D01*
X37584Y35727D01*
X37638Y35716D01*
X37692Y35727D01*
X37736Y35756D01*
X37781Y35727D01*
X37835Y35716D01*
X37888Y35727D01*
X37933Y35756D01*
X37978Y35727D01*
X38031Y35716D01*
X38085Y35727D01*
X38130Y35756D01*
X38175Y35727D01*
X38228Y35716D01*
X38282Y35727D01*
X38327Y35756D01*
X38371Y35727D01*
D02*
G37*
G36*
X44246Y36371D02*
Y34160D01*
X44094Y34008D01*
X44085Y34010D01*
X44055Y34065D01*
X44068Y34098D01*
X44078Y34170D01*
X44068Y34242D01*
X44041Y34309D01*
X43997Y34367D01*
X43939Y34411D01*
X43872Y34439D01*
X43839Y34443D01*
X43681Y34601D01*
Y34764D01*
X43664Y34848D01*
X43622Y34911D01*
Y35020D01*
X42743D01*
X42436Y35326D01*
X42414Y35341D01*
Y35453D01*
X42736D01*
Y35456D01*
X43023D01*
X43071Y35424D01*
X43141Y35410D01*
X43210Y35424D01*
X43268Y35463D01*
X43672Y35867D01*
X43712Y35926D01*
X43725Y35995D01*
Y36820D01*
X43775Y36841D01*
X44246Y36371D01*
D02*
G37*
G36*
X42480Y34657D02*
Y34508D01*
X43240D01*
X43256Y34426D01*
X43304Y34354D01*
X43527Y34131D01*
X43531Y34098D01*
X43559Y34031D01*
X43567Y34020D01*
X43543Y33970D01*
X42340D01*
X42340Y33970D01*
X42294Y33961D01*
X42255Y33935D01*
X42255Y33935D01*
X42210Y33890D01*
X41863D01*
X41828Y33940D01*
X41833Y33967D01*
X41823Y34020D01*
X41793Y34065D01*
X41823Y34110D01*
X41833Y34163D01*
X41823Y34217D01*
X41793Y34262D01*
X41823Y34306D01*
X41833Y34360D01*
X41823Y34414D01*
X41806Y34439D01*
X41826Y34492D01*
X41849Y34504D01*
X41874Y34504D01*
X41928Y34481D01*
X42000Y34472D01*
X42072Y34481D01*
X42139Y34509D01*
X42197Y34553D01*
X42241Y34611D01*
X42269Y34678D01*
X42278Y34750D01*
X42272Y34795D01*
X42319Y34818D01*
X42480Y34657D01*
D02*
G37*
G36*
X34012Y35081D02*
X34039Y35047D01*
X34042Y35038D01*
X34032Y34990D01*
Y34369D01*
X34046Y34300D01*
X34071Y34262D01*
Y33976D01*
X33858D01*
Y33901D01*
X33654D01*
X33585Y33887D01*
X33527Y33848D01*
X32805Y33127D01*
X32755Y33148D01*
Y34292D01*
X32805Y34310D01*
X32851Y34275D01*
X32918Y34247D01*
X32990Y34238D01*
X33062Y34247D01*
X33129Y34275D01*
X33187Y34319D01*
X33231Y34377D01*
X33259Y34444D01*
X33268Y34516D01*
X33259Y34588D01*
X33251Y34606D01*
X33477Y34833D01*
X33583D01*
Y35086D01*
X34004D01*
X34012Y35081D01*
D02*
G37*
G36*
X36208Y34610D02*
X36959Y33859D01*
Y33768D01*
X36913Y33749D01*
X36736Y33926D01*
X36665Y33974D01*
X36580Y33990D01*
X36496Y33974D01*
X36424Y33926D01*
X36410Y33904D01*
X35927D01*
X35886Y33954D01*
X35889Y33967D01*
X35878Y34020D01*
X35848Y34065D01*
X35878Y34110D01*
X35889Y34163D01*
X35878Y34217D01*
X35848Y34262D01*
X35878Y34306D01*
X35889Y34360D01*
X35886Y34373D01*
X35889Y34384D01*
X35924Y34427D01*
X35952Y34433D01*
X35995Y34462D01*
X36141Y34608D01*
X36165Y34623D01*
X36208Y34610D01*
D02*
G37*
G36*
X40163Y34275D02*
X40203Y34249D01*
X40249Y34240D01*
X40249Y34240D01*
X40932D01*
X40967Y34190D01*
X40962Y34163D01*
X40973Y34110D01*
X41002Y34065D01*
X40973Y34020D01*
X40962Y33967D01*
X40973Y33913D01*
X41002Y33868D01*
X40973Y33823D01*
X40962Y33770D01*
X40967Y33743D01*
X40932Y33693D01*
X40410D01*
X39721Y34382D01*
X39729Y34401D01*
X39738Y34473D01*
X39729Y34544D01*
X39701Y34611D01*
X39657Y34669D01*
X39610Y34705D01*
X39623Y34755D01*
X39684D01*
X40163Y34275D01*
D02*
G37*
G36*
X42459Y33593D02*
X43051D01*
Y33543D01*
X43101D01*
Y33266D01*
X43517D01*
X43531Y33234D01*
X43578Y33172D01*
X43640Y33124D01*
X43713Y33094D01*
X43775Y33086D01*
X44009Y32852D01*
Y31899D01*
X43749Y31638D01*
X43663D01*
Y31694D01*
X43121D01*
Y31417D01*
X43021D01*
Y31694D01*
X42651D01*
X42630Y31744D01*
X42888Y32002D01*
X42927Y32061D01*
X42941Y32130D01*
Y32382D01*
X43642D01*
Y32894D01*
X42500D01*
Y32382D01*
X42579D01*
Y32205D01*
X42272Y31898D01*
X42233Y31839D01*
X42219Y31770D01*
Y30355D01*
X41650Y29785D01*
X41623Y29791D01*
X41553Y29777D01*
X41505Y29744D01*
X41016D01*
X40922Y29838D01*
Y29881D01*
X40928Y29911D01*
Y30502D01*
X40917Y30556D01*
X40887Y30601D01*
X40841Y30632D01*
X40787Y30642D01*
X40734Y30632D01*
X40689Y30602D01*
X40644Y30632D01*
X40591Y30642D01*
X40584Y30641D01*
X40545Y30680D01*
X40548Y30710D01*
X40590Y30742D01*
X40634Y30800D01*
X40662Y30867D01*
X40672Y30939D01*
X40662Y31011D01*
X40634Y31078D01*
X40590Y31135D01*
X40533Y31179D01*
X40466Y31207D01*
X40394Y31217D01*
X40322Y31207D01*
X40255Y31179D01*
X40197Y31135D01*
X40160Y31087D01*
X40120Y31096D01*
X40110Y31100D01*
Y31300D01*
X40649Y31839D01*
X40668Y31832D01*
X40740Y31822D01*
X40812Y31832D01*
X40879Y31859D01*
X40904Y31878D01*
X40967Y31865D01*
X40973Y31855D01*
X40962Y31801D01*
X40973Y31747D01*
X41002Y31703D01*
X40973Y31658D01*
X40962Y31604D01*
X40973Y31551D01*
X41002Y31506D01*
X40973Y31461D01*
X40962Y31407D01*
X40973Y31354D01*
X41002Y31309D01*
X40973Y31264D01*
X40962Y31211D01*
X40973Y31157D01*
X41002Y31112D01*
X40973Y31068D01*
X40962Y31014D01*
X40973Y30960D01*
X41002Y30915D01*
X40973Y30871D01*
X40962Y30817D01*
X40973Y30763D01*
X41003Y30718D01*
X41049Y30687D01*
X41102Y30676D01*
X41693D01*
X41747Y30687D01*
X41792Y30718D01*
X41823Y30763D01*
X41833Y30817D01*
X41823Y30871D01*
X41793Y30915D01*
X41823Y30960D01*
X41833Y31014D01*
X41823Y31068D01*
X41793Y31112D01*
X41823Y31157D01*
X41833Y31211D01*
X41823Y31264D01*
X41793Y31309D01*
X41823Y31354D01*
X41833Y31407D01*
X41823Y31461D01*
X41793Y31506D01*
X41823Y31551D01*
X41833Y31604D01*
X41823Y31658D01*
X41793Y31703D01*
X41823Y31747D01*
X41833Y31801D01*
X41823Y31855D01*
X41793Y31900D01*
X41823Y31944D01*
X41833Y31998D01*
X41823Y32052D01*
X41793Y32096D01*
X41823Y32141D01*
X41833Y32195D01*
X41823Y32249D01*
X41793Y32293D01*
X41823Y32338D01*
X41833Y32392D01*
X41823Y32445D01*
X41793Y32490D01*
X41823Y32535D01*
X41833Y32589D01*
X41823Y32642D01*
X41793Y32687D01*
X41823Y32732D01*
X41833Y32785D01*
X41823Y32839D01*
X41805Y32866D01*
X41823Y32919D01*
X41845Y32931D01*
X41875Y32934D01*
X41928Y32912D01*
X42000Y32902D01*
X42072Y32912D01*
X42139Y32939D01*
X42197Y32983D01*
X42241Y33041D01*
X42269Y33108D01*
X42278Y33180D01*
X42269Y33252D01*
X42241Y33319D01*
X42197Y33377D01*
X42139Y33421D01*
X42072Y33449D01*
X42000Y33458D01*
X41928Y33449D01*
X41874Y33426D01*
X41847Y33428D01*
X41824Y33440D01*
X41805Y33493D01*
X41823Y33519D01*
X41833Y33573D01*
X41828Y33599D01*
X41863Y33649D01*
X42260D01*
X42260Y33649D01*
X42306Y33658D01*
X42345Y33685D01*
X42390Y33730D01*
X42459D01*
Y33593D01*
D02*
G37*
G36*
X33858Y33465D02*
X34040D01*
X34050Y33415D01*
X34041Y33411D01*
X33983Y33367D01*
X33939Y33309D01*
X33911Y33242D01*
X33902Y33170D01*
X33911Y33098D01*
X33939Y33031D01*
X33947Y33020D01*
X33923Y32970D01*
X33452D01*
X33439Y32981D01*
X33372Y33008D01*
X33300Y33018D01*
X33275Y33015D01*
X33251Y33062D01*
X33729Y33540D01*
X33858D01*
Y33465D01*
D02*
G37*
G36*
X39212Y34350D02*
X39219Y34334D01*
X39263Y34276D01*
X39321Y34232D01*
X39388Y34204D01*
X39460Y34195D01*
X39532Y34204D01*
X39550Y34212D01*
X40275Y33488D01*
X40275Y33488D01*
X40314Y33462D01*
X40360Y33452D01*
X40360Y33452D01*
X40932D01*
X40967Y33402D01*
X40962Y33376D01*
X40973Y33322D01*
X41002Y33278D01*
X40973Y33233D01*
X40962Y33179D01*
X40973Y33125D01*
X41002Y33081D01*
X40973Y33036D01*
X40962Y32982D01*
X40973Y32929D01*
X41002Y32884D01*
X40973Y32839D01*
X40962Y32785D01*
X40968Y32755D01*
X40935Y32705D01*
X40515D01*
X40493Y32750D01*
X40501Y32761D01*
X40528Y32828D01*
X40538Y32900D01*
X40528Y32972D01*
X40501Y33039D01*
X40457Y33097D01*
X40399Y33141D01*
X40332Y33168D01*
X40260Y33178D01*
X40188Y33168D01*
X40121Y33141D01*
X40063Y33097D01*
X40019Y33039D01*
X40012Y33020D01*
X39620D01*
X39090Y33550D01*
Y34312D01*
X39109Y34319D01*
X39156Y34355D01*
X39212Y34350D01*
D02*
G37*
G36*
X33779Y32680D02*
X33744Y32656D01*
X33564Y32476D01*
X33516Y32404D01*
X33499Y32320D01*
Y30761D01*
X33516Y30677D01*
X33564Y30605D01*
X33731Y30437D01*
X33711Y30387D01*
X33338D01*
X33074Y30651D01*
Y32503D01*
X33124Y32527D01*
X33161Y32499D01*
X33228Y32471D01*
X33300Y32462D01*
X33372Y32471D01*
X33439Y32499D01*
X33497Y32543D01*
X33541Y32601D01*
X33568Y32668D01*
X33577Y32730D01*
X33764D01*
X33779Y32680D01*
D02*
G37*
G36*
X38440Y34514D02*
Y31834D01*
X38390Y31817D01*
X38367Y31847D01*
X38309Y31891D01*
X38290Y31898D01*
Y34430D01*
X38393Y34533D01*
X38440Y34514D01*
D02*
G37*
G36*
X36553Y35263D02*
X36611Y35219D01*
X36678Y35192D01*
X36678Y35191D01*
X37735Y34135D01*
Y31483D01*
X37685Y31466D01*
X37639Y31501D01*
X37572Y31528D01*
X37539Y31533D01*
X37509Y31564D01*
X37437Y31611D01*
X37353Y31628D01*
X37268Y31611D01*
X37196Y31564D01*
X37182Y31542D01*
X36913D01*
X36911Y31546D01*
X36867Y31604D01*
X36809Y31648D01*
X36767Y31665D01*
X36753Y31722D01*
X36965Y31934D01*
X37336Y32305D01*
X37384Y32377D01*
X37401Y32461D01*
Y33950D01*
X37384Y34034D01*
X37336Y34106D01*
X36496Y34946D01*
X36474Y34961D01*
Y35284D01*
X36524Y35301D01*
X36553Y35263D01*
D02*
G37*
G36*
X38730Y34420D02*
X38773Y34363D01*
X38831Y34319D01*
X38850Y34312D01*
Y33500D01*
X38850Y33500D01*
X38859Y33454D01*
X38885Y33415D01*
X39485Y32815D01*
X39524Y32789D01*
X39570Y32780D01*
X40012D01*
X40019Y32761D01*
X40063Y32703D01*
X40121Y32659D01*
X40135Y32654D01*
X40144Y32605D01*
X38885Y31345D01*
X38832Y31363D01*
X38828Y31392D01*
X38801Y31459D01*
X38757Y31517D01*
X38699Y31561D01*
X38680Y31568D01*
Y34408D01*
X38726Y34420D01*
X38730Y34420D01*
D02*
G37*
G36*
X37196Y31251D02*
X37227Y31221D01*
X37232Y31188D01*
X37254Y31133D01*
X37232Y31102D01*
X37219Y31093D01*
X37182Y31109D01*
X37110Y31118D01*
X37038Y31109D01*
X36971Y31081D01*
X36913Y31037D01*
X36869Y30979D01*
X36841Y30912D01*
X36832Y30840D01*
X36841Y30768D01*
X36869Y30701D01*
X36880Y30688D01*
X36851Y30642D01*
X36850Y30642D01*
X36797Y30632D01*
X36752Y30602D01*
X36707Y30632D01*
X36654Y30642D01*
X36641Y30640D01*
X36637Y30640D01*
X36584Y30677D01*
X36581Y30691D01*
X36552Y30735D01*
X36432Y30855D01*
X36388Y30884D01*
X36337Y30894D01*
X36040D01*
X35989Y30884D01*
X35945Y30855D01*
X35945Y30855D01*
X35934Y30844D01*
X35880Y30861D01*
X35878Y30871D01*
X35848Y30915D01*
X35878Y30960D01*
X35889Y31014D01*
X35878Y31068D01*
X35848Y31112D01*
X35878Y31157D01*
X35889Y31211D01*
X35886Y31223D01*
X35927Y31273D01*
X36427D01*
X36429Y31268D01*
X36473Y31211D01*
X36531Y31167D01*
X36598Y31139D01*
X36670Y31130D01*
X36742Y31139D01*
X36809Y31167D01*
X36867Y31211D01*
X36911Y31268D01*
X36913Y31273D01*
X37182D01*
X37196Y31251D01*
D02*
G37*
G36*
X34739Y31507D02*
Y30814D01*
X34689Y30784D01*
X34667Y30796D01*
Y30838D01*
X34302D01*
Y30561D01*
X34202D01*
Y30838D01*
X33955D01*
X33941Y30852D01*
Y31526D01*
X34646D01*
Y31535D01*
X34692Y31554D01*
X34739Y31507D01*
D02*
G37*
G36*
X40507Y32250D02*
X40499Y32239D01*
X40472Y32172D01*
X40462Y32100D01*
X40472Y32028D01*
X40479Y32009D01*
X39905Y31435D01*
X39879Y31396D01*
X39870Y31350D01*
X39870Y31350D01*
Y30897D01*
X39870Y30897D01*
X39879Y30851D01*
X39905Y30812D01*
X40029Y30688D01*
X40004Y30642D01*
X40000Y30642D01*
X39946Y30632D01*
X39902Y30602D01*
X39857Y30632D01*
X39803Y30642D01*
X39749Y30632D01*
X39705Y30602D01*
X39660Y30632D01*
X39606Y30642D01*
X39553Y30632D01*
X39508Y30602D01*
X39463Y30632D01*
X39409Y30642D01*
X39356Y30632D01*
X39311Y30602D01*
X39266Y30632D01*
X39213Y30642D01*
X39159Y30632D01*
X39114Y30602D01*
X39069Y30632D01*
X39016Y30642D01*
X38962Y30632D01*
X38917Y30602D01*
X38873Y30632D01*
X38838Y30639D01*
X38818Y30689D01*
X38818Y30690D01*
X40423Y32295D01*
X40485D01*
X40507Y32250D01*
D02*
G37*
G36*
X39946Y29782D02*
X40000Y29771D01*
X40054Y29782D01*
X40098Y29811D01*
X40143Y29782D01*
X40197Y29771D01*
X40251Y29782D01*
X40295Y29811D01*
X40340Y29782D01*
X40366Y29776D01*
X40382Y29722D01*
X40191Y29531D01*
X40018D01*
X40010Y29550D01*
X39966Y29607D01*
X39908Y29651D01*
X39841Y29679D01*
X39769Y29689D01*
X39697Y29679D01*
X39630Y29651D01*
X39573Y29607D01*
X39529Y29550D01*
X39501Y29483D01*
X39491Y29411D01*
X39501Y29339D01*
X39529Y29272D01*
X39573Y29214D01*
X39630Y29170D01*
X39697Y29142D01*
X39769Y29133D01*
X39841Y29142D01*
X39908Y29170D01*
X39966Y29214D01*
X40010Y29272D01*
X40018Y29290D01*
X40241D01*
X40241Y29290D01*
X40287Y29299D01*
X40326Y29325D01*
X40656Y29655D01*
X40715Y29660D01*
X40723Y29656D01*
X40865Y29515D01*
X40909Y29486D01*
X40960Y29476D01*
X41037D01*
X41042Y29426D01*
X40999Y29417D01*
X40940Y29378D01*
X40502Y28940D01*
X38779D01*
X38710Y28926D01*
X38651Y28887D01*
X38532Y28768D01*
X38493Y28709D01*
X38479Y28640D01*
Y26606D01*
X38493Y26537D01*
X38532Y26478D01*
X38928Y26083D01*
X38909Y26037D01*
X38855D01*
X37844Y27048D01*
Y27785D01*
X37734D01*
X37720Y28014D01*
Y28671D01*
X37710Y28720D01*
X37742Y28770D01*
X37838D01*
X37838Y28770D01*
X37884Y28779D01*
X37923Y28805D01*
X38313Y29195D01*
X38313Y29195D01*
X38340Y29234D01*
X38349Y29280D01*
Y29741D01*
X38399Y29776D01*
X38425Y29771D01*
X38479Y29782D01*
X38524Y29811D01*
X38568Y29782D01*
X38622Y29771D01*
X38676Y29782D01*
X38720Y29811D01*
X38765Y29782D01*
X38819Y29771D01*
X38873Y29782D01*
X38917Y29811D01*
X38962Y29782D01*
X39016Y29771D01*
X39069Y29782D01*
X39114Y29811D01*
X39159Y29782D01*
X39213Y29771D01*
X39266Y29782D01*
X39311Y29811D01*
X39356Y29782D01*
X39409Y29771D01*
X39463Y29782D01*
X39508Y29811D01*
X39553Y29782D01*
X39606Y29771D01*
X39660Y29782D01*
X39705Y29811D01*
X39749Y29782D01*
X39803Y29771D01*
X39857Y29782D01*
X39902Y29811D01*
X39946Y29782D01*
D02*
G37*
G36*
X35923Y30408D02*
Y29911D01*
X35933Y29858D01*
X35964Y29812D01*
X35966Y29811D01*
X35979Y29743D01*
X35973Y29734D01*
X35716D01*
X35702Y29756D01*
X35637Y29821D01*
X35666Y29890D01*
X35669Y29918D01*
X35377D01*
Y29968D01*
X35327D01*
Y30260D01*
X35299Y30257D01*
X35241Y30233D01*
X35108Y30366D01*
X35122Y30422D01*
X35158Y30446D01*
X35860D01*
X35872Y30448D01*
X35923Y30408D01*
D02*
G37*
G36*
X44410Y31604D02*
Y25970D01*
X44150Y25710D01*
X43033D01*
Y25934D01*
X42756D01*
Y26034D01*
X43033D01*
Y26340D01*
X43023D01*
X43002Y26390D01*
X43486Y26874D01*
X43534Y26946D01*
X43551Y27030D01*
Y28000D01*
X43534Y28084D01*
X43486Y28156D01*
X43154Y28488D01*
Y28758D01*
X43210D01*
Y29123D01*
X42933D01*
X42656D01*
Y28758D01*
X42712D01*
Y28397D01*
X42729Y28312D01*
X42777Y28241D01*
X42979Y28038D01*
X42960Y27992D01*
X42677D01*
Y27969D01*
X42627Y27958D01*
X41893Y28692D01*
Y28780D01*
X41968D01*
Y29567D01*
X41969Y29567D01*
X41969D01*
X41986Y29610D01*
X42528Y30152D01*
X42567Y30211D01*
X42581Y30280D01*
Y31140D01*
X42850D01*
Y30449D01*
X42777Y30376D01*
X42729Y30304D01*
X42712Y30220D01*
Y29588D01*
X42656D01*
Y29223D01*
X42933D01*
X43210D01*
Y29588D01*
X43154D01*
Y30129D01*
X43227Y30202D01*
X43275Y30273D01*
X43292Y30358D01*
Y31140D01*
X43663D01*
Y31197D01*
X43840D01*
X43924Y31213D01*
X43996Y31261D01*
X44360Y31625D01*
X44410Y31604D01*
D02*
G37*
G36*
X37517Y29632D02*
Y29424D01*
X37492Y29362D01*
X37482Y29290D01*
X37492Y29218D01*
X37519Y29151D01*
X37563Y29093D01*
X37606Y29060D01*
X37590Y29010D01*
X37393D01*
X37347Y29001D01*
X37308Y28975D01*
X37308Y28975D01*
X37218Y28885D01*
X37192Y28846D01*
X37185Y28809D01*
X37165D01*
Y28792D01*
X36988D01*
X36988Y28792D01*
X36958Y28818D01*
X36781D01*
Y28918D01*
X36941D01*
Y29027D01*
X36892D01*
X36877Y29050D01*
X36746Y29181D01*
X36779Y29219D01*
X36791Y29209D01*
X36858Y29181D01*
X36930Y29172D01*
X37002Y29181D01*
X37069Y29209D01*
X37127Y29253D01*
X37171Y29311D01*
X37199Y29378D01*
X37199Y29378D01*
X37471Y29651D01*
X37517Y29632D01*
D02*
G37*
G36*
X33136Y30079D02*
X33194Y30040D01*
X33263Y30026D01*
X33879D01*
X33895Y29976D01*
X33859Y29929D01*
X33832Y29862D01*
X33822Y29790D01*
X33832Y29718D01*
X33859Y29651D01*
X33879Y29625D01*
Y29498D01*
X33839D01*
Y29161D01*
X33504Y28826D01*
X33456Y28754D01*
X33439Y28670D01*
Y27265D01*
X33456Y27181D01*
X33504Y27109D01*
X33888Y26725D01*
Y26388D01*
X34675D01*
Y26900D01*
X34338D01*
X33881Y27357D01*
Y27745D01*
X34182D01*
Y28022D01*
Y28299D01*
X33881D01*
Y28578D01*
X34289Y28986D01*
X34626D01*
Y29498D01*
X34321D01*
Y29625D01*
X34341Y29651D01*
X34369Y29718D01*
X34378Y29790D01*
X34369Y29862D01*
X34341Y29929D01*
X34320Y29956D01*
X34340Y30009D01*
X34368Y30013D01*
X35177Y29204D01*
X35159Y29151D01*
X35143Y29149D01*
X35070Y29119D01*
X35008Y29072D01*
X34961Y29010D01*
X34931Y28937D01*
X34927Y28910D01*
X35220D01*
Y28810D01*
X34927D01*
X34931Y28783D01*
X34961Y28710D01*
X35008Y28648D01*
X35070Y28601D01*
X35143Y28571D01*
X35205Y28563D01*
X36091Y27677D01*
Y27435D01*
X35789D01*
X35046Y28178D01*
X34974Y28226D01*
X34890Y28242D01*
X34647D01*
Y28299D01*
X34282D01*
Y28022D01*
Y27745D01*
X34647D01*
Y27801D01*
X34799D01*
X35541Y27058D01*
X35613Y27011D01*
X35697Y26994D01*
X36091D01*
Y26622D01*
X36147D01*
Y26074D01*
X36091D01*
Y25703D01*
X35349D01*
X35265Y25686D01*
X35201Y25644D01*
X34696D01*
Y25700D01*
X34332D01*
Y25423D01*
X34281D01*
Y25373D01*
X33867D01*
Y25146D01*
X34061D01*
Y24298D01*
X34078Y24213D01*
X34125Y24142D01*
X34199Y24069D01*
Y23456D01*
X34142D01*
Y23091D01*
X34696D01*
Y23456D01*
X34640D01*
Y24160D01*
X34623Y24244D01*
X34575Y24316D01*
X34502Y24389D01*
Y25146D01*
X34696D01*
Y25202D01*
X35290D01*
X35374Y25219D01*
X35438Y25261D01*
X36091D01*
Y24890D01*
X36318D01*
Y25482D01*
X36368D01*
Y25532D01*
X36645D01*
Y26074D01*
X36589D01*
Y26622D01*
X36645D01*
Y27165D01*
X36368D01*
Y27265D01*
X36645D01*
Y27671D01*
X36691Y27690D01*
X37333Y27049D01*
Y26644D01*
X37408D01*
Y26053D01*
X37333D01*
Y24911D01*
X37408D01*
Y24451D01*
X36201D01*
X36182Y24458D01*
X36110Y24468D01*
X36038Y24458D01*
X35971Y24431D01*
X35913Y24387D01*
X35869Y24329D01*
X35842Y24262D01*
X35832Y24190D01*
X35842Y24118D01*
X35861Y24070D01*
X35820Y24039D01*
X35779Y24070D01*
X35712Y24098D01*
X35640Y24108D01*
X35568Y24098D01*
X35501Y24070D01*
X35443Y24026D01*
X35399Y23969D01*
X35371Y23902D01*
X35362Y23830D01*
X35371Y23758D01*
X35399Y23691D01*
X35443Y23633D01*
X35459Y23621D01*
Y23435D01*
X35384D01*
Y22671D01*
X34781D01*
X34696Y22755D01*
Y22991D01*
X34142D01*
Y22626D01*
X34221D01*
X34263Y22564D01*
X34483Y22344D01*
X34555Y22296D01*
X34639Y22279D01*
X34724Y22296D01*
X34774Y22329D01*
X36785D01*
X36918Y22197D01*
Y21832D01*
X37315D01*
Y22295D01*
X37276D01*
X37274Y22305D01*
X37237Y22361D01*
X36977Y22621D01*
X36921Y22658D01*
X36856Y22671D01*
X35896D01*
Y23435D01*
X35820D01*
Y23621D01*
X35836Y23633D01*
X35880Y23691D01*
X35908Y23758D01*
X35918Y23830D01*
X35908Y23902D01*
X35888Y23950D01*
X35929Y23981D01*
X35971Y23949D01*
X36038Y23921D01*
X36110Y23912D01*
X36182Y23921D01*
X36249Y23949D01*
X36307Y23993D01*
X36351Y24051D01*
X36367Y24089D01*
X37589D01*
X37589Y24090D01*
X37628Y24058D01*
Y23819D01*
X37628D01*
Y23780D01*
X37628D01*
Y23425D01*
X37704D01*
Y22826D01*
X37704Y22826D01*
X37714Y22780D01*
X37740Y22740D01*
X37980Y22500D01*
Y22274D01*
X37923D01*
Y21289D01*
X37980D01*
Y20967D01*
X37954Y20955D01*
X37930Y20953D01*
X37875Y21025D01*
X37797Y21085D01*
X37706Y21122D01*
X37608Y21135D01*
X37511Y21122D01*
X37420Y21085D01*
X37342Y21025D01*
X37282Y20947D01*
X37244Y20856D01*
X37231Y20758D01*
X37244Y20660D01*
X37282Y20569D01*
X37342Y20491D01*
X37420Y20431D01*
X37511Y20393D01*
X37608Y20381D01*
X37706Y20393D01*
X37797Y20431D01*
X37875Y20491D01*
X37930Y20563D01*
X37954Y20561D01*
X37980Y20549D01*
Y20480D01*
X37980Y20480D01*
X37989Y20434D01*
X38015Y20395D01*
X38800Y19610D01*
X38800Y19610D01*
X38839Y19584D01*
X38886Y19574D01*
X43155D01*
X43155Y19574D01*
X43201Y19584D01*
X43240Y19610D01*
X44295Y20665D01*
X44321Y20704D01*
X44330Y20750D01*
X44330Y20750D01*
Y22415D01*
X44330Y22415D01*
X44321Y22462D01*
X44295Y22501D01*
X43925Y22871D01*
X43886Y22897D01*
X43840Y22906D01*
X43840Y22906D01*
X43720D01*
Y22982D01*
X43130D01*
Y22630D01*
X43109D01*
Y22461D01*
X43425D01*
Y22361D01*
X43109D01*
Y22193D01*
X43130D01*
Y22141D01*
X43102Y22123D01*
X43102Y22123D01*
X41208Y20229D01*
X41161Y20252D01*
X41167Y20295D01*
Y20708D01*
X40310D01*
Y20351D01*
X40260Y20331D01*
X40165Y20425D01*
X40126Y20451D01*
X40080Y20460D01*
X40080Y20460D01*
X39686D01*
X39661Y20510D01*
X39707Y20569D01*
X39744Y20660D01*
X39757Y20758D01*
X39749Y20818D01*
X39795Y20854D01*
X39800Y20852D01*
X39872Y20842D01*
X39944Y20852D01*
X40011Y20879D01*
X40069Y20923D01*
X40113Y20981D01*
X40141Y21048D01*
X40150Y21120D01*
X40141Y21192D01*
X40113Y21259D01*
X40069Y21317D01*
X40049Y21331D01*
Y22240D01*
X40940D01*
X41227Y21952D01*
X41227Y21952D01*
X41267Y21926D01*
X41313Y21917D01*
X42146D01*
Y21841D01*
X42736D01*
Y22291D01*
X42780D01*
X42826Y22300D01*
X42865Y22326D01*
X42891Y22365D01*
X42900Y22411D01*
Y24047D01*
X42891Y24093D01*
X42865Y24132D01*
X42865Y24132D01*
X42325Y24672D01*
X42286Y24698D01*
X42240Y24707D01*
X42240Y24707D01*
X41880D01*
Y24783D01*
X41823D01*
Y24929D01*
X42036Y25141D01*
X42232D01*
X42239Y25123D01*
X42283Y25065D01*
X42341Y25021D01*
X42408Y24993D01*
X42480Y24984D01*
X42552Y24993D01*
X42619Y25021D01*
X42677Y25065D01*
X42721Y25123D01*
X42748Y25190D01*
X42758Y25262D01*
X42748Y25333D01*
X42721Y25401D01*
X42706Y25420D01*
X42731Y25470D01*
X44200D01*
X44200Y25470D01*
X44246Y25479D01*
X44285Y25505D01*
X44567Y25786D01*
X44613Y25767D01*
Y19364D01*
X32503D01*
Y20128D01*
Y30050D01*
X32539Y30065D01*
X32553Y30066D01*
X33212Y29408D01*
X33204Y29390D01*
X33194Y29318D01*
X33204Y29246D01*
X33232Y29179D01*
X33276Y29121D01*
X33333Y29077D01*
X33400Y29049D01*
X33472Y29040D01*
X33544Y29049D01*
X33611Y29077D01*
X33669Y29121D01*
X33713Y29179D01*
X33741Y29246D01*
X33750Y29318D01*
X33741Y29390D01*
X33713Y29457D01*
X33669Y29514D01*
X33611Y29558D01*
X33544Y29586D01*
X33472Y29596D01*
X33400Y29586D01*
X33382Y29578D01*
X32755Y30205D01*
Y30388D01*
X32805Y30409D01*
X33136Y30079D01*
D02*
G37*
G36*
X36136Y29425D02*
X36165Y29382D01*
X36494Y29052D01*
X36475Y29006D01*
X36407D01*
Y28730D01*
X36425D01*
Y28602D01*
X36407D01*
Y28550D01*
X36361Y28531D01*
X35561Y29331D01*
X35577Y29386D01*
X35630Y29396D01*
X35702Y29444D01*
X35716Y29466D01*
X36100D01*
X36127Y29471D01*
X36136Y29425D01*
D02*
G37*
G36*
X41457Y28780D02*
X41532D01*
Y28617D01*
X41546Y28548D01*
X41585Y28490D01*
X42432Y27642D01*
X42491Y27603D01*
X42560Y27589D01*
X42677D01*
Y27205D01*
X43109D01*
Y27121D01*
X42690Y26702D01*
X42241Y27152D01*
X42169Y27199D01*
X42085Y27216D01*
X42009D01*
X41990Y27235D01*
Y27548D01*
X41713D01*
Y27598D01*
X41663D01*
Y28013D01*
X41435D01*
Y27819D01*
X40800D01*
X40716Y27802D01*
X40644Y27755D01*
X40538Y27649D01*
X40492Y27668D01*
Y28223D01*
X40981D01*
X41007Y28203D01*
X41074Y28176D01*
X41146Y28166D01*
X41218Y28176D01*
X41285Y28203D01*
X41342Y28248D01*
X41387Y28305D01*
X41414Y28372D01*
X41424Y28444D01*
X41414Y28516D01*
X41387Y28583D01*
X41342Y28641D01*
X41285Y28685D01*
X41218Y28713D01*
X41146Y28722D01*
X41074Y28713D01*
X41007Y28685D01*
X40981Y28665D01*
X40804D01*
X40785Y28711D01*
X41143Y29069D01*
X41457D01*
Y28780D01*
D02*
G37*
G36*
X37165Y28533D02*
X37359D01*
Y28008D01*
X37360Y28003D01*
X37359Y27997D01*
X37370Y27822D01*
X37336Y27785D01*
X37333D01*
Y27625D01*
X37286Y27606D01*
X36612Y28281D01*
X36631Y28327D01*
X36919D01*
Y28432D01*
X37038Y28551D01*
X37165D01*
Y28533D01*
D02*
G37*
G36*
X38986Y27207D02*
X38993Y27192D01*
X38996Y27176D01*
X39011Y27153D01*
X39022Y27129D01*
X39034Y27118D01*
X39044Y27104D01*
X39066Y27089D01*
X39086Y27071D01*
X39101Y27065D01*
X39116Y27056D01*
X39142Y27051D01*
X39166Y27042D01*
X39183Y27043D01*
X39200Y27039D01*
X40462D01*
X40546Y27056D01*
X40618Y27104D01*
X40726Y27212D01*
X40773Y27189D01*
X40772Y27180D01*
X40781Y27108D01*
X40809Y27041D01*
X40853Y26983D01*
X40911Y26939D01*
X40978Y26911D01*
X41050Y26902D01*
X41122Y26911D01*
X41181Y26936D01*
X41766Y26352D01*
X41752Y26319D01*
X41752D01*
Y25710D01*
X41390D01*
X40755Y26345D01*
X40716Y26371D01*
X40670Y26380D01*
X40670Y26380D01*
X40541D01*
Y26437D01*
X40148D01*
Y26380D01*
X40070D01*
X39991Y26460D01*
X39999Y26478D01*
X40008Y26550D01*
X39999Y26622D01*
X39971Y26689D01*
X39927Y26747D01*
X39869Y26791D01*
X39802Y26818D01*
X39730Y26828D01*
X39658Y26818D01*
X39591Y26791D01*
X39533Y26747D01*
X39489Y26689D01*
X39462Y26622D01*
X39452Y26550D01*
X39462Y26478D01*
X39489Y26411D01*
X39533Y26353D01*
X39591Y26309D01*
X39658Y26281D01*
X39730Y26272D01*
X39802Y26281D01*
X39820Y26289D01*
X39935Y26175D01*
X39935Y26175D01*
X39974Y26149D01*
X40020Y26139D01*
X40148D01*
Y26083D01*
X40148Y26083D01*
X40138Y26037D01*
X39485D01*
X38841Y26681D01*
Y27420D01*
X38934D01*
X38986Y27207D01*
D02*
G37*
G36*
X41255Y25505D02*
X41255Y25505D01*
X41294Y25479D01*
X41340Y25470D01*
X41340Y25470D01*
X42229D01*
X42252Y25424D01*
X42227Y25382D01*
X41986D01*
X41986Y25382D01*
X41940Y25373D01*
X41901Y25347D01*
X41901Y25347D01*
X41618Y25064D01*
X41592Y25024D01*
X41582Y24978D01*
X41582Y24978D01*
Y24783D01*
X41526D01*
Y24783D01*
X41486D01*
Y24783D01*
X41228D01*
X40858Y25153D01*
X40862Y25186D01*
X40853Y25258D01*
X40825Y25325D01*
X40781Y25382D01*
X40723Y25426D01*
X40656Y25454D01*
X40584Y25464D01*
X40512Y25454D01*
X40445Y25426D01*
X40388Y25382D01*
X40344Y25325D01*
X40316Y25258D01*
X40306Y25186D01*
X40316Y25114D01*
X40344Y25047D01*
X40388Y24989D01*
X40445Y24945D01*
X40512Y24917D01*
X40584Y24908D01*
X40617Y24912D01*
X41063Y24466D01*
X41118Y24429D01*
X41132Y24426D01*
Y24390D01*
X41138D01*
Y23484D01*
X41120Y23468D01*
X41048Y23458D01*
X40981Y23431D01*
X40923Y23387D01*
X40900Y23357D01*
X40850Y23374D01*
Y24120D01*
X40850Y24120D01*
X40841Y24166D01*
X40815Y24205D01*
X40815Y24205D01*
X40615Y24405D01*
X40576Y24431D01*
X40530Y24440D01*
X40530Y24440D01*
X37985D01*
X37939Y24431D01*
X37900Y24405D01*
X37815Y24321D01*
X37769Y24340D01*
Y24911D01*
X37844D01*
Y25483D01*
X38057Y25696D01*
X38720D01*
X38771Y25686D01*
X38821Y25696D01*
X39350D01*
X39400Y25686D01*
X39450Y25696D01*
X40148D01*
Y25689D01*
X40541D01*
Y26043D01*
X40541D01*
Y26083D01*
X40541D01*
Y26139D01*
X40620D01*
X41255Y25505D01*
D02*
G37*
G36*
X42660Y23997D02*
Y22982D01*
X42174D01*
X42117Y23026D01*
X42049Y23054D01*
X41978Y23063D01*
X41906Y23054D01*
X41839Y23026D01*
X41781Y22982D01*
X41737Y22924D01*
X41729Y22906D01*
X41281D01*
X41273Y22922D01*
X41268Y22956D01*
X41317Y22993D01*
X41361Y23051D01*
X41389Y23118D01*
X41398Y23190D01*
X41395Y23210D01*
X41437Y23251D01*
X41476Y23310D01*
X41490Y23379D01*
X41480Y23430D01*
Y24380D01*
X41526Y24390D01*
X41526Y24390D01*
X41526Y24390D01*
X41880D01*
Y24466D01*
X42190D01*
X42660Y23997D01*
D02*
G37*
G36*
X40610Y24070D02*
Y23015D01*
X40610Y23015D01*
X40619Y22969D01*
X40645Y22930D01*
X40875Y22700D01*
X40914Y22674D01*
X40960Y22665D01*
X41729D01*
X41737Y22646D01*
X41781Y22589D01*
X41839Y22545D01*
X41906Y22517D01*
X41978Y22507D01*
X42049Y22517D01*
X42096Y22536D01*
X42146Y22509D01*
Y22158D01*
X41362D01*
X41075Y22445D01*
X41036Y22471D01*
X40990Y22480D01*
X40990Y22480D01*
X39466D01*
X39466Y22480D01*
X39420Y22471D01*
X39381Y22445D01*
X39381Y22445D01*
X39111Y22175D01*
X39065Y22194D01*
Y22274D01*
X39008D01*
Y22550D01*
X38999Y22596D01*
X38973Y22635D01*
X38973Y22635D01*
X38742Y22866D01*
Y23425D01*
X38819D01*
Y23720D01*
X39552D01*
X39559Y23701D01*
X39603Y23643D01*
X39661Y23599D01*
X39728Y23572D01*
X39800Y23562D01*
X39872Y23572D01*
X39939Y23599D01*
X39997Y23643D01*
X40041Y23701D01*
X40057Y23739D01*
X40095Y23755D01*
X40153Y23800D01*
X40197Y23857D01*
X40225Y23924D01*
X40234Y23996D01*
X40225Y24068D01*
X40197Y24135D01*
X40186Y24150D01*
X40210Y24200D01*
X40480D01*
X40610Y24070D01*
D02*
G37*
G36*
X38425Y24173D02*
Y23953D01*
X38414Y23951D01*
X38375Y23925D01*
X38295Y23845D01*
X38269Y23806D01*
X38260Y23760D01*
X38260Y23760D01*
Y22626D01*
X38213Y22599D01*
X38210Y22599D01*
X38186Y22635D01*
X38186Y22635D01*
X37945Y22875D01*
Y23425D01*
X38022D01*
Y23780D01*
X38022D01*
Y23819D01*
X38022D01*
Y24173D01*
X38061Y24200D01*
X38386D01*
X38425Y24173D01*
D02*
G37*
G36*
X38767Y22500D02*
Y22274D01*
X38711D01*
Y21289D01*
X39065D01*
Y21788D01*
X39516Y22240D01*
X39695D01*
Y21331D01*
X39675Y21317D01*
X39631Y21259D01*
X39604Y21192D01*
X39595Y21125D01*
X39593Y21123D01*
X39581Y21112D01*
X39547Y21093D01*
X39478Y21122D01*
X39380Y21135D01*
X39282Y21122D01*
X39191Y21085D01*
X39113Y21025D01*
X39053Y20947D01*
X39016Y20856D01*
X39003Y20758D01*
X39016Y20660D01*
X39053Y20569D01*
X39098Y20510D01*
X39074Y20460D01*
X38530D01*
X38500Y20490D01*
Y22698D01*
X38550Y22717D01*
X38767Y22500D01*
D02*
G37*
G36*
X43669Y21270D02*
X43631Y21220D01*
X43601Y21147D01*
X43597Y21120D01*
X43890D01*
Y21070D01*
X43940D01*
Y20777D01*
X43967Y20781D01*
X44023Y20804D01*
X44051Y20761D01*
X43105Y19815D01*
X41201D01*
X41182Y19862D01*
X43161Y21841D01*
X43669D01*
Y21270D01*
D02*
G37*
G36*
X40180Y20070D02*
Y20032D01*
X40180Y20032D01*
X40189Y19986D01*
X40215Y19947D01*
X40301Y19862D01*
X40281Y19815D01*
X38935D01*
X38577Y20173D01*
X38596Y20220D01*
X40030D01*
X40180Y20070D01*
D02*
G37*
%LPC*%
G36*
X36072Y48169D02*
X35584D01*
X35495Y48151D01*
X35420Y48101D01*
X35369Y48025D01*
X35351Y47936D01*
X35369Y47847D01*
X35420Y47772D01*
X35495Y47721D01*
X35584Y47704D01*
X36072D01*
X36162Y47721D01*
X36237Y47772D01*
X36288Y47847D01*
X36305Y47936D01*
X36288Y48025D01*
X36237Y48101D01*
X36162Y48151D01*
X36072Y48169D01*
D02*
G37*
G36*
X34369Y43807D02*
X34316Y43800D01*
X34220Y43761D01*
X34137Y43697D01*
X34074Y43615D01*
X34034Y43519D01*
X34027Y43465D01*
X34369D01*
Y43807D01*
D02*
G37*
G36*
X41631Y47004D02*
X41143D01*
X41054Y46986D01*
X40979Y46936D01*
X40928Y46860D01*
X40910Y46771D01*
X40928Y46682D01*
X40979Y46606D01*
X41054Y46556D01*
X41143Y46538D01*
X41631D01*
X41721Y46556D01*
X41796Y46606D01*
X41847Y46682D01*
X41864Y46771D01*
X41847Y46860D01*
X41796Y46936D01*
X41721Y46986D01*
X41631Y47004D01*
D02*
G37*
G36*
Y46413D02*
X41143D01*
X41054Y46396D01*
X40979Y46345D01*
X40928Y46270D01*
X40910Y46180D01*
X40928Y46091D01*
X40979Y46016D01*
X41054Y45965D01*
X41143Y45948D01*
X41631D01*
X41721Y45965D01*
X41796Y46016D01*
X41847Y46091D01*
X41864Y46180D01*
X41847Y46270D01*
X41796Y46345D01*
X41721Y46396D01*
X41631Y46413D01*
D02*
G37*
G36*
Y45823D02*
X41143D01*
X41054Y45805D01*
X40979Y45755D01*
X40928Y45679D01*
X40910Y45590D01*
X40928Y45501D01*
X40979Y45425D01*
X41054Y45375D01*
X41143Y45357D01*
X41631D01*
X41721Y45375D01*
X41796Y45425D01*
X41847Y45501D01*
X41864Y45590D01*
X41847Y45679D01*
X41796Y45755D01*
X41721Y45805D01*
X41631Y45823D01*
D02*
G37*
G36*
X42686Y38929D02*
X42321D01*
Y38702D01*
X42686D01*
Y38929D01*
D02*
G37*
G36*
X41663Y37925D02*
X41435D01*
Y37383D01*
X41663D01*
Y37925D01*
D02*
G37*
G36*
X39035Y38348D02*
X38807D01*
Y37806D01*
X39035D01*
Y38348D01*
D02*
G37*
G36*
X43001Y33493D02*
X42459D01*
Y33266D01*
X43001D01*
Y33493D01*
D02*
G37*
G36*
X35427Y30260D02*
Y30017D01*
X35669D01*
X35666Y30045D01*
X35636Y30117D01*
X35588Y30179D01*
X35526Y30227D01*
X35454Y30257D01*
X35427Y30260D01*
D02*
G37*
G36*
X34232Y25700D02*
X33867D01*
Y25473D01*
X34232D01*
Y25700D01*
D02*
G37*
G36*
X36645Y25432D02*
X36418D01*
Y24890D01*
X36645D01*
Y25432D01*
D02*
G37*
G36*
X37315Y21732D02*
X36918D01*
Y21268D01*
X36918D01*
X36923Y21218D01*
X36728Y21024D01*
X36678Y21044D01*
Y21220D01*
X36664Y21331D01*
X36621Y21435D01*
X36553Y21523D01*
X36464Y21592D01*
X36361Y21634D01*
X36300Y21642D01*
Y20758D01*
Y19873D01*
X36361Y19881D01*
X36464Y19924D01*
X36553Y19992D01*
X36621Y20081D01*
X36664Y20184D01*
X36678Y20295D01*
Y20537D01*
X36704D01*
X36789Y20554D01*
X36860Y20602D01*
X36908Y20673D01*
X36920Y20732D01*
X37237Y21049D01*
X37274Y21105D01*
X37287Y21170D01*
Y21268D01*
X37315D01*
Y21732D01*
D02*
G37*
G36*
X40788Y21642D02*
Y20808D01*
X41167D01*
Y21220D01*
X41152Y21331D01*
X41109Y21435D01*
X41041Y21523D01*
X40952Y21592D01*
X40849Y21634D01*
X40788Y21642D01*
D02*
G37*
G36*
X40688D02*
X40627Y21634D01*
X40524Y21592D01*
X40435Y21523D01*
X40367Y21435D01*
X40324Y21331D01*
X40310Y21220D01*
Y20808D01*
X40688D01*
Y21642D01*
D02*
G37*
G36*
X36200D02*
X36139Y21634D01*
X36036Y21592D01*
X35947Y21523D01*
X35879Y21435D01*
X35836Y21331D01*
X35822Y21220D01*
Y20808D01*
X36200D01*
Y21642D01*
D02*
G37*
G36*
Y20708D02*
X35822D01*
Y20295D01*
X35836Y20184D01*
X35879Y20081D01*
X35947Y19992D01*
X36036Y19924D01*
X36139Y19881D01*
X36200Y19873D01*
Y20708D01*
D02*
G37*
G36*
X41990Y28013D02*
X41763D01*
Y27648D01*
X41990D01*
Y28013D01*
D02*
G37*
G36*
X43840Y21020D02*
X43597D01*
X43601Y20993D01*
X43631Y20920D01*
X43678Y20858D01*
X43740Y20811D01*
X43813Y20781D01*
X43840Y20777D01*
Y21020D01*
D02*
G37*
%LPD*%
D10*
X42933Y37333D02*
D03*
X41713D02*
D03*
X40305Y37756D02*
D03*
X39085D02*
D03*
X37589Y25482D02*
D03*
X36368D02*
D03*
X37589Y27215D02*
D03*
X36368D02*
D03*
X39016Y28012D02*
D03*
X40236D02*
D03*
D11*
X33445Y35207D02*
D03*
Y34970D02*
D03*
X34213Y34990D02*
D03*
Y35226D02*
D03*
D12*
X42933Y29173D02*
D03*
X41713D02*
D03*
X34419Y23041D02*
D03*
X35640D02*
D03*
X36171Y38130D02*
D03*
X37392D02*
D03*
X41713Y27598D02*
D03*
X42933D02*
D03*
D13*
X43071Y32638D02*
D03*
Y31417D02*
D03*
X43051Y34764D02*
D03*
Y33543D02*
D03*
D14*
X34252Y32500D02*
D03*
Y33720D02*
D03*
Y30561D02*
D03*
Y31781D02*
D03*
X34232Y29242D02*
D03*
Y28022D02*
D03*
X34281Y25423D02*
D03*
Y26644D02*
D03*
X34203Y36319D02*
D03*
Y37539D02*
D03*
X42736Y38652D02*
D03*
Y39872D02*
D03*
D15*
X36299Y37008D02*
D03*
X36535D02*
D03*
X36919Y36811D02*
D03*
X37156D02*
D03*
X37165Y37215D02*
D03*
X36929D02*
D03*
X43228Y46083D02*
D03*
X42992D02*
D03*
X43228Y46782D02*
D03*
X42992D02*
D03*
X43228Y47461D02*
D03*
X42992D02*
D03*
X36545Y28465D02*
D03*
X36781D02*
D03*
Y28868D02*
D03*
X36545D02*
D03*
X37303Y28671D02*
D03*
X37539D02*
D03*
D16*
X37825Y23996D02*
D03*
Y23602D02*
D03*
X38622Y23996D02*
D03*
Y23602D02*
D03*
X40344Y26260D02*
D03*
Y25866D02*
D03*
D17*
X34213Y38780D02*
D03*
Y39528D02*
D03*
D18*
X39872Y21781D02*
D03*
X38888D02*
D03*
X38100D02*
D03*
X37116D02*
D03*
D19*
X39114Y39439D02*
D03*
X41083D02*
D03*
D20*
X36063Y36152D02*
D03*
X36260D02*
D03*
X36457D02*
D03*
X36654D02*
D03*
X36850D02*
D03*
X37047D02*
D03*
X37244D02*
D03*
X37441D02*
D03*
X37638D02*
D03*
X37835D02*
D03*
X38031D02*
D03*
X38228D02*
D03*
X38425D02*
D03*
X38622D02*
D03*
X38819D02*
D03*
X39016D02*
D03*
X39213D02*
D03*
X39409D02*
D03*
X39606D02*
D03*
X39803D02*
D03*
X40000D02*
D03*
X40197D02*
D03*
X40394D02*
D03*
X40591D02*
D03*
X40787D02*
D03*
Y30207D02*
D03*
X40591D02*
D03*
X40394D02*
D03*
X40197D02*
D03*
X40000D02*
D03*
X39803D02*
D03*
X39606D02*
D03*
X39409D02*
D03*
X39213D02*
D03*
X39016D02*
D03*
X38819D02*
D03*
X38622D02*
D03*
X38425D02*
D03*
X38228D02*
D03*
X38031D02*
D03*
X37835D02*
D03*
X37638D02*
D03*
X37441D02*
D03*
X37244D02*
D03*
X37047D02*
D03*
X36850D02*
D03*
X36654D02*
D03*
X36457D02*
D03*
X36260D02*
D03*
X36063D02*
D03*
D21*
X41398Y35541D02*
D03*
Y35344D02*
D03*
Y35148D02*
D03*
Y34951D02*
D03*
Y34754D02*
D03*
Y34557D02*
D03*
Y34360D02*
D03*
Y34163D02*
D03*
Y33967D02*
D03*
Y33770D02*
D03*
Y33573D02*
D03*
Y33376D02*
D03*
Y33179D02*
D03*
Y32982D02*
D03*
Y32785D02*
D03*
Y32589D02*
D03*
Y32392D02*
D03*
Y32195D02*
D03*
Y31998D02*
D03*
Y31801D02*
D03*
Y31604D02*
D03*
Y31407D02*
D03*
Y31211D02*
D03*
Y31014D02*
D03*
Y30817D02*
D03*
X35453D02*
D03*
Y31014D02*
D03*
Y31211D02*
D03*
Y31407D02*
D03*
Y31604D02*
D03*
Y31801D02*
D03*
Y31998D02*
D03*
Y32195D02*
D03*
Y32392D02*
D03*
Y32589D02*
D03*
Y32785D02*
D03*
Y32982D02*
D03*
Y33179D02*
D03*
Y33376D02*
D03*
Y33573D02*
D03*
Y33770D02*
D03*
Y33967D02*
D03*
Y34163D02*
D03*
Y34360D02*
D03*
Y34557D02*
D03*
Y34754D02*
D03*
Y34951D02*
D03*
Y35148D02*
D03*
Y35344D02*
D03*
Y35541D02*
D03*
D22*
X42008Y25984D02*
D03*
X42756D02*
D03*
D23*
X41309Y24587D02*
D03*
X41703D02*
D03*
D24*
X42559Y35591D02*
D03*
X42283D02*
D03*
D25*
X36521Y41153D02*
D03*
X40065D02*
D03*
X39474D02*
D03*
X38883D02*
D03*
X38293D02*
D03*
X37702D02*
D03*
X37112D02*
D03*
X40655D02*
D03*
D26*
X41387Y42637D02*
D03*
Y43818D02*
D03*
Y44999D02*
D03*
Y45590D02*
D03*
Y46180D02*
D03*
Y46771D02*
D03*
Y47362D02*
D03*
Y47952D02*
D03*
Y48543D02*
D03*
Y49133D02*
D03*
X35828Y43212D02*
D03*
Y43803D02*
D03*
Y44393D02*
D03*
Y44984D02*
D03*
Y45574D02*
D03*
Y46165D02*
D03*
Y46755D02*
D03*
Y47346D02*
D03*
Y47936D02*
D03*
Y42621D02*
D03*
Y42031D02*
D03*
X41387Y42047D02*
D03*
Y43228D02*
D03*
Y44409D02*
D03*
X35828Y48527D02*
D03*
Y49117D02*
D03*
D27*
X42441Y22037D02*
D03*
Y22411D02*
D03*
Y22785D02*
D03*
X43425D02*
D03*
Y22411D02*
D03*
Y22037D02*
D03*
D28*
X41978Y22785D02*
X42441D01*
X40960D02*
X41978D01*
X38622Y23996D02*
X39956D01*
X36580Y39450D02*
X37030Y39000D01*
X33260Y35070D02*
X33402Y34928D01*
X32990Y34516D02*
X33402Y34928D01*
X41313Y22037D02*
X42441D01*
X40990Y22360D02*
X41313Y22037D01*
X39466Y22360D02*
X40990D01*
X38888Y21781D02*
X39466Y22360D01*
X37825Y23996D02*
Y24160D01*
X37985Y24320D01*
X40530D01*
X40730Y24120D01*
Y23015D02*
Y24120D01*
Y23015D02*
X40960Y22785D01*
X38100Y20480D02*
Y21781D01*
Y20480D02*
X38886Y19695D01*
X43155D01*
X44210Y20750D01*
Y22415D01*
X43840Y22785D02*
X44210Y22415D01*
X43425Y22785D02*
X43840D01*
X39820Y35040D02*
X40303Y34557D01*
X38170Y34480D02*
X38730Y35040D01*
X38170Y31650D02*
Y34480D01*
X36600Y49133D02*
X41387D01*
X36143Y49590D02*
X36600Y49133D01*
X33600Y49590D02*
X36143D01*
X32925Y48915D02*
X33600Y49590D01*
X32925Y35495D02*
Y48915D01*
Y35495D02*
X32950Y35470D01*
X36930Y29450D02*
X37100D01*
X37441Y29791D01*
Y30207D01*
X35828Y43212D02*
X36790D01*
X36792Y43210D01*
X44055Y40815D02*
X44220Y40980D01*
X44055Y40070D02*
Y40815D01*
Y40070D02*
X44160Y39965D01*
Y38110D02*
Y39965D01*
X44040Y37990D02*
X44160Y38110D01*
X44140Y37280D02*
X44530Y36890D01*
Y25920D02*
Y36890D01*
X44200Y25590D02*
X44530Y25920D01*
X41340Y25590D02*
X44200D01*
X40670Y26260D02*
X41340Y25590D01*
X40344Y26260D02*
X40670D01*
X33920Y38780D02*
X34213D01*
X33240Y38100D02*
X33920Y38780D01*
X33240Y35940D02*
Y38100D01*
X39769Y29411D02*
X40241D01*
X40591Y29760D01*
Y30207D01*
X39850Y37364D02*
X40394Y36820D01*
X39850Y37364D02*
Y37650D01*
X40394Y36152D02*
Y36820D01*
X39837Y37637D02*
X39850Y37650D01*
X40197Y36152D02*
Y36790D01*
X39450Y37537D02*
X40197Y36790D01*
X36998Y38565D02*
X39405D01*
X36505Y38072D02*
X36998Y38565D01*
X36505Y37760D02*
Y38072D01*
X36405Y37660D02*
X36505Y37760D01*
X35920Y37660D02*
X36405D01*
X35490Y38090D02*
X35920Y37660D01*
X35490Y38090D02*
Y39252D01*
X39405Y38565D02*
X39450Y38610D01*
X39405Y38565D02*
X39450Y37537D01*
X39400Y35550D02*
X39409Y35559D01*
Y36152D01*
X39790Y39756D02*
X40290Y39256D01*
X39790Y39756D02*
Y41560D01*
X39680Y41670D02*
X39790Y41560D01*
X38720Y41670D02*
X39680D01*
X38610Y41560D02*
X38720Y41670D01*
X38610Y40130D02*
Y41560D01*
X38480Y40000D02*
X38610Y40130D01*
X38480Y38850D02*
Y40000D01*
X38400Y38770D02*
X38480Y38850D01*
X37920Y38770D02*
X38400D01*
X37840Y38850D02*
X37920Y38770D01*
X37840Y38850D02*
Y39200D01*
X37620Y39420D02*
X37840Y39200D01*
X37100Y39420D02*
X37620D01*
X35940Y40580D02*
X37100Y39420D01*
X39460Y34473D02*
X40360Y33573D01*
X41398D01*
Y33179D02*
X41999D01*
X42000Y33180D01*
X36580Y40310D02*
X37400D01*
X36250Y40640D02*
X36580Y40310D01*
X36250Y40640D02*
Y40810D01*
X36160Y40900D02*
X36250Y40810D01*
X35670Y40900D02*
X36160D01*
X35570Y40800D02*
X35670Y40900D01*
X37030Y39000D02*
X37400D01*
X35570Y40460D02*
Y40800D01*
Y40460D02*
X36580Y39450D01*
Y38640D02*
Y39450D01*
X39610Y50750D02*
X39950D01*
X38630Y51730D02*
X39610Y50750D01*
X33560Y51730D02*
X38630D01*
X32635Y50805D02*
X33560Y51730D01*
X32635Y30155D02*
Y50805D01*
Y30155D02*
X33472Y29318D01*
X37110Y30840D02*
X37260Y30690D01*
X38648D01*
X40373Y32415D01*
X41032D01*
X41398Y32392D01*
X33830Y39232D02*
Y49170D01*
Y39232D02*
X34664D01*
X34821Y39076D01*
Y36599D02*
Y39076D01*
Y36599D02*
X35440Y35980D01*
X36750Y35290D02*
Y35460D01*
Y35290D02*
X37855Y34185D01*
Y31195D02*
Y34185D01*
Y31195D02*
X38080Y30970D01*
X38680D01*
X40295Y32585D01*
X41081D01*
X41398Y32589D01*
X40230Y34951D02*
X41398D01*
X39951Y35230D02*
X40230Y34951D01*
X38960Y35230D02*
X39951D01*
X38760Y35430D02*
X38960Y35230D01*
X38228Y36152D02*
Y36632D01*
X37940Y36920D02*
X38228Y36632D01*
X36732Y36811D02*
X36919D01*
X36535Y37008D02*
X36732Y36811D01*
X36049Y33179D02*
X36050Y33180D01*
X35453Y33179D02*
X36049D01*
X40394Y30207D02*
Y30939D01*
X37510Y48640D02*
X37880Y48270D01*
X43810D01*
X43840Y48240D01*
Y46694D02*
Y48240D01*
X43228Y46083D02*
X43840Y46694D01*
X40197Y30207D02*
Y30690D01*
X39990Y30897D02*
X40197Y30690D01*
X39990Y30897D02*
Y31350D01*
X40740Y32100D01*
X39570Y32900D02*
X40260D01*
X38970Y33500D02*
X39570Y32900D01*
X38970Y33500D02*
Y34560D01*
X42300Y39580D02*
X42610Y39270D01*
X42300Y39580D02*
Y46089D01*
X42992Y46782D01*
X40249Y34360D02*
X41398D01*
X39734Y34875D02*
X40249Y34360D01*
X38800Y34875D02*
X39734D01*
X38560Y34635D02*
X38800Y34875D01*
X38560Y31320D02*
Y34635D01*
X41986Y25262D02*
X42480D01*
X41703Y24978D02*
X41986Y25262D01*
X41703Y24587D02*
Y24978D01*
X33402Y34928D02*
X33445Y34970D01*
X33260Y35070D02*
Y35390D01*
X33563Y35693D01*
Y37613D01*
X34430Y38480D01*
X34590D01*
Y39075D01*
X33760D02*
X34590D01*
X33396Y39439D02*
X33760Y39075D01*
X34500Y32982D02*
X35453D01*
X34368Y32850D02*
X34500Y32982D01*
X33410Y32850D02*
X34368D01*
X33300Y32740D02*
X33410Y32850D01*
X42441Y22411D02*
X42780D01*
Y24047D01*
X42240Y24587D02*
X42780Y24047D01*
X41703Y24587D02*
X42240D01*
X40787Y36152D02*
Y36706D01*
X41075Y36994D01*
Y38235D01*
X41900Y39060D01*
Y44560D01*
X41760Y44700D02*
X41900Y44560D01*
X40870Y44700D02*
X41760D01*
X37830Y47740D02*
X40870Y44700D01*
X35828Y48527D02*
X36253D01*
X36670Y48110D01*
X38060D01*
X38650Y47520D01*
X40750D01*
X40870Y47640D01*
X42813D01*
X42992Y47461D01*
X40570Y47952D02*
X41387D01*
X42992Y45920D02*
Y46083D01*
Y45920D02*
X43182Y45730D01*
X43650D01*
X44000Y46080D01*
Y48320D01*
X43490Y48830D02*
X44000Y48320D01*
X38330Y48830D02*
X43490D01*
X38200Y48960D02*
X38330Y48830D01*
X36227Y48960D02*
X38200D01*
X36070Y49117D02*
X36227Y48960D01*
X35828Y49117D02*
X36070D01*
X40020Y26260D02*
X40344D01*
X39730Y26550D02*
X40020Y26260D01*
X37638Y29412D02*
X37760Y29290D01*
X37638Y29412D02*
Y30207D01*
X40303Y34557D02*
X41398D01*
X38730Y35040D02*
X39820D01*
X38460Y23840D02*
X39800D01*
X38380Y23760D02*
X38460Y23840D01*
X38380Y20440D02*
Y23760D01*
Y20440D02*
X38480Y20340D01*
X40080D01*
X40300Y20120D01*
Y20032D02*
Y20120D01*
Y20032D02*
X40480Y19852D01*
X41002D01*
X43187Y22037D01*
X43425D01*
X37060Y49852D02*
Y51388D01*
X34180Y33170D02*
X34444D01*
X34650Y33376D01*
X35453D01*
X40000Y36152D02*
Y36720D01*
X39979Y36741D02*
X40000Y36720D01*
X39749Y36741D02*
X39979D01*
X39500Y36990D02*
X39749Y36741D01*
X40760Y37310D02*
Y38570D01*
X40290Y39040D02*
X40760Y38570D01*
X40290Y39040D02*
Y39256D01*
X42008Y25984D02*
Y26280D01*
X41108Y27180D02*
X42008Y26280D01*
X41050Y27180D02*
X41108D01*
X40770Y35290D02*
X40912Y35148D01*
X41398D01*
X37244Y36152D02*
Y36722D01*
X37156Y36811D02*
X37244Y36722D01*
X34203Y37163D02*
Y37539D01*
X33737Y36697D02*
X34203Y37163D01*
X33737Y35701D02*
Y36697D01*
Y35701D02*
X34213Y35226D01*
X38160Y39090D02*
Y40020D01*
X37380Y40800D02*
X38160Y40020D01*
X37380Y40800D02*
Y41600D01*
X37140Y41840D02*
X37380Y41600D01*
X36762Y41840D02*
X37140D01*
X38228Y29280D02*
Y30207D01*
X37838Y28890D02*
X38228Y29280D01*
X37393Y28890D02*
X37838D01*
X37303Y28800D02*
X37393Y28890D01*
X37303Y28671D02*
Y28800D01*
X34047Y35226D02*
X34213D01*
X34027Y35207D02*
X34047Y35226D01*
X33445Y35207D02*
X34027D01*
X41996Y34754D02*
X42000Y34750D01*
X41398Y34754D02*
X41996D01*
X41398Y33770D02*
X42260D01*
X42340Y33850D01*
X44106D01*
X44366Y34110D01*
Y36420D01*
X43825Y36962D02*
X44366Y36420D01*
X43825Y36962D02*
Y37420D01*
X44000Y37595D01*
X44205D01*
X44370Y37760D01*
Y40400D01*
X36988Y28671D02*
X37303D01*
X36781Y28465D02*
X36988Y28671D01*
X38622Y22816D02*
Y23602D01*
Y22816D02*
X38888Y22550D01*
Y21781D02*
Y22550D01*
X37825Y22826D02*
Y23602D01*
Y22826D02*
X38100Y22550D01*
Y21781D02*
Y22550D01*
X36545Y28465D02*
Y28868D01*
X37165Y37010D02*
Y37215D01*
X37156Y37000D02*
X37165Y37010D01*
X37156Y36811D02*
Y37000D01*
X43228Y47236D02*
Y47461D01*
X42992Y47000D02*
X43228Y47236D01*
X42992Y46782D02*
Y47000D01*
X41398Y34163D02*
Y34360D01*
X37638Y30848D02*
X37640Y30850D01*
D29*
X43077Y38652D02*
Y39306D01*
X42570Y37980D02*
Y38652D01*
X41000Y39439D02*
Y39670D01*
X43790Y33383D02*
X44230Y32943D01*
X42690Y26390D02*
X42756Y26324D01*
X42085Y26995D02*
X42690Y26390D01*
X42756Y26314D02*
Y26324D01*
Y25984D02*
Y26314D01*
X41917Y26995D02*
X42085D01*
X35200Y39673D02*
X35696D01*
X34419Y39734D02*
Y42492D01*
X36808Y32090D02*
X37180Y32461D01*
X36520Y31801D02*
X36808Y32090D01*
X34585Y30561D02*
X34600D01*
X34585D02*
X35546Y29600D01*
X43460Y34510D02*
Y34764D01*
X40236Y28444D02*
X41146D01*
X39630Y28000D02*
X40236D01*
X34100Y29242D02*
Y29790D01*
X42933Y28397D02*
Y29173D01*
Y28397D02*
X43330Y28000D01*
Y27030D02*
Y28000D01*
X42690Y26390D02*
X43330Y27030D01*
X35209Y40160D02*
Y41001D01*
Y40160D02*
X35696Y39673D01*
X35840D01*
X36167Y39347D01*
Y38233D02*
Y39347D01*
X36171Y38130D02*
Y38228D01*
X34213Y39528D02*
X34419Y39734D01*
X34252Y32500D02*
X34650D01*
X34810Y32660D01*
X40800Y27598D02*
X41713D01*
X40462Y27260D02*
X40800Y27598D01*
X39200Y27260D02*
X40462D01*
X39016Y28012D02*
X39200Y27260D01*
X33660Y27265D02*
X34281Y26644D01*
X33660Y27265D02*
Y28670D01*
X34232Y29242D01*
X34100D02*
X34232D01*
X40236Y28000D02*
Y28012D01*
X39470Y28160D02*
X39630Y28000D01*
X37353Y31407D02*
X37500Y31260D01*
X43890Y21070D02*
Y22240D01*
X36808Y32090D02*
Y33542D01*
X36580Y33770D02*
X36808Y33542D01*
X39085Y37400D02*
Y37756D01*
X38605Y36920D02*
X39085Y37400D01*
X43630Y33543D02*
X43790Y33383D01*
X35680Y37310D02*
X36109D01*
X35077Y37913D02*
X35680Y37310D01*
X35077Y37913D02*
Y39550D01*
X35200Y39673D01*
X36167Y38233D02*
X36171Y38228D01*
X42686Y34764D02*
X43051D01*
X42280Y35170D02*
X42686Y34764D01*
X41713Y36777D02*
Y37333D01*
Y36777D02*
X41840Y36650D01*
X42090D01*
X42470Y36270D01*
X43051Y33543D02*
X43630D01*
X44230Y31807D02*
Y32943D01*
X43840Y31417D02*
X44230Y31807D01*
X43071Y31417D02*
X43840D01*
X36340Y34790D02*
X37180Y33950D01*
Y32461D02*
Y33950D01*
X34600Y30561D02*
X35194Y29968D01*
X35377D01*
X41000Y39439D02*
X41083D01*
X40400Y39670D02*
X41000D01*
X40340Y39730D02*
X40400Y39670D01*
X41083Y39439D02*
Y40297D01*
X33920Y30561D02*
X34252D01*
X33720Y30761D02*
X33920Y30561D01*
X33720Y30761D02*
Y32320D01*
X33900Y32500D01*
X34252D01*
Y30561D02*
X34585D01*
X35220Y28860D02*
X36368Y27712D01*
Y27215D02*
Y27712D01*
X42736Y38652D02*
X43077D01*
Y39306D02*
X43460Y39689D01*
X41713Y37333D02*
X41923D01*
X42570Y37980D01*
Y38652D02*
X42736D01*
X34203Y36319D02*
X34600D01*
X34760Y36159D01*
X41941Y26830D02*
X42240D01*
X42756Y26314D01*
X41713Y27200D02*
Y27598D01*
Y27200D02*
X41917Y26995D01*
X43051Y34764D02*
X43460D01*
Y34510D02*
X43800Y34170D01*
X40236Y28012D02*
Y28444D01*
X34419Y42492D02*
X34880Y42031D01*
X34419Y42492D02*
Y43415D01*
X36250Y20758D02*
X36704D01*
X34419Y22720D02*
X34639Y22500D01*
X34419Y22720D02*
Y23041D01*
X43071Y30358D02*
Y31417D01*
X42933Y30220D02*
X43071Y30358D01*
X42933Y29173D02*
Y30220D01*
X34281Y24298D02*
Y25423D01*
Y24298D02*
X34419Y24160D01*
Y23041D02*
Y24160D01*
X35349Y25482D02*
X36368D01*
X35290Y25423D02*
X35349Y25482D01*
X34281Y25423D02*
X35290D01*
X35697Y27215D02*
X36368D01*
X34890Y28022D02*
X35697Y27215D01*
X34232Y28022D02*
X34890D01*
X36368Y25482D02*
Y27215D01*
D30*
X40219Y42141D02*
X40655Y41705D01*
X40010Y42350D02*
X40219Y42141D01*
X41387Y42047D01*
X37633Y42350D02*
X40219Y42141D01*
X37633Y42350D02*
X40010D01*
X35828Y42031D02*
X36070D01*
X36389Y42350D02*
X37633D01*
X40655Y41153D02*
Y41705D01*
X36070Y42031D02*
X36389Y42350D01*
X35828Y41620D02*
Y42031D01*
X35209Y41001D02*
X35828Y41620D01*
X40655Y40725D02*
X41083Y40297D01*
X40655Y40725D02*
Y41153D01*
X34880Y42031D02*
X35828D01*
D31*
X36260Y29760D02*
Y30207D01*
Y29477D02*
Y29760D01*
X42280Y35170D02*
Y35591D01*
X36670Y31407D02*
X37353D01*
X42741Y35591D02*
X43141D01*
X42550D02*
Y35680D01*
X41401Y35541D02*
Y36090D01*
X35847Y36463D02*
X36063D01*
X36260Y29477D02*
X36781Y28955D01*
Y28868D02*
Y28955D01*
X35453Y31407D02*
X36670D01*
X43228Y46668D02*
Y46782D01*
X42750Y46190D02*
X43228Y46668D01*
X35453Y33573D02*
X36137D01*
X36428Y33282D01*
X35840Y31998D02*
X36428Y32586D01*
X35453Y31998D02*
X35840D01*
X35453Y31801D02*
X36520D01*
X35453Y33770D02*
X36580D01*
X36299Y37008D02*
Y37120D01*
X36109Y37310D02*
X36299Y37120D01*
X36457Y30207D02*
Y30640D01*
X36337Y30760D02*
X36457Y30640D01*
X36040Y30760D02*
X36337D01*
X35860Y30580D02*
X36040Y30760D01*
X35040Y30580D02*
X35860D01*
X42280Y35591D02*
X42283D01*
X42550D02*
X42559D01*
X42021Y36209D02*
X42550Y35680D01*
X41520Y36209D02*
X42021D01*
X41401Y36090D02*
X41520Y36209D01*
X41398Y35541D02*
X41401D01*
X41730Y35880D02*
X41890Y35720D01*
Y35440D02*
Y35720D01*
X41794Y35344D02*
X41890Y35440D01*
X41398Y35344D02*
X41794D01*
X34668Y31998D02*
X35453D01*
Y34557D02*
X35900D01*
X36063Y34720D01*
Y36152D01*
X36260Y35630D02*
Y36152D01*
Y35630D02*
X36340Y35550D01*
Y34790D02*
Y35550D01*
X34543Y33573D02*
X35453D01*
X35040Y34557D02*
X35453D01*
X34780Y34297D02*
X35040Y34557D01*
X34780Y33920D02*
Y34297D01*
X34580Y33720D02*
X34780Y33920D01*
X36063Y36152D02*
Y36463D01*
X35290Y37020D02*
X35847Y36463D01*
X36929Y37215D02*
Y37302D01*
X37392Y37765D01*
X42559Y35591D02*
X42741D01*
X42933Y35783D01*
X35546Y29600D02*
X36100D01*
X36260Y29760D01*
Y36152D02*
Y36710D01*
X36299Y36749D01*
Y37008D01*
X40787Y29783D02*
Y30207D01*
Y29783D02*
X40960Y29610D01*
X41623D01*
X35453Y31407D02*
Y31604D01*
D32*
X43839Y39941D02*
X43840Y39940D01*
X43680Y40100D02*
X43839Y39941D01*
Y42671D01*
Y38823D02*
Y39941D01*
X43840Y38823D02*
Y39940D01*
X42870Y39872D02*
Y40090D01*
X39114Y39000D02*
X39927D01*
X37392Y37765D02*
Y37993D01*
X36900D02*
X37392D01*
X43545Y35995D02*
Y38823D01*
X42760Y32130D02*
Y32638D01*
X42560Y27770D02*
X42933D01*
X41676Y29556D02*
X41713Y29520D01*
X41623Y29610D02*
X41676Y29556D01*
X41705Y29250D02*
X41713D01*
X41068D02*
X41705D01*
X41676Y29556D02*
X41705Y29250D01*
X41713Y29173D01*
Y29250D02*
Y29520D01*
Y29173D02*
Y29250D01*
X37589Y27048D02*
Y27215D01*
Y25482D02*
Y27048D01*
X35250Y42890D02*
Y47585D01*
X34960Y43180D02*
Y47585D01*
X37589Y27048D02*
X38771Y25866D01*
X34430Y30207D02*
X37589Y27048D01*
X34543Y33573D02*
Y33720D01*
X34580D01*
X34252D02*
X34543D01*
X34451Y31781D02*
X34720D01*
X33263Y30207D02*
X34430D01*
X32894Y30576D02*
X33263Y30207D01*
X32894Y30576D02*
Y32960D01*
X33654Y33720D01*
X34252D01*
X42760Y32638D02*
X43071D01*
X42400Y31770D02*
X42760Y32130D01*
X42400Y30280D02*
Y31770D01*
X41676Y29556D02*
X42400Y30280D01*
X42750Y43760D02*
Y46190D01*
Y43760D02*
X43839Y42671D01*
X43141Y35591D02*
X43545Y35995D01*
X36110Y24190D02*
X36190Y24270D01*
X37589D01*
Y25482D01*
X35640Y23041D02*
Y23830D01*
X37589Y25482D02*
X37972Y25866D01*
X37539Y28008D02*
Y28671D01*
Y28008D02*
X37589Y27215D01*
X36428Y32586D02*
Y33282D01*
X37392Y37993D02*
Y38130D01*
X35519Y42621D02*
X35828D01*
X35250Y42890D02*
X35519Y42621D01*
X34960Y47585D02*
X35250D01*
X34960D02*
Y47875D01*
X34419Y48415D02*
X34960Y47875D01*
X34920Y30700D02*
X35040Y30580D01*
X34920Y30700D02*
Y31581D01*
X34720Y31781D02*
X34920Y31581D01*
X34451Y31781D02*
X34668Y31998D01*
X34252Y31781D02*
X34451D01*
X40577Y28759D02*
X41068Y29250D01*
X38779Y28759D02*
X40577D01*
X38660Y28640D02*
X38779Y28759D01*
X38660Y26606D02*
Y28640D01*
Y26606D02*
X39400Y25866D01*
X41120Y23190D02*
X41309Y23379D01*
X42736Y39872D02*
X42870D01*
Y40090D02*
X42880Y40100D01*
X43680D01*
X40305Y37756D02*
Y38623D01*
X39927Y39000D02*
X40305Y38623D01*
X39114Y39000D02*
Y39439D01*
X42933Y35783D02*
Y37333D01*
X39114Y40180D02*
X39360Y40426D01*
X39114Y39439D02*
Y40180D01*
X41713Y28617D02*
Y29173D01*
Y28617D02*
X42560Y27770D01*
X42933Y27598D02*
Y27770D01*
X34213Y34369D02*
Y34990D01*
Y34369D02*
X34252Y34330D01*
Y33720D02*
Y34330D01*
D33*
X39400Y25866D02*
X40344D01*
X38771D02*
X39400D01*
X37972D02*
X38771D01*
X40584Y25186D02*
X41183Y24587D01*
X41309D01*
Y23379D02*
Y24587D01*
X39872Y21120D02*
Y21781D01*
X36704Y20758D02*
X37116Y21170D01*
Y21781D01*
Y22240D01*
X36856Y22500D02*
X37116Y22240D01*
X34639Y22500D02*
X36856D01*
D34*
X43719Y22411D02*
X43890Y22240D01*
X43425Y22411D02*
X43719D01*
D35*
X34419Y43415D02*
D03*
Y44415D02*
D03*
Y45415D02*
D03*
Y46415D02*
D03*
Y47415D02*
D03*
D36*
Y48415D02*
D03*
D37*
X39380Y20758D02*
D03*
X37608D02*
D03*
D38*
X40738D02*
D03*
X36250D02*
D03*
D39*
X38170Y31650D02*
D03*
X39956Y23996D02*
D03*
X32950Y35470D02*
D03*
X36930Y29450D02*
D03*
X36792Y43210D02*
D03*
X44220Y40980D02*
D03*
X44040Y37990D02*
D03*
X44140Y37280D02*
D03*
X34810Y32660D02*
D03*
X36670Y31407D02*
D03*
X34100Y29790D02*
D03*
X33240Y35940D02*
D03*
X39769Y29411D02*
D03*
X35490Y39252D02*
D03*
X39450Y38610D02*
D03*
X39400Y35550D02*
D03*
X35940Y40580D02*
D03*
X39460Y34473D02*
D03*
X42000Y33180D02*
D03*
X37400Y40310D02*
D03*
Y39000D02*
D03*
X36580Y38640D02*
D03*
X39950Y50750D02*
D03*
X33472Y29318D02*
D03*
X37110Y30840D02*
D03*
X33830Y49170D02*
D03*
X35440Y35980D02*
D03*
X36750Y35460D02*
D03*
X38760Y35430D02*
D03*
X37940Y36920D02*
D03*
X36050Y33180D02*
D03*
X40394Y30939D02*
D03*
X37510Y48640D02*
D03*
X40740Y32100D02*
D03*
X40260Y32900D02*
D03*
X38970Y34560D02*
D03*
X42610Y39270D02*
D03*
X38560Y31320D02*
D03*
X42480Y25262D02*
D03*
X43839Y38823D02*
D03*
X43545D02*
D03*
X36110Y24190D02*
D03*
X35640Y23830D02*
D03*
X36900Y37993D02*
D03*
X34960Y43180D02*
D03*
X33396Y39439D02*
D03*
X33300Y32740D02*
D03*
X32990Y34516D02*
D03*
X37830Y47740D02*
D03*
X40570Y47952D02*
D03*
X39470Y28160D02*
D03*
X37500Y31260D02*
D03*
X39730Y26550D02*
D03*
X37760Y29290D02*
D03*
X39800Y23840D02*
D03*
X43890Y21070D02*
D03*
X37060Y51388D02*
D03*
Y49852D02*
D03*
X34180Y33170D02*
D03*
X39500Y36990D02*
D03*
X40760Y37310D02*
D03*
X40290Y39256D02*
D03*
X38605Y36920D02*
D03*
X43790Y33383D02*
D03*
X42470Y36270D02*
D03*
X41730Y35880D02*
D03*
X41050Y27180D02*
D03*
X40770Y35290D02*
D03*
X38160Y39090D02*
D03*
X36762Y41840D02*
D03*
X40584Y25186D02*
D03*
X41120Y23190D02*
D03*
X41978Y22785D02*
D03*
X42000Y34750D02*
D03*
X43840Y38823D02*
D03*
X44370Y40400D02*
D03*
X35377Y29968D02*
D03*
X35290Y37020D02*
D03*
X40340Y39730D02*
D03*
X39360Y40426D02*
D03*
X35220Y28860D02*
D03*
X43460Y39689D02*
D03*
X34760Y36159D02*
D03*
X41941Y26830D02*
D03*
X43800Y34170D02*
D03*
X41146Y28444D02*
D03*
X39872Y21120D02*
D03*
M02*
