G04 Layer_Color=8421504*
%FSLAX24Y24*%
%MOIN*%
G70*
G01*
G75*
%ADD10R,0.0354X0.0984*%
%ADD11R,0.0118X0.0118*%
%ADD12R,0.0354X0.0630*%
%ADD13R,0.0984X0.0354*%
%ADD14R,0.0630X0.0354*%
%ADD15R,0.0118X0.0118*%
%ADD16R,0.0236X0.0197*%
%ADD17R,0.0512X0.0354*%
%ADD18R,0.0197X0.0827*%
%ADD19R,0.1024X0.0866*%
%ADD20O,0.0118X0.0709*%
%ADD21O,0.0709X0.0118*%
%ADD22R,0.0354X0.0512*%
%ADD23R,0.0197X0.0236*%
%ADD24R,0.0197X0.0118*%
%ADD25O,0.0299X0.0787*%
%ADD26O,0.0787X0.0299*%
%ADD27R,0.0433X0.0236*%
D10*
X42933Y37333D02*
D03*
X41713D02*
D03*
X40305Y37756D02*
D03*
X39085D02*
D03*
X37589Y25482D02*
D03*
X36368D02*
D03*
X37589Y27215D02*
D03*
X36368D02*
D03*
X39016Y28012D02*
D03*
X40236D02*
D03*
D11*
X33445Y35207D02*
D03*
Y34970D02*
D03*
X34213Y34990D02*
D03*
Y35226D02*
D03*
D12*
X42933Y29173D02*
D03*
X41713D02*
D03*
X34419Y23041D02*
D03*
X35640D02*
D03*
X36171Y38130D02*
D03*
X37392D02*
D03*
X41713Y27598D02*
D03*
X42933D02*
D03*
D13*
X43071Y32638D02*
D03*
Y31417D02*
D03*
X43051Y34764D02*
D03*
Y33543D02*
D03*
D14*
X34252Y32500D02*
D03*
Y33720D02*
D03*
Y30561D02*
D03*
Y31781D02*
D03*
X34232Y29242D02*
D03*
Y28022D02*
D03*
X34281Y25423D02*
D03*
Y26644D02*
D03*
X34203Y36319D02*
D03*
Y37539D02*
D03*
X42736Y38652D02*
D03*
Y39872D02*
D03*
D15*
X36299Y37008D02*
D03*
X36535D02*
D03*
X36919Y36811D02*
D03*
X37156D02*
D03*
X37165Y37215D02*
D03*
X36929D02*
D03*
X43228Y46083D02*
D03*
X42992D02*
D03*
X43228Y46782D02*
D03*
X42992D02*
D03*
X43228Y47461D02*
D03*
X42992D02*
D03*
X36545Y28465D02*
D03*
X36781D02*
D03*
Y28868D02*
D03*
X36545D02*
D03*
X37303Y28671D02*
D03*
X37539D02*
D03*
D16*
X37825Y23996D02*
D03*
Y23602D02*
D03*
X38622Y23996D02*
D03*
Y23602D02*
D03*
X40344Y26260D02*
D03*
Y25866D02*
D03*
D17*
X34213Y38780D02*
D03*
Y39528D02*
D03*
D18*
X39872Y21781D02*
D03*
X38888D02*
D03*
X38100D02*
D03*
X37116D02*
D03*
D19*
X39114Y39439D02*
D03*
X41083D02*
D03*
D20*
X36063Y36152D02*
D03*
X36260D02*
D03*
X36457D02*
D03*
X36654D02*
D03*
X36850D02*
D03*
X37047D02*
D03*
X37244D02*
D03*
X37441D02*
D03*
X37638D02*
D03*
X37835D02*
D03*
X38031D02*
D03*
X38228D02*
D03*
X38425D02*
D03*
X38622D02*
D03*
X38819D02*
D03*
X39016D02*
D03*
X39213D02*
D03*
X39409D02*
D03*
X39606D02*
D03*
X39803D02*
D03*
X40000D02*
D03*
X40197D02*
D03*
X40394D02*
D03*
X40591D02*
D03*
X40787D02*
D03*
Y30207D02*
D03*
X40591D02*
D03*
X40394D02*
D03*
X40197D02*
D03*
X40000D02*
D03*
X39803D02*
D03*
X39606D02*
D03*
X39409D02*
D03*
X39213D02*
D03*
X39016D02*
D03*
X38819D02*
D03*
X38622D02*
D03*
X38425D02*
D03*
X38228D02*
D03*
X38031D02*
D03*
X37835D02*
D03*
X37638D02*
D03*
X37441D02*
D03*
X37244D02*
D03*
X37047D02*
D03*
X36850D02*
D03*
X36654D02*
D03*
X36457D02*
D03*
X36260D02*
D03*
X36063D02*
D03*
D21*
X41398Y35541D02*
D03*
Y35344D02*
D03*
Y35148D02*
D03*
Y34951D02*
D03*
Y34754D02*
D03*
Y34557D02*
D03*
Y34360D02*
D03*
Y34163D02*
D03*
Y33967D02*
D03*
Y33770D02*
D03*
Y33573D02*
D03*
Y33376D02*
D03*
Y33179D02*
D03*
Y32982D02*
D03*
Y32785D02*
D03*
Y32589D02*
D03*
Y32392D02*
D03*
Y32195D02*
D03*
Y31998D02*
D03*
Y31801D02*
D03*
Y31604D02*
D03*
Y31407D02*
D03*
Y31211D02*
D03*
Y31014D02*
D03*
Y30817D02*
D03*
X35453D02*
D03*
Y31014D02*
D03*
Y31211D02*
D03*
Y31407D02*
D03*
Y31604D02*
D03*
Y31801D02*
D03*
Y31998D02*
D03*
Y32195D02*
D03*
Y32392D02*
D03*
Y32589D02*
D03*
Y32785D02*
D03*
Y32982D02*
D03*
Y33179D02*
D03*
Y33376D02*
D03*
Y33573D02*
D03*
Y33770D02*
D03*
Y33967D02*
D03*
Y34163D02*
D03*
Y34360D02*
D03*
Y34557D02*
D03*
Y34754D02*
D03*
Y34951D02*
D03*
Y35148D02*
D03*
Y35344D02*
D03*
Y35541D02*
D03*
D22*
X42008Y25984D02*
D03*
X42756D02*
D03*
D23*
X41309Y24587D02*
D03*
X41703D02*
D03*
D24*
X42559Y35591D02*
D03*
X42283D02*
D03*
D25*
X36521Y41153D02*
D03*
X40065D02*
D03*
X39474D02*
D03*
X38883D02*
D03*
X38293D02*
D03*
X37702D02*
D03*
X37112D02*
D03*
X40655D02*
D03*
D26*
X41387Y42637D02*
D03*
Y43818D02*
D03*
Y44999D02*
D03*
Y45590D02*
D03*
Y46180D02*
D03*
Y46771D02*
D03*
Y47362D02*
D03*
Y47952D02*
D03*
Y48543D02*
D03*
Y49133D02*
D03*
X35828Y43212D02*
D03*
Y43803D02*
D03*
Y44393D02*
D03*
Y44984D02*
D03*
Y45574D02*
D03*
Y46165D02*
D03*
Y46755D02*
D03*
Y47346D02*
D03*
Y47936D02*
D03*
Y42621D02*
D03*
Y42031D02*
D03*
X41387Y42047D02*
D03*
Y43228D02*
D03*
Y44409D02*
D03*
X35828Y48527D02*
D03*
Y49117D02*
D03*
D27*
X42441Y22037D02*
D03*
Y22411D02*
D03*
Y22785D02*
D03*
X43425D02*
D03*
Y22411D02*
D03*
Y22037D02*
D03*
M02*
