G04 Layer_Physical_Order=2*
G04 Layer_Color=16711680*
%FSLAX24Y24*%
%MOIN*%
G70*
G01*
G75*
%ADD11R,0.0118X0.0118*%
%ADD15R,0.0118X0.0118*%
%ADD16R,0.0236X0.0197*%
%ADD23R,0.0197X0.0236*%
%ADD28C,0.0079*%
%ADD29C,0.0276*%
%ADD31C,0.0106*%
%ADD32C,0.0197*%
%ADD33C,0.0177*%
%ADD35C,0.0591*%
%ADD36R,0.0591X0.0591*%
%ADD37C,0.0472*%
%ADD38O,0.0650X0.1575*%
%ADD39C,0.0394*%
%ADD40R,0.0374X0.0748*%
%ADD41R,0.2165X0.2717*%
%ADD42R,0.0866X0.1024*%
%ADD43R,0.0315X0.0315*%
%ADD44R,0.0591X0.0315*%
%ADD45R,0.0748X0.0551*%
%ADD46R,0.0551X0.0709*%
%ADD47R,0.0669X0.0709*%
%ADD48R,0.1339X0.0748*%
G36*
X37343Y50522D02*
X37598D01*
X37602Y50517D01*
X37579Y50467D01*
X37494Y50450D01*
X37486Y50444D01*
X37361D01*
Y50259D01*
X37358Y50246D01*
X37361Y50233D01*
Y50048D01*
X37361D01*
X37382Y50030D01*
Y49973D01*
X37308D01*
X37301Y49991D01*
X37257Y50049D01*
X37199Y50093D01*
X37132Y50121D01*
X37060Y50130D01*
X36988Y50121D01*
X36921Y50093D01*
X36863Y50049D01*
X36819Y49991D01*
X36792Y49924D01*
X36782Y49852D01*
X36792Y49780D01*
X36819Y49713D01*
X36863Y49656D01*
X36921Y49612D01*
X36988Y49584D01*
X37060Y49574D01*
X37132Y49584D01*
X37199Y49612D01*
X37257Y49656D01*
X37301Y49713D01*
X37308Y49732D01*
X37382D01*
Y49675D01*
X37776D01*
Y49913D01*
X37822Y49932D01*
X38058Y49696D01*
X38129Y49648D01*
X38214Y49632D01*
X38304D01*
Y47427D01*
X35007Y44130D01*
X34960Y44149D01*
Y45760D01*
X34951Y45806D01*
X34925Y45845D01*
X34695Y46075D01*
X34683Y46083D01*
X34680Y46144D01*
X34686Y46149D01*
X34746Y46227D01*
X34784Y46318D01*
X34797Y46415D01*
X34784Y46513D01*
X34746Y46604D01*
X34686Y46682D01*
X34608Y46742D01*
X34517Y46780D01*
X34419Y46793D01*
X34322Y46780D01*
X34231Y46742D01*
X34153Y46682D01*
X34093Y46604D01*
X34064Y46536D01*
X33908D01*
X33908Y46536D01*
X33868Y46528D01*
X33573D01*
Y46604D01*
X33219D01*
X33219Y46604D01*
X33179D01*
Y46604D01*
X33168Y46604D01*
X32825D01*
Y46211D01*
X32887D01*
X32891Y46194D01*
X32917Y46155D01*
X33167Y45905D01*
X33167Y45905D01*
X33206Y45879D01*
X33252Y45870D01*
X34560D01*
X34680Y45750D01*
X34647Y45712D01*
X34608Y45742D01*
X34517Y45780D01*
X34419Y45793D01*
X34322Y45780D01*
X34231Y45742D01*
X34153Y45682D01*
X34093Y45604D01*
X34064Y45536D01*
X33949D01*
X33936Y45544D01*
X33890Y45553D01*
X33890Y45553D01*
X33573D01*
Y45630D01*
X33219D01*
Y45630D01*
X33179D01*
Y45630D01*
X32825D01*
Y45285D01*
X32787Y45247D01*
X32740Y45266D01*
Y48220D01*
X33230Y48710D01*
X34045D01*
Y48070D01*
X34045Y48041D01*
X34004Y48020D01*
X33222D01*
X33222Y48020D01*
X33176Y48011D01*
X33137Y47985D01*
X32917Y47765D01*
X32891Y47726D01*
X32882Y47680D01*
X32882Y47680D01*
Y47608D01*
X32825D01*
Y47215D01*
X33179D01*
Y47215D01*
X33219D01*
Y47215D01*
X33573D01*
Y47291D01*
X33900D01*
X33900Y47291D01*
X33920Y47295D01*
X34064D01*
X34093Y47227D01*
X34153Y47149D01*
X34231Y47089D01*
X34322Y47051D01*
X34419Y47038D01*
X34517Y47051D01*
X34608Y47089D01*
X34686Y47149D01*
X34746Y47227D01*
X34784Y47318D01*
X34797Y47415D01*
X34784Y47513D01*
X34746Y47604D01*
X34686Y47682D01*
X34624Y47730D01*
X34641Y47780D01*
X37519D01*
X37552Y47742D01*
X37552Y47740D01*
X37562Y47668D01*
X37589Y47601D01*
X37633Y47543D01*
X37691Y47499D01*
X37758Y47471D01*
X37830Y47462D01*
X37902Y47471D01*
X37969Y47499D01*
X38027Y47543D01*
X38071Y47601D01*
X38098Y47668D01*
X38108Y47740D01*
X38098Y47812D01*
X38071Y47879D01*
X38027Y47937D01*
X37969Y47981D01*
X37902Y48008D01*
X37830Y48018D01*
X37758Y48008D01*
X37735Y47999D01*
X37716Y48011D01*
X37670Y48020D01*
X37670Y48020D01*
X34835D01*
X34793Y48041D01*
X34793Y48070D01*
Y48710D01*
X37203D01*
X37236Y48672D01*
X37232Y48640D01*
X37241Y48568D01*
X37269Y48501D01*
X37313Y48443D01*
X37371Y48399D01*
X37438Y48372D01*
X37510Y48362D01*
X37582Y48372D01*
X37649Y48399D01*
X37707Y48443D01*
X37751Y48501D01*
X37778Y48568D01*
X37788Y48640D01*
X37778Y48712D01*
X37751Y48779D01*
X37707Y48837D01*
X37649Y48881D01*
X37582Y48909D01*
X37510Y48918D01*
X37438Y48909D01*
X37420Y48901D01*
X37405Y48915D01*
X37366Y48941D01*
X37320Y48950D01*
X37320Y48950D01*
X34072D01*
X34047Y49000D01*
X34071Y49031D01*
X34098Y49098D01*
X34108Y49170D01*
X34098Y49242D01*
X34091Y49261D01*
X35780Y50950D01*
X37343D01*
Y50522D01*
D02*
G37*
G36*
X44613Y49724D02*
Y40618D01*
X44579Y40602D01*
X44563Y40599D01*
X44509Y40641D01*
X44442Y40669D01*
X44370Y40678D01*
X44328Y40672D01*
X44315Y40721D01*
X44359Y40739D01*
X44417Y40783D01*
X44461Y40841D01*
X44489Y40908D01*
X44498Y40980D01*
X44489Y41052D01*
X44461Y41119D01*
X44417Y41177D01*
X44359Y41221D01*
X44292Y41248D01*
X44220Y41258D01*
X44148Y41248D01*
X44130Y41241D01*
X42075Y43295D01*
X42036Y43321D01*
X41990Y43330D01*
X41990Y43330D01*
X37040D01*
X37033Y43349D01*
X36989Y43407D01*
X36931Y43451D01*
X36864Y43478D01*
X36792Y43488D01*
X36720Y43478D01*
X36653Y43451D01*
X36595Y43407D01*
X36551Y43349D01*
X36523Y43282D01*
X36514Y43210D01*
X36523Y43138D01*
X36551Y43071D01*
X36595Y43013D01*
X36653Y42969D01*
X36720Y42941D01*
X36792Y42932D01*
X36864Y42941D01*
X36931Y42969D01*
X36989Y43013D01*
X37033Y43071D01*
X37040Y43090D01*
X41940D01*
X43959Y41070D01*
X43952Y41052D01*
X43942Y40980D01*
X43952Y40908D01*
X43979Y40841D01*
X44023Y40783D01*
X44081Y40739D01*
X44148Y40711D01*
X44220Y40702D01*
X44262Y40708D01*
X44275Y40659D01*
X44231Y40641D01*
X44173Y40597D01*
X44129Y40539D01*
X44122Y40520D01*
X43602D01*
Y41220D01*
X42697D01*
Y40520D01*
X42583D01*
X42555Y40555D01*
X42545Y40601D01*
X42519Y40640D01*
X42519Y40640D01*
X42402Y40758D01*
Y40791D01*
X42368D01*
X40854Y42306D01*
X40814Y42332D01*
X40768Y42341D01*
X40768Y42341D01*
X36640D01*
X36640Y42341D01*
X36594Y42332D01*
X36555Y42306D01*
X36555Y42306D01*
X36254Y42006D01*
X36228Y41967D01*
X36219Y41920D01*
X36219Y41920D01*
Y41525D01*
X36219Y41525D01*
X36228Y41479D01*
X36254Y41440D01*
X36464Y41230D01*
Y41119D01*
X36414Y41098D01*
X35141Y42372D01*
Y42971D01*
X35157Y42983D01*
X35201Y43041D01*
X35229Y43108D01*
X35238Y43180D01*
X35229Y43252D01*
X35201Y43319D01*
X35157Y43377D01*
X35099Y43421D01*
X35032Y43449D01*
X35008Y43452D01*
X34996Y43492D01*
X34996Y43504D01*
X35013Y43519D01*
X35036Y43535D01*
X38631Y47129D01*
X38678Y47201D01*
X38695Y47285D01*
X38678Y47370D01*
X38645Y47419D01*
Y49632D01*
X39350D01*
X39435Y49648D01*
X39443Y49654D01*
X39569D01*
Y49839D01*
X39571Y49852D01*
X39569Y49866D01*
Y50051D01*
X39569D01*
X39547Y50069D01*
Y50423D01*
X39193D01*
X39190Y50426D01*
Y50522D01*
X39587D01*
Y50637D01*
X39698D01*
X39709Y50611D01*
X39753Y50553D01*
X39811Y50509D01*
X39878Y50482D01*
X39950Y50472D01*
X40022Y50482D01*
X40089Y50509D01*
X40147Y50553D01*
X40191Y50611D01*
X40219Y50678D01*
X40228Y50750D01*
X40219Y50822D01*
X40191Y50889D01*
X40147Y50947D01*
X40089Y50991D01*
X40022Y51019D01*
X39950Y51028D01*
X39878Y51019D01*
X39811Y50991D01*
X39753Y50947D01*
X39709Y50889D01*
X39705Y50878D01*
X39587D01*
Y50994D01*
X39190D01*
Y51058D01*
X39284Y51152D01*
X39587D01*
Y51624D01*
X39114D01*
Y51322D01*
X39052Y51259D01*
X38989Y51267D01*
X38983Y51276D01*
X38944Y51302D01*
X38898Y51311D01*
X38711D01*
X38701Y51322D01*
Y51624D01*
X38490D01*
X38465Y51674D01*
X38476Y51690D01*
X39950D01*
X40450Y51190D01*
Y48201D01*
X40431Y48193D01*
X40373Y48149D01*
X40329Y48091D01*
X40301Y48024D01*
X40292Y47952D01*
X40301Y47880D01*
X40329Y47813D01*
X40373Y47756D01*
X40431Y47711D01*
X40498Y47684D01*
X40570Y47674D01*
X40642Y47684D01*
X40709Y47711D01*
X40767Y47756D01*
X40811Y47813D01*
X40838Y47880D01*
X40848Y47952D01*
X40838Y48024D01*
X40811Y48091D01*
X40767Y48149D01*
X40709Y48193D01*
X40690Y48201D01*
Y51240D01*
X40690Y51240D01*
X40681Y51286D01*
X40655Y51325D01*
X40655Y51325D01*
X40085Y51895D01*
X40046Y51921D01*
X40000Y51930D01*
X40000Y51930D01*
X38400D01*
X38400Y51930D01*
X38354Y51921D01*
X38315Y51895D01*
X38315Y51895D01*
X38104Y51684D01*
X38078Y51645D01*
X38069Y51599D01*
X38069Y51599D01*
Y51110D01*
X38072Y51094D01*
X38026Y51069D01*
X37940Y51155D01*
X37901Y51181D01*
X37855Y51190D01*
X37815Y51219D01*
Y51624D01*
X37343D01*
Y51550D01*
X37339Y51549D01*
X37293Y51537D01*
X37257Y51584D01*
X37199Y51629D01*
X37132Y51656D01*
X37060Y51666D01*
X36988Y51656D01*
X36921Y51629D01*
X36863Y51584D01*
X36819Y51527D01*
X36792Y51460D01*
X36782Y51388D01*
X36792Y51316D01*
X36819Y51249D01*
X36826Y51240D01*
X36801Y51190D01*
X35730D01*
X35730Y51190D01*
X35684Y51181D01*
X35645Y51155D01*
X35645Y51155D01*
X33921Y49431D01*
X33902Y49439D01*
X33830Y49448D01*
X33758Y49439D01*
X33691Y49411D01*
X33633Y49367D01*
X33589Y49309D01*
X33561Y49242D01*
X33552Y49170D01*
X33561Y49098D01*
X33589Y49031D01*
X33613Y49000D01*
X33588Y48950D01*
X33180D01*
X33180Y48950D01*
X33134Y48941D01*
X33095Y48915D01*
X33095Y48915D01*
X32553Y48374D01*
X32503Y48394D01*
Y52310D01*
X44613D01*
Y49724D01*
D02*
G37*
G36*
X33862Y45304D02*
X33908Y45295D01*
X33908Y45295D01*
X34064D01*
X34093Y45227D01*
X34153Y45149D01*
X34231Y45089D01*
X34322Y45051D01*
X34419Y45038D01*
X34517Y45051D01*
X34608Y45089D01*
X34670Y45136D01*
X34720Y45114D01*
Y44716D01*
X34670Y44695D01*
X34608Y44742D01*
X34517Y44780D01*
X34419Y44793D01*
X34322Y44780D01*
X34245Y44748D01*
X34241Y44751D01*
X34195Y44760D01*
X34195Y44760D01*
X33082D01*
X33036Y44751D01*
X32997Y44725D01*
X32950Y44679D01*
X32900Y44699D01*
Y45020D01*
X33087Y45207D01*
X33107Y45236D01*
X33179D01*
Y45236D01*
X33219D01*
Y45236D01*
X33573D01*
Y45313D01*
X33849D01*
X33862Y45304D01*
D02*
G37*
G36*
X33275Y39688D02*
X33257Y39680D01*
X33199Y39636D01*
X33155Y39578D01*
X33127Y39511D01*
X33118Y39439D01*
X33127Y39367D01*
X33155Y39300D01*
X33199Y39243D01*
X33257Y39198D01*
X33324Y39171D01*
X33396Y39161D01*
X33468Y39171D01*
X33535Y39198D01*
X33590Y39241D01*
X33602Y39239D01*
X33640Y39222D01*
Y36720D01*
X33640Y36720D01*
X33649Y36674D01*
X33669Y36644D01*
X33652Y36594D01*
X33546D01*
X32900Y37240D01*
Y44193D01*
X33179D01*
Y44193D01*
X33219D01*
Y44193D01*
X33275D01*
Y39688D01*
D02*
G37*
G36*
X34059Y43578D02*
X34034Y43519D01*
X34027Y43465D01*
X34419D01*
Y43415D01*
X34469D01*
Y43023D01*
X34522Y43030D01*
X34619Y43070D01*
X34645Y43091D01*
X34706Y43074D01*
X34719Y43041D01*
X34763Y42983D01*
X34779Y42971D01*
Y42297D01*
X34793Y42228D01*
X34832Y42169D01*
X36121Y40881D01*
X36117Y40854D01*
X36104Y40843D01*
X36066Y40826D01*
X36012Y40848D01*
X35940Y40858D01*
X35868Y40848D01*
X35801Y40821D01*
X35743Y40777D01*
X35699Y40719D01*
X35672Y40652D01*
X35662Y40580D01*
X35672Y40508D01*
X35699Y40441D01*
X35743Y40383D01*
X35801Y40339D01*
X35820Y40332D01*
Y40133D01*
X35820Y40133D01*
X35829Y40087D01*
X35855Y40048D01*
X35935Y39967D01*
Y39876D01*
X35906Y39833D01*
X35892Y39764D01*
X35906Y39695D01*
X35935Y39651D01*
Y39626D01*
X35960D01*
X36004Y39597D01*
X36073Y39583D01*
X36133D01*
X36164Y39544D01*
X36159Y39519D01*
Y39390D01*
X35935D01*
Y39372D01*
X35738D01*
X35731Y39391D01*
X35687Y39449D01*
X35629Y39493D01*
X35562Y39520D01*
X35490Y39530D01*
X35418Y39520D01*
X35351Y39493D01*
X35293Y39449D01*
X35249Y39391D01*
X35222Y39324D01*
X35212Y39252D01*
X35222Y39180D01*
X35249Y39113D01*
X35293Y39055D01*
X35351Y39011D01*
X35418Y38983D01*
X35490Y38974D01*
X35562Y38983D01*
X35629Y39011D01*
X35687Y39055D01*
X35731Y39113D01*
X35738Y39132D01*
X35877D01*
X35905Y39086D01*
X35905Y39082D01*
X35895Y39028D01*
X35685Y38818D01*
X35656Y38774D01*
X35646Y38723D01*
Y37881D01*
X35219Y37454D01*
X34833D01*
Y37864D01*
X33880D01*
Y43470D01*
X34016Y43606D01*
X34059Y43578D01*
D02*
G37*
G36*
X41981Y40838D02*
X41962Y40791D01*
X41654D01*
Y40242D01*
X40002D01*
X40002Y40242D01*
X39956Y40233D01*
X39917Y40207D01*
X39590Y39880D01*
X38327D01*
Y40589D01*
X38941D01*
X39085Y40446D01*
X39082Y40426D01*
X39091Y40354D01*
X39119Y40287D01*
X39163Y40229D01*
X39221Y40185D01*
X39288Y40157D01*
X39360Y40148D01*
X39432Y40157D01*
X39499Y40185D01*
X39557Y40229D01*
X39601Y40287D01*
X39629Y40354D01*
X39638Y40426D01*
X39629Y40498D01*
X39601Y40565D01*
X39557Y40622D01*
X39499Y40667D01*
X39432Y40694D01*
X39360Y40704D01*
X39340Y40701D01*
X39144Y40898D01*
X39085Y40937D01*
X39016Y40951D01*
X37187D01*
X37118Y40937D01*
X37060Y40898D01*
X37020Y40839D01*
X37009Y40782D01*
X36946Y40718D01*
X36882D01*
Y41592D01*
X36901Y41599D01*
X36958Y41643D01*
X37003Y41701D01*
X37030Y41768D01*
X37040Y41840D01*
X37030Y41912D01*
X37003Y41979D01*
X36958Y42037D01*
X36940Y42050D01*
X36957Y42100D01*
X40719D01*
X41981Y40838D01*
D02*
G37*
G36*
X34049Y44470D02*
X34042Y44415D01*
X34055Y44318D01*
X34093Y44227D01*
X34153Y44149D01*
X34156Y44146D01*
X34155Y44085D01*
X34154Y44084D01*
X33675Y43605D01*
X33649Y43566D01*
X33640Y43520D01*
X33640Y43520D01*
Y39656D01*
X33602Y39640D01*
X33590Y39638D01*
X33535Y39680D01*
X33516Y39688D01*
Y44193D01*
X33573D01*
Y44520D01*
X34005D01*
X34049Y44470D01*
D02*
G37*
G36*
X44129Y40261D02*
X44173Y40203D01*
X44231Y40159D01*
X44298Y40132D01*
X44370Y40122D01*
X44442Y40132D01*
X44509Y40159D01*
X44563Y40201D01*
X44579Y40198D01*
X44613Y40182D01*
Y39474D01*
X44573Y39458D01*
X44563Y39457D01*
X43813Y40207D01*
X43809Y40270D01*
X43816Y40280D01*
X44122D01*
X44129Y40261D01*
D02*
G37*
G36*
X36720Y38380D02*
X36720Y38380D01*
X37618D01*
Y37559D01*
X38327D01*
Y37810D01*
X38670D01*
X38960Y37520D01*
Y37316D01*
X38913Y37297D01*
X38885Y37325D01*
X38846Y37351D01*
X38800Y37360D01*
X38800Y37360D01*
X36400D01*
X36354Y37351D01*
X36315Y37325D01*
X35750Y36760D01*
X35497D01*
X35479Y36807D01*
X35506Y36839D01*
X35610D01*
X35679Y36853D01*
X35738Y36892D01*
X35908Y37062D01*
X35947Y37121D01*
X35961Y37190D01*
Y37760D01*
X35947Y37829D01*
X35914Y37878D01*
Y38348D01*
X35964Y38368D01*
X36467Y37866D01*
X36526Y37826D01*
X36595Y37813D01*
X36691D01*
X36703Y37797D01*
X36761Y37753D01*
X36828Y37725D01*
X36900Y37715D01*
X36972Y37725D01*
X37039Y37753D01*
X37097Y37797D01*
X37141Y37854D01*
X37169Y37921D01*
X37178Y37993D01*
X37169Y38065D01*
X37141Y38132D01*
X37097Y38190D01*
X37039Y38234D01*
X36972Y38262D01*
X36900Y38271D01*
X36828Y38262D01*
X36761Y38234D01*
X36703Y38190D01*
X36649Y38195D01*
X36525Y38319D01*
X36548Y38366D01*
X36580Y38362D01*
X36652Y38372D01*
X36687Y38386D01*
X36720Y38380D01*
D02*
G37*
G36*
X40120Y38305D02*
X40159Y38279D01*
X40205Y38269D01*
X40205Y38269D01*
X41654D01*
Y38193D01*
X41496D01*
Y38077D01*
X40153D01*
X39711Y38519D01*
X39718Y38538D01*
X39728Y38610D01*
X39726Y38628D01*
X39773Y38651D01*
X40120Y38305D01*
D02*
G37*
G36*
X44360Y39320D02*
Y38057D01*
X44310Y38054D01*
X44309Y38062D01*
X44281Y38129D01*
X44237Y38187D01*
X44179Y38231D01*
X44112Y38259D01*
X44040Y38268D01*
X44004Y38263D01*
X43981Y38311D01*
X44245Y38575D01*
X44271Y38614D01*
X44280Y38660D01*
X44280Y38660D01*
Y38980D01*
X44280Y38980D01*
X44271Y39026D01*
X44245Y39065D01*
X43955Y39355D01*
X43916Y39381D01*
X43870Y39390D01*
X43870Y39390D01*
X43641D01*
X43624Y39440D01*
X43672Y39477D01*
X43719Y39539D01*
X43749Y39611D01*
X43753Y39639D01*
X43460D01*
Y39739D01*
X43753D01*
X43749Y39766D01*
X43719Y39839D01*
X43672Y39901D01*
X43610Y39948D01*
X43602Y39952D01*
X43612Y40002D01*
X43678D01*
X44360Y39320D01*
D02*
G37*
G36*
X43348Y38626D02*
X43406Y38582D01*
X43473Y38554D01*
X43545Y38545D01*
X43617Y38554D01*
X43684Y38582D01*
X43692Y38588D01*
X43700Y38582D01*
X43767Y38554D01*
X43808Y38549D01*
X43826Y38496D01*
X42620Y37291D01*
X42570Y37311D01*
Y38390D01*
X42561Y38436D01*
X42535Y38475D01*
X42496Y38501D01*
X42450Y38510D01*
X42402D01*
Y38587D01*
X42480D01*
Y38642D01*
X43336D01*
X43348Y38626D01*
D02*
G37*
G36*
X39752Y37552D02*
X39791Y37526D01*
X39837Y37517D01*
X39884Y37526D01*
X39889Y37530D01*
X40518D01*
X40543Y37480D01*
X40519Y37449D01*
X40491Y37382D01*
X40482Y37310D01*
X40491Y37238D01*
X40499Y37220D01*
X40390Y37110D01*
X39748D01*
X39741Y37129D01*
X39697Y37187D01*
X39639Y37231D01*
X39572Y37259D01*
X39500Y37268D01*
X39428Y37259D01*
X39361Y37231D01*
X39303Y37187D01*
X39259Y37129D01*
X39250Y37108D01*
X39200Y37118D01*
Y37570D01*
X39200Y37570D01*
X39191Y37616D01*
X39165Y37655D01*
X38805Y38015D01*
X38766Y38041D01*
X38720Y38050D01*
X38720Y38050D01*
X38327D01*
Y38425D01*
X38088D01*
X38084Y38446D01*
X38058Y38485D01*
X38058Y38485D01*
X38027Y38516D01*
X38046Y38562D01*
X38743D01*
X39752Y37552D01*
D02*
G37*
G36*
X40972Y37062D02*
X39649Y35740D01*
X39599Y35743D01*
X39597Y35747D01*
X39539Y35791D01*
X39472Y35819D01*
X39400Y35828D01*
X39328Y35819D01*
X39261Y35791D01*
X39250Y35783D01*
X39200Y35807D01*
Y36862D01*
X39250Y36872D01*
X39259Y36851D01*
X39303Y36793D01*
X39361Y36749D01*
X39428Y36721D01*
X39500Y36712D01*
X39572Y36721D01*
X39639Y36749D01*
X39697Y36793D01*
X39741Y36851D01*
X39748Y36870D01*
X40440D01*
X40440Y36870D01*
X40486Y36879D01*
X40525Y36905D01*
X40669Y37049D01*
X40688Y37041D01*
X40760Y37032D01*
X40832Y37041D01*
X40899Y37069D01*
X40938Y37100D01*
X40972Y37062D01*
D02*
G37*
G36*
X43767Y38026D02*
X43762Y37990D01*
X43772Y37918D01*
X43799Y37851D01*
X43843Y37793D01*
X43901Y37749D01*
X43968Y37722D01*
X44020Y37715D01*
Y37528D01*
X44001Y37521D01*
X43943Y37477D01*
X43899Y37419D01*
X43871Y37352D01*
X43862Y37280D01*
X43871Y37208D01*
X43899Y37141D01*
X43943Y37083D01*
X44001Y37039D01*
X44068Y37011D01*
X44140Y37002D01*
X44147Y37003D01*
X44170Y36956D01*
X44110Y36896D01*
X42631D01*
X42612Y36942D01*
X43719Y38049D01*
X43767Y38026D01*
D02*
G37*
G36*
X44573Y37007D02*
X44613Y36991D01*
Y34326D01*
X44611Y34324D01*
X44563Y34307D01*
X44035Y34835D01*
X43996Y34861D01*
X43950Y34870D01*
X43950Y34870D01*
X42248D01*
X42241Y34889D01*
X42197Y34947D01*
X42139Y34991D01*
X42072Y35018D01*
X42000Y35028D01*
X41928Y35018D01*
X41861Y34991D01*
X41852Y34984D01*
X41807Y35006D01*
Y35295D01*
X42485Y35973D01*
X42547Y35981D01*
X42620Y36011D01*
X42682Y36058D01*
X42729Y36120D01*
X42759Y36193D01*
X42763Y36220D01*
X42470D01*
Y36270D01*
X42420D01*
Y36563D01*
X42393Y36559D01*
X42320Y36529D01*
X42258Y36482D01*
X42211Y36420D01*
X42181Y36347D01*
X42173Y36285D01*
X41977Y36089D01*
X41942Y36092D01*
X41880Y36139D01*
X41807Y36169D01*
X41780Y36173D01*
Y35880D01*
X41680D01*
Y36173D01*
X41653Y36169D01*
X41580Y36139D01*
X41518Y36092D01*
X41471Y36030D01*
X41441Y35957D01*
X41433Y35895D01*
X41430Y35893D01*
X41383Y35821D01*
X41366Y35737D01*
Y35445D01*
X41316Y35424D01*
X41045Y35695D01*
X41006Y35721D01*
X40960Y35730D01*
X40960Y35730D01*
X40771D01*
X40752Y35777D01*
X41630Y36655D01*
X44160D01*
X44160Y36655D01*
X44206Y36664D01*
X44245Y36690D01*
X44563Y37008D01*
X44573Y37007D01*
D02*
G37*
G36*
X38349Y37075D02*
X38345Y37070D01*
X38315Y36997D01*
X38312Y36970D01*
X38605D01*
Y36870D01*
X38312D01*
X38315Y36843D01*
X38345Y36770D01*
X38384Y36720D01*
Y36585D01*
X37063Y35263D01*
X37003D01*
X36981Y35308D01*
X36991Y35321D01*
X37018Y35388D01*
X37028Y35460D01*
X37018Y35532D01*
X36991Y35599D01*
X36947Y35657D01*
X36889Y35701D01*
X36822Y35728D01*
X36750Y35738D01*
X36678Y35728D01*
X36660Y35721D01*
X36315Y36065D01*
X36276Y36091D01*
X36230Y36100D01*
X36230Y36100D01*
X35688D01*
X35681Y36119D01*
X35637Y36177D01*
X35579Y36221D01*
X35512Y36249D01*
X35440Y36258D01*
X35368Y36249D01*
X35301Y36221D01*
X35243Y36177D01*
X35199Y36119D01*
X35171Y36052D01*
X35162Y35980D01*
X35171Y35908D01*
X35199Y35841D01*
X35243Y35783D01*
X35301Y35739D01*
X35368Y35712D01*
X35440Y35702D01*
X35512Y35712D01*
X35579Y35739D01*
X35637Y35783D01*
X35681Y35841D01*
X35688Y35860D01*
X36180D01*
X36489Y35550D01*
X36481Y35532D01*
X36472Y35460D01*
X36481Y35388D01*
X36509Y35321D01*
X36519Y35308D01*
X36497Y35263D01*
X36267D01*
X36069Y35461D01*
X35997Y35509D01*
X35913Y35526D01*
X34981D01*
Y35959D01*
X35019Y36009D01*
X35049Y36081D01*
X35053Y36109D01*
X34467D01*
X34471Y36081D01*
X34501Y36009D01*
X34533Y35967D01*
X34520Y35917D01*
X34371D01*
Y35305D01*
X34271D01*
Y35917D01*
X33890D01*
Y36110D01*
X33881Y36156D01*
X33855Y36195D01*
X33855Y36195D01*
X33743Y36307D01*
X33762Y36353D01*
X34479D01*
X34485Y36341D01*
X34499Y36303D01*
X34471Y36236D01*
X34467Y36209D01*
X35053D01*
X35049Y36236D01*
X35021Y36303D01*
X35035Y36341D01*
X35041Y36353D01*
X37494D01*
X37494Y36353D01*
X37540Y36363D01*
X37579Y36389D01*
X37850Y36659D01*
X37868Y36651D01*
X37940Y36642D01*
X38012Y36651D01*
X38079Y36679D01*
X38137Y36723D01*
X38181Y36781D01*
X38208Y36848D01*
X38218Y36920D01*
X38208Y36992D01*
X38181Y37059D01*
X38173Y37070D01*
X38197Y37120D01*
X38327D01*
X38349Y37075D01*
D02*
G37*
G36*
X37707Y37070D02*
X37699Y37059D01*
X37671Y36992D01*
X37662Y36920D01*
X37671Y36848D01*
X37679Y36830D01*
X37444Y36594D01*
X35990D01*
X35971Y36640D01*
X36450Y37120D01*
X37683D01*
X37707Y37070D01*
D02*
G37*
G36*
X32875Y36195D02*
X32875Y36195D01*
X32914Y36169D01*
X32960Y36160D01*
X32960Y36160D01*
X32998D01*
X33023Y36110D01*
X32999Y36079D01*
X32971Y36012D01*
X32962Y35940D01*
X32971Y35868D01*
X32999Y35801D01*
X33007Y35791D01*
X32980Y35744D01*
X32950Y35748D01*
X32878Y35738D01*
X32811Y35711D01*
X32753Y35667D01*
X32709Y35609D01*
X32682Y35542D01*
X32672Y35470D01*
X32682Y35398D01*
X32709Y35331D01*
X32753Y35273D01*
X32811Y35229D01*
X32878Y35201D01*
X32950Y35192D01*
X33022Y35201D01*
X33040Y35209D01*
X33334Y34915D01*
Y33225D01*
X33334Y33225D01*
X33343Y33179D01*
X33370Y33140D01*
X33497Y33012D01*
X33495Y33001D01*
X33441Y32980D01*
X33439Y32981D01*
X33372Y33008D01*
X33300Y33018D01*
X33228Y33008D01*
X33210Y33001D01*
X33110Y33100D01*
Y34267D01*
X33129Y34275D01*
X33187Y34319D01*
X33231Y34377D01*
X33259Y34444D01*
X33268Y34516D01*
X33259Y34588D01*
X33231Y34655D01*
X33187Y34712D01*
X33129Y34756D01*
X33062Y34784D01*
X32990Y34794D01*
X32918Y34784D01*
X32851Y34756D01*
X32793Y34712D01*
X32749Y34655D01*
X32722Y34588D01*
X32712Y34516D01*
X32722Y34444D01*
X32749Y34377D01*
X32793Y34319D01*
X32851Y34275D01*
X32870Y34267D01*
Y33050D01*
X32870Y33050D01*
X32879Y33004D01*
X32905Y32965D01*
X33039Y32831D01*
X33031Y32812D01*
X33022Y32740D01*
X33031Y32668D01*
X33059Y32601D01*
X33103Y32543D01*
X33161Y32499D01*
X33228Y32471D01*
X33300Y32462D01*
X33372Y32471D01*
X33439Y32499D01*
X33480Y32530D01*
X33530Y32508D01*
Y29660D01*
X33530Y29660D01*
X33534Y29638D01*
X33499Y29594D01*
X33496Y29592D01*
X33472Y29596D01*
X33400Y29586D01*
X33333Y29558D01*
X33276Y29514D01*
X33232Y29457D01*
X33204Y29390D01*
X33194Y29318D01*
X33204Y29246D01*
X33232Y29179D01*
X33276Y29121D01*
X33333Y29077D01*
X33400Y29049D01*
X33472Y29040D01*
X33544Y29049D01*
X33611Y29077D01*
X33669Y29121D01*
X33713Y29179D01*
X33721Y29197D01*
X34408D01*
X34408Y29197D01*
X34454Y29206D01*
X34493Y29232D01*
X34950Y29689D01*
X34996Y29670D01*
Y29055D01*
X34961Y29010D01*
X34931Y28937D01*
X34927Y28910D01*
X35513D01*
X35509Y28937D01*
X35479Y29010D01*
X35437Y29064D01*
Y29676D01*
X35454Y29678D01*
X35526Y29708D01*
X35588Y29756D01*
X35636Y29818D01*
X35666Y29890D01*
X35676Y29968D01*
X35676Y29968D01*
X35723Y29991D01*
X36680Y29035D01*
X36680Y29035D01*
X36719Y29009D01*
X36765Y29000D01*
X37073D01*
X37073Y29000D01*
X37119Y29009D01*
X37158Y29035D01*
X37434Y29311D01*
X37477Y29292D01*
X37482Y29288D01*
X37492Y29218D01*
X37519Y29151D01*
X37563Y29093D01*
X37621Y29049D01*
X37688Y29021D01*
X37760Y29012D01*
X37832Y29021D01*
X37850Y29029D01*
X39344Y27536D01*
X39325Y27490D01*
X38012D01*
Y27218D01*
X37747D01*
X37678Y27204D01*
X37619Y27165D01*
X36445Y25991D01*
X36399Y26010D01*
Y27204D01*
X35267D01*
Y25796D01*
X36185D01*
X36204Y25749D01*
X36085Y25631D01*
X34489D01*
X34420Y25617D01*
X34361Y25578D01*
X34191Y25408D01*
X34152Y25349D01*
X34138Y25280D01*
Y25266D01*
X34053D01*
Y24360D01*
X34585D01*
Y25266D01*
X34633Y25269D01*
X35800D01*
X35848Y25266D01*
X35848Y25219D01*
Y24360D01*
X35848D01*
X35862Y24310D01*
X35859Y24305D01*
X35660Y24105D01*
X35640Y24108D01*
X35568Y24098D01*
X35501Y24070D01*
X35443Y24026D01*
X35399Y23969D01*
X35371Y23902D01*
X35362Y23830D01*
X35371Y23758D01*
X35399Y23691D01*
X35443Y23633D01*
X35501Y23589D01*
X35568Y23561D01*
X35640Y23552D01*
X35712Y23561D01*
X35779Y23589D01*
X35836Y23633D01*
X35880Y23691D01*
X35908Y23758D01*
X35918Y23830D01*
X35915Y23850D01*
X36002Y23936D01*
X36038Y23921D01*
X36110Y23912D01*
X36182Y23921D01*
X36249Y23949D01*
X36307Y23993D01*
X36351Y24051D01*
X36379Y24118D01*
X36388Y24190D01*
X36379Y24262D01*
X36358Y24310D01*
X36380Y24360D01*
X36380D01*
Y25219D01*
X36380Y25266D01*
X36428Y25269D01*
X36480D01*
X36549Y25283D01*
X36608Y25322D01*
X37225Y25939D01*
X38012D01*
Y25049D01*
X38539D01*
Y22232D01*
X38556Y22148D01*
X38604Y22076D01*
X39522Y21158D01*
X39493Y21116D01*
X39478Y21122D01*
X39380Y21135D01*
X39282Y21122D01*
X39191Y21085D01*
X39113Y21025D01*
X39053Y20947D01*
X39016Y20856D01*
X39003Y20758D01*
X39016Y20660D01*
X39053Y20569D01*
X39113Y20491D01*
X39191Y20431D01*
X39282Y20393D01*
X39380Y20381D01*
X39478Y20393D01*
X39569Y20431D01*
X39647Y20491D01*
X39707Y20569D01*
X39744Y20660D01*
X39757Y20758D01*
X39749Y20818D01*
X39795Y20854D01*
X39800Y20852D01*
X39872Y20842D01*
X39944Y20852D01*
X40011Y20879D01*
X40069Y20923D01*
X40113Y20981D01*
X40141Y21048D01*
X40150Y21120D01*
X40141Y21192D01*
X40113Y21259D01*
X40069Y21317D01*
X40011Y21361D01*
X39944Y21388D01*
X39911Y21393D01*
X38980Y22324D01*
Y25049D01*
X39508D01*
Y25939D01*
X39575D01*
X40309Y25206D01*
X40306Y25186D01*
X40316Y25114D01*
X40344Y25047D01*
X40388Y24989D01*
X40445Y24945D01*
X40512Y24917D01*
X40584Y24908D01*
X40633Y24914D01*
X40656Y24867D01*
X40047Y24257D01*
X40028Y24265D01*
X39956Y24274D01*
X39884Y24265D01*
X39817Y24237D01*
X39760Y24193D01*
X39715Y24135D01*
X39699Y24097D01*
X39661Y24081D01*
X39603Y24037D01*
X39559Y23979D01*
X39532Y23912D01*
X39522Y23840D01*
X39532Y23768D01*
X39559Y23701D01*
X39603Y23643D01*
X39661Y23599D01*
X39728Y23572D01*
X39800Y23562D01*
X39872Y23572D01*
X39939Y23599D01*
X39997Y23643D01*
X40041Y23701D01*
X40057Y23739D01*
X40095Y23755D01*
X40153Y23800D01*
X40197Y23857D01*
X40225Y23924D01*
X40234Y23996D01*
X40225Y24068D01*
X40217Y24087D01*
X40985Y24855D01*
X40985Y24855D01*
X41011Y24894D01*
X41020Y24940D01*
Y26020D01*
X41020Y26020D01*
X41011Y26066D01*
X40985Y26105D01*
X40985Y26105D01*
X39905Y27185D01*
Y27246D01*
X39952Y27265D01*
X40595Y26622D01*
X40634Y26596D01*
X40680Y26587D01*
X40680Y26587D01*
X41229D01*
Y26123D01*
X41762D01*
Y26023D01*
X41229D01*
Y25461D01*
X41541D01*
Y25280D01*
X41558Y25196D01*
X41606Y25124D01*
X41989Y24741D01*
X41969Y24695D01*
X41250D01*
Y23575D01*
X41140Y23465D01*
X41120Y23468D01*
X41048Y23458D01*
X40981Y23431D01*
X40923Y23387D01*
X40879Y23329D01*
X40851Y23262D01*
X40842Y23190D01*
X40851Y23118D01*
X40879Y23051D01*
X40923Y22993D01*
X40981Y22949D01*
X41048Y22922D01*
X41102Y22914D01*
X41123Y22865D01*
X40582Y22324D01*
X40534Y22253D01*
X40517Y22168D01*
Y21587D01*
X40435Y21523D01*
X40367Y21435D01*
X40324Y21331D01*
X40310Y21220D01*
Y20808D01*
X40738D01*
Y20758D01*
X40788D01*
Y19873D01*
X40849Y19881D01*
X40952Y19924D01*
X41041Y19992D01*
X41109Y20081D01*
X41152Y20184D01*
X41167Y20295D01*
Y20529D01*
X43570D01*
X43654Y20546D01*
X43726Y20594D01*
X43905Y20773D01*
X43967Y20781D01*
X44040Y20811D01*
X44102Y20858D01*
X44149Y20920D01*
X44179Y20993D01*
X44183Y21020D01*
X43890D01*
Y21070D01*
X43840D01*
Y21363D01*
X43813Y21359D01*
X43740Y21329D01*
X43678Y21282D01*
X43631Y21220D01*
X43601Y21147D01*
X43593Y21085D01*
X43479Y20971D01*
X41167D01*
Y21220D01*
X41152Y21331D01*
X41109Y21435D01*
X41041Y21523D01*
X40959Y21587D01*
Y22077D01*
X41651Y22769D01*
X41704Y22751D01*
X41709Y22713D01*
X41737Y22646D01*
X41781Y22589D01*
X41839Y22545D01*
X41906Y22517D01*
X41978Y22507D01*
X42049Y22517D01*
X42117Y22545D01*
X42174Y22589D01*
X42218Y22646D01*
X42246Y22713D01*
X42256Y22785D01*
X42246Y22857D01*
X42238Y22876D01*
X42309Y22947D01*
X42720D01*
X42720Y22947D01*
X42767Y22956D01*
X42806Y22982D01*
X44563Y24739D01*
X44611Y24722D01*
X44613Y24721D01*
Y19364D01*
X32503D01*
Y20128D01*
Y36496D01*
X32553Y36516D01*
X32875Y36195D01*
D02*
G37*
G36*
X38800Y36310D02*
Y35741D01*
X38762Y35708D01*
X38760Y35708D01*
X38688Y35698D01*
X38621Y35671D01*
X38563Y35627D01*
X38519Y35569D01*
X38491Y35502D01*
X38482Y35430D01*
X38491Y35358D01*
X38519Y35291D01*
X38563Y35233D01*
X38621Y35189D01*
X38688Y35161D01*
X38760Y35152D01*
X38832Y35161D01*
X38879Y35181D01*
X38907Y35139D01*
X38570Y34801D01*
X38544Y34762D01*
X38535Y34716D01*
X38535Y34716D01*
Y34230D01*
X38535Y34230D01*
X38544Y34184D01*
X38570Y34145D01*
X38577Y34138D01*
X38560Y34084D01*
X38559Y34084D01*
X38247Y34396D01*
X38175Y34444D01*
X38091Y34461D01*
X34732D01*
X34550Y34643D01*
X34561Y34693D01*
X34854D01*
Y35084D01*
X35821D01*
X36019Y34887D01*
X36091Y34839D01*
X36175Y34822D01*
X37154D01*
X37239Y34839D01*
X37310Y34887D01*
X38750Y36326D01*
X38800Y36310D01*
D02*
G37*
G36*
X44370Y34160D02*
Y34048D01*
X44323Y34029D01*
X44036Y34316D01*
X44034Y34317D01*
X43997Y34367D01*
X43939Y34411D01*
X43872Y34439D01*
X43800Y34448D01*
X43728Y34439D01*
X43661Y34411D01*
X43603Y34367D01*
X43559Y34309D01*
X43531Y34242D01*
X43522Y34170D01*
X43531Y34098D01*
X43536Y34087D01*
X43494Y34058D01*
X43436Y34116D01*
X43364Y34164D01*
X43280Y34181D01*
X42560D01*
X42476Y34164D01*
X42404Y34116D01*
X42287Y33999D01*
X41835Y34452D01*
X41838Y34467D01*
X41893Y34496D01*
X41928Y34481D01*
X42000Y34472D01*
X42072Y34481D01*
X42139Y34509D01*
X42197Y34553D01*
X42241Y34611D01*
X42248Y34630D01*
X43900D01*
X44370Y34160D01*
D02*
G37*
G36*
X41200Y35200D02*
Y34240D01*
X41200Y34240D01*
X41209Y34194D01*
X41235Y34155D01*
X41580Y33810D01*
X41559Y33760D01*
X41270D01*
Y33760D01*
X41230D01*
Y33760D01*
X40925D01*
Y35062D01*
X40967Y35093D01*
X41011Y35151D01*
X41038Y35218D01*
X41047Y35282D01*
X41091Y35309D01*
X41200Y35200D01*
D02*
G37*
G36*
X40500Y35229D02*
X40501Y35218D01*
X40529Y35151D01*
X40573Y35093D01*
X40631Y35049D01*
X40685Y35027D01*
Y33721D01*
X40638Y33702D01*
X40405Y33935D01*
X40366Y33961D01*
X40320Y33970D01*
X40320Y33970D01*
X39961D01*
X39941Y34020D01*
X40255Y34335D01*
X40281Y34374D01*
X40290Y34420D01*
Y35090D01*
X40447Y35247D01*
X40500Y35229D01*
D02*
G37*
G36*
X34100Y34560D02*
X34117Y34476D01*
X34165Y34404D01*
X34485Y34084D01*
X34556Y34036D01*
X34641Y34019D01*
X35029D01*
X35048Y33973D01*
X34662Y33587D01*
X34637Y33586D01*
X34628Y33588D01*
X34605Y33595D01*
X34585Y33625D01*
X34585Y33625D01*
X33890Y34320D01*
Y34693D01*
X34100D01*
Y34560D01*
D02*
G37*
G36*
X38346Y33673D02*
X38417Y33625D01*
X38502Y33608D01*
X39101D01*
X39191Y33518D01*
Y33315D01*
X39191D01*
X39179Y33270D01*
X38608D01*
X38214Y33665D01*
X38233Y33711D01*
X38308D01*
X38346Y33673D01*
D02*
G37*
G36*
X42746Y33346D02*
X42862D01*
Y32608D01*
X42664Y32410D01*
X42618Y32430D01*
Y32569D01*
X41791D01*
Y32420D01*
X41745Y32401D01*
X41648Y32498D01*
Y33293D01*
X41642Y33323D01*
X41639Y33339D01*
X41624Y33366D01*
X41624D01*
X41624Y33366D01*
Y33695D01*
X41674Y33716D01*
X41880Y33510D01*
Y33428D01*
X41861Y33421D01*
X41803Y33377D01*
X41759Y33319D01*
X41732Y33252D01*
X41722Y33180D01*
X41732Y33108D01*
X41759Y33041D01*
X41803Y32983D01*
X41861Y32939D01*
X41928Y32912D01*
X42000Y32902D01*
X42072Y32912D01*
X42139Y32939D01*
X42197Y32983D01*
X42241Y33041D01*
X42269Y33108D01*
X42278Y33180D01*
X42269Y33252D01*
X42259Y33275D01*
X42292Y33325D01*
X42342D01*
Y33583D01*
X42392D01*
Y33633D01*
X42649D01*
Y33737D01*
X42651Y33739D01*
X42746D01*
Y33346D01*
D02*
G37*
G36*
X38396Y32131D02*
X38371Y32085D01*
X38363Y32087D01*
X38363Y32087D01*
X35412D01*
X35393Y32133D01*
X35815Y32555D01*
X35815Y32555D01*
X35841Y32594D01*
X35850Y32640D01*
X35850Y32640D01*
Y32923D01*
X35900Y32947D01*
X35911Y32939D01*
X35978Y32912D01*
X36050Y32902D01*
X36122Y32912D01*
X36189Y32939D01*
X36247Y32983D01*
X36291Y33041D01*
X36298Y33060D01*
X37468D01*
X38396Y32131D01*
D02*
G37*
G36*
X35444Y33697D02*
X35467Y33651D01*
X35461Y33644D01*
X35452Y33597D01*
X35452Y33597D01*
Y32932D01*
X35157Y32637D01*
X35109Y32660D01*
X35099Y32737D01*
X35069Y32810D01*
X35031Y32860D01*
Y33331D01*
X35401Y33701D01*
X35444Y33697D01*
D02*
G37*
G36*
X40520Y33480D02*
Y33316D01*
X40520Y33316D01*
X40529Y33270D01*
X40555Y33231D01*
X40935Y32851D01*
Y32382D01*
X40885Y32355D01*
X40860Y32369D01*
Y32420D01*
X40860Y32420D01*
X40851Y32466D01*
X40825Y32505D01*
X40825Y32505D01*
X40521Y32810D01*
X40528Y32828D01*
X40538Y32900D01*
X40528Y32972D01*
X40501Y33039D01*
X40457Y33097D01*
X40399Y33141D01*
X40332Y33168D01*
X40260Y33178D01*
X40188Y33168D01*
X40153Y33154D01*
X40098Y33183D01*
X40096Y33195D01*
X40125Y33224D01*
X40151Y33263D01*
X40160Y33309D01*
X40197Y33337D01*
X40276D01*
Y33659D01*
X40322Y33678D01*
X40520Y33480D01*
D02*
G37*
G36*
X38473Y33065D02*
X38473Y33065D01*
X38512Y33039D01*
X38558Y33030D01*
X39520D01*
X39520Y33030D01*
X39566Y33039D01*
X39605Y33065D01*
X39778Y33238D01*
X39822Y33216D01*
X39825Y33214D01*
Y32758D01*
X39825Y32758D01*
X39834Y32712D01*
X39860Y32673D01*
X39918Y32615D01*
X39899Y32569D01*
X39705D01*
Y32256D01*
X38864D01*
X37611Y33509D01*
X37630Y33555D01*
X37982D01*
X38473Y33065D01*
D02*
G37*
G36*
X43494Y33433D02*
X43790D01*
Y33383D01*
X43840D01*
Y33090D01*
X43867Y33094D01*
X43940Y33124D01*
X43959Y33139D01*
X44009Y33114D01*
Y31620D01*
X41540Y29151D01*
X41490Y29171D01*
Y32250D01*
X41537Y32269D01*
X41755Y32051D01*
X41791Y32026D01*
Y31703D01*
X42618D01*
Y32033D01*
X42645Y32051D01*
X43067Y32473D01*
X43094Y32512D01*
X43103Y32558D01*
Y33346D01*
X43218D01*
Y33644D01*
X43265Y33663D01*
X43494Y33433D01*
D02*
G37*
G36*
X39705Y31703D02*
X40532D01*
Y31850D01*
X40582Y31874D01*
X40601Y31859D01*
X40668Y31832D01*
X40740Y31822D01*
X40812Y31832D01*
X40879Y31859D01*
X40890Y31867D01*
X40935Y31845D01*
Y31650D01*
X40484Y31200D01*
X40466Y31207D01*
X40394Y31217D01*
X40322Y31207D01*
X40255Y31179D01*
X40197Y31135D01*
X40153Y31078D01*
X40125Y31011D01*
X40116Y30939D01*
X40125Y30867D01*
X40153Y30800D01*
X40197Y30742D01*
X40255Y30698D01*
X40322Y30670D01*
X40394Y30661D01*
X40466Y30670D01*
X40503Y30686D01*
X40553Y30653D01*
Y30376D01*
X40503Y30361D01*
X40495Y30373D01*
X38899Y31969D01*
X38918Y32015D01*
X39705D01*
Y31703D01*
D02*
G37*
G36*
X34128Y31881D02*
X34168Y31855D01*
X34214Y31846D01*
X34214Y31846D01*
X37916D01*
X37939Y31801D01*
X37929Y31789D01*
X37901Y31722D01*
X37892Y31650D01*
X37901Y31578D01*
X37929Y31511D01*
X37973Y31453D01*
X38031Y31409D01*
X38050Y31402D01*
Y30140D01*
X38003Y30121D01*
X37871Y30254D01*
Y31110D01*
X37854Y31194D01*
X37806Y31266D01*
X37773Y31299D01*
X37768Y31332D01*
X37741Y31399D01*
X37697Y31457D01*
X37639Y31501D01*
X37572Y31528D01*
X37500Y31538D01*
X37428Y31528D01*
X37361Y31501D01*
X37303Y31457D01*
X37259Y31399D01*
X37232Y31332D01*
X37222Y31260D01*
X37232Y31188D01*
X37254Y31133D01*
X37232Y31102D01*
X37219Y31093D01*
X37182Y31109D01*
X37110Y31118D01*
X37038Y31109D01*
X36971Y31081D01*
X36913Y31037D01*
X36869Y30979D01*
X36841Y30912D01*
X36832Y30840D01*
X36841Y30768D01*
X36869Y30701D01*
X36913Y30643D01*
X36971Y30599D01*
X37038Y30571D01*
X37110Y30562D01*
X37182Y30571D01*
X37201Y30579D01*
X37273Y30507D01*
Y29519D01*
X37251Y29503D01*
X37199Y29522D01*
X37171Y29589D01*
X37127Y29647D01*
X37069Y29691D01*
X37002Y29718D01*
X36930Y29728D01*
X36858Y29718D01*
X36839Y29711D01*
X35855Y30695D01*
X35816Y30721D01*
X35770Y30730D01*
X35770Y30730D01*
X34800D01*
X34754Y30721D01*
X34715Y30695D01*
X34635Y30615D01*
X34609Y30576D01*
X34600Y30530D01*
X34600Y30530D01*
Y29915D01*
X34421Y29737D01*
X34374Y29760D01*
X34378Y29790D01*
X34369Y29862D01*
X34341Y29929D01*
X34321Y29955D01*
Y30699D01*
X34652Y31030D01*
X36671Y31039D01*
X36713Y31048D01*
X36754Y31056D01*
X36755Y31056D01*
X36755Y31056D01*
X36791Y31080D01*
X36826Y31104D01*
X36826Y31104D01*
X36827Y31105D01*
X36850Y31140D01*
X36874Y31176D01*
X36874Y31176D01*
X36874Y31176D01*
X36882Y31218D01*
X36886Y31236D01*
X36911Y31268D01*
X36939Y31336D01*
X36948Y31407D01*
X36939Y31479D01*
X36911Y31546D01*
X36867Y31604D01*
X36809Y31648D01*
X36742Y31676D01*
X36670Y31685D01*
X36598Y31676D01*
X36531Y31648D01*
X36473Y31604D01*
X36429Y31546D01*
X36402Y31480D01*
X34559Y31471D01*
X34517Y31462D01*
X34476Y31454D01*
X34475Y31454D01*
X34475Y31454D01*
X34439Y31430D01*
X34404Y31406D01*
X33944Y30946D01*
X33896Y30874D01*
X33879Y30790D01*
Y29955D01*
X33859Y29929D01*
X33832Y29862D01*
X33822Y29790D01*
X33825Y29766D01*
X33779Y29735D01*
X33770Y29740D01*
Y32169D01*
X33820Y32189D01*
X34128Y31881D01*
D02*
G37*
G36*
X41249Y31084D02*
Y29180D01*
X40840Y28770D01*
X40794Y28790D01*
Y30694D01*
X41203Y31103D01*
X41249Y31084D01*
D02*
G37*
G36*
X39221Y28279D02*
X39202Y28232D01*
X39192Y28160D01*
X39201Y28090D01*
X39199Y28086D01*
X39158Y28062D01*
X38021Y29200D01*
X38029Y29218D01*
X38038Y29290D01*
X38029Y29362D01*
X38001Y29429D01*
X38039Y29461D01*
X39221Y28279D01*
D02*
G37*
G36*
X39649Y30510D02*
Y29659D01*
X39630Y29651D01*
X39573Y29607D01*
X39529Y29550D01*
X39501Y29483D01*
X39491Y29411D01*
X39501Y29339D01*
X39529Y29272D01*
X39573Y29214D01*
X39630Y29170D01*
X39697Y29142D01*
X39769Y29133D01*
X39841Y29142D01*
X39908Y29170D01*
X39966Y29214D01*
X40010Y29272D01*
X40038Y29339D01*
X40047Y29411D01*
X40038Y29483D01*
X40010Y29550D01*
X39966Y29607D01*
X39908Y29651D01*
X39890Y29659D01*
Y30560D01*
X39890Y30560D01*
X39888Y30568D01*
X39934Y30593D01*
X40290Y30238D01*
Y27350D01*
X40290Y27350D01*
X40292Y27336D01*
X40246Y27311D01*
X40063Y27495D01*
Y28572D01*
X40054Y28618D01*
X40028Y28657D01*
X40028Y28657D01*
X38680Y30004D01*
Y31072D01*
X38699Y31079D01*
X38757Y31123D01*
X38801Y31181D01*
X38828Y31248D01*
X38830Y31258D01*
X38883Y31276D01*
X39649Y30510D01*
D02*
G37*
G36*
X38012Y26584D02*
X39422D01*
X39452Y26550D01*
X39462Y26478D01*
X39489Y26411D01*
X39533Y26353D01*
X39537Y26351D01*
X39520Y26301D01*
X37331D01*
X37312Y26347D01*
X37822Y26856D01*
X38012D01*
Y26584D01*
D02*
G37*
G36*
X40780Y25970D02*
Y25440D01*
X40735Y25418D01*
X40723Y25426D01*
X40656Y25454D01*
X40584Y25464D01*
X40564Y25461D01*
X39795Y26230D01*
X39799Y26257D01*
X39809Y26285D01*
X39869Y26309D01*
X39927Y26353D01*
X39971Y26411D01*
X39999Y26478D01*
X40008Y26550D01*
X39999Y26622D01*
X39971Y26689D01*
X39927Y26747D01*
X39869Y26791D01*
X39802Y26818D01*
X39730Y26828D01*
X39700Y26854D01*
Y26984D01*
X39747Y27003D01*
X40780Y25970D01*
D02*
G37*
G36*
X44370Y31290D02*
Y24886D01*
X42671Y23187D01*
X42520D01*
X42500Y23237D01*
X42576Y23314D01*
X42624Y23386D01*
X42641Y23470D01*
Y24740D01*
X42624Y24824D01*
X42576Y24896D01*
X42528Y24945D01*
X42544Y24992D01*
X42552Y24993D01*
X42619Y25021D01*
X42677Y25065D01*
X42721Y25123D01*
X42748Y25190D01*
X42758Y25262D01*
X42748Y25333D01*
X42721Y25401D01*
X42677Y25458D01*
X42619Y25502D01*
X42600Y25510D01*
Y26850D01*
X42591Y26896D01*
X42565Y26935D01*
X42215Y27285D01*
X42176Y27311D01*
X42130Y27320D01*
X42130Y27320D01*
X41842D01*
X41796Y27311D01*
X41757Y27285D01*
X41757Y27285D01*
X41535Y27063D01*
X41485Y27084D01*
Y27755D01*
X41476Y27801D01*
X41450Y27840D01*
X41450Y27840D01*
X41171Y28119D01*
X41189Y28172D01*
X41218Y28176D01*
X41285Y28203D01*
X41342Y28248D01*
X41387Y28305D01*
X41414Y28372D01*
X41419Y28405D01*
X44323Y31309D01*
X44370Y31290D01*
D02*
G37*
%LPC*%
G36*
X34369Y43365D02*
X34027D01*
X34034Y43312D01*
X34074Y43216D01*
X34137Y43133D01*
X34220Y43070D01*
X34316Y43030D01*
X34369Y43023D01*
Y43365D01*
D02*
G37*
G36*
X42520Y36563D02*
Y36320D01*
X42763D01*
X42759Y36347D01*
X42729Y36420D01*
X42682Y36482D01*
X42620Y36529D01*
X42547Y36559D01*
X42520Y36563D01*
D02*
G37*
G36*
X43996Y36142D02*
X43091D01*
Y35433D01*
X43996D01*
Y36142D01*
D02*
G37*
G36*
X35513Y28810D02*
X34927D01*
X34931Y28783D01*
X34943Y28754D01*
X34915Y28712D01*
X34034D01*
Y27304D01*
X36399D01*
Y28712D01*
X35525D01*
X35497Y28754D01*
X35509Y28783D01*
X35513Y28810D01*
D02*
G37*
G36*
X35167Y27204D02*
X34034D01*
Y25796D01*
X35167D01*
Y27204D01*
D02*
G37*
G36*
X43940Y21363D02*
Y21120D01*
X44183D01*
X44179Y21147D01*
X44149Y21220D01*
X44102Y21282D01*
X44040Y21329D01*
X43967Y21359D01*
X43940Y21363D01*
D02*
G37*
G36*
X36300Y21642D02*
Y20808D01*
X36678D01*
Y21220D01*
X36664Y21331D01*
X36621Y21435D01*
X36553Y21523D01*
X36464Y21592D01*
X36361Y21634D01*
X36300Y21642D01*
D02*
G37*
G36*
X36200D02*
X36139Y21634D01*
X36036Y21592D01*
X35947Y21523D01*
X35879Y21435D01*
X35836Y21331D01*
X35822Y21220D01*
Y20808D01*
X36200D01*
Y21642D01*
D02*
G37*
G36*
X37608Y21135D02*
X37511Y21122D01*
X37420Y21085D01*
X37342Y21025D01*
X37282Y20947D01*
X37244Y20856D01*
X37231Y20758D01*
X37244Y20660D01*
X37282Y20569D01*
X37342Y20491D01*
X37420Y20431D01*
X37511Y20393D01*
X37608Y20381D01*
X37706Y20393D01*
X37797Y20431D01*
X37875Y20491D01*
X37935Y20569D01*
X37973Y20660D01*
X37985Y20758D01*
X37973Y20856D01*
X37935Y20947D01*
X37875Y21025D01*
X37797Y21085D01*
X37706Y21122D01*
X37608Y21135D01*
D02*
G37*
G36*
X40688Y20708D02*
X40310D01*
Y20311D01*
X36678D01*
Y20708D01*
X36300D01*
Y19869D01*
X40688D01*
Y20708D01*
D02*
G37*
G36*
X36200D02*
X35822D01*
Y20295D01*
X35836Y20184D01*
X35879Y20081D01*
X35947Y19992D01*
X36036Y19924D01*
X36139Y19881D01*
X36200Y19873D01*
Y20708D01*
D02*
G37*
G36*
X42649Y33533D02*
X42442D01*
Y33325D01*
X42649D01*
Y33533D01*
D02*
G37*
G36*
X43740Y33333D02*
X43497D01*
X43501Y33306D01*
X43531Y33234D01*
X43578Y33172D01*
X43640Y33124D01*
X43713Y33094D01*
X43740Y33090D01*
Y33333D01*
D02*
G37*
%LPD*%
D11*
X37067Y40000D02*
D03*
Y39764D02*
D03*
X36073Y39252D02*
D03*
Y39016D02*
D03*
X36585Y39252D02*
D03*
Y39016D02*
D03*
X37067Y39252D02*
D03*
Y39016D02*
D03*
X36073Y40000D02*
D03*
Y39764D02*
D03*
X36585Y40000D02*
D03*
Y39764D02*
D03*
D15*
X36762Y40581D02*
D03*
X36998D02*
D03*
D16*
X37579Y50246D02*
D03*
Y49852D02*
D03*
X38474Y50246D02*
D03*
Y49852D02*
D03*
X39350Y50246D02*
D03*
Y49852D02*
D03*
D23*
X41053Y33563D02*
D03*
X41447D02*
D03*
X33396Y44390D02*
D03*
X33002D02*
D03*
Y45433D02*
D03*
X33396D02*
D03*
X33002Y47411D02*
D03*
X33396D02*
D03*
X33002Y46407D02*
D03*
X33396D02*
D03*
D28*
X39800Y23840D02*
X39956Y23996D01*
X42275Y40555D02*
X42434D01*
X40768Y42221D02*
X42434Y40555D01*
X37972Y37930D02*
X38720D01*
X37400Y40310D02*
X37972D01*
X39785Y27135D02*
Y28389D01*
Y27135D02*
X40900Y26020D01*
X39956Y23996D02*
X40900Y24940D01*
X32950Y35470D02*
X33455Y34965D01*
Y33225D02*
Y34965D01*
Y33225D02*
X33650Y33030D01*
Y29660D02*
Y33030D01*
Y29660D02*
X33835Y29475D01*
X34330D01*
X34720Y29865D01*
Y30530D01*
X34800Y30610D01*
X35770D01*
X36930Y29450D01*
X36792Y43210D02*
X41990D01*
X44220Y40980D01*
X44040Y37990D02*
X44140Y37890D01*
Y37280D02*
Y37890D01*
X33240Y35940D02*
X33612Y35568D01*
Y34168D02*
Y35568D01*
Y34168D02*
X33860Y33920D01*
Y32320D02*
Y33920D01*
Y32320D02*
X34214Y31966D01*
X38363D01*
X39769Y30560D01*
Y29411D02*
Y30560D01*
X39850Y37650D02*
X41514D01*
X41640Y37524D01*
X42028D01*
X38793Y38682D02*
X39837Y37637D01*
X37028Y38682D02*
X38793D01*
X36830Y38880D02*
X37028Y38682D01*
X36830Y38880D02*
Y39142D01*
X36720Y39252D02*
X36830Y39142D01*
X36585Y39252D02*
X36720D01*
X35490D02*
X36073D01*
X40103Y37957D02*
X41870D01*
X39450Y38610D02*
X40103Y37957D01*
X42028Y38390D02*
X42450D01*
Y37280D02*
Y38390D01*
X42360Y37190D02*
X42450Y37280D01*
X41270Y37190D02*
X42360D01*
X39630Y35550D02*
X41270Y37190D01*
X39400Y35550D02*
X39630D01*
X35940Y40133D02*
Y40580D01*
Y40133D02*
X36073Y40000D01*
X42028Y40122D02*
X43728D01*
X44480Y39370D01*
Y37095D02*
Y39370D01*
X44160Y36775D02*
X44480Y37095D01*
X41580Y36775D02*
X44160D01*
X39460Y34655D02*
X41580Y36775D01*
X39460Y34473D02*
Y34655D01*
X42000Y33180D02*
Y33560D01*
X41320Y34240D02*
X42000Y33560D01*
X41320Y34240D02*
Y35250D01*
X40960Y35610D02*
X41320Y35250D01*
X40640Y35610D02*
X40960D01*
X40170Y35140D02*
X40640Y35610D01*
X40170Y34420D02*
Y35140D01*
X39835Y34085D02*
X40170Y34420D01*
X38800Y34085D02*
X39835D01*
X38655Y34230D02*
X38800Y34085D01*
X38655Y34230D02*
Y34716D01*
X39080Y35141D01*
Y37570D01*
X38720Y37930D02*
X39080Y37570D01*
X37972Y37930D02*
Y37992D01*
Y40236D02*
Y40310D01*
X37083Y39000D02*
X37400D01*
X37067Y39016D02*
X37083Y39000D01*
X36580Y38640D02*
X36720Y38500D01*
X37872D01*
X37972Y38400D01*
Y37992D02*
Y38400D01*
X39350Y50758D02*
X39942D01*
X39950Y50750D01*
X33472Y29318D02*
X34408D01*
X34920Y29830D01*
Y30240D01*
X35107Y30427D01*
X35458D01*
X36765Y29120D01*
X37073D01*
X37393Y29440D01*
Y30557D01*
X37110Y30840D02*
X37393Y30557D01*
X38329Y50893D02*
X38465Y50758D01*
X38031Y50893D02*
X38329D01*
X37855Y51070D02*
X38031Y50893D01*
X35730Y51070D02*
X37855D01*
X33830Y49170D02*
X35730Y51070D01*
X35440Y35980D02*
X36230D01*
X36750Y35460D01*
X38760Y35430D02*
X38920Y35590D01*
Y37120D01*
X38800Y37240D02*
X38920Y37120D01*
X36400Y37240D02*
X38800D01*
X35800Y36640D02*
X36400Y37240D01*
X33840Y36640D02*
X35800D01*
X33760Y36720D02*
X33840Y36640D01*
X33760Y36720D02*
Y43520D01*
X34240Y44000D01*
X34760D01*
X34840Y44080D01*
Y45760D01*
X34610Y45990D02*
X34840Y45760D01*
X33252Y45990D02*
X34610D01*
X33002Y46240D02*
X33252Y45990D01*
X33002Y46240D02*
Y46407D01*
X37494Y36474D02*
X37940Y36920D01*
X33496Y36474D02*
X37494D01*
X32780Y37190D02*
X33496Y36474D01*
X32780Y37190D02*
Y45070D01*
X33002Y45292D01*
Y45433D01*
X41053Y33361D02*
Y33563D01*
Y33361D02*
X41370Y33044D01*
Y29130D02*
Y33044D01*
X40831Y28591D02*
X41370Y29130D01*
X40831Y28289D02*
Y28591D01*
Y28289D02*
X41365Y27755D01*
Y27040D02*
Y27755D01*
X41190Y26865D02*
X41365Y27040D01*
X40895Y26865D02*
X41190D01*
X40410Y27350D02*
X40895Y26865D01*
X40410Y27350D02*
Y30288D01*
X37518Y33180D02*
X40410Y30288D01*
X36050Y33180D02*
X37518D01*
X40394Y30939D02*
X41055Y31600D01*
Y32901D01*
X40640Y33316D02*
X41055Y32901D01*
X40640Y33316D02*
Y33530D01*
X40320Y33850D02*
X40640Y33530D01*
X39760Y33850D02*
X40320D01*
X39760Y33390D02*
Y33850D01*
X39520Y33150D02*
X39760Y33390D01*
X38558Y33150D02*
X39520D01*
X38032Y33676D02*
X38558Y33150D01*
X35651Y33676D02*
X38032D01*
X35573Y33597D02*
X35651Y33676D01*
X35573Y32883D02*
Y33597D01*
X35030Y32340D02*
X35573Y32883D01*
X34640Y32340D02*
X35030D01*
X34420Y32560D02*
X34640Y32340D01*
X34420Y32560D02*
Y32840D01*
X34500Y32920D01*
Y33540D01*
X33770Y34270D02*
X34500Y33540D01*
X33770Y34270D02*
Y36110D01*
X33600Y36280D02*
X33770Y36110D01*
X32960Y36280D02*
X33600D01*
X32620Y36620D02*
X32960Y36280D01*
X32620Y36620D02*
Y48270D01*
X33180Y48830D01*
X37320D01*
X37510Y48640D01*
X40740Y32100D02*
Y32420D01*
X40260Y32900D02*
X40740Y32420D01*
X38970Y34560D02*
X41380Y36970D01*
X42470D01*
X44160Y38660D01*
Y38980D01*
X43870Y39270D02*
X44160Y38980D01*
X42610Y39270D02*
X43870D01*
X38560Y29954D02*
Y31320D01*
Y29954D02*
X39942Y28572D01*
Y27445D02*
Y28572D01*
Y27445D02*
X40680Y26708D01*
X41350D01*
X41842Y27200D01*
X42130D01*
X42480Y26850D01*
Y25262D02*
Y26850D01*
X33396Y39439D02*
Y44390D01*
X32990Y33050D02*
X33300Y32740D01*
X32990Y33050D02*
Y34516D01*
X37670Y47900D02*
X37830Y47740D01*
X33222Y47900D02*
X37670D01*
X33002Y47680D02*
X33222Y47900D01*
X33002Y47411D02*
Y47680D01*
X38474Y50246D02*
X38858D01*
X38898Y50286D01*
Y51191D01*
X38661D02*
X38898D01*
X38465Y51388D02*
X38661Y51191D01*
X37579Y50758D02*
X37747Y50590D01*
X37890D01*
X38000Y50480D01*
X38740D01*
Y51033D01*
X38507D02*
X38740D01*
X38430Y51110D02*
X38507Y51033D01*
X38189Y51110D02*
X38430D01*
X38189D02*
Y51599D01*
X38400Y51810D01*
X40000D01*
X40570Y51240D01*
Y47952D02*
Y51240D01*
X39580Y26700D02*
X39730Y26550D01*
X39580Y26700D02*
Y27470D01*
X37760Y29290D02*
X39580Y27470D01*
X38170Y30004D02*
Y31650D01*
Y30004D02*
X39785Y28389D01*
X40900Y24940D02*
Y26020D01*
X37060Y51388D02*
X37579D01*
X37060Y49852D02*
X37579D01*
X38814Y32136D02*
X40118D01*
X37432Y33518D02*
X38814Y32136D01*
X35808Y33518D02*
X37432D01*
X35730Y33440D02*
X35808Y33518D01*
X35730Y32640D02*
Y33440D01*
X35236Y32146D02*
X35730Y32640D01*
X34533Y32146D02*
X35236D01*
X34180Y32499D02*
X34533Y32146D01*
X34180Y32499D02*
Y33170D01*
X36640Y42221D02*
X40768D01*
X36340Y41920D02*
X36640Y42221D01*
X36340Y41525D02*
Y41920D01*
Y41525D02*
X36585Y41280D01*
Y40000D02*
Y41280D01*
X39500Y36990D02*
X40440D01*
X40760Y37310D01*
X40290Y39256D02*
X42028D01*
X40673Y27557D02*
X41050Y27180D01*
X40673Y27557D02*
Y30744D01*
X41212Y31283D01*
Y32966D01*
X40805Y33374D02*
X41212Y32966D01*
X40805Y33374D02*
Y35255D01*
X40770Y35290D02*
X40805Y35255D01*
X40039Y33309D02*
Y33573D01*
X39945Y33215D02*
X40039Y33309D01*
X39945Y32758D02*
Y33215D01*
Y32758D02*
X40118Y32585D01*
Y32136D02*
Y32585D01*
X41840Y32136D02*
X42205D01*
X41527Y32448D02*
X41840Y32136D01*
X41527Y32448D02*
Y33293D01*
X41447Y33373D02*
X41527Y33293D01*
X41447Y33373D02*
Y33563D01*
X40205Y38390D02*
X42028D01*
X39505Y39090D02*
X40205Y38390D01*
X38160Y39090D02*
X39505D01*
X36762Y40581D02*
Y41840D01*
X41978Y22785D02*
X42259Y23067D01*
X42720D01*
X44490Y24836D01*
Y34210D01*
X43950Y34750D02*
X44490Y34210D01*
X42000Y34750D02*
X43950D01*
X42430Y40400D02*
X44370D01*
X42275Y40555D02*
X42430Y40400D01*
X42028Y40555D02*
X42275D01*
X37067Y40000D02*
X37270D01*
X37510Y39760D01*
X39640D01*
X40002Y40122D01*
X42028D01*
X34195Y44640D02*
X34419Y44415D01*
X33082Y44640D02*
X34195D01*
X33002Y44560D02*
X33082Y44640D01*
X33002Y44390D02*
Y44560D01*
X39200Y50246D02*
X39350D01*
X39070Y50376D02*
X39200Y50246D01*
X39070Y50376D02*
Y51107D01*
X39350Y51388D01*
X42982Y32558D02*
Y33583D01*
X42560Y32136D02*
X42982Y32558D01*
X42205Y32136D02*
X42560D01*
X33904Y47415D02*
X34419D01*
X33900Y47411D02*
X33904Y47415D01*
X33396Y47411D02*
X33900D01*
X33908Y46415D02*
X34419D01*
X33900Y46407D02*
X33908Y46415D01*
X33396Y46407D02*
X33900D01*
X33908Y45415D02*
X34419D01*
X33890Y45433D02*
X33908Y45415D01*
X33396Y45433D02*
X33890D01*
D29*
X40340Y39689D02*
X42106D01*
X41587Y35387D02*
X42470Y36270D01*
X41587Y35387D02*
Y35737D01*
X38399Y33932D02*
X38502Y33829D01*
X38091Y34240D02*
X38399Y33932D01*
X40738Y20750D02*
X43570D01*
X40738Y20090D02*
Y20750D01*
X34760Y35305D02*
Y36159D01*
Y35305D02*
X35913D01*
X36250Y20090D02*
X40738D01*
X35217Y28857D02*
Y29808D01*
X43800Y34160D02*
X43880D01*
X34321Y34560D02*
Y35305D01*
Y34560D02*
X34641Y34240D01*
X38091D01*
X38502Y33829D02*
X39193D01*
X39449Y33573D01*
X34880Y43691D02*
X38474Y47285D01*
X34419Y43415D02*
X34880Y43691D01*
X34810Y32660D02*
Y33423D01*
X35319Y33932D01*
X38399D01*
X36670Y31260D02*
Y31407D01*
X34560Y31250D02*
X36670Y31260D01*
X34100Y30790D02*
X34560Y31250D01*
X34100Y29790D02*
Y30790D01*
X39470Y28160D02*
Y28342D01*
X37650Y30162D02*
X39470Y28342D01*
X37650Y30162D02*
Y31110D01*
X37500Y31260D02*
X37650Y31110D01*
X40738Y20750D02*
Y20758D01*
X43570Y20750D02*
X43890Y21070D01*
X38605Y36493D02*
Y36920D01*
X37154Y35043D02*
X38605Y36493D01*
X36175Y35043D02*
X37154D01*
X35913Y35305D02*
X36175Y35043D01*
X42392Y33583D02*
Y33792D01*
X42560Y33960D01*
X43280D01*
X43790Y33450D01*
Y33383D02*
Y33450D01*
X41587Y34388D02*
Y35387D01*
Y34388D02*
X42392Y33583D01*
X41587Y35737D02*
X41730Y35880D01*
X41762Y25280D02*
Y26073D01*
Y25280D02*
X42202Y24840D01*
X42320D01*
X42420Y24740D01*
Y23470D02*
Y24740D01*
X42320Y23370D02*
X42420Y23470D01*
X41940Y23370D02*
X42320D01*
X40738Y22168D02*
X41940Y23370D01*
X40738Y20758D02*
Y22168D01*
X35217Y29808D02*
X35377Y29968D01*
X40340Y39689D02*
Y39730D01*
X35217Y27254D02*
Y28857D01*
X35220Y28860D01*
X42106Y39689D02*
X43460D01*
X34321Y35305D02*
X34760D01*
X41762Y26073D02*
Y26651D01*
X41941Y26830D01*
X43800Y34160D02*
Y34170D01*
X43880Y34160D02*
X44230Y33810D01*
Y31528D02*
Y33810D01*
X41146Y28444D02*
X44230Y31528D01*
X38760Y22232D02*
Y25501D01*
Y22232D02*
X39872Y21120D01*
X36250Y20090D02*
Y20758D01*
X38214Y49852D02*
X38474D01*
X37820Y50246D02*
X38214Y49852D01*
X37579Y50246D02*
X37820D01*
X38474Y49852D02*
X39350D01*
D31*
X36830Y39764D02*
X36960D01*
X35780Y37760D02*
Y38723D01*
X36073Y38515D02*
Y39016D01*
X36340Y39519D02*
X36585Y39764D01*
X35780Y38723D02*
X36073Y39016D01*
X37067Y39764D02*
X37367Y39464D01*
X36998Y40581D02*
X37187Y40770D01*
X36998Y40408D02*
Y40581D01*
X36830Y39894D02*
X36960Y39764D01*
X37067D01*
D32*
X43839Y38823D02*
X43840D01*
X43545D02*
X43839D01*
X36073Y39764D02*
X36314D01*
X35780Y37190D02*
Y37760D01*
X34321Y37274D02*
X35294D01*
X35640Y23830D02*
X36114Y24304D01*
X36160Y25450D02*
X36480D01*
X42106Y38823D02*
X43545D01*
X36114Y24304D02*
Y24813D01*
X36110Y24190D02*
X36114Y24304D01*
X35294Y37274D02*
X35780Y37760D01*
X36595Y37993D02*
X36900D01*
X36073Y38515D02*
X36595Y37993D01*
X36314Y39764D02*
Y40943D01*
X34960Y42297D02*
X36314Y40943D01*
X34960Y42297D02*
Y43180D01*
X36340Y39016D02*
X36585D01*
X36073D02*
X36340D01*
Y39519D01*
X34319Y24813D02*
Y25280D01*
X36480Y25450D02*
X37150Y26120D01*
X39650D01*
X40584Y25186D01*
X41762Y23832D02*
Y24104D01*
X41120Y23190D02*
X41762Y23832D01*
X35290Y37020D02*
X35610D01*
X35780Y37190D01*
X37367Y39464D02*
X39458D01*
X40099Y38823D01*
X42106D01*
X37187Y40770D02*
X39016D01*
X39360Y40426D01*
X37747Y27037D02*
X38760D01*
X36160Y25450D02*
X37747Y27037D01*
X34489Y25450D02*
X36160D01*
X34319Y25280D02*
X34489Y25450D01*
X36830Y40240D02*
X36998Y40408D01*
X36830Y39894D02*
Y40240D01*
X36585Y39764D02*
X36830D01*
X36314D02*
X36585D01*
X37067Y39252D02*
Y39764D01*
D33*
X38474Y47285D02*
Y49852D01*
D35*
X34419Y43415D02*
D03*
Y44415D02*
D03*
Y45415D02*
D03*
Y46415D02*
D03*
Y47415D02*
D03*
D36*
Y48415D02*
D03*
D37*
X39380Y20758D02*
D03*
X37608D02*
D03*
D38*
X40738D02*
D03*
X36250D02*
D03*
D39*
X38170Y31650D02*
D03*
X39956Y23996D02*
D03*
X32950Y35470D02*
D03*
X36930Y29450D02*
D03*
X36792Y43210D02*
D03*
X44220Y40980D02*
D03*
X44040Y37990D02*
D03*
X44140Y37280D02*
D03*
X34810Y32660D02*
D03*
X36670Y31407D02*
D03*
X34100Y29790D02*
D03*
X33240Y35940D02*
D03*
X39769Y29411D02*
D03*
X35490Y39252D02*
D03*
X39450Y38610D02*
D03*
X39400Y35550D02*
D03*
X35940Y40580D02*
D03*
X39460Y34473D02*
D03*
X42000Y33180D02*
D03*
X37400Y40310D02*
D03*
Y39000D02*
D03*
X36580Y38640D02*
D03*
X39950Y50750D02*
D03*
X33472Y29318D02*
D03*
X37110Y30840D02*
D03*
X33830Y49170D02*
D03*
X35440Y35980D02*
D03*
X36750Y35460D02*
D03*
X38760Y35430D02*
D03*
X37940Y36920D02*
D03*
X36050Y33180D02*
D03*
X40394Y30939D02*
D03*
X37510Y48640D02*
D03*
X40740Y32100D02*
D03*
X40260Y32900D02*
D03*
X38970Y34560D02*
D03*
X42610Y39270D02*
D03*
X38560Y31320D02*
D03*
X42480Y25262D02*
D03*
X43839Y38823D02*
D03*
X43545D02*
D03*
X36110Y24190D02*
D03*
X35640Y23830D02*
D03*
X36900Y37993D02*
D03*
X34960Y43180D02*
D03*
X33396Y39439D02*
D03*
X33300Y32740D02*
D03*
X32990Y34516D02*
D03*
X37830Y47740D02*
D03*
X40570Y47952D02*
D03*
X39470Y28160D02*
D03*
X37500Y31260D02*
D03*
X39730Y26550D02*
D03*
X37760Y29290D02*
D03*
X39800Y23840D02*
D03*
X43890Y21070D02*
D03*
X37060Y51388D02*
D03*
Y49852D02*
D03*
X34180Y33170D02*
D03*
X39500Y36990D02*
D03*
X40760Y37310D02*
D03*
X40290Y39256D02*
D03*
X38605Y36920D02*
D03*
X43790Y33383D02*
D03*
X42470Y36270D02*
D03*
X41730Y35880D02*
D03*
X41050Y27180D02*
D03*
X40770Y35290D02*
D03*
X38160Y39090D02*
D03*
X36762Y41840D02*
D03*
X40584Y25186D02*
D03*
X41120Y23190D02*
D03*
X41978Y22785D02*
D03*
X42000Y34750D02*
D03*
X43840Y38823D02*
D03*
X44370Y40400D02*
D03*
X35377Y29968D02*
D03*
X35290Y37020D02*
D03*
X40340Y39730D02*
D03*
X39360Y40426D02*
D03*
X35220Y28860D02*
D03*
X43460Y39689D02*
D03*
X34760Y36159D02*
D03*
X41941Y26830D02*
D03*
X43800Y34170D02*
D03*
X41146Y28444D02*
D03*
X39872Y21120D02*
D03*
D40*
X36114Y24813D02*
D03*
X34319D02*
D03*
D41*
X35217Y27254D02*
D03*
D42*
X41762Y26073D02*
D03*
Y24104D02*
D03*
X34321Y35305D02*
D03*
Y37274D02*
D03*
D43*
X37579Y51388D02*
D03*
Y50758D02*
D03*
X39350Y51388D02*
D03*
Y50758D02*
D03*
X38465Y51388D02*
D03*
Y50758D02*
D03*
X42392Y33583D02*
D03*
X42982D02*
D03*
X39449Y33573D02*
D03*
X40039D02*
D03*
D44*
X42028Y40555D02*
D03*
Y40122D02*
D03*
X42106Y39689D02*
D03*
X42028Y39256D02*
D03*
X42106Y38823D02*
D03*
X42028Y38390D02*
D03*
X41870Y37957D02*
D03*
X42028Y37524D02*
D03*
D45*
X43150Y40866D02*
D03*
X43543Y35787D02*
D03*
D46*
X37972Y40236D02*
D03*
Y37992D02*
D03*
D47*
X42205Y32136D02*
D03*
X40118D02*
D03*
D48*
X38760Y27037D02*
D03*
Y25501D02*
D03*
M02*
