G04 Layer_Color=8388736*
%FSLAX24Y24*%
%MOIN*%
G70*
G01*
G75*
%ADD56R,0.0434X0.1064*%
%ADD57R,0.0177X0.0177*%
%ADD58R,0.0434X0.0710*%
%ADD59R,0.1064X0.0434*%
%ADD60R,0.0710X0.0434*%
%ADD61R,0.0177X0.0177*%
%ADD62R,0.0316X0.0277*%
%ADD63R,0.0592X0.0434*%
%ADD64R,0.0277X0.0907*%
%ADD65R,0.1104X0.0946*%
%ADD66O,0.0198X0.0789*%
%ADD67O,0.0789X0.0198*%
%ADD68R,0.0434X0.0592*%
%ADD69R,0.0277X0.0316*%
%ADD70R,0.0277X0.0198*%
%ADD71O,0.0379X0.0867*%
%ADD72O,0.0867X0.0379*%
%ADD73R,0.0513X0.0316*%
%ADD74C,0.0671*%
%ADD75R,0.0671X0.0671*%
%ADD76C,0.0552*%
%ADD77O,0.0730X0.1655*%
%ADD78C,0.0474*%
D56*
X42933Y37333D02*
D03*
X41713D02*
D03*
X40305Y37756D02*
D03*
X39085D02*
D03*
X37589Y25482D02*
D03*
X36368D02*
D03*
X37589Y27215D02*
D03*
X36368D02*
D03*
X39016Y28012D02*
D03*
X40236D02*
D03*
D57*
X33445Y35207D02*
D03*
Y34970D02*
D03*
X34213Y34990D02*
D03*
Y35226D02*
D03*
D58*
X42933Y29173D02*
D03*
X41713D02*
D03*
X34419Y23041D02*
D03*
X35640D02*
D03*
X36171Y38130D02*
D03*
X37392D02*
D03*
X41713Y27598D02*
D03*
X42933D02*
D03*
D59*
X43071Y32638D02*
D03*
Y31417D02*
D03*
X43051Y34764D02*
D03*
Y33543D02*
D03*
D60*
X34252Y32500D02*
D03*
Y33720D02*
D03*
Y30561D02*
D03*
Y31781D02*
D03*
X34232Y29242D02*
D03*
Y28022D02*
D03*
X34281Y25423D02*
D03*
Y26644D02*
D03*
X34203Y36319D02*
D03*
Y37539D02*
D03*
X42736Y38652D02*
D03*
Y39872D02*
D03*
D61*
X36299Y37008D02*
D03*
X36535D02*
D03*
X36919Y36811D02*
D03*
X37156D02*
D03*
X37165Y37215D02*
D03*
X36929D02*
D03*
X43228Y46083D02*
D03*
X42992D02*
D03*
X43228Y46782D02*
D03*
X42992D02*
D03*
X43228Y47461D02*
D03*
X42992D02*
D03*
X36545Y28465D02*
D03*
X36781D02*
D03*
Y28868D02*
D03*
X36545D02*
D03*
X37303Y28671D02*
D03*
X37539D02*
D03*
D62*
X37825Y23996D02*
D03*
Y23602D02*
D03*
X38622Y23996D02*
D03*
Y23602D02*
D03*
X40344Y26260D02*
D03*
Y25866D02*
D03*
D63*
X34213Y38780D02*
D03*
Y39528D02*
D03*
D64*
X39872Y21781D02*
D03*
X38888D02*
D03*
X38100D02*
D03*
X37116D02*
D03*
D65*
X39114Y39439D02*
D03*
X41083D02*
D03*
D66*
X36063Y36152D02*
D03*
X36260D02*
D03*
X36457D02*
D03*
X36654D02*
D03*
X36850D02*
D03*
X37047D02*
D03*
X37244D02*
D03*
X37441D02*
D03*
X37638D02*
D03*
X37835D02*
D03*
X38031D02*
D03*
X38228D02*
D03*
X38425D02*
D03*
X38622D02*
D03*
X38819D02*
D03*
X39016D02*
D03*
X39213D02*
D03*
X39409D02*
D03*
X39606D02*
D03*
X39803D02*
D03*
X40000D02*
D03*
X40197D02*
D03*
X40394D02*
D03*
X40591D02*
D03*
X40787D02*
D03*
Y30207D02*
D03*
X40591D02*
D03*
X40394D02*
D03*
X40197D02*
D03*
X40000D02*
D03*
X39803D02*
D03*
X39606D02*
D03*
X39409D02*
D03*
X39213D02*
D03*
X39016D02*
D03*
X38819D02*
D03*
X38622D02*
D03*
X38425D02*
D03*
X38228D02*
D03*
X38031D02*
D03*
X37835D02*
D03*
X37638D02*
D03*
X37441D02*
D03*
X37244D02*
D03*
X37047D02*
D03*
X36850D02*
D03*
X36654D02*
D03*
X36457D02*
D03*
X36260D02*
D03*
X36063D02*
D03*
D67*
X41398Y35541D02*
D03*
Y35344D02*
D03*
Y35148D02*
D03*
Y34951D02*
D03*
Y34754D02*
D03*
Y34557D02*
D03*
Y34360D02*
D03*
Y34163D02*
D03*
Y33967D02*
D03*
Y33770D02*
D03*
Y33573D02*
D03*
Y33376D02*
D03*
Y33179D02*
D03*
Y32982D02*
D03*
Y32785D02*
D03*
Y32589D02*
D03*
Y32392D02*
D03*
Y32195D02*
D03*
Y31998D02*
D03*
Y31801D02*
D03*
Y31604D02*
D03*
Y31407D02*
D03*
Y31211D02*
D03*
Y31014D02*
D03*
Y30817D02*
D03*
X35453D02*
D03*
Y31014D02*
D03*
Y31211D02*
D03*
Y31407D02*
D03*
Y31604D02*
D03*
Y31801D02*
D03*
Y31998D02*
D03*
Y32195D02*
D03*
Y32392D02*
D03*
Y32589D02*
D03*
Y32785D02*
D03*
Y32982D02*
D03*
Y33179D02*
D03*
Y33376D02*
D03*
Y33573D02*
D03*
Y33770D02*
D03*
Y33967D02*
D03*
Y34163D02*
D03*
Y34360D02*
D03*
Y34557D02*
D03*
Y34754D02*
D03*
Y34951D02*
D03*
Y35148D02*
D03*
Y35344D02*
D03*
Y35541D02*
D03*
D68*
X42008Y25984D02*
D03*
X42756D02*
D03*
D69*
X41309Y24587D02*
D03*
X41703D02*
D03*
D70*
X42559Y35591D02*
D03*
X42283D02*
D03*
D71*
X36521Y41153D02*
D03*
X40065D02*
D03*
X39474D02*
D03*
X38883D02*
D03*
X38293D02*
D03*
X37702D02*
D03*
X37112D02*
D03*
X40655D02*
D03*
D72*
X41387Y42637D02*
D03*
Y43818D02*
D03*
Y44999D02*
D03*
Y45590D02*
D03*
Y46180D02*
D03*
Y46771D02*
D03*
Y47362D02*
D03*
Y47952D02*
D03*
Y48543D02*
D03*
Y49133D02*
D03*
X35828Y43212D02*
D03*
Y43803D02*
D03*
Y44393D02*
D03*
Y44984D02*
D03*
Y45574D02*
D03*
Y46165D02*
D03*
Y46755D02*
D03*
Y47346D02*
D03*
Y47936D02*
D03*
Y42621D02*
D03*
Y42031D02*
D03*
X41387Y42047D02*
D03*
Y43228D02*
D03*
Y44409D02*
D03*
X35828Y48527D02*
D03*
Y49117D02*
D03*
D73*
X42441Y22037D02*
D03*
Y22411D02*
D03*
Y22785D02*
D03*
X43425D02*
D03*
Y22411D02*
D03*
Y22037D02*
D03*
D74*
X34419Y43415D02*
D03*
Y44415D02*
D03*
Y45415D02*
D03*
Y46415D02*
D03*
Y47415D02*
D03*
D75*
Y48415D02*
D03*
D76*
X39380Y20758D02*
D03*
X37608D02*
D03*
D77*
X40738D02*
D03*
X36250D02*
D03*
D78*
X38170Y31650D02*
D03*
X39956Y23996D02*
D03*
X32950Y35470D02*
D03*
X36930Y29450D02*
D03*
X36792Y43210D02*
D03*
X44220Y40980D02*
D03*
X44040Y37990D02*
D03*
X44140Y37280D02*
D03*
X34810Y32660D02*
D03*
X36670Y31407D02*
D03*
X34100Y29790D02*
D03*
X33240Y35940D02*
D03*
X39769Y29411D02*
D03*
X35490Y39252D02*
D03*
X39450Y38610D02*
D03*
X39400Y35550D02*
D03*
X35940Y40580D02*
D03*
X39460Y34473D02*
D03*
X42000Y33180D02*
D03*
X37400Y40310D02*
D03*
Y39000D02*
D03*
X36580Y38640D02*
D03*
X39950Y50750D02*
D03*
X33472Y29318D02*
D03*
X37110Y30840D02*
D03*
X33830Y49170D02*
D03*
X35440Y35980D02*
D03*
X36750Y35460D02*
D03*
X38760Y35430D02*
D03*
X37940Y36920D02*
D03*
X36050Y33180D02*
D03*
X40394Y30939D02*
D03*
X37510Y48640D02*
D03*
X40740Y32100D02*
D03*
X40260Y32900D02*
D03*
X38970Y34560D02*
D03*
X42610Y39270D02*
D03*
X38560Y31320D02*
D03*
X42480Y25262D02*
D03*
X43839Y38823D02*
D03*
X43545D02*
D03*
X36110Y24190D02*
D03*
X35640Y23830D02*
D03*
X36900Y37993D02*
D03*
X34960Y43180D02*
D03*
X33396Y39439D02*
D03*
X33300Y32740D02*
D03*
X32990Y34516D02*
D03*
X37830Y47740D02*
D03*
X40570Y47952D02*
D03*
X39470Y28160D02*
D03*
X37500Y31260D02*
D03*
X39730Y26550D02*
D03*
X37760Y29290D02*
D03*
X39800Y23840D02*
D03*
X43890Y21070D02*
D03*
X37060Y51388D02*
D03*
Y49852D02*
D03*
X34180Y33170D02*
D03*
X39500Y36990D02*
D03*
X40760Y37310D02*
D03*
X40290Y39256D02*
D03*
X38605Y36920D02*
D03*
X43790Y33383D02*
D03*
X42470Y36270D02*
D03*
X41730Y35880D02*
D03*
X41050Y27180D02*
D03*
X40770Y35290D02*
D03*
X38160Y39090D02*
D03*
X36762Y41840D02*
D03*
X40584Y25186D02*
D03*
X41120Y23190D02*
D03*
X41978Y22785D02*
D03*
X42000Y34750D02*
D03*
X43840Y38823D02*
D03*
X44370Y40400D02*
D03*
X35377Y29968D02*
D03*
X35290Y37020D02*
D03*
X40340Y39730D02*
D03*
X39360Y40426D02*
D03*
X35220Y28860D02*
D03*
X43460Y39689D02*
D03*
X34760Y36159D02*
D03*
X41941Y26830D02*
D03*
X43800Y34170D02*
D03*
X41146Y28444D02*
D03*
X39872Y21120D02*
D03*
M02*
