G04 Layer_Color=128*
%FSLAX24Y24*%
%MOIN*%
G70*
G01*
G75*
%ADD28C,0.0079*%
%ADD49C,0.0098*%
%ADD51C,0.0050*%
%ADD52C,0.0060*%
%ADD54C,0.0100*%
D28*
X36535Y25541D02*
Y25738D01*
X33898Y25541D02*
X36535D01*
X33898D02*
Y25738D01*
X41073Y23848D02*
Y26329D01*
X42451Y23848D02*
Y26329D01*
X42431D02*
X42451D01*
X41073D02*
X41093D01*
X41073Y24774D02*
X42451D01*
X42431Y23848D02*
X42451D01*
X41073D02*
X41093D01*
X34919Y42915D02*
Y48915D01*
X33919Y42915D02*
Y48915D01*
X34919D01*
X33919Y42915D02*
X34919D01*
X39980Y31447D02*
Y31604D01*
X42343Y31447D02*
Y31604D01*
Y32667D02*
Y32825D01*
X39980Y32667D02*
Y32825D01*
Y31447D02*
X42343D01*
X39980Y32825D02*
X42343D01*
X35010Y35049D02*
Y37530D01*
X33632Y35049D02*
Y37530D01*
Y35049D02*
X33652D01*
X34990D02*
X35010D01*
X33632Y36604D02*
X35010D01*
X33632Y37530D02*
X33652D01*
X34990D02*
X35010D01*
X39419Y32214D02*
Y32149D01*
X39288Y32018D01*
X39157Y32149D01*
Y32214D01*
X39288Y32018D02*
Y31821D01*
X39026D02*
X38895D01*
X38960D01*
Y32214D01*
X39026Y32149D01*
X33642Y28661D02*
Y28333D01*
X33576Y28268D01*
X33445D01*
X33379Y28333D01*
Y28661D01*
X33248Y28268D02*
X33117D01*
X33183D01*
Y28661D01*
X33248Y28596D01*
X36791Y50000D02*
Y50394D01*
X36595D01*
X36529Y50328D01*
Y50197D01*
X36595Y50131D01*
X36791D01*
X36660D02*
X36529Y50000D01*
X36398D02*
X36267D01*
X36332D01*
Y50394D01*
X36398Y50328D01*
X35807Y50000D02*
X36070D01*
X35807Y50262D01*
Y50328D01*
X35873Y50394D01*
X36004D01*
X36070Y50328D01*
X37549Y38287D02*
Y38681D01*
X37352D01*
X37287Y38615D01*
Y38484D01*
X37352Y38419D01*
X37549D01*
X37418D02*
X37287Y38287D01*
X36959D02*
Y38681D01*
X37156Y38484D01*
X36893D01*
X34547Y39783D02*
Y40177D01*
X34350D01*
X34285Y40111D01*
Y39980D01*
X34350Y39915D01*
X34547D01*
X34416D02*
X34285Y39783D01*
X34154Y40177D02*
X33891D01*
Y40111D01*
X34154Y39849D01*
Y39783D01*
X37539Y40876D02*
Y41270D01*
X37343D01*
X37277Y41204D01*
Y41073D01*
X37343Y41007D01*
X37539D01*
X37408D02*
X37277Y40876D01*
X36883Y41270D02*
X37015Y41204D01*
X37146Y41073D01*
Y40942D01*
X37080Y40876D01*
X36949D01*
X36883Y40942D01*
Y41007D01*
X36949Y41073D01*
X37146D01*
X35797Y38071D02*
Y38464D01*
X35600D01*
X35535Y38399D01*
Y38268D01*
X35600Y38202D01*
X35797D01*
X35666D02*
X35535Y38071D01*
X35141Y38464D02*
X35404D01*
Y38268D01*
X35272Y38333D01*
X35207D01*
X35141Y38268D01*
Y38136D01*
X35207Y38071D01*
X35338D01*
X35404Y38136D01*
X36594Y37726D02*
Y38120D01*
X36398D01*
X36332Y38054D01*
Y37923D01*
X36398Y37858D01*
X36594D01*
X36463D02*
X36332Y37726D01*
X36201Y38054D02*
X36135Y38120D01*
X36004D01*
X35939Y38054D01*
Y37989D01*
X36004Y37923D01*
X36070D01*
X36004D01*
X35939Y37858D01*
Y37792D01*
X36004Y37726D01*
X36135D01*
X36201Y37792D01*
X35413Y40187D02*
Y40581D01*
X35217D01*
X35151Y40515D01*
Y40384D01*
X35217Y40318D01*
X35413D01*
X35282D02*
X35151Y40187D01*
X34757D02*
X35020D01*
X34757Y40449D01*
Y40515D01*
X34823Y40581D01*
X34954D01*
X35020Y40515D01*
X36160Y40900D02*
Y41294D01*
X35963D01*
X35898Y41228D01*
Y41097D01*
X35963Y41031D01*
X36160D01*
X36029D02*
X35898Y40900D01*
X35766D02*
X35635D01*
X35701D01*
Y41294D01*
X35766Y41228D01*
X39000Y48970D02*
Y49364D01*
X38803D01*
X38738Y49298D01*
Y49167D01*
X38803Y49101D01*
X39000D01*
X38869D02*
X38738Y48970D01*
X38606Y49298D02*
X38541Y49364D01*
X38410D01*
X38344Y49298D01*
Y49232D01*
X38410Y49167D01*
X38475D01*
X38410D01*
X38344Y49101D01*
Y49036D01*
X38410Y48970D01*
X38541D01*
X38606Y49036D01*
X38213Y49298D02*
X38147Y49364D01*
X38016D01*
X37950Y49298D01*
Y49036D01*
X38016Y48970D01*
X38147D01*
X38213Y49036D01*
Y49298D01*
X40945Y50030D02*
Y50423D01*
X40748D01*
X40683Y50358D01*
Y50226D01*
X40748Y50161D01*
X40945D01*
X40814D02*
X40683Y50030D01*
X40289D02*
X40551D01*
X40289Y50292D01*
Y50358D01*
X40355Y50423D01*
X40486D01*
X40551Y50358D01*
X39895Y50423D02*
X40027Y50358D01*
X40158Y50226D01*
Y50095D01*
X40092Y50030D01*
X39961D01*
X39895Y50095D01*
Y50161D01*
X39961Y50226D01*
X40158D01*
X41829Y34094D02*
Y34488D01*
X41632D01*
X41567Y34422D01*
Y34291D01*
X41632Y34226D01*
X41829D01*
X41698D02*
X41567Y34094D01*
X41173D02*
X41435D01*
X41173Y34357D01*
Y34422D01*
X41239Y34488D01*
X41370D01*
X41435Y34422D01*
X41042Y34160D02*
X40976Y34094D01*
X40845D01*
X40779Y34160D01*
Y34422D01*
X40845Y34488D01*
X40976D01*
X41042Y34422D01*
Y34357D01*
X40976Y34291D01*
X40779D01*
X33533Y44715D02*
Y45108D01*
X33337D01*
X33271Y45043D01*
Y44911D01*
X33337Y44846D01*
X33533D01*
X33402D02*
X33271Y44715D01*
X33140D02*
X33009D01*
X33074D01*
Y45108D01*
X33140Y45043D01*
X32812Y44780D02*
X32746Y44715D01*
X32615D01*
X32550Y44780D01*
Y45043D01*
X32615Y45108D01*
X32746D01*
X32812Y45043D01*
Y44977D01*
X32746Y44911D01*
X32550D01*
X33543Y45728D02*
Y46122D01*
X33347D01*
X33281Y46056D01*
Y45925D01*
X33347Y45860D01*
X33543D01*
X33412D02*
X33281Y45728D01*
X33150D02*
X33019D01*
X33084D01*
Y46122D01*
X33150Y46056D01*
X32822D02*
X32756Y46122D01*
X32625D01*
X32559Y46056D01*
Y45991D01*
X32625Y45925D01*
X32559Y45860D01*
Y45794D01*
X32625Y45728D01*
X32756D01*
X32822Y45794D01*
Y45860D01*
X32756Y45925D01*
X32822Y45991D01*
Y46056D01*
X32756Y45925D02*
X32625D01*
X33465Y47785D02*
Y48179D01*
X33268D01*
X33202Y48113D01*
Y47982D01*
X33268Y47917D01*
X33465D01*
X33333D02*
X33202Y47785D01*
X33071D02*
X32940D01*
X33005D01*
Y48179D01*
X33071Y48113D01*
X32481Y48179D02*
X32612Y48113D01*
X32743Y47982D01*
Y47851D01*
X32677Y47785D01*
X32546D01*
X32481Y47851D01*
Y47917D01*
X32546Y47982D01*
X32743D01*
X34880Y49230D02*
Y49624D01*
X34683D01*
X34618Y49558D01*
Y49427D01*
X34683Y49361D01*
X34880D01*
X34224Y49230D02*
X34486D01*
X34224Y49492D01*
Y49558D01*
X34290Y49624D01*
X34421D01*
X34486Y49558D01*
X38937Y52293D02*
Y51900D01*
X38675D01*
X38281Y52228D02*
X38347Y52293D01*
X38478D01*
X38543Y52228D01*
Y52162D01*
X38478Y52096D01*
X38347D01*
X38281Y52031D01*
Y51965D01*
X38347Y51900D01*
X38478D01*
X38543Y51965D01*
X38150Y51900D02*
X38019D01*
X38084D01*
Y52293D01*
X38150Y52228D01*
X36486Y51624D02*
Y51230D01*
X36224D01*
X35830Y51558D02*
X35896Y51624D01*
X36027D01*
X36093Y51558D01*
Y51296D01*
X36027Y51230D01*
X35896D01*
X35830Y51296D01*
X35699Y51230D02*
X35568D01*
X35633D01*
Y51624D01*
X35699Y51558D01*
X41152Y51673D02*
Y51280D01*
X40889D01*
X40758Y51673D02*
Y51280D01*
X40496D01*
X40364D02*
Y51542D01*
X40233Y51673D01*
X40102Y51542D01*
Y51280D01*
Y51476D01*
X40364D01*
X39971Y51280D02*
X39840D01*
X39905D01*
Y51673D01*
X39971Y51608D01*
X43618Y41854D02*
X43749D01*
X43683D01*
Y41526D01*
X43749Y41460D01*
X43814D01*
X43880Y41526D01*
X43486Y41460D02*
X43355D01*
X43421D01*
Y41854D01*
X43486Y41788D01*
X43005Y27149D02*
X43071Y27214D01*
X43202D01*
X43268Y27149D01*
Y26886D01*
X43202Y26821D01*
X43071D01*
X43005Y26886D01*
X42677Y26821D02*
Y27214D01*
X42874Y27018D01*
X42612D01*
X34324Y38445D02*
X34390Y38510D01*
X34521D01*
X34587Y38445D01*
Y38182D01*
X34521Y38117D01*
X34390D01*
X34324Y38182D01*
X34193Y38117D02*
X34062D01*
X34127D01*
Y38510D01*
X34193Y38445D01*
X38783Y33261D02*
X38848Y33327D01*
X38980D01*
X39045Y33261D01*
Y32999D01*
X38980Y32933D01*
X38848D01*
X38783Y32999D01*
X38389Y32933D02*
X38652D01*
X38389Y33195D01*
Y33261D01*
X38455Y33327D01*
X38586D01*
X38652Y33261D01*
X38061Y32933D02*
Y33327D01*
X38258Y33130D01*
X37996D01*
X42927Y34462D02*
X42992Y34527D01*
X43123D01*
X43189Y34462D01*
Y34199D01*
X43123Y34134D01*
X42992D01*
X42927Y34199D01*
X42533Y34134D02*
X42795D01*
X42533Y34396D01*
Y34462D01*
X42599Y34527D01*
X42730D01*
X42795Y34462D01*
X42402D02*
X42336Y34527D01*
X42205D01*
X42139Y34462D01*
Y34396D01*
X42205Y34331D01*
X42271D01*
X42205D01*
X42139Y34265D01*
Y34199D01*
X42205Y34134D01*
X42336D01*
X42402Y34199D01*
X33553Y46703D02*
Y47096D01*
X33356D01*
X33291Y47031D01*
Y46900D01*
X33356Y46834D01*
X33553D01*
X33422D02*
X33291Y46703D01*
X33160D02*
X33028D01*
X33094D01*
Y47096D01*
X33160Y47031D01*
X32832Y47096D02*
X32569D01*
Y47031D01*
X32832Y46768D01*
Y46703D01*
D49*
X36567Y24813D02*
G03*
X36567Y24813I-49J0D01*
G01*
X42500Y23593D02*
G03*
X42500Y23593I-49J0D01*
G01*
X42359Y31182D02*
G03*
X42359Y31182I-49J0D01*
G01*
X33681Y37785D02*
G03*
X33681Y37785I-49J0D01*
G01*
D51*
X37329Y50473D02*
X37829D01*
X37329Y51623D02*
X37429Y51723D01*
X37729D02*
X37829Y51623D01*
X37429Y51723D02*
X37729D01*
X37829Y51223D02*
Y51623D01*
Y50473D02*
Y50923D01*
X37329Y51223D02*
Y51623D01*
Y50473D02*
Y50923D01*
X39100Y50473D02*
X39600D01*
X39100Y51623D02*
X39200Y51723D01*
X39500D02*
X39600Y51623D01*
X39200Y51723D02*
X39500D01*
X39600Y51223D02*
Y51623D01*
Y50473D02*
Y50923D01*
X39100Y51223D02*
Y51623D01*
Y50473D02*
Y50923D01*
X38215Y50473D02*
X38715D01*
X38215Y51623D02*
X38315Y51723D01*
X38615D02*
X38715Y51623D01*
X38315Y51723D02*
X38615D01*
X38715Y51223D02*
Y51623D01*
Y50473D02*
Y50923D01*
X38215Y51223D02*
Y51623D01*
Y50473D02*
Y50923D01*
X42156Y33346D02*
Y33819D01*
Y33346D02*
X42549D01*
X42156Y33819D02*
X42549D01*
X42825Y33346D02*
X43218D01*
Y33819D01*
X42825D02*
X43218D01*
X39213Y33337D02*
Y33809D01*
Y33337D02*
X39606D01*
X39213Y33809D02*
X39606D01*
X39882Y33337D02*
X40276D01*
Y33809D01*
X39882D02*
X40276D01*
D52*
X40876Y33366D02*
X41053D01*
X40876D02*
Y33760D01*
X41053D01*
X41447D02*
X41624D01*
Y33366D02*
Y33760D01*
X41447Y33366D02*
X41624D01*
X37382Y50246D02*
Y50423D01*
X37776D01*
Y50246D02*
Y50423D01*
Y49675D02*
Y49852D01*
X37382Y49675D02*
X37776D01*
X37382D02*
Y49852D01*
X38278Y50246D02*
Y50423D01*
X38671D01*
Y50246D02*
Y50423D01*
Y49675D02*
Y49852D01*
X38278Y49675D02*
X38671D01*
X38278D02*
Y49852D01*
X33396Y44587D02*
X33573D01*
Y44193D02*
Y44587D01*
X33396Y44193D02*
X33573D01*
X32825D02*
X33002D01*
X32825D02*
Y44587D01*
X33002D01*
X32825Y45236D02*
X33002D01*
X32825D02*
Y45630D01*
X33002D01*
X33396D02*
X33573D01*
Y45236D02*
Y45630D01*
X33396Y45236D02*
X33573D01*
X32825Y47215D02*
X33002D01*
X32825D02*
Y47608D01*
X33002D01*
X33396D02*
X33573D01*
Y47215D02*
Y47608D01*
X33396Y47215D02*
X33573D01*
X37205Y39980D02*
Y40138D01*
X36929D02*
X37205D01*
X36929Y39980D02*
Y40138D01*
Y39626D02*
Y39783D01*
Y39626D02*
X37205D01*
Y39783D01*
X36211Y39232D02*
Y39390D01*
X35935D02*
X36211D01*
X35935Y39232D02*
Y39390D01*
Y38878D02*
Y39035D01*
Y38878D02*
X36211D01*
Y39035D01*
X36722Y39232D02*
Y39390D01*
X36447D02*
X36722D01*
X36447Y39232D02*
Y39390D01*
Y38878D02*
Y39035D01*
Y38878D02*
X36722D01*
Y39035D01*
X37205Y39232D02*
Y39390D01*
X36929D02*
X37205D01*
X36929Y39232D02*
Y39390D01*
Y38878D02*
Y39035D01*
Y38878D02*
X37205D01*
Y39035D01*
X36211Y39980D02*
Y40138D01*
X35935D02*
X36211D01*
X35935Y39980D02*
Y40138D01*
Y39626D02*
Y39783D01*
Y39626D02*
X36211D01*
Y39783D01*
X36722Y39980D02*
Y40138D01*
X36447D02*
X36722D01*
X36447Y39980D02*
Y40138D01*
Y39626D02*
Y39783D01*
Y39626D02*
X36722D01*
Y39783D01*
X36624Y40718D02*
X36781D01*
X36624Y40443D02*
Y40718D01*
Y40443D02*
X36781D01*
X36978D02*
X37136D01*
Y40718D01*
X36978D02*
X37136D01*
X39154Y50246D02*
Y50423D01*
X39547D01*
Y50246D02*
Y50423D01*
Y49675D02*
Y49852D01*
X39154Y49675D02*
X39547D01*
X39154D02*
Y49852D01*
X32825Y46211D02*
X33002D01*
X32825D02*
Y46604D01*
X33002D01*
X33396D02*
X33573D01*
Y46211D02*
Y46604D01*
X33396Y46211D02*
X33573D01*
D54*
X43130Y36752D02*
X43366D01*
Y36106D02*
Y36752D01*
X43130D02*
Y40453D01*
X37815Y41043D02*
X43406D01*
X37815Y35531D02*
Y41043D01*
Y35531D02*
X43799D01*
Y36106D01*
X43366D02*
X43799D01*
X43130Y40453D02*
X43406Y40728D01*
Y41043D01*
X39560Y24999D02*
Y27539D01*
X37950Y24999D02*
X39560D01*
X37950D02*
Y27539D01*
X39560D01*
X38665Y28297D02*
X38927D01*
Y28100D01*
X38796D01*
X38927D01*
Y27904D01*
X38534D02*
X38402D01*
X38468D01*
Y28297D01*
X38534Y28232D01*
M02*
