M48
;Layer_Color=9474304
;FILE_FORMAT=2:4
INCH,LZ
;TYPE=PLATED
T1F00S00C0.0197
T2F00S00C0.0354
T3F00S00C0.0394
;TYPE=NON_PLATED
T4F00S00C0.0591
%
T01
X03564Y02383
X03611Y02419
X039956Y023996
X0398Y02384
X04112Y02319
X041978Y022785
X04248Y025262
X040584Y025186
X03973Y02655
X03947Y02816
X039769Y029411
X03776Y02929
X03693Y02945
X03711Y03084
X035377Y029968
X03522Y02886
X0341Y02979
X033472Y029318
X040394Y030939
X041146Y028444
X04105Y02718
X041941Y02683
X04389Y02107
X039872Y02112
X03856Y03132
X03817Y03165
X0375Y03126
X03667Y031407
X03605Y03318
X03481Y03266
X03418Y03317
X0333Y03274
X03299Y034516
X03295Y03547
X03324Y03594
X03476Y036159
X03544Y03598
X03529Y03702
X03549Y039252
X03658Y03864
X0369Y037993
X0374Y039
X03816Y03909
X03945Y03861
X04029Y039256
X04034Y03973
X03936Y040426
X0374Y04031
X03594Y04058
X036762Y04184
X036792Y04321
X03496Y04318
X033396Y039439
X03794Y03692
X038605
X0395Y03699
X0394Y03555
X03876Y03543
X03897Y03456
X03946Y034473
X04077Y03529
X04173Y03588
X04247Y03627
X042Y03475
Y03318
X04379Y033383
X0438Y03417
X04414Y03728
X04404Y03799
X04384Y038823
X043839
X043545
X04346Y039689
X04261Y03927
X04437Y0404
X04422Y04098
X04076Y03731
X04026Y0329
X04074Y0321
X03675Y03546
X03783Y04774
X03751Y04864
X03706Y049852
Y051388
X03995Y05075
X04057Y047952
X03383Y04917
T02
X034419Y043415
Y044415
Y045415
Y046415
Y047415
Y048415
T03
X03625Y020758
X040738
T04
X037608Y020758
X03938
M30
